<svg xmlns="http://www.w3.org/2000/svg" xml:space="preserve" width="210mm" height="297mm" version="1.0" style="shape-rendering:geometricPrecision; text-rendering:geometricPrecision; image-rendering:optimizeQuality; fill-rule:evenodd; clip-rule:evenodd"
viewBox="0 0 4387 6198"
 xmlns:xlink="http://www.w3.org/1999/xlink">
 <defs>
  <style type="text/css">
   <![CDATA[
    .str0 {stroke:black; stroke-width:4; stroke-miterlimit:2}
    .str1 {stroke:black; stroke-width:2; stroke-miterlimit:2}
    .str3 {stroke:red; stroke-width:2; stroke-miterlimit:2}
    .str2 {stroke:red; stroke-width:2; stroke-miterlimit:2}
    .fil2 {fill:none}
    .fil1 {fill:red}
    .fil0 {fill:white}
   ]]>
  </style>
 </defs>
 <g id="3d">
  <rect class="fil0 str0" x="1.84" y="1.84" width="4379.92" height="6194.47"/>
  <rect class="fil1 str1" x="1704.28" y="747.89" width="176.58" height="2180.85"/>
  <rect class="fil1 str1" x="2229.34" y="1.84" width="269.58" height="5045.96"/>
  <rect class="fil1 str1" x="3399.52" y="1.84" width="176.58" height="2697.34"/>
  <rect class="fil1 str1" x="891.98" y="1304.13" width="88.29" height="4202.78"/>
  <rect class="fil1 str1" x="2975.71" y="2716.83" width="88.29" height="3479.47"/>
  <rect class="fil1 str1" x="3576.11" y="1750.01" width="88.29" height="4446.29"/>
  <rect class="fil1 str1" x="523.37" y="350.56" width="88.29" height="3479.47"/>
  <rect class="fil1 str1" x="4002.14" y="509.49" width="88.29" height="3479.47"/>
  <rect class="fil1 str1" x="152.53" y="196.04" width="203.08" height="5204.9"/>
  <path class="fil2 str2" d="M1.84 196.04l4379.92 0"/>
  <path class="fil2 str3" d="M1.84 323.59c92.81,-3.8 185.61,-7.6 278.42,-11.4 92.13,6.22 184.27,12.44 276.4,18.66 94.62,-5.6 190.07,-9.19 284.66,-14.71 91.3,-2.63 182.59,-5.26 273.89,-7.9 179.1,-1.07 364.48,27.77 544.55,29.79 181,2.95 367.59,-36.2 548.85,-33.38 184.4,5.58 359.2,2.34 543.11,9.33 178.45,0.48 361.83,8.92 539.88,10.05 180.43,0 365.52,-3.82 556.03,-7.54 177.64,0 355.28,0 532.92,0"/>
  <path class="fil2 str3" d="M1.84 451.14c94.37,-7.6 188.74,-15.19 283.1,-22.79 93.02,12.44 186.04,24.88 279.06,37.33 98,-11.2 197.63,-18.39 295.57,-29.43 91.34,-5.26 182.69,-10.53 274.03,-15.79 175.7,-2.13 363.98,55.55 541.6,59.58 179.49,5.9 370.19,-72.4 550.21,-66.76 186.31,11.15 353.4,4.67 538.73,18.66 174.4,0.96 358.67,17.85 532.27,20.1 178.36,0 366.04,-7.63 564.57,-15.07 172.79,0 345.57,0 518.36,0"/>
  <path class="fil2 str3" d="M1.84 578.69c95.93,-11.4 191.85,-22.79 287.78,-34.19 93.9,18.66 187.81,37.33 281.71,55.99 101.37,-16.8 205.2,-27.58 306.48,-44.15 91.39,-7.9 182.78,-15.79 274.17,-23.69 172.31,-3.2 363.47,83.33 538.66,89.37 177.99,8.85 372.79,-108.6 551.58,-100.14 188.21,16.73 347.6,7.01 534.35,28 170.35,1.43 355.51,26.77 524.66,30.15 176.29,0 366.57,-11.45 573.11,-22.61 167.93,0 335.86,0 503.79,0"/>
  <path class="fil2 str3" d="M1.84 706.23c97.49,-15.19 194.97,-30.39 292.46,-45.58 94.79,24.88 189.58,49.77 284.37,74.65 104.74,-22.4 212.77,-36.77 317.39,-58.86 91.44,-10.53 182.88,-21.06 274.32,-31.59 168.91,-4.26 362.96,111.1 535.71,119.16 176.49,11.8 375.39,-144.8 552.94,-133.52 190.11,22.3 341.8,9.35 529.97,37.33 166.3,1.91 352.36,35.69 517.05,40.2 174.22,0 367.09,-15.27 581.65,-30.15 163.08,0 326.15,0 489.22,0"/>
  <path class="fil2 str3" d="M1.84 833.79c99.05,-18.99 198.09,-37.99 297.14,-56.98 95.67,31.11 191.35,62.21 287.02,93.32 108.12,-28 220.34,-45.96 328.3,-73.58 91.49,-13.16 182.97,-26.32 274.46,-39.48 165.51,-5.33 362.45,138.88 532.77,148.95 174.99,14.75 377.99,-181 554.3,-166.9 192.02,27.88 336,11.68 525.59,46.66 162.24,2.39 349.2,44.61 509.44,50.25 172.15,0 367.62,-19.08 590.19,-37.69 158.22,0 316.44,0 474.66,0"/>
  <path class="fil2 str3" d="M1.84 961.33c100.6,-22.79 201.21,-45.58 301.82,-68.37 96.56,37.33 193.12,74.65 289.68,111.98 111.49,-33.6 227.91,-55.15 339.21,-88.3 91.53,-15.79 183.07,-31.58 274.6,-47.38 162.11,-6.39 361.94,166.66 529.82,178.74 173.49,17.7 380.58,-217.2 555.66,-200.28 193.92,33.45 330.2,14.02 521.21,55.99 158.19,2.87 346.03,53.54 501.82,60.3 170.08,0 368.14,-22.9 598.73,-45.22 153.36,0 306.73,0 460.09,0"/>
  <path class="fil2 str3" d="M1.84 1088.88c102.16,-26.59 204.33,-53.18 306.49,-79.77 97.44,43.55 194.89,87.1 292.33,130.65 114.86,-39.19 235.48,-64.34 350.12,-103.01 91.58,-18.42 183.16,-36.85 274.74,-55.27 158.72,-7.46 361.44,194.43 526.88,208.53 171.99,20.65 383.19,-253.4 557.03,-233.65 195.83,39.02 324.41,16.36 516.83,65.32 154.14,3.34 342.88,62.46 494.22,70.35 168.01,0 368.66,-26.71 607.27,-52.76 148.51,0 297.02,0 445.52,0"/>
  <path class="fil2 str3" d="M1.84 1216.43c103.72,-30.39 207.45,-60.78 311.17,-91.17 98.33,49.77 196.66,99.54 294.99,149.31 118.24,-44.79 243.05,-73.53 361.03,-117.72 91.63,-21.06 183.26,-42.11 274.89,-63.17 155.32,-8.52 360.93,222.21 523.93,238.32 170.49,23.6 385.78,-289.59 558.39,-267.03 197.73,44.6 318.61,18.69 512.45,74.65 150.09,3.82 339.72,71.38 486.6,80.4 165.94,0 369.19,-30.53 615.82,-60.3 143.65,0 287.31,0 430.96,0"/>
  <path class="fil2 str3" d="M1.84 1343.98c105.29,-34.19 210.57,-68.37 315.85,-102.56 99.21,55.99 198.43,111.98 297.64,167.97 121.61,-50.39 250.62,-82.73 371.94,-132.44 91.68,-23.69 183.35,-47.38 275.03,-71.07 151.92,-9.59 360.42,249.98 520.99,268.11 168.99,26.55 388.38,-325.79 559.75,-300.41 199.63,50.17 312.81,21.03 508.07,83.99 146.04,4.3 336.56,80.3 478.99,90.45 163.87,0 369.71,-34.35 624.36,-67.84 138.8,0 277.6,0 416.39,0"/>
  <path class="fil2 str3" d="M1.84 1471.53c106.84,-37.98 213.69,-75.97 320.53,-113.96 100.1,62.21 200.2,124.42 300.3,186.64 124.99,-55.99 258.18,-91.92 382.85,-147.16 91.72,-26.32 183.45,-52.64 275.17,-78.96 148.53,-10.65 359.91,277.76 518.04,297.9 167.48,29.5 390.98,-361.99 561.11,-333.79 201.54,55.75 307.01,23.37 503.69,93.32 141.99,4.78 333.4,89.23 471.38,100.5 161.8,0 370.24,-38.16 632.89,-75.37 133.94,0 267.88,0 401.82,0"/>
  <path class="fil2 str3" d="M1.84 1599.08c108.4,-41.78 216.81,-83.57 325.21,-125.35 100.98,68.43 201.97,136.87 302.95,205.3 128.36,-61.59 265.75,-101.11 393.76,-161.87 91.77,-28.95 183.54,-57.9 275.32,-86.86 145.13,-11.72 359.4,305.54 515.1,327.69 165.98,32.45 393.58,-398.19 562.48,-367.17 203.44,61.33 301.21,25.71 499.31,102.65 137.94,5.25 330.24,98.15 463.77,110.55 159.73,0 370.76,-41.98 641.44,-82.91 129.09,0 258.17,0 387.26,0"/>
  <path class="fil2 str3" d="M1.84 1726.62c109.96,-45.58 219.93,-91.17 329.89,-136.75 101.87,74.65 203.74,149.31 305.61,223.97 131.73,-67.19 273.32,-110.31 404.67,-176.59 91.82,-31.59 183.64,-63.17 275.46,-94.75 141.73,-12.78 358.9,333.31 512.15,357.48 164.48,35.4 396.18,-434.39 563.84,-400.55 205.35,66.9 295.42,28.04 494.92,111.98 133.89,5.73 327.08,107.07 456.16,120.6 157.66,0 371.29,-45.8 649.98,-90.45 124.23,0 248.46,0 372.69,0"/>
  <path class="fil2 str3" d="M1.84 1854.17c111.52,-49.38 223.04,-98.76 334.57,-148.14 102.75,80.88 205.51,161.75 308.26,242.63 135.11,-72.79 280.89,-119.5 415.58,-191.3 91.87,-34.22 183.73,-68.44 275.6,-102.65 138.33,-13.85 358.39,361.09 509.21,387.27 162.98,38.35 398.78,-470.59 565.2,-433.93 207.25,72.48 289.62,30.38 490.55,121.32 129.84,6.21 323.92,116 448.55,130.64 155.59,0 371.81,-49.61 658.52,-97.98 119.38,0 238.75,0 358.13,0"/>
  <path class="fil2 str3" d="M1.84 1981.72c113.08,-53.18 226.16,-106.36 339.25,-159.54 103.64,87.1 207.28,174.19 310.92,261.29 138.48,-78.39 288.46,-128.69 426.49,-206.02 91.91,-36.85 183.83,-73.7 275.74,-110.55 134.94,-14.91 357.88,388.86 506.26,417.06 161.48,41.3 401.37,-506.79 566.56,-467.31 209.16,78.05 283.82,32.72 486.17,130.65 125.79,6.69 320.76,124.92 440.94,140.7 153.52,0 372.34,-53.43 667.06,-105.52 114.52,0 229.04,0 343.56,0"/>
  <path class="fil2 str3" d="M1.84 2109.27c114.64,-56.98 229.28,-113.96 343.92,-170.93 104.52,93.32 209.05,186.64 313.57,279.95 141.85,-83.99 296.03,-137.88 437.4,-220.73 91.96,-39.48 183.92,-78.96 275.89,-118.44 131.54,-15.98 357.37,416.64 503.32,446.85 159.98,44.25 403.98,-542.99 567.92,-500.69 211.06,83.63 278.02,35.05 481.78,139.98 121.74,7.16 317.6,133.84 433.33,150.75 151.45,0 372.86,-57.24 675.6,-113.06 109.66,0 219.33,0 328.99,0"/>
  <path class="fil2 str3" d="M1.84 2236.82c116.2,-60.78 232.4,-121.56 348.6,-182.33 105.41,99.54 210.82,199.08 316.23,298.62 145.23,-89.59 303.59,-147.07 448.31,-235.45 92.01,-42.11 184.02,-84.23 276.03,-126.34 128.14,-17.04 356.86,444.41 500.37,476.64 158.48,47.2 406.57,-579.19 569.29,-534.07 212.96,89.2 272.22,37.39 477.4,149.31 117.69,7.64 314.44,142.76 425.72,160.79 149.38,0 373.39,-61.06 684.14,-120.6 104.81,0 209.62,0 314.43,0"/>
  <path class="fil2 str3" d="M1.84 2364.37c117.76,-64.57 235.52,-129.15 353.28,-193.73 106.29,105.76 212.59,211.52 318.88,317.28 148.6,-95.19 311.16,-156.26 459.22,-250.17 92.06,-44.74 184.11,-89.49 276.17,-134.23 124.74,-18.11 356.35,472.19 497.43,506.43 156.98,50.15 409.17,-615.39 570.65,-567.45 214.87,94.78 266.42,39.73 473.02,158.64 113.64,8.12 311.28,151.69 418.11,170.84 147.31,0 373.91,-64.88 692.68,-128.13 99.95,0 199.91,0 299.86,0"/>
  <path class="fil2 str3" d="M1.84 2491.92c119.32,-68.37 238.64,-136.75 357.96,-205.12 107.18,111.98 214.36,223.96 321.54,335.95 151.98,-100.79 318.73,-165.45 470.13,-264.88 92.1,-47.38 184.21,-94.75 276.31,-142.13 121.35,-19.18 355.85,499.97 494.49,536.22 155.47,53.1 411.77,-651.59 572.01,-600.83 216.77,100.35 260.63,42.06 468.64,167.97 109.59,8.6 308.12,160.61 410.5,180.89 145.24,0 374.44,-68.69 701.22,-135.67 95.1,0 190.2,0 285.29,0"/>
  <path class="fil2 str3" d="M1.84 2619.46c120.88,-72.17 241.76,-144.35 362.64,-216.52 108.06,118.2 216.13,236.41 324.19,354.61 155.35,-106.39 326.3,-174.65 481.04,-279.6 92.15,-50.01 184.31,-100.02 276.46,-150.03 117.95,-20.24 355.34,527.74 491.54,566.01 153.98,56.05 414.37,-687.79 573.37,-634.21 218.68,105.93 254.83,44.4 464.26,177.31 105.54,9.07 304.96,169.53 402.89,190.94 143.17,0 374.96,-72.51 709.76,-143.21 90.24,0 180.49,0 270.73,0"/>
  <path class="fil2 str3" d="M1.84 2747.01c122.44,-75.97 244.88,-151.94 367.32,-227.91 108.95,124.42 217.9,248.85 326.85,373.27 158.72,-111.98 333.87,-183.84 491.95,-294.31 92.2,-52.64 184.4,-105.28 276.6,-157.92 114.55,-21.31 354.83,555.52 488.59,595.8 152.47,59 416.97,-723.98 574.74,-667.59 220.58,111.5 249.03,46.74 459.88,186.64 101.49,9.55 301.8,178.46 395.28,200.99 141.1,0 375.48,-76.32 718.3,-150.74 85.39,0 170.78,0 256.16,0"/>
  <path class="fil2 str3" d="M1.84 2874.57c124,-79.77 248,-159.54 372,-239.31 109.83,130.65 219.67,261.29 329.5,391.94 162.09,-117.58 341.44,-193.03 502.86,-309.03 92.25,-55.27 184.49,-110.55 276.74,-165.82 111.16,-22.37 354.33,583.3 485.65,625.6 150.97,61.95 419.57,-760.19 576.1,-700.97 222.49,117.07 243.23,49.07 455.5,195.97 97.44,10.03 298.64,187.38 387.67,211.04 139.04,0 376.01,-80.14 726.84,-158.28 80.53,0 161.06,0 241.59,0"/>
  <path class="fil2 str3" d="M1.84 3002.12c125.56,-83.57 251.12,-167.14 376.67,-250.7 110.72,136.87 221.44,273.73 332.16,410.6 165.47,-123.18 349.01,-202.22 513.77,-323.74 92.3,-57.9 184.59,-115.81 276.88,-173.72 107.76,-23.43 353.82,611.07 482.71,655.38 149.47,64.9 422.16,-796.39 577.46,-734.35 224.39,122.65 237.44,51.41 451.12,205.3 93.39,10.51 295.48,196.3 380.05,221.09 136.97,0 376.53,-83.96 735.38,-165.82 75.68,0 151.35,0 227.03,0"/>
  <path class="fil2 str3" d="M1.84 3129.66c127.12,-87.37 254.24,-174.73 381.35,-262.1 111.6,143.09 223.21,286.18 334.81,429.27 168.84,-128.78 356.58,-211.42 524.68,-338.46 92.34,-60.54 184.68,-121.08 277.03,-181.61 104.36,-24.5 353.31,638.85 479.76,685.17 147.97,67.85 424.76,-832.59 578.82,-767.73 226.29,128.22 231.64,53.75 446.74,214.63 89.34,10.99 292.32,205.22 372.44,231.14 134.9,0 377.06,-87.77 743.92,-173.36 70.82,0 141.64,0 212.46,0"/>
  <path class="fil2 str3" d="M1.84 3257.21c128.68,-91.17 257.35,-182.33 386.03,-273.5 112.49,149.31 224.98,298.62 337.47,447.93 172.22,-134.38 364.14,-220.61 535.59,-353.17 92.39,-63.17 184.78,-126.34 277.17,-189.51 100.97,-25.57 352.8,666.62 476.82,714.96 146.47,70.8 427.36,-868.79 580.18,-801.1 228.2,133.8 225.84,56.08 442.36,223.96 85.29,11.46 289.16,214.15 364.83,241.19 132.83,0 377.58,-91.59 752.46,-180.89 65.97,0 131.93,0 197.9,0"/>
  <path class="fil2 str3" d="M1.84 3384.76c130.24,-94.96 260.47,-189.93 390.71,-284.89 113.37,155.53 226.75,311.06 340.12,466.59 175.59,-139.98 371.71,-229.8 546.5,-367.89 92.44,-65.8 184.87,-131.6 277.31,-197.4 97.57,-26.63 352.29,694.4 473.87,744.75 144.97,73.75 429.96,-904.98 581.55,-834.48 230.1,139.37 220.04,58.42 437.98,233.3 81.24,11.94 286,223.07 357.22,251.24 130.76,0 378.11,-95.41 761,-188.43 61.11,0 122.22,0 183.33,0"/>
  <path class="fil2 str3" d="M1.84 3512.31c131.8,-98.76 263.59,-197.52 395.39,-296.29 114.26,161.75 228.52,323.5 342.78,485.26 178.96,-145.58 379.28,-238.99 557.41,-382.61 92.49,-68.43 184.97,-136.87 277.46,-205.3 94.17,-27.7 351.78,722.17 470.93,774.54 143.47,76.7 432.56,-941.18 582.91,-867.86 232.01,144.95 214.24,60.76 433.6,242.63 77.18,12.42 282.84,231.99 349.61,261.29 128.69,0 378.63,-99.22 769.54,-195.97 56.25,0 112.51,0 168.76,0"/>
  <path class="fil2 str3" d="M1.84 3639.86c133.36,-102.56 266.71,-205.12 400.07,-307.68 115.14,167.97 230.29,335.95 345.43,503.92 182.34,-151.18 386.85,-248.18 568.32,-397.32 92.53,-71.07 185.07,-142.13 277.6,-213.2 90.77,-28.76 351.28,749.95 467.98,804.34 141.97,79.65 435.16,-977.38 584.27,-901.24 233.91,150.52 208.44,63.09 429.22,251.96 73.14,12.9 279.69,240.91 342,271.34 126.62,0 379.16,-103.04 778.09,-203.51 51.4,0 102.8,0 154.2,0"/>
  <path class="fil2 str3" d="M1.84 3767.4c134.91,-106.36 269.83,-212.72 404.74,-319.08 116.03,174.19 232.06,348.39 348.09,522.58 185.71,-156.78 394.42,-257.37 579.23,-412.04 92.58,-73.7 185.16,-147.39 277.74,-221.09 87.38,-29.83 350.77,777.73 465.04,834.13 140.46,82.59 437.76,-1013.58 585.63,-934.62 235.82,156.1 202.64,65.43 424.84,261.29 69.08,13.37 276.53,249.84 334.39,281.39 124.55,0 379.68,-106.85 786.63,-211.04 46.54,0 93.09,0 139.63,0"/>
  <path class="fil2 str3" d="M1.84 3894.95c136.47,-110.16 272.95,-220.32 409.42,-330.47 116.91,180.42 233.83,360.83 350.74,541.25 189.09,-162.38 401.99,-266.57 590.14,-426.75 92.63,-76.33 185.25,-152.66 277.88,-228.99 83.98,-30.89 350.26,805.5 462.09,863.92 138.96,85.55 440.36,-1049.78 586.99,-968 237.72,161.67 196.85,67.77 420.46,270.62 65.03,13.85 273.37,258.76 326.78,291.44 122.48,0 380.2,-110.67 795.17,-218.58 41.69,0 83.38,0 125.06,0"/>
  <path class="fil2 str3" d="M1.84 4022.5c138.03,-113.96 276.07,-227.91 414.1,-341.87 117.8,186.64 235.6,373.27 353.4,559.91 192.46,-167.98 409.55,-275.76 601.05,-441.47 92.68,-78.96 185.35,-157.93 278.03,-236.89 80.58,-31.96 349.75,833.28 459.15,893.7 137.46,88.5 442.95,-1085.98 588.36,-1001.38 239.62,167.25 191.05,70.1 416.08,279.96 60.99,14.33 270.21,267.68 319.17,301.49 120.41,0 380.73,-114.48 803.71,-226.12 36.83,0 73.67,0 110.5,0"/>
  <path class="fil2 str3" d="M1.84 4150.05c139.59,-117.76 279.19,-235.51 418.78,-353.27 118.69,192.86 237.37,385.72 356.05,578.58 195.83,-173.58 417.12,-284.95 611.96,-456.18 92.72,-81.6 185.45,-163.19 278.17,-244.78 77.18,-33.02 349.24,861.05 456.2,923.49 135.96,91.44 445.55,-1122.18 589.72,-1034.76 241.53,172.83 185.25,72.44 411.7,289.29 56.93,14.81 267.05,276.61 311.56,311.54 118.34,0 381.26,-118.3 812.25,-233.65 31.98,0 63.96,0 95.93,0"/>
  <path class="fil2 str3" d="M1.84 4277.6c141.15,-121.55 282.31,-243.11 423.46,-364.66 119.57,199.08 239.14,398.16 358.71,597.24 199.21,-179.17 424.69,-294.14 622.88,-470.9 92.77,-84.23 185.54,-168.45 278.31,-252.68 73.79,-34.09 348.73,888.83 453.26,953.28 134.46,94.4 448.15,-1158.38 591.08,-1068.14 243.43,178.4 179.45,74.78 407.32,298.62 52.88,15.28 263.89,285.53 303.95,321.59 116.27,0 381.78,-122.12 820.79,-241.19 27.12,0 54.24,0 81.36,0"/>
  <path class="fil2 str3" d="M1.84 4405.15c142.71,-125.35 285.43,-250.7 428.14,-376.06 120.46,205.3 240.91,410.6 361.36,615.9 202.58,-184.77 432.26,-303.34 633.79,-485.62 92.82,-86.86 185.64,-173.72 278.45,-260.57 70.39,-35.15 348.22,916.61 450.31,983.08 132.96,97.34 450.75,-1194.58 592.44,-1101.52 245.34,183.98 173.66,77.11 402.93,307.95 48.83,15.76 260.73,294.45 296.34,331.64 114.2,0 382.3,-125.93 829.33,-248.73 22.27,0 44.53,0 66.8,0"/>
  <path class="fil2 str3" d="M1.84 4532.69c144.27,-129.15 288.55,-258.3 432.82,-387.45 121.34,211.52 242.68,423.04 364.02,634.57 205.95,-190.37 439.83,-312.53 644.7,-500.33 92.86,-89.49 185.73,-178.98 278.6,-268.47 66.99,-36.22 347.72,944.38 447.37,1012.87 131.46,100.29 453.35,-1230.78 593.81,-1134.9 247.24,189.55 167.86,79.45 398.55,317.28 44.78,16.24 257.57,303.38 288.72,341.69 112.13,0 382.83,-129.75 837.87,-256.27 17.41,0 34.82,0 52.23,0"/>
  <path class="fil2 str3" d="M1.84 4660.25c145.83,-132.95 291.66,-265.9 437.5,-398.85 122.22,217.74 244.45,435.49 366.67,653.23 209.32,-195.97 447.4,-321.72 655.6,-515.05 92.91,-92.12 185.83,-184.25 278.74,-276.37 63.6,-37.28 347.21,972.16 444.42,1042.66 129.96,103.25 455.95,-1266.98 595.17,-1168.28 249.14,195.12 162.06,81.79 394.17,326.62 40.73,16.72 254.41,312.3 281.12,351.74 110.06,0 383.35,-133.57 846.41,-263.8 12.56,0 25.11,0 37.67,0"/>
  <path class="fil2 str3" d="M1.84 4787.79c147.39,-136.75 294.78,-273.5 442.17,-410.24 123.11,223.96 246.22,447.93 369.33,671.9 212.7,-201.57 454.97,-330.91 666.52,-529.76 92.96,-94.75 185.92,-189.51 278.88,-284.26 60.2,-38.35 346.7,999.93 441.48,1072.45 128.45,106.19 458.54,-1303.18 596.53,-1201.66 251.05,200.7 156.26,84.12 389.79,335.95 36.68,17.19 251.25,321.22 273.5,361.79 107.99,0 383.88,-137.38 854.95,-271.34 7.7,0 15.4,0 23.1,0"/>
  <path class="fil2 str3" d="M1.84 4915.35c148.95,-140.55 297.9,-281.09 446.85,-421.64 124,230.19 247.99,460.37 371.98,690.56 216.07,-207.17 462.54,-340.1 677.43,-544.48 93.01,-97.39 186.02,-194.77 279.02,-292.16 56.8,-39.42 346.2,1027.71 438.53,1102.24 126.95,109.15 461.14,-1339.38 597.89,-1235.04 252.95,206.27 150.46,86.46 385.41,345.28 32.63,17.67 248.09,330.14 265.89,371.84 105.92,0 384.4,-141.2 863.49,-278.88 2.84,0 5.69,0 8.53,0"/>
  <path class="fil2 str3" d="M1.84 5042.89c150.51,-144.35 301.02,-288.69 451.53,-433.03 124.88,236.41 249.76,472.81 374.64,709.22 219.45,-212.77 470.11,-349.29 688.34,-559.19 93.06,-100.02 186.11,-200.04 279.17,-300.05 53.4,-40.48 345.69,1055.48 435.59,1132.02 125.45,112.09 463.74,-1375.58 599.25,-1268.42 254.86,211.85 144.66,88.8 381.03,354.61 28.58,18.15 244.93,339.07 258.28,381.89 103.85,0 384.93,-145.02 872.03,-286.41 -2.01,0 -4.02,0 -6.03,0"/>
  <path class="fil2 str3" d="M1.84 5170.44c152.07,-148.15 304.14,-296.29 456.21,-444.43 125.76,242.63 251.53,485.26 377.3,727.89 222.82,-218.37 477.67,-358.49 699.24,-573.91 93.1,-102.65 186.21,-205.3 279.31,-307.95 50.01,-41.54 345.18,1083.26 432.64,1161.82 123.95,115.04 466.34,-1411.77 600.62,-1301.8 256.76,217.42 138.87,91.13 376.65,363.94 24.53,18.63 241.77,347.99 250.67,391.94 101.78,0 385.45,-148.83 880.57,-293.95 -6.87,0 -13.73,0 -20.6,0"/>
  <path class="fil2 str3" d="M1.84 5297.99c153.63,-151.94 307.26,-303.88 460.89,-455.83 126.65,248.85 253.3,497.7 379.95,746.55 226.19,-223.97 485.24,-367.68 710.16,-588.63 93.15,-105.28 186.3,-210.57 279.45,-315.85 46.61,-42.61 344.67,1111.04 429.7,1191.61 122.45,118 468.94,-1447.97 601.98,-1335.17 258.67,223 133.07,93.47 372.27,373.28 20.48,19.1 238.61,356.91 243.06,401.99 99.71,0 385.98,-152.65 889.11,-301.49 -11.72,0 -23.44,0 -35.17,0"/>
  <path class="fil2 str2" d="M1.84 5425.54l465.57 -467.22 382.61 765.21c229.57,-229.57 492.81,-376.87 721.07,-603.34l279.6 -323.74c43.21,-43.68 344.16,1138.81 426.75,1221.4 120.95,120.94 471.54,-1484.17 603.34,-1368.55 260.57,228.57 127.27,95.81 367.89,382.61 16.43,19.58 235.45,365.83 235.45,412.04 97.64,0 386.5,-156.46 897.65,-309.03l-49.73 0"/>
 </g>
</svg>
