<svg xmlns="http://www.w3.org/2000/svg" xml:space="preserve" width="210mm" height="297mm" version="1.0" style="shape-rendering:geometricPrecision; text-rendering:geometricPrecision; image-rendering:optimizeQuality; fill-rule:evenodd; clip-rule:evenodd"
viewBox="0 0 1966.17 2780.73"
 xmlns:xlink="http://www.w3.org/1999/xlink">
 <defs>
  <style type="text/css">
   <![CDATA[
    .str1 {stroke:#B3B3B3;stroke-width:1;stroke-miterlimit:2}
    .str0 {stroke:black;stroke-width:1;stroke-miterlimit:2}
    .fil2 {fill:none}
    .fil0 {fill:black}
    .fil1 {fill:#999999}
    .fil3 {fill:white}
   ]]>
  </style>
 </defs>
 <g id="Layer_x0020_1">
   <rect class="fil0" width="1966.17" height="2780.73"/>
   <path class="fil1 str0" d="M183.9 939.46l700.29 0 -138.72 646.55 -447.61 0 -113.95 -646.55z"/>
   <path class="fil2 str1" d="M225.63 1176.11c-51.1,99.27 -60.06,157.68 -24.2,157.68 62.93,0 243.1,-176.55 402.42,-394.32 0,0 0,0 0,0"/>
   <path class="fil3" d="M840.37 1756.95l0 -4.95c-8.15,-34.54 -0.61,-86.43 -2.48,-123.86 -4.39,-88.09 -2.48,-176.76 -2.48,-265.06 0,-29.46 6.63,-366.63 -12.39,-366.63l-2.48 -4.95c-10.77,0 -22.7,-19.45 -29.73,-2.48 -5.64,13.63 -22.29,86.61 -22.29,96.61 0,51.48 6.42,287.23 -7.43,309.65 -19.08,30.87 -18.13,-6.26 -24.77,-22.29 -0.5,-1.21 0,-302.92 0,-326.99 0,-47.45 -17.34,-65.6 -17.34,-71.84 -14.98,0 -12.39,65.24 -12.39,76.79 0,17.41 -4.18,66.28 -2.48,76.79 6.71,41.34 2.48,86.72 2.48,128.82 0,48.66 -24.77,88.28 -24.77,34.68 0,-93.48 -4.95,-184.19 -4.95,-277.45 0,-25.37 -17.81,-49.95 -22.3,-22.3 -5.55,34.2 -4.95,38.55 -4.95,71.84 0,7.48 5.3,151.7 -12.39,109 -0.3,-0.73 -3.54,-195.62 -2.48,-198.18 7.28,-17.59 -1.76,-11.97 -7.43,-34.68l256.86 0c34.86,34.87 -15.43,348.22 -15.43,400.07 0,41.48 -9.91,66.57 -9.91,109 0,69.78 -4.95,126.39 -4.95,195.7 0,24.39 -2.52,177.91 2.48,205.61l7.43 27.25c17.55,64.34 12.59,115.31 27.25,183.31 0.98,4.56 12.39,61.82 9.91,61.93 47.14,23.57 23.2,29.73 89.18,29.73 279.44,0 559.69,7.43 837.3,7.43 46.24,0 92.48,0 138.72,0l0 621.23 -1966.17 0 0 -611.32 835.41 -19.82 4.95 -392.64z"/>
  </g>
</svg>
