<svg xmlns="http://www.w3.org/2000/svg" xml:space="preserve" width="51.3591mm" height="51.3591mm" version="1.0" style="shape-rendering:geometricPrecision; text-rendering:geometricPrecision; image-rendering:optimizeQuality; fill-rule:evenodd; clip-rule:evenodd"
viewBox="0 0 1055.64 1055.64"
 xmlns:xlink="http://www.w3.org/1999/xlink">
 <defs>
  <style type="text/css">
   <![CDATA[
    .str0 {stroke:black;stroke-width:3.63;stroke-miterlimit:2.61313}
    .str1 {stroke:black;stroke-width:1.57;stroke-miterlimit:2.61313}
    .fil5 {fill:none}
    .fil2 {fill:lime}
    .fil1 {fill:#33CC33}
    .fil4 {fill:#33CC99}
    .fil9 {fill:#9999FF}
    .fil6 {fill:#99FF99}
    .fil7 {fill:#CCCCFF}
    .fil3 {fill:#CCFFCC}
    .fil8 {fill:#FF99CC}
    .fil0 {fill:#FFCC99}
   ]]>
  </style>
 </defs>
 <g id="Layer_x0020_1">
  <rect class="fil0" x="-0" y="-0" width="1055.64" height="1055.64"/>
  <path class="fil1 str0" d="M590.37 400.14c-1.14,-6.85 -7.5,-10.18 -10.42,-25.38 -1.17,-6.1 -3.63,-6.35 -3.63,-16.32 0,-15.56 -8.01,-9.97 -19.04,-9.97 -14.83,0 -9.19,2.8 -19.94,7.25 -22.03,9.13 -7.9,6.93 -27.19,-2.72 -9.78,-4.89 -11.69,-6.34 -22.66,-6.34 0,0.85 -10.88,6.76 -10.88,11.78 -11.42,0 -21.04,-7.7 -31.72,0 -5.54,3.99 -17.18,2.56 -21.75,13.6 -0.89,2.14 -5.13,3.73 -6.35,13.59 -2.29,18.61 -2.88,20.35 0,38.07 0.97,5.98 7.36,33.18 10.88,37.16 7.56,8.57 19.87,4.67 11.78,20.85 -1.86,0 -3.98,6.34 -15.41,6.34 -20.65,0 -42.76,-1.49 -53.48,19.94 -6.14,12.27 -4.53,16.48 -4.53,29.91 0,5.52 0.05,19.03 7.25,19.03 5.14,0 6.65,4.69 13.6,1.81 1.71,-0.71 0.01,1.65 4.53,-0.91 0.05,-0.03 12.71,-3.63 13.59,-3.63 4.41,0 9.97,1.18 9.97,6.35 0,1.36 -8.16,15.66 -8.16,28.1 0,15.66 -0.64,22.46 10.88,36.26 5.72,6.86 25.01,8.6 32.63,5.44 0.06,-0.02 12.54,-7.12 12.69,-7.25 11.12,-9.64 28.72,-6.34 42.6,-6.34 3.2,0 5.37,11.24 6.34,13.59 0.05,0.12 9.06,11.95 9.06,15.41 0,24.31 6.1,19.03 30.82,19.03 8.56,0 18.12,-10.86 21.75,-18.13 5.08,-10.16 4.63,-8.47 6.35,-19.04 0.47,-2.88 3.7,-6.65 4.53,-11.78 1.51,-9.29 18.09,-2.72 23.57,-2.72 7.05,0 16.22,5.82 22.66,0.91 8.04,-6.14 9.73,-3.16 16.32,-14.5 4.9,-8.45 1.45,-5.29 3.63,-14.5 0.35,-1.5 5.44,-13.37 5.44,-15.41 0.29,0 5.44,-4.07 5.44,-6.35 0,-13.58 0.66,-18.3 -2.72,-32.63 -1.6,-6.79 0.13,-8.94 -5.44,-14.5 -3.76,-3.75 -3.66,-4.26 -9.06,-8.16 -20.74,-14.95 -11.13,-33.86 -18.13,-50.76 -2.63,-6.35 -0.5,-11.06 -3.63,-15.41 -2.75,-3.81 -6.32,-19.04 -10.88,-19.04 -0.97,-1.94 -8.27,-5.63 -12.69,-16.31 -2.16,-5.2 -8.01,-2.75 -8.61,-6.35z"/>
  <path class="fil2 str0" d="M489.97 187.69c8.14,19.41 9.06,24 9.06,44.94 0,7.64 -10.88,45.66 -10.88,53.58 0,8.51 -7.25,31.21 -7.25,43.21 0,29.12 -12.12,110.51 45.32,79.5 9.52,-5.14 17.64,-2.4 21.75,-19.01 0.29,-1.16 8.55,-16.94 9.06,-19.01 3.06,-12.37 9.06,-11.12 9.06,0 0,11.89 -0.42,44.54 -7.25,53.58 -6.01,7.95 -7.97,27.43 9.06,32.84 15.55,4.94 0.9,3.22 21.75,0 32.37,-5.01 6.89,21.51 16.32,43.21 1.71,3.95 -2.68,8.26 7.25,22.47 5.98,0 8.61,0.88 8.61,5.55 17.71,8.44 31.95,39.38 40.34,39.38 20.08,0 18.91,-6.38 48.95,-1.73 6.06,0.94 61.8,5.03 67.07,0 5.69,-5.43 5.39,-1.18 7.25,-10.37 2.73,-13.5 10.98,-25.21 12.69,-44.94 0.51,-5.87 8.87,-44.58 10.88,-48.39 0.1,-0.19 9.06,-51.26 9.06,-51.85 0,-32.98 -7.67,-48.96 -27.19,-76.05l-7.25 -15.56c-1.73,-2.41 -53.92,-66.99 -54.38,-67.41 -33.27,-29.37 -112.61,-84.69 -157.71,-84.69 -3.6,0 -39.14,4.97 -39.88,5.19 -10.84,3.13 1.93,3.46 -18.13,3.46 -2.98,0 -16.78,5.67 -19.94,6.91 -2.5,0.98 -6.57,-1.83 -3.63,5.18z"/>
  <path class="fil3 str0" d="M493.6 182.51c-1.08,0 -137.79,57.05 -141.4,58.77 -23.85,11.37 -32.31,7.24 -48.95,34.57 -13.73,22.55 -47.8,84.71 -61.63,101.97 -10.21,12.75 -32.84,64.76 -38.07,84.69 -8.05,20.74 -12.44,19.5 -14.5,43.21 -3.7,42.62 7.79,60.79 14.5,100.25 3.91,22.98 27.79,56.91 45.32,70.86 3.13,2.49 8.34,10.3 16.32,12.1 13.23,2.98 9.24,1.97 21.75,6.91 2.27,0.89 19.87,25.6 25.38,29.39 1.22,0.84 28.44,17.28 29,17.28 22.59,0 19.43,-10.07 39.88,-17.28 6.06,-2.14 15.5,-3.38 18.13,-5.19 11.25,-7.74 39.43,-13.64 59.82,-27.65 13.51,-9.29 24.42,-11.32 34.44,-25.93 12.53,-18.26 6.48,-3.69 16.31,-17.28 14.79,-20.44 34.44,-41.76 34.44,-67.41 -3.12,0 -8.92,-9.5 -34.44,-3.46 -30.52,7.23 -19.59,4.32 -43.5,20.74 -6.97,4.78 -16.7,-1.73 -21.75,-1.73 0,-4.77 36.73,-12.3 47.13,-29.39 12.27,-20.16 9.39,-5.26 14.5,-25.92 5.52,-22.3 -50.56,-22.88 -56.2,-19.01 -13.66,9.39 -28.54,16.8 -45.32,6.91 -16.81,-9.91 14.31,-31.11 32.63,-32.84 16.65,-1.57 43.5,-8.14 43.5,-27.65 0,-24.32 -6.29,-13.3 -27.19,-27.66 -5.73,-3.93 -1.81,-3.83 -1.81,-17.28 0,-45.65 5.56,-46.67 41.69,-46.67 20.47,0 5.44,-39.1 5.44,-39.75 0,-24.83 3.29,-45.8 9.06,-69.14 3.91,-15.79 8.5,-41.68 -1.81,-55.31 -4.13,-5.46 -10.2,-24.77 -12.69,-31.11z"/>
  <path class="fil4 str0" d="M784.48 559.01c12.08,6.47 3.74,21.63 2.33,33.04 -4.05,32.92 -91.74,147.88 -118.77,167.36 -12.44,8.97 -75.96,37.6 -153.14,26.61 -9.28,-1.32 -141.55,-37.38 -145.02,-39.88 -4.37,-3.15 -16.6,-7.25 -21.75,-7.25 -14.98,0 30.67,-14.44 30.82,-14.5 22.04,-9.13 56.75,-34.93 77.95,-50.76 9.18,-6.86 34.3,-24.95 38.07,-36.26 4.48,-13.45 6.04,-7.25 10.88,-21.75 4.6,-13.79 3.63,1.79 3.63,-10.88 3,0 0.97,-4.85 12.69,0 5.88,2.44 10.88,1.43 10.88,10.88 6.31,0 2.2,37.3 12.69,16.31 5.9,-11.81 11.83,-15.62 18.13,-30.82l0 -9.06c8.14,-19.65 7.91,-64.41 30.82,-32.63 0.07,0.09 9.06,27.08 9.06,27.19 2.17,0 10.88,9.78 10.88,12.69 8.12,-8.12 7.89,-1.57 18.13,-18.13 2.15,-3.48 18.51,-27.19 21.75,-27.19 8.98,0 12.69,-23.4 12.69,-30.82 0,-4.38 16.38,3.35 21.75,16.32 3.09,7.46 9.06,22.38 9.06,30.82 11.28,0 -0.22,4.6 10.88,0 0.03,-0.01 6.97,-1.81 7.25,-1.81 0,-2.76 10.94,-10.88 14.5,-10.88 24.63,0 14.94,10.88 45.32,10.88 10.24,0 -2.99,-1.81 7.25,-1.81l1.29 -7.66z"/>
  <path class="fil5 str0" d="M498.59 452.93c3.99,0.39 19.49,13.14 21.75,13.14 0,0.62 6.55,12.7 0,15.41 -4.99,2.07 -15.67,23.08 -18.13,12.69 -0.55,-2.34 -8.29,-12.76 -13.6,-8.16 -7.31,6.34 -16.35,14.48 -8.16,24.47 4.39,5.36 18.14,3.62 23.57,0.91 15.67,-7.83 6.63,-7.17 19.94,9.06 1.94,2.37 13.93,7.25 19.03,7.25 14.58,0 7.83,0.44 11.78,9.97 2.88,6.96 -7.45,1.9 -10.88,10.42 -4.51,11.22 -1.08,0.62 -17.22,-1.36 -23.44,-2.88 -9.62,20.96 -8.16,21.3 4.94,1.17 23.11,6.89 30.82,-7.71 1.36,0 4.36,-12.66 6.35,-15.41 0.63,-0.87 13,-6.31 14.05,-8.84 1.62,-3.91 3.08,-12.62 -12.24,-14.73 -6.43,-0.89 -0.99,-1.81 -10.88,-1.81 -9.22,0 -22.98,8.13 -2.72,-3.63 8.25,-4.79 16.75,-9.19 24.47,-3.63 3.01,2.17 9.66,-0.02 12.69,9.97 1.02,3.37 23.57,25.65 23.57,32.63 0,14.33 0.83,18.13 17.22,18.13 2.63,0 8.32,-0.49 9.06,-3.63 1,-4.23 -5.55,-10.36 -1.59,-15.86 9.47,-13.14 -19.83,-27.53 -26.28,-21.07 -3.18,3.18 -16.54,-8.02 -16.54,-12.01 0,-19.55 2.8,-13.07 6.35,-28.1 0.73,-3.09 4.43,-14.61 2.72,-16.32 -37.79,-37.76 -16.22,2.39 -39.06,18.85 -7.84,5.65 -16.72,2.77 -23.48,-6.61 -6.23,-8.65 3.22,-32.22 10.88,-39.88 7.22,-7.23 4,-17.8 -5.76,-26.09 -17.28,-14.68 -7.59,10.15 -20.07,21.56 -6.9,6.31 -16.74,-4.05 -24.92,-12.24 -11.84,-11.84 -31.17,17.67 5.44,21.3z"/>
  <path class="fil6 str0" d="M225.83 651.59c12.09,4.18 14.26,-1.28 22.38,-1.28 0,-1.42 8.93,-1.82 12.69,-4.53 2.64,-1.9 8.22,-3.37 13.6,-7.25 6.25,-4.51 13.74,-6.09 17.22,-14.5 0.02,-0.05 2.36,-3.66 2.72,-4.53 2.79,-6.74 14.5,0.08 14.5,6.35 0,6.35 0,12.69 0,19.04 0.29,0 6.65,2.88 7.25,5.44 2.09,8.84 -3.12,30.9 5.44,34.44 1.61,0.67 40.33,-9.75 40.79,-9.97 6.14,-3 9.15,-8.2 16.31,-11.78 10.25,-5.13 10.89,-8.53 20.85,-15.41 3.01,-2.08 24.96,-17.22 28.1,-17.22 10.92,0 15.34,7.52 11.78,17.22 -6.72,18.33 -27.19,19.32 -27.19,36.26 0,7.56 28.39,4.53 32.63,4.53 14.73,0 16.41,-1.3 26.28,-12.69 4.4,-5.07 11.36,-6.83 15.41,-10.88 2.28,-2.28 15.34,-11.78 18.13,-11.78 0,4.14 8.72,10.55 2.72,29.01 -1.48,4.55 -3.02,17.83 -5.44,21.75 -2.35,3.81 -8.77,15.98 -4.53,19.03 6.2,4.47 22.37,2.73 25.38,-4.53 0.38,-0.91 5.44,-2.95 5.44,-7.25 13.17,-9.88 9.8,-23.47 17.22,-36.26 1.42,-2.45 2.33,-11.38 3.63,-14.5 1.68,-4.05 1.04,-2.58 4.53,0.91 5.01,5.01 12.69,14.96 12.69,21.75 0,1.46 0.46,9.48 2.72,6.34 4.99,-6.93 9.79,-6.06 11.78,-14.5 1.07,-4.55 7.28,-8.31 9.97,-1.81 2,4.84 4.99,0.34 2.72,9.97 -1.59,6.73 2.72,16.89 2.72,21.75 1.28,0 3.03,11.16 4.53,13.6 7.35,11.9 6.76,35.21 4.53,48.94 -1.73,10.67 -12.8,20.72 -18.58,23.11 -2.88,1.19 -23.93,1.81 -28.1,1.81 -8.81,0 -62.32,5.02 -66.62,6.8 -17.37,7.19 -37.22,2.26 -54.38,-3.63 -6.76,-2.32 -11.81,-5.45 -19.04,-6.34 -0.92,-0.11 -15.59,-4.65 -18.13,-5.44 -2.07,-0.65 -48.34,-9.93 -48.95,-9.97 -13.04,-0.93 -54.69,-19.75 -65.26,-26.28 -10.27,-6.35 -21.88,-21.11 -27.19,-31.72 -5.56,-11.11 -17.41,-15.43 -22.66,-28.1 -0.55,-1.32 -6.35,-6.83 -6.35,-9.97 0,-2 -6.97,-15.34 -5.44,-19.04 1.8,-4.35 1.78,-6.67 1.18,-6.88z"/>
  <path class="fil3 str0" d="M783.38 565.6c-5.49,-23.5 12.55,-18.88 12.55,-41.66 0,-5.59 -3,-24.42 3.68,-21.65 13.51,5.6 17.41,-5.8 41.9,15.45 13.08,11.34 40.5,22.09 56.42,35.9 7.03,6.1 30.21,19.74 25.65,30.78 -2.63,6.35 -18.17,-15.39 -35.9,-15.39 -6.64,0 -6.73,29.91 15.39,42.74 25.72,14.93 21.54,19.83 41.03,39.32 13.84,13.84 8.52,9.59 23.94,22.23 7.59,6.23 19.2,25.65 0,25.65 -32.53,0 -61.12,-25.65 -63.26,-25.65 -10,0 -15.47,10.25 -6.84,22.23 7.23,10.03 32.15,43.9 41.03,49.58 18.26,11.68 35.17,37.08 47.87,54.71 9.25,12.83 35.71,32.48 5.13,32.48 -9.14,0 -28.93,-8.42 -35.9,-15.38 -25.38,-25.37 -33.35,-7.7 -11.97,13.67 12.53,12.53 35.84,52.97 41.03,70.1 3.42,11.29 2.11,-3.23 5.13,15.38 3.64,22.45 1.54,8.55 -10.26,8.55 -18.9,0 -32.5,-19.67 -47.87,-27.36 -6.97,-3.48 -9.49,-8.52 -18.81,-11.97 -17.96,-6.64 -21.31,-5.13 -39.32,-5.13 0,0.12 11.48,22.96 13.68,27.35 1.6,0 32.08,35.74 32.48,35.9 17.11,7.09 16.32,5.62 5.13,10.26 -9.71,4.02 -39.42,-7.75 -46.16,-17.1 -8.91,-12.36 -27.65,-46.16 -42.74,-46.16 -15.92,0 -33.69,0.74 -47.87,-5.13 -0.5,-0.21 -12.52,3.42 -15.39,3.42 0,14.85 28.14,39.32 35.9,39.32 0,1.92 13.55,10.26 17.1,10.26 -7.43,7.43 -43.42,-1.87 -51.29,-5.13 -7.95,-3.29 -42.75,-45.15 -46.16,-56.42 -0.9,-2.97 -15.67,-21.35 -17.1,-25.65l-5.13 -10.26c-4.3,0 -25.65,-46.28 -25.65,-6.84 0,12.54 15.24,30.01 20.52,42.74 7.95,19.21 -24.51,4.55 -35.9,-6.84 -3.97,-3.97 -15.39,-14.58 -15.39,-18.81 -1.97,0 -15.26,-29.76 -17.1,-34.19 -5.13,-12.4 -13.95,-28.46 -5.13,-42.74 2.05,-3.33 24.06,-8.19 29.06,-10.26 18.02,-7.46 61.04,-49.93 70.1,-71.81 8.23,-19.87 5.46,-31.5 23.94,-51.29 18.64,-19.97 34.48,-66.69 32.48,-75.23z"/>
  <path class="fil7 str0" d="M441.12 799.28c17.28,31.24 29.38,5.1 5.98,61.57 -3.81,9.19 -13,24.54 -20.68,30.08 -3.18,2.29 -13.7,10.47 -15.04,13.16l-1.88 3.76c-3.43,0 -3.76,15.1 -3.76,-7.52 0,-3.01 21,-35.72 7.52,-35.72 -12.36,0 -17.82,13.38 -24.44,22.56 -8.31,11.52 -18.3,22.8 -30.08,30.08 -8.4,5.19 -42.02,51.79 -50.76,63.92 -8.4,11.65 3.46,11.28 -5.64,11.28 0,-0.47 -8.19,-8.05 -1.88,-20.68 3.86,0 1.16,-8.67 7.52,-15.04 0.28,-0.28 20.68,-35.37 20.68,-35.72 0,-4.38 -20.68,-2.33 -20.68,7.52 -1.68,0 -18.29,22.19 -20.68,26.32 -10.53,18.14 -39.92,26.98 -50.76,43.24 -4.93,7.39 -33.31,38.92 -41.36,41.36 -3.8,1.15 -5.64,-2.51 -5.64,3.76 -0.07,0 -9.4,5.85 -9.4,-9.4 0,-9.4 50.76,-49.41 50.76,-73.32 0,-1.1 5.64,-18.31 5.64,-31.96 -20.55,0 -21.42,6.76 -39.48,18.8 -13.68,9.12 -25.39,26.32 -40.42,33.84 -3.4,1.7 -34.84,27.76 -35.72,31.49 -0.38,1.62 -23.5,21.11 -23.5,26.79 -0.08,0 -18.85,10.7 -15.04,-1.88 2.93,-9.67 22.95,-21.07 31.96,-30.08 22.33,-22.33 29.19,-22.33 48.88,-52.63 0.93,-1.43 20.7,-33.86 22.56,-35.72 4.84,-4.84 22.56,-22.26 22.56,-28.2 0,-7.3 -53.47,6.31 -56.4,7.52 -22.91,9.49 -44.72,30.74 -48.88,56.4 -3.93,24.23 -34.6,-19.25 -2.9,-45.24 21.6,-17.71 44.14,-40.12 64.94,-58.16 13.93,-12.09 39.48,-33.07 39.48,-52.64 -22.89,0 -56.77,-5.32 -71.44,16.92 -7.97,12.08 -13.05,34.72 -30.08,43.24 0,4.81 -3.52,3.76 -7.52,3.76 0,-23.08 -28.88,-14.08 11.28,-47 15.57,-12.77 23.39,-30.93 39.48,-37.6 14.39,-5.96 23.42,-36.94 16.92,-52.64 -2.66,-6.42 2.77,-11.28 -15.04,-11.28 -7.27,0 -10.94,3.76 -28.2,3.76 -23.42,0 -17.94,8.82 -2.35,-14.57 1.55,0 13.7,-23.97 15.51,-26.79 3.29,-5.12 11.28,-24.51 11.28,-31.96 -1.62,0 -14.6,3.76 -20.68,3.76 -12.7,0 -17.58,-1.07 -30.08,1.88 -20.31,4.79 -1.55,-11.32 20.68,-13.16 6.04,-0.5 28.84,-3.76 31.96,-11.28 1.77,-4.26 15.04,-26.12 15.04,-26.32 7.43,0 18.17,-15.04 35.72,-15.04 0,4.5 9.4,1.46 9.4,26.32 0,7.23 7.21,24.82 13.16,30.08 8.13,7.17 5.59,8.93 10.29,20.29 1.95,34.58 28.61,42.12 32.99,54.8 19.07,55.18 123.36,79.67 163.51,77.18 12.84,-0.79 8.68,-4.77 14.69,6.1z"/>
  <path class="fil8 str0" d="M409.91 219.13c-4.2,-19.82 56.18,-28.88 68.68,-34.06 16.57,-6.86 20.13,-7.61 15.66,-22.63 -29.49,-99.22 -33.35,-77.53 -68.58,-102.18 -22.71,-15.89 -31.96,-27.25 -33.24,-39.23 -20.2,7.46 20.02,65.85 20.02,80.5 0,4.91 7.83,15.68 -6.96,12.18 -51.65,-12.19 -24.69,-3.8 -45.25,-45.25 -15.16,-30.56 -22.48,-17.19 -39.89,-34.59 -30.21,-30.21 -28.68,9.89 -29.52,0.44 19.13,9.56 26.46,24.1 36.33,41.12 8.19,14.11 33.07,52.25 33.07,66.14 -2.13,0 -15.06,9.26 -17.41,8.7 -13.16,-3.11 -31.74,-27.47 -38.29,-36.55 -57.78,-80.18 -165.87,-105.17 -134.46,-73.76 4,-6.66 35.12,14.25 43.95,25.02 10.77,13.13 21.26,29.96 33.07,41.77 19.02,19.02 -12.15,27.94 -22.19,21.32 -18.9,-12.46 -39.58,-36.79 -59.61,-49.17 -14.97,-9.25 -50.04,-43.47 -36.55,-50.48 -17.85,-9.14 -37.83,-10.89 -26.11,17.41 2.22,5.35 54.68,63.9 62.66,73.1 1,1.16 40.03,53.69 40.03,53.96 0,1.83 4.55,11.1 0,17.41 -3.69,5.11 1.45,7.61 -12.18,3.48 -11.64,-3.52 -53.48,-42.99 -59.18,-52.22 -8.47,-13.71 -25.68,-18.73 -21.76,-28.72 -24.83,-9.65 -9.5,24.7 2.83,40.68 4.31,5.58 -0.25,9.1 6.75,17.62 1.55,1.9 32.62,45.08 33.07,47l6.96 8.7c0.84,0.91 14.43,27.06 15.66,29.59 9.73,19.9 13.93,11.65 13.93,33.07 -4.52,0 7.91,8.36 -22.36,1.23 -32.17,-7.59 -28.66,-17.16 -47.7,-40.39 -8.72,-10.64 -6.14,-12.66 -13.49,-20.02 -8.15,8.15 2.02,47.56 8.7,55.7 5.77,7.04 4.31,9.53 13.93,19.15 11.91,11.91 23.93,40.03 43.51,40.03 0,3.63 12.81,5.84 15.67,8.7 8.96,8.96 8.7,-2.36 8.7,6.96 -3.2,0 -3.46,11.12 -26.11,1.74 -11.82,-4.9 -22.63,5.45 -22.63,6.53 15.08,-7.81 24.97,23.06 55.7,23.06 1.96,0 14.4,7.32 16.32,6.53 13.37,-5.53 23.34,-27.22 31.23,-37.31 42.75,-54.67 27.31,-79.75 69.07,-101.5 1.3,-0.68 62.36,-34.81 81.81,-34.81 0,-2.42 6.54,-4.21 6.17,-5.98z"/>
  <path class="fil9 str0" d="M613.2 177.13c-7.35,-8.02 -24.34,-32.82 -20.19,-42.83 5.02,-12.13 11.79,-36.26 19.49,-36.26 0,-2.57 22.8,-20.47 24.93,-29.46 0.93,-3.94 18.13,-39.25 18.13,-41.69 2.27,0 7.59,-8.61 -4.53,-12.69 53.71,-19.3 7.55,62.72 -6.35,76.14 -7.18,6.93 -10.88,28.73 -10.88,32.63 11.8,0 11.57,-1.53 19.94,-12.69 8.72,-11.62 13.33,-30.82 27.19,-30.82 0,4.65 15.39,-0.63 18.13,-7.25 4.81,-11.61 23.16,-38.84 34.44,-43.51 2.37,-0.98 10.03,-7.25 14.5,-7.25 4.52,0 13.6,-17.15 7.25,-1.81 -0.24,0.57 -0.07,5.58 -3.63,12.69 -9.95,19.89 -27.89,22.98 -34.44,50.76 -0.1,0.41 -1.71,13.66 -1.81,14.5 -2.1,17.04 -6.12,7.22 25.38,-3.62 15.61,-5.37 24.12,-5.61 29.01,-21.75 6.49,-21.25 37.77,-46.55 29.68,-51.89 0,-1.41 16.18,-5.8 8.38,15.63 -3.34,9.18 -9.06,3.27 -9.06,23.57 0.95,0 11.82,-8.96 19.94,-10.88 15.67,-3.7 14.08,-19.94 30.82,-19.94 1.02,0 30.47,-10.88 30.82,-10.88 0,21.9 -39.71,13.53 -54.38,48.94 -1.33,3.21 -17.91,15.94 -23.57,39.88 -6.46,27.36 47.03,-16.88 75.23,-26.28 26.28,-2.46 95.73,-54.84 86.11,-65.71 22.43,0 15.38,13.17 10.88,17.67 -4.53,4.53 -10.67,7.82 -12.69,14.5 -1.56,5.14 -11.51,26.84 -17.22,30.36 -15.95,9.86 -31.03,11.37 -67.52,38.52 -50.25,37.38 -34.1,39.88 -9.52,39.88 3.36,0 34.6,-13.31 39.43,-16.77 13.91,-9.97 51.07,-40.93 69.34,-48.49 10.87,-4.5 9.1,-23.61 18.13,-1.81 9.26,22.36 -12.85,32.79 -23.57,43.5 -10.61,10.61 -37.22,11.04 -41.69,27.19 -2.92,10.56 -16.87,22.62 -27.19,27.19 -7.34,3.25 -7.78,2.98 -16.32,7.25 0,4.3 -14.76,10.88 -18.13,10.88 0,22.78 -4.33,26.47 -23.57,34.44 -18.12,7.5 67.12,-20.57 81.57,-26.28 39.55,-15.65 52.7,-31.26 55.29,-35.81 33.99,29 -89.07,76.07 -123.72,86.56 -9.08,2.75 -22.21,16.17 -22.21,24.47 18.95,0 30.86,-5.95 47.13,-12.69 20.47,-8.48 62.41,-9.85 76.14,-21.75 7.01,-6.08 12.79,-5.44 21.75,-5.44 -12.76,12.76 -13.73,39.88 -47.13,39.88 -0.52,0 -33.68,15.94 -34.44,16.31l-16.32 5.44c-13.65,4.55 -7.58,4.9 -14.5,14.5 -2.57,3.56 -1.81,-0.4 -1.81,5.44 -2.85,0 -16.99,19.94 -34.44,19.94 0,3.35 -7.48,3.63 7.25,3.63 8.51,0 8.76,3.92 25.38,0 15.29,-3.61 30.05,-11 47.13,-12.69 9,-0.89 21.29,-8.6 12.69,0 -15.05,15.05 -36.59,12.28 -52.57,25.38 -3.86,3.17 -16.4,9.15 -18.13,10.88 -7.66,-3.83 -20.28,-1.81 -29,-1.81 0,5.63 -7.82,-1.93 -12.45,-4.82 -48.16,-111.94 -116.93,-169.36 -198.49,-192.99z"/>
  <path class="fil5 str1" d="M273.29 112.55c0.75,2.26 4.66,8.12 5.89,10.42 0.11,0.21 2.77,8.41 3.17,9.52 5.91,16.12 5.52,12.78 16.77,27.19 3.07,3.93 4.12,13.47 6.34,18.58 4.08,9.36 12.64,24.53 19.49,32.18 0.09,0.1 17.22,28.42 17.22,28.55 0.24,0 3.17,3.49 3.17,4.08l0.89 0.88"/>
  <path class="fil5 str1" d="M265.59 141.55c3.76,7.51 7.13,18.7 12.24,24.93 2.16,2.64 7.1,16.9 9.52,21.3 1.73,3.16 7.01,12.67 9.97,14.5 4.53,2.8 8.18,2.88 13.14,4.76 1.63,0.23 4.61,2.49 9.06,2.49 0.18,0 2.45,0.77 2.72,0.91 0,0.21 0.89,1.81 1.81,1.81l0.91 -1.81"/>
  <path class="fil5 str1" d="M337.47 231.12c1.14,-7.86 0.82,-16.01 -0.28,-23.85 -0.85,-6.06 -0.65,-10.97 -1.36,-16.77 -0.58,-4.73 -2.85,-15.88 -5.44,-19.49 -0.02,-0.03 -4.41,-7.47 -4.53,-7.71 -2.46,-4.67 -8.48,-15.25 -13.14,-18.13 -2.92,-1.8 -7.3,-3.64 -8.61,-6.8 -0.4,-0.98 -5.24,-5.69 -6.35,-6.8"/>
  <path class="fil5 str1" d="M277.82 166.48c-4.45,3.17 -5.28,3.22 -9.52,-0.45 -3.4,-2.95 -13.59,-18.04 -13.59,-22.21"/>
  <path class="fil5 str1" d="M345.69 247.37c-3.58,-1.42 -10.38,1.1 -19.37,-2.94 -11.83,-5.31 -11.04,-4.77 -17.22,-15.41 -2.94,-5.06 -9.21,-2.51 -15.14,-4 -28.39,-7.24 -18.18,-22.53 -28.36,-31.8 -1.72,-1.56 -9.97,-17.12 -9.97,-18.58 -2.63,0 -5.85,-4.24 -6.8,-6.8 -0.84,-2.28 -3.96,-12.4 -5.44,-13.14"/>
  <path class="fil5 str1" d="M278.32 320.42c-10.06,-7.24 -5.03,-15.85 -5.03,-23.42 0,-11.83 -8.61,-17.19 -12.69,-26.28 -2.77,-6.17 -3.3,-5.91 -4.08,-12.24 -0.97,-7.92 -12.18,-23.46 -16.32,-31.72 -3.11,-6.22 -20.21,-22.69 -20.85,-25.38l-0.45 -0.91"/>
  <path class="fil5 str1" d="M256.52 258.48c-1.27,-1.27 -8.18,-0.98 -16.32,-12.24 -2.88,-3.98 -9.9,-8.55 -10.88,-12.24 -1.33,-5.03 -0.76,-7.85 -7.25,-6.8 -1.7,0.28 -23.84,-4.44 -24.02,-4.53 -12.37,-6.19 -4.89,-26.28 -16.77,-26.28"/>
  <path class="fil5 str1" d="M246.32 198.88c6.15,18.41 17.02,26.75 24.47,41.69 8.26,0 14.55,26.48 10.88,35.35 -2.28,5.51 -8.16,8.29 -9.1,15.42"/>
  <path class="fil5 str1" d="M254.93 227.88c0.9,2.69 1.36,6.3 1.36,9.06 0,5.4 8.64,19.3 9.97,24.93 1.34,5.79 9.85,12.19 15.41,14.05"/>
  <path class="fil5 str1" d="M282.05 260.98c3.33,-1.11 15.49,-4.8 15.49,-8.62 3.55,-8.6 -8.45,-17.25 -14.96,-19.94 -3.24,-1.34 -12.56,-13.62 -14.5,-16.31 -1.86,-2.58 -4.52,-3.85 -7.25,-4.99 -2.33,-0.97 -2.08,-5.49 -4.08,-8.16"/>
  <path class="fil5 str1" d="M212.1 140.43c1.91,7.62 7.3,14.18 10.88,20.85 1.43,2.67 0.52,7.34 5.89,9.97 4.67,2.28 15.41,9.29 15.41,14.96 4.31,0 17.4,9.46 21.31,7.02"/>
  <path class="fil5 str1" d="M353.5 90.58c1.4,4.2 10.09,11.11 10.43,14.5 0.19,1.91 1.53,5.22 1.81,8.61 1.88,22.65 17.58,16.49 19.49,35.8 0.47,4.72 4.77,16.39 7.25,20.39 3.03,4.9 4.86,7.95 8.16,12.69 4.74,6.82 5.39,7.05 3.63,14.5 -1.04,4.41 0.21,9.04 2.27,13.14 1.28,2.56 2.06,4.44 3.19,6.92"/>
  <path class="fil5 str1" d="M386.58 116.86c0,6.4 11.21,9.94 9.06,19.04 -1.15,4.88 0.01,14.97 3.63,18.58 1.79,1.79 5.44,12.56 5.44,14.96 0,3.06 -1.81,2.71 -1.81,8.16 -0.94,0 -0.72,3.43 -2.27,4.98"/>
  <path class="fil5 str1" d="M412.86 134.08c0,3.66 -1.54,2.44 0.45,7.25 1.57,3.79 3.72,15.9 1.36,19.49 -0.44,0.66 -4.8,13.59 0,13.59 1.76,0 4.08,3.7 4.08,6.35 0,2.13 -1.03,10.42 -3.63,10.42 -0.95,0 -1.09,1.81 -6.35,1.81 0,0.73 0.16,0.45 -0.91,0.45l-3.63 3.63"/>
  <path class="fil5 str1" d="M343.53 155.38c2.9,8.72 7.05,13.67 12.24,20.85 5.15,7.13 5.04,14.07 11.33,21.75 4.04,4.94 14.93,15.41 21.75,15.41 1.1,0 6.71,1.36 8.61,1.36 2.97,0 4.34,-4.99 6.8,-4.99 1.27,0 0.63,-0.09 2.27,0.45"/>
  <path class="fil5 str1" d="M345.35 243.07c2.02,-3.72 1.65,-7.32 4.07,-9.73 5.47,-5.47 5.31,-9.91 8.16,-16.77 1.58,-3.81 -4.17,-13.62 -4.53,-15.86 -0.45,-2.76 -3.17,-7.19 -3.63,-11.78 -0.17,-1.69 -1.57,-7.4 -2.27,-9.06 -0.94,-2.26 -0.99,-1.45 -2.27,-2.72"/>
  <path class="fil5 str1" d="M343.53 196.17c0,12.93 5.13,12.46 6.35,15.41 0.24,0.58 4.17,4.53 5.44,4.53l2.27 0.45"/>
  <path class="fil5 str1" d="M366.64 150.85c-1.67,4.99 2.87,20.86 7.25,24.02 2.82,2.04 5.64,1.92 6.35,7.7 0.93,7.6 0.34,11.82 7.71,15.86 7.5,4.12 9.52,6.27 9.52,14.5l0 1.81"/>
  <path class="fil5 str1" d="M357.58 163.99c3.84,5.12 7.18,10.71 10.88,15.86 3.18,4.43 8.26,9.21 6.8,15.41 -1.44,6.1 1.36,3.06 1.36,9.52 0.4,0 0.91,1.74 0.22,2.68"/>
  <path class="fil5 str1" d="M418.76 73.81c-1.73,5.18 0.1,6.95 0.91,12.69 1.51,10.75 17.52,23.65 18.13,28.55 0.59,4.8 1.36,6.94 1.36,11.78 0,4.66 3.23,12.2 7.7,14.05 0.25,0.1 3.75,3.47 6.35,4.08 0.38,0.09 9.54,5 11.78,5.44 5.74,1.11 11.71,12.39 12.24,17.67 0.04,0.4 1.97,7.9 2.27,8.61 1.16,2.79 1.63,3.9 2.85,6.84"/>
  <path class="fil5 str1" d="M454.56 90.13c1.04,3.11 1.53,5.93 2.27,9.06 0.19,0.82 4.79,12.88 4.98,13.14 1.23,1.71 1.59,4.02 4.08,6.8 1.92,2.15 6.8,14.6 10.42,19.03 2.54,3.11 -1.36,9.81 -1.36,13.14 0,0.22 -0.45,1.37 -0.45,3.17l-1.4 3.26"/>
  <path class="fil5 str1" d="M437.34 84.69c0,5.43 4.39,11.34 5.44,16.77 0.28,1.44 2.27,3.98 2.27,6.35 0,5.68 8.1,13.82 11.5,10.42 1.56,-1.56 7.56,-1.55 9.35,0.91"/>
  <path class="fil5 str1" d="M445.04 121.39c0.93,3.71 3.92,12.08 6.35,14.5 1.4,1.4 4.98,12.17 11.32,13.68"/>
  <path class="fil5 str1" d="M451.39 135.9c5.31,1.06 10.88,-0.4 10.88,-6.8 0,-0.72 -1.81,-1.39 -2.27,-2.72"/>
  <path class="fil5 str1" d="M416.49 120.49c2.97,1.98 1.67,3.1 3.63,7.25 3.74,7.93 4.21,10.83 11.33,14.96 2.38,1.38 1.74,1.74 2.27,4.99 0.56,3.47 1.91,6.84 2.27,10.42 0.34,3.41 5.45,10.92 8.16,13.14 6.6,5.42 2.37,4.64 5.44,7.7 2.34,2.34 0.89,1.81 4.98,1.81 0.36,0 5.11,-2.37 5.44,-3.17 2.29,-5.53 9.66,-2.52 14.5,-4.53 0.85,-0.35 1.35,-0.91 2.27,-0.91l1.53 0.24"/>
  <path class="fil5 str1" d="M426.01 117.32c1.08,3.26 4.61,8.03 5.44,10.88 3.06,10.5 8.86,9.71 10.43,16.31 1.41,5.95 4.19,4.19 8.16,8.16 2.68,2.68 4.53,3.84 4.53,8.61 0,1.62 3.79,9.53 4.53,11.33 1.81,4.38 -1.02,-1.12 0.45,1.81l0.45 3.17"/>
  <path class="fil5 str1" d="M464.98 158.1c-0.51,1.53 -1.09,6.25 -1.81,7.25 -0.91,1.26 -0.91,4.59 -0.91,6.34l-3.17 0.91"/>
  <path class="fil5 str1" d="M147.67 297.63c0,7.61 6.3,9.44 12.69,13.14 5.61,3.26 11.33,8.75 17.67,9.97 3.79,0.73 15.86,5.93 15.86,10.42 5.71,4.28 11.04,1.27 17.22,2.27 9.84,1.59 12.99,-1.98 24.02,1.81 2.76,0.95 6.62,5.1 7.7,7.71 1.19,2.87 5.74,3.8 6.8,6.35 0.06,0.15 7.8,3.89 9.08,4.34"/>
  <path class="fil5 str1" d="M199.33 249.59c5.22,6.96 4.71,11.6 6.8,19.94 3.73,14.93 5.36,18.07 16.77,26.28 5.32,3.83 7.86,14 9.97,14.5 1.9,0.45 7.34,2.92 9.06,4.08 0,1.55 7.96,5.09 8.61,9.06 0.93,5.69 2.95,8.19 1.36,14.96 -0.71,2.99 -1.81,2.32 -1.81,6.8 -0.97,0 -0.45,3.23 -0.45,4.08"/>
  <path class="fil5 str1" d="M208.39 240.08c1.88,7.5 10.9,18.07 11.33,19.49 0.42,1.4 19.54,17.21 21.75,18.13 5.78,2.39 9.47,13.5 8.16,19.04 -0.89,3.74 -0.79,5.04 -2.27,8.61 -0.71,1.71 -3.17,5.3 -3.17,6.35l-2.27 2.72"/>
  <path class="fil5 str1" d="M217.46 272.26c5.38,8.06 6.34,9.97 14.5,16.77 4.11,3.43 2.44,2.27 6.8,4.08 0.69,0.29 2.88,2.27 4.53,2.27 1.02,0 0.73,0.9 3.62,0.9l2.72 0.45"/>
  <path class="fil5 str1" d="M172.59 299.45c8.37,8.37 48.1,17.72 43.96,34.43"/>
  <path class="fil5 str1" d="M204.77 291.18c0.54,1.64 -0.24,0.66 0.68,2.04 1.17,1.75 1.31,1.9 2.72,3.63 2.16,2.64 4.23,5.4 4.53,9.06 0.12,1.48 0.68,1.49 0.68,4.31 0,2.5 -0.92,6.14 -2.27,7.48 -0.17,0.17 -1.13,1.31 -1.13,1.59l-0.61 0.5"/>
  <path class="fil5 str1" d="M195.48 298.21c0.32,0.95 3.59,5.93 4.3,6.57 4.49,4.02 6.15,5.35 11.33,7.48 1.42,0.58 -0.05,0.29 2.01,0.57"/>
  <path class="fil5 str1" d="M240.8 341.94c-0.27,0.81 -1.78,3.8 -2.72,4.08 -0.02,0.01 -2.93,1.68 -3.62,1.81 -3.77,0.73 -4.52,1.58 -8.61,1.58 -7.02,0 -9.95,0.46 -16.99,-2.27 -4.17,-1.62 -7.88,-4.02 -12.01,-5.44 -1.5,-0.52 -14.83,-7.18 -16.09,-8.16 -1.91,-1.48 -4.02,-2.28 -5.89,-3.63 -0.01,-0.01 -2.66,-1.33 -2.72,-1.36"/>
  <path class="fil5 str1" d="M225.84 349.42c0.97,-0.65 0.48,-0.65 0,-1.81 -1.41,-3.41 -8.83,-6.21 -12.24,-7.02 -0.87,-0.21 0.07,-0.23 -1.13,-0.23"/>
  <path class="fil5 str1" d="M195.03 372.3c1.61,1.08 3.63,1.73 5.21,2.95 1.66,1.27 6.09,3.97 8.16,4.31 5,0.81 4.75,1.13 9.06,2.72 3.55,1.31 7.74,3.63 11.56,3.63 1.03,0 1.93,0.61 3.4,0 1.55,-0.64 2.68,-1.2 4.3,-1.59 0.3,-0.07 2.06,-1.57 2.27,-2.27 0.32,-1.07 0.79,-3.75 0.45,-4.76 -1.34,-4 -1.29,-3.29 -3.85,-6.57 -3.11,-3.98 -21.45,-18.47 -25.15,-14.73"/>
  <path class="fil5 str1" d="M208.17 363.69c3.13,4.18 8.18,6.32 12.69,8.61 8.65,4.4 8.22,4.99 18.58,4.99"/>
  <path class="fil5 str1" d="M204.32 367.77c2.31,2.89 5.85,4.37 8.84,6.35 3.47,2.29 7.7,2.36 7.7,8.16"/>
  <path class="fil5 str1" d="M156.18 656.92c3.45,-1.15 8.58,-7.35 10.88,-8.16 3.06,-1.07 -0.09,0.03 3.63,-2.27 2.64,-1.63 13.61,-3.27 17.22,-3.63 5.73,-0.57 7.41,-4.64 12.69,-5.89 2.51,-0.59 -0.25,-0.91 4.98,-0.91 3.89,0 7.15,0.45 11.33,0.45 -0.02,0 -4.53,-1.36 -5.44,-1.36 -2.23,0 -5.3,-0.55 -7.25,-1.36 -0.53,-0.22 -3.41,-2.35 -4.98,-2.72 -11.1,-2.61 -20.79,4.53 -29.01,4.53 -0.38,0 -8.28,1.61 -9.97,1.81 -0.17,0.02 -1.14,0 -1.36,0"/>
  <path class="fil5 str1" d="M215.97 636.52c-1.77,6.38 0.63,11.79 -1.33,14.51 -0.43,0.59 -6.03,4.7 -7.25,4.98 -7.61,1.79 -6.65,3.6 -9.52,9.97 -2.46,5.48 -1.88,5.42 -8.16,9.06 -4.69,2.72 -6.63,3.71 -12.24,4.98 -7.55,1.71 -0.12,-1.15 -6.35,2.27 -2.82,1.54 -14.13,9.23 -15.41,11.78 -0.03,0 -3.94,3.17 -5.89,3.17 0,0.73 0.16,0.45 -0.91,0.45"/>
  <path class="fil5 str1" d="M151.19 685.02c4.24,-4.24 3.48,-6.62 9.97,-8.16 5.1,-1.21 9.55,-9.03 19.03,-9.97 2.15,-0.21 5.9,-0.84 7.25,-1.81 1.4,-1.01 8.07,-0.91 10.42,-0.91l0 1.81"/>
  <path class="fil5 str1" d="M180.2 712.66c0.72,0 2.9,1.18 4.53,0 2.68,-1.94 4.28,-2.7 7.25,-4.53 0.84,-0.52 7.69,-3.08 8.61,-3.17 3.51,-0.35 6.11,-2.91 9.06,-4.53 3.29,-1.81 2.11,-1.29 3.63,-2.72l3.17 -1.36c6.1,-4.13 11.3,0 16.77,0.45 4.2,0.35 8.4,3.85 12.44,3.41 -0.31,4.51 1.15,4.46 -2.02,8.38 -2.34,2.89 -17.26,9.11 -21.75,9.97 -1.7,0.33 -2.23,1.22 -4.08,2.27 -3.15,1.78 -2.56,-0.54 -5.89,4.08 -4.29,5.95 -3.25,15.2 -11.78,17.22 -2.55,0.6 -5.95,4.25 -7.71,4.53 -1.86,0.3 -8.04,3.06 -9.06,4.98"/>
  <path class="fil5 str1" d="M243.64 708.58c2.07,0.52 2.27,0.95 2.27,3.63 0,5.27 -5.38,20.38 -10.88,22.21 -2.18,0.73 -10.72,6.21 -12.24,8.16 -12.75,16.38 -5.04,12.1 -24.02,19.94 -1.97,0.81 -10.5,5.64 -10.88,7.25l-0.45 0.91c-2.03,0 -4.3,10.19 -7.25,7.25"/>
  <path class="fil5 str1" d="M225.06 898.02c0.09,-0.06 9.92,-7.2 9.97,-7.25 1.72,-1.5 8.8,-6.53 9.97,-8.16 4.27,-5.93 10.03,-6.58 10.88,-11.78 0.01,-0.08 8.11,-19.87 8.16,-19.94 6.85,-9.51 7.52,-8.75 17.22,-13.6 0,-2.35 20.85,-7.34 20.85,-26.28 0,-9.45 1.28,-18.51 8.16,-25.38 2.13,-2.13 2.24,-3.84 7.25,-6.34 6.75,-3.38 5.44,-11.76 5.44,4.53 0,17.09 18.59,14.42 14.5,31.73 -1.52,6.43 -12.55,29.77 -16.32,33.54 -7.54,7.54 -8.39,18.13 -13.59,18.13 -7.38,0 -10.58,13.03 -11.78,18.13 -1.28,5.41 -2.48,13.17 -4.53,18.13 -0.7,1.69 -29.46,25.03 -29.46,32.63"/>
  <path class="fil5 str1" d="M336.55 905.72l6.35 -10.42c0.04,-0.11 48.43,-76.21 48.94,-77.04 2.61,-4.22 10.66,-7.94 13.6,-10.88 4.75,-4.75 15.23,-10.63 20.99,-14.2 -0.86,3.44 -1.01,5.01 -2.19,7.86 -2.04,4.94 -0.98,6.95 -3.17,12.24 -4.15,10.01 -7.36,16.68 -14.5,24.93 -0.22,0.25 -8.86,13.19 -9.06,13.59 -5.62,11.25 -7.65,9.69 -14.96,18.13 -2.69,3.11 -6.78,8.78 -7.7,12.69 -0.01,0.03 -2.58,5.51 -2.72,6.35 -0.72,4.43 -5.44,6.41 -5.44,8.16"/>
  <path class="fil5 str1" d="M303.59 797.42c-3.81,-2.9 -2.07,-1.27 -5.11,-0.01 -2.97,1.23 -4.46,0.83 -8.16,4.53 -5.79,5.79 -13.26,7.66 -17.22,17.22 -2.14,5.15 -12.08,11.95 -18.13,12.69 -2.3,0.28 -3.26,0.91 -7.25,0.91 -12.41,0 -34.77,3.95 -43.5,12.69 -0.12,0.12 -10.77,19.84 -12.69,21.75 -2.39,2.39 -13.26,7.25 -17.22,7.25"/>
  <path class="fil5 str1" d="M286.28 747.29c-1.5,5.18 -2.9,9.97 -7.74,12.96 -6.5,4.02 -12.63,12.38 -19.94,15.41 -17.9,7.41 -12.29,25.84 -13.6,29 -1.16,2.81 -12.01,6.01 -18.13,14.5 -5.34,7.4 -14.14,-4.67 -22.66,26.29"/>
  <path class="fil5 str1" d="M278.54 760.25c-3.95,-3.95 -2.8,-2.72 -9.06,-2.72 -5.46,0 -11.64,2.53 -16.77,4.53 -5.62,2.19 -3.69,1.17 -8.61,5.44 -3.31,2.87 -3.98,5.16 -6.8,6.8 -4.89,2.84 -10.78,2 -13.6,5.44 -1.08,1.31 -9.06,11.22 -9.06,12.24"/>
  <path class="fil5 str1" d="M244.07 720.65c3.28,2.84 8.37,5.99 7.28,10.6 -1.39,5.91 -1.08,6.01 -5.44,11.33 -0.02,0.03 -6.65,5.37 -7.25,5.89 -4.26,3.71 -9.29,5.49 -11.33,10.42 -0.43,1.04 -2.27,1.95 -2.27,3.17l-0.91 0.91"/>
  <path class="fil5 str1" d="M217.81 720.82c-23.5,3.38 -21,11.95 -35.35,20.4"/>
  <path class="fil5 str1" d="M370.31 870.83c1.06,-3.2 2.87,-4.45 4.53,-8.16 0.75,-1.67 2.82,-4.54 4.08,-7.25 2.26,-4.88 2.3,-5.17 5.44,-9.52 2.1,-2.92 8.13,-5.03 11.33,-10.88 3.34,-6.09 6.18,-11.52 12.24,-14.96 1.32,-0.75 6.97,-2.44 8.16,-3.17 1.62,-1 5.6,-5.73 7.7,-3.63 1.68,1.68 6.91,4.32 7.71,7.7 0.36,1.54 1.36,0.76 1.36,3.17 0,6.21 3,13.94 0,19.94 -2.82,5.64 -5.89,13.17 -5.89,19.49 0,7.66 -1.14,8.03 -2.27,14.96 -0.41,2.5 0.81,1.46 -0.91,3.17"/>
  <path class="fil5 str1" d="M419.71 853.61c1.9,-5.71 0.4,-9.36 4.08,-14.96 1.37,-2.09 1.41,-4.13 4.08,-6.8 1.28,-1.28 4.08,-4.9 4.08,-5.89 0,-1.06 0,-2.12 0.53,-3.53"/>
  <path class="fil5 str1" d="M398.32 812.47c-2.31,-6.75 -0.46,-2.82 -6.71,-2.82 -13.88,0 -25.37,8.69 -31.72,19.94 -6.96,12.3 2.54,-1.29 -2.72,5.44 -4.16,5.32 -12.35,20.51 -16.32,24.47 -8.19,8.18 -26.98,44.2 -34.89,52.12"/>
  <path class="fil5 str1" d="M357.17 835.03c1.57,6.28 2.27,13.36 2.27,19.94 0,5.31 -12.18,14.19 -15.41,18.13 -1.31,1.51 -8.55,13.96 -11.78,18.58"/>
  <path class="fil5 str1" d="M336.15 819.56c-0.27,0.12 -3.89,1.88 -3.91,1.88 -1.19,2.37 0.5,-0.63 -2.27,1.36 -2.04,1.47 -15.33,3.23 -18.58,5.89 -3.13,2.56 -2.3,4.31 -4.53,8.16 -1.77,3.04 -4.61,9.42 -7.7,11.33 -3.73,2.31 -7.13,5.85 -9.97,9.06 -3.9,4.41 -1.07,-1.79 -5.89,6.8 -2.56,4.56 -5.21,7.87 -6.35,13.14l-0.45 4.53c-1.51,7.08 -4.48,18 -11.33,21.75 -4.79,2.63 -3.69,4.49 -8.16,6.34 -1.21,0.5 -3.63,3.26 -3.63,4.99"/>
  <path class="fil5 str1" d="M327.07 839.45c6.58,8.23 -1.29,13.73 -2.54,21.42 -0.65,4.02 -8.4,12.71 -9.06,16.77 -2.94,18.1 -12.63,10.75 -18.13,24.02 -2.58,6.22 -2.15,20.72 -3.63,23.11 -12.03,19.47 -17.18,1.7 -30.36,33.53 -1.18,2.85 -14.89,2.59 -17.67,8.16 -0.25,0.5 -1.47,2.27 -2.27,2.27"/>
  <path class="fil5 str1" d="M247.49 903.01c1.03,-3.08 6.96,-11.8 9.06,-14.96 1.43,0 2.88,-7.44 3.17,-8.16 0.01,-0.02 2.7,-4.05 2.72,-4.08 2.94,0 4.05,-7.73 5.89,-9.97 3.66,-4.47 3.03,-14.2 9.97,-17.67 0,-0.76 6.7,-3.17 7.7,-3.17 2.08,0 -0.25,-0.45 3.63,-0.45 9.65,0 6.63,-2.34 11.78,-3.17 0.56,-0.09 2.72,-2.89 2.72,1.36 0,0.56 1.17,2.92 0.9,4.53 -0.69,4.25 -3.17,8.54 -3.17,12.69 -1,0 0.18,1.69 -2.27,2.27 -2.52,0.6 -4.19,5.38 -5.44,5.89 -0.02,0.01 -3.63,4.43 -3.63,5.44 -2.05,1.03 -1.48,1.74 -2.27,4.08"/>
  <path class="fil5 str1" d="M215.31 916.15c1.43,-1.07 3.65,-2.2 4.53,-3.63 1.2,-1.94 10.45,-8.71 11.78,-10.88 1.61,-2.6 5.18,-9.72 6.35,-10.88 0.73,-0.73 2.72,-4.82 2.72,-5.89l-0.57 1.93"/>
  <path class="fil5 str1" d="M254.97 831.85c-2.69,3.22 -0.54,2.58 -2.5,4.54 -3.37,3.37 -2.18,7.76 -9.52,11.78 -2.45,1.35 -7.31,6.26 -8.16,9.06 -0.66,2.2 -1.16,2.05 -1.36,4.08 -0.49,4.97 -2.69,11.14 -5.44,14.96 -2.23,3.08 -5.89,5.74 -6.34,10.43"/>
  <path class="fil5 str1" d="M208.97 873.55c0.09,-0.37 0.85,-4.4 0.91,-4.53 0.39,-0.94 1.98,-1.14 3.17,-5.44 0.53,-1.91 7.74,-10.2 9.97,-10.88 0.05,-0.01 9.52,-7.25 10.42,-7.25 0.99,-1.98 3.16,-5.74 3.63,-7.7 0.48,-2.03 4.71,-2.76 6.8,-3.63 1.07,-0.44 -0.22,0.91 0.87,-1.3"/>
  <path class="fil5 str1" d="M273.67 763.96c-2.2,0.65 -1.26,2.01 -1.26,4 0,5.99 1.5,12.87 -3.17,16.77 -2.92,2.44 0.35,1.54 -3.17,2.72 0,0.99 -1.81,0.52 -1.81,5.89 0,6.84 -2.13,10.36 -7.25,14.05 -3.37,2.43 -0.4,-0.95 -3.63,2.27 -1.61,1.61 -11.33,3.03 -11.33,8.61 0,2.25 -0.45,2.25 -0.91,3.17"/>
  <path class="fil5 str1" d="M269.24 784.73c9.98,2.85 16.08,-4.95 9.52,8.16 -2.08,4.15 -1.43,1.88 -3.17,3.63 -1.43,1.43 -0.83,0.36 -1.81,2.72 -0.15,0.37 0.05,1.31 -0.91,2.27"/>
  <path class="fil5 str1" d="M347.19 824.61c2.88,-4.32 4.53,-6.58 4.53,-11.78 3.45,0 -0.59,-8.16 10.88,-8.16 4.97,0 13.73,-1.33 15.41,2.72 0.62,1.5 1.12,2.65 1.61,4.53"/>
  <path class="fil5 str1" d="M214.64 651.03c6.14,6.64 0.8,7.62 3.84,14.96 0.68,1.63 -2.74,12.24 -7.25,14.5 0,2.44 -15.6,9.26 -19.03,12.69 -1.4,1.4 -6.35,5.04 -6.35,6.35 -1.73,0 -0.62,1.81 -3.63,1.81"/>
  <path class="fil5 str1" d="M165.01 613.42c8.78,-5.86 10.14,1.45 13.59,3.17 0,1.36 9.66,4.49 10.43,6.35 0.05,0.11 3.78,3.5 4.08,3.63 2.96,1.23 2.43,1.58 6.13,4.53"/>
  <path class="fil5 str1" d="M182.23 600.27c1.64,4.92 8.61,3.89 8.61,10.88 0,2.43 -1.19,2.11 0,4.98 0.22,0.52 1.07,3.38 1.36,4.08 1.19,2.88 1.36,1.3 1.36,4.99l-0.45 1.36"/>
  <path class="fil5 str1" d="M772.21 605.34c9.45,10.69 31.17,11.64 44.03,7.63 5.59,-1.75 13.08,1.08 18.13,3.17 4.18,1.73 12.47,4.26 16.77,4.53 8.85,0.55 25.8,10.27 34.9,14.05 4.34,1.8 8.42,1.76 13.6,4.08 2.99,1.34 4.28,1.24 8.16,3.17 6.75,3.37 2.17,1.27 6.8,5.89 1.88,1.88 12.08,9.15 14.5,10.42"/>
  <path class="fil5 str1" d="M894.19 614.78c-4.93,-1.65 -7.37,-4.22 -13.6,-4.99 -1.33,-0.16 -16.6,-3.14 -17.67,-3.63 -7.41,-3.33 -15.63,-2.07 -22.66,-4.98 -2.48,-1.03 -3.1,0.16 -4.99,-0.91 -0.29,-0.16 -3.64,-1.43 -4.08,-1.36 -2.94,0.48 -5.9,3.2 -6.8,5.89 -0.19,0 -4.99,3.83 -4.99,5.44 0,0.51 -0.49,1.85 -0.91,2.26"/>
  <path class="fil5 str1" d="M703.96 724.26c2.4,12.79 -9.33,5.88 0.8,33.27 2.33,6.29 18.23,43.75 21.75,48.04 4.86,5.93 -0.73,28.14 0,29.91 5.29,12.78 18.78,13.73 21.75,24.47 1.08,3.89 4.18,10.53 7.25,13.6"/>
  <path class="fil5 str1" d="M665.78 833.67c0,-3.33 -0.91,-4.61 -0.91,-10.88 0,-6.52 1.51,-15.91 -0.91,-21.75 -2.18,-5.26 7.25,0.96 7.25,-11.78 0,-11.55 -2.16,-6.14 -7.25,-16.31 -1.02,-2.04 -5.44,-11.42 -5.44,-12.69l-1.67 3.67"/>
  <path class="fil5 str1" d="M954.92 788.35c-5.39,-2.69 -20.49,-11.15 -23.57,-15.41 -4.34,-6.03 -5.72,-19.3 -19.94,-22.66 -11.75,-2.77 -17.4,-0.62 -26.28,-2.72 -9.73,-2.3 -36.71,-42.6 -40.79,-42.6 0,-0.06 -6.58,-10.88 -9.97,-10.88 -20.67,0 -31.82,-14.3 -46.23,-16.32 -6.06,-0.85 -33.28,-7 -37.16,-10.88 -1.2,-1.2 -3.63,-2.29 -3.63,-4.53 -1.55,0 -4.95,-7.02 -5.97,-9.4"/>
  <path class="fil5 str1" d="M924.1 858.14c-8.69,-5.21 -17.35,-10.91 -26.29,-16.31 -4.39,-2.66 -23.57,-11.8 -23.57,-18.13 0,-7.84 -16.07,-21.86 -19.03,-29 -1.37,-3.3 -3.46,1.06 -9.97,-2.72 -4.86,-2.82 -40.12,-24.31 -40.79,-24.47 -2.02,-0.48 -29.2,-39.7 -37.16,-46.23 -4.03,-3.3 -22.12,-15.01 -22.66,-16.32 -2.62,-6.33 -11.76,-7.65 -18.63,-10.73"/>
  <path class="fil5 str1" d="M797.66 84.54c0,10.31 -2.74,11.8 -9.97,19.04 -2.34,2.34 -19.96,6.28 -27.19,16.31 -2.32,3.22 -10.41,17.91 -11.78,19.04 -4.49,3.68 -7.12,9 -12.69,11.78 0,5.36 -17.29,30.62 -22.66,37.16 -4.87,5.94 -15.41,12.92 -15.41,18.13 -1.19,0 -2.81,3.63 -5.44,3.63 -1.44,0 -1.86,0.95 -3.63,2.29"/>
  <path class="fil5 str1" d="M882.86 94.51c-5.15,1.29 -12.82,4.01 -14.5,9.06 -3.11,9.32 -24.15,14.98 -31.72,19.03 -19.9,10.65 -12.24,19.45 -33.54,24.47 -6.53,1.54 -19.48,18.56 -21.75,25.38 -6.96,0 -20.77,19.3 -21.75,25.38 -0.56,3.47 -4.41,6.55 -7.25,8.16 -0.51,0.29 -15.91,6.64 -17.22,7.25 -10.95,5.08 -15.32,6.31 -21.75,15.64"/>
  <path class="fil5 str1" d="M904.62 159.77c-7.79,7.79 -35.53,20 -46.43,23.64 -4.26,1.42 -19.76,-0.91 -26.17,5.06 -6.92,6.45 -17.07,27.67 -23.64,30.39 -12.16,5.04 -13.86,9.15 -23.64,15.19 -8.08,5 -9.42,7.53 -17.73,10.97 -7.9,3.27 -15.55,8.74 -24.48,10.97"/>
  <path class="fil5 str1" d="M702.49 98.14c-3.08,2.06 -24.38,25.15 -24.47,25.38 -0.27,0.65 -4.17,9.62 -4.53,9.97 -5.09,5.09 -9.74,-0.7 -22.66,17.22 -8.01,11.12 -10.33,18.46 -22.66,23.57 -1.68,0.69 -4.53,2.29 -5.54,5.76"/>
  <path class="fil5 str1" d="M899.64 282.36c-1.61,2.41 -5.17,2.62 -8.61,4.08 -6.29,2.66 -2.45,1.58 -7.7,2.27 -0.4,0.05 -15.16,3.35 -15.86,3.63 -10.75,4.18 -7.9,6.76 -16.77,12.24 -10.42,6.44 -19.3,2.13 -31.72,7.7 -6.11,2.74 -6.86,5.23 -14.96,7.25 0,0.56 -5.65,3.63 -5.89,3.63 0,0.99 -5.76,2.72 -5.89,2.72 0,0.73 0.18,0.23 -1.69,0.88"/>
  <path class="fil5 str1" d="M869.27 243.84c-12.93,0 -31.44,5.31 -42.6,11.78 -3.72,2.16 -3.89,2.87 -8.61,4.99 -2,0.9 -0.29,1.74 -5.44,3.62 -12.44,4.55 -4.52,10.91 -16.32,14.96 -5.46,1.87 -7.55,1.57 -13.14,4.08 -2.22,0.99 -5.04,1.87 -6.8,3.63 -2.61,2.61 -6.25,2.79 -8.06,4.05"/>
  <path class="fil5 str1" d="M781.35 172.46c6.14,0.44 4.6,-1.12 10.43,-2.49 1.91,-0.45 8.16,-3.54 8.16,-5.89 0.54,0 2.33,-4.18 11.33,-0.45 8.18,3.39 11.37,-7.39 15.41,-9.06 2.1,-0.87 6.28,-3.63 8.61,-3.63"/>
  <path class="fil5 str1" d="M739.31 211.47c-0.19,-2.89 -2.94,-5.52 -1.47,-10.23 1.31,-4.17 -0.07,-4.35 3.62,-8.61 5.92,-6.83 4.84,-3.86 9.06,-14.05 1,-2.42 -0.05,-5.07 2.72,-8.16 3.37,-3.77 0.7,-1.88 5.44,-5.89 5.89,-4.99 22.99,-12.89 25.38,-16.77 2.28,-3.69 3.48,-7.71 5.89,-11.33 0.05,0 11.31,-6.3 11.33,-6.35l0.45 -0.91"/>
  <path class="fil5 str1" d="M771.84 135.53c0,11.12 -22.21,19.54 -23.57,24.02 -0.55,1.82 -2.72,2.18 -2.72,7.7 0,2.22 1.01,6.09 2.72,6.8 0.01,0 1.67,1.67 1.81,1.81l1.23 -1.57"/>
  <path class="fil5 str1" d="M719.5 221.76c3.39,3.56 5.66,4.44 10.64,4.85 6.72,0.56 3.15,0.04 9.06,-1.36 2.21,-0.52 4.22,-3.17 6.35,-3.17 0.21,0 5.6,-2.38 9.06,-2.72 9.34,-0.93 10.75,-14.47 22.66,-16.77 2.33,-0.45 5.14,-2.8 8.16,-3.17 1.99,-0.24 8.32,-5.15 10.42,-7.25 3.18,-3.18 5.62,-7.76 10.88,-8.61 2.26,-0.37 4.83,-4.53 8.16,-4.53"/>
  <path class="fil5 str1" d="M634.93 170.63c5.28,1.99 11.45,-2.02 16.81,-2.02 5.28,0 21.63,1.31 23.11,-4.98 0.47,-2 7.66,-11.72 9.97,-13.14 7.53,-4.65 15.84,-7.84 21.3,-15.41 1.52,-2.11 3.17,-5.07 5.89,-5.89 5.83,-1.77 27.64,-14.73 27.64,-22.2l0.91 -0.45"/>
  <path class="fil5 str1" d="M695.45 208.15c2.51,-2.15 1.61,-6.61 1.61,-10.53 0,-4.53 -1.11,-13.45 2.72,-16.77 4.25,-3.69 12.24,-13.22 12.24,-19.03 0,-4.72 3.48,-12.54 6.8,-15.86 2.07,-2.07 1.4,-2.15 4.53,-4.08 1.73,-1.08 11.78,-12.42 11.78,-14.5"/>
  <path class="fil5 str1" d="M627.04 97.12c-6.24,10.42 -4.6,13.79 -7.7,24.02 -1.11,3.68 -2.72,1.21 -2.72,8.16 0,6.81 2.34,6.66 3.17,11.78 0.71,4.33 0.22,5.66 3.63,9.06 3.36,3.36 3.63,2.68 3.63,7.71 0,5.28 0.25,3.32 -1.36,8.16 -0.66,1.99 -0.75,4.98 0,6.8 0.62,1.5 -1.75,1.24 2.49,1.47"/>
  <path class="fil5 str1" d="M653.78 126.58c-3.51,5.26 -8.19,11.37 -12.69,15.86 -2.24,2.24 -2.38,3.17 -6.35,3.17 0,0.46 -5.44,4.28 -5.44,6.35l-2.8 1.45"/>
  <path class="fil5 str1" d="M705.44 113.89c-1.73,2.59 -2.57,3.61 -5.89,4.99 -0.73,0.3 -5.6,5.14 -6.35,6.35 -3.32,5.39 0.03,10.39 -7.7,13.59 -2.33,0.97 -9.97,10.8 -9.97,14.05 0,3.4 0.31,3.86 -0.91,6.8 -0.53,1.58 -0.79,2.78 0.23,3.96"/>
  <path class="fil5 str1" d="M647.56 169.21c2.82,2.98 3.08,1.2 5.76,3.13 0.47,0.34 5.08,1.61 7.25,3.17 1.72,1.24 8.52,3.7 10.88,2.72 4.9,-2.04 11.58,-5.89 17.22,-5.89 1.39,0 8.92,-13.82 10.88,-13.82"/>
  <path class="fil5 str1" d="M871.98 191.61c-4.39,1.46 -5.93,0.49 -11.33,3.63 -6.83,3.97 -12.77,7.74 -19.94,11.33 -11.3,5.65 -5.92,15.65 -10.88,18.13 0,0.94 -2.64,0.79 -4.53,2.27 -1.73,1.35 -16.51,8.75 -19.04,9.06 -13.47,1.65 -12.39,10.88 -17.22,10.88 -7.3,0 -12.76,4.53 -17.67,4.53 0,-1.25 -2.96,-5.2 -4.35,-6.4"/>
  <path class="fil5 str1" d="M789.05 246.9c5.62,0 6.97,1.28 12.24,-0.91 1.25,-0.52 0.88,-1.36 4.08,-1.36 5.63,0 10.67,-1.81 16.32,-2.72 0.03,-0.01 6.34,-3.62 7.25,-4.08 0,-0.55 5.08,-1.65 6.8,-2.72 0.04,-0.02 4.24,-1.44 4.98,-1.81 0,-1 3.1,-3.17 3.63,-3.17"/>
  <path class="fil5 str1" d="M776.37 286.89c2.81,-4.01 0.44,-0.51 0.44,-6 0,-5.94 10.53,-16.77 13.6,-16.77 4.42,0 22.8,-11.73 23.11,-11.78"/>
  <path class="fil5 str1" d="M852.04 165.78c-3.3,2.47 -13.6,6.75 -17.67,7.25 -2.03,0.25 -8.49,4.08 -8.61,4.08 -1.76,2.63 -4.47,8.08 -7.71,9.06 -2.6,0.79 -10.57,12.08 -13.14,13.14 -0.6,0.25 -5.23,5.65 -9.52,6.35 -4.32,0.7 -11.43,7.63 -12.69,11.78 -1.54,5.09 -7.25,3.32 -7.25,7.71 0,3.7 0.07,6.4 1.36,9.52l1.83 3.53"/>
  <path class="fil5 str1" d="M784.18 216.31c-0.64,2.49 12.57,1.17 14.84,0.23 3.18,-1.32 7.09,-2.4 9.06,-5.89 0.95,-1.68 0.1,-1.25 1.81,-3.63 1.96,-2.73 3.74,-1.98 4.98,-4.98 0.45,-1.08 2.27,-1.83 2.27,-3.17l2.72 -1.81"/>
  <path class="fil5 str1" d="M789.67 281.02c6.16,4.14 5.52,1.95 11.73,1.34 0.62,-0.06 5.95,-1.65 6.8,-2.27 7.77,-5.59 9.69,1.66 17.22,-5.89 1.41,-1.41 6.84,-4.07 8.16,-7.25 0.06,-0.14 1.22,-1.67 1.36,-1.81"/>
  <path class="fil5 str1" d="M831.31 291.31c-4.76,2.5 -11.16,-0 -14.73,2.38 -2.88,1.92 -12.83,11.62 -13.37,14.96 -0.08,0.51 -2.71,9.05 -3.17,9.52 -0.27,0.27 -2.27,2.51 -2.27,2.72 -0.78,0 -0.45,1.18 -0.45,2.27 0,-0.66 4.75,-1.93 5.89,-1.81 7.18,0.71 14.04,3.9 21.3,2.72 0.58,-0.09 10.29,-0.51 10.42,-0.45 20.65,8.55 21.59,-15.11 36.26,-16.32 3.18,-0.26 9.5,-2.45 11.33,-4.98 0.88,-1.22 1.71,-2.72 3.17,-2.72"/>
  <path class="fil5 str1" d="M834.94 323.6c4.85,-7.28 4.93,-5.39 12.69,-8.61"/>
  <path class="fil5 str1" d="M797.03 338.92c13.35,-2.06 14.14,16.19 17.06,19.12 8.24,8.25 17.09,5.14 26.74,6.8 1.7,0.29 11.9,2.12 13.14,1.81l1.81 -0.45"/>
  <path class="fil5 str1" d="M840.83 337.65c-2.7,0 -6.91,2.27 -13.59,2.27 -3.71,0 -7.63,-0.01 -10.88,-1.36 -2.62,-1.09 -8.96,1.36 -11.7,1.89"/>
  <path class="fil5 str1" d="M804.46 767.5c-2.67,1.18 -0.99,0.16 -0.56,2.01 2.47,10.45 25.61,22.86 28.55,30.82 1.86,5.04 2.48,8.68 6.35,13.14 1.99,2.3 1.91,3.71 4.99,4.98 1.92,0.8 5.37,6.36 6.35,7.71l2.27 2.27c2.39,3.32 1.39,4.33 5.44,7.25 0.34,0.24 9.95,10.3 10.42,10.88 0.82,0.99 21.27,9.27 23.11,9.97 3.25,1.24 9.08,4.62 11.33,4.99l1.36 0.45"/>
  <path class="fil5 str1" d="M705.73 760.01c1.15,5.42 16.68,9.35 20.68,11.31 6.22,3.04 5.4,1.32 9.52,5.44 2.81,2.81 3.19,17.77 4.53,22.2 2.2,7.25 1.88,7.53 5.89,15.41 1.34,2.62 4.68,6.5 5.44,10.42 1.38,7.16 12.26,10.9 16.77,15.41 4.03,4.03 7.07,8.43 10.42,11.78 4.28,4.28 4.8,4.24 6.8,9.06 0.17,0.42 1.81,1.92 1.81,3.63 1.57,0 0.28,2.72 2.72,2.72"/>
  <path class="fil5 str1" d="M922.64 797.61c-0.86,-2.58 -0.76,-1.02 -1.36,-2.72 -1.46,-4.11 -0.75,-4.22 -3.17,-9.06 -3.99,-7.99 -1.97,-8.23 -10.88,-12.69 -2.87,-1.44 0.23,0.79 -5.89,-2.27 -3.38,-1.69 -13.6,-15.53 -13.6,-18.58 -1.28,0 -2.16,-3.51 -2.61,-4.73"/>
  <path class="fil5 str1" d="M747.36 662.36c4.94,-0.59 10.44,-0.45 14.85,-1.16 4.8,-0.78 6.79,-1.81 12.69,-1.81 17.26,0 10.06,4.31 19.94,8.16 8.53,3.31 9.83,-2.95 20.85,-0.45 4.74,1.08 11.88,1.38 16.77,3.17 7.69,2.82 16.34,5.2 23.57,8.61 0.45,0.21 14.51,5.89 14.96,5.89 0,1.07 0.8,4.53 1.36,5.44 2.65,4.3 6.68,6.93 9.52,10.88 0.87,1.2 7.1,7.07 8.61,8.16l1.81 1.81c1.29,1.8 2.89,1.98 4.98,4.08"/>
  <path class="fil5 str1" d="M848.91 654.42c-6.67,-5 -4.83,-3.24 -11.92,-7.73 -5.37,-3.4 -10.35,-5.04 -16.32,-4.08 -4.7,0.76 -8.56,-0.5 -11.78,2.72 -2.42,2.42 -8.92,2.98 -11.78,1.36 -5.76,-3.25 -21.75,2.79 -21.75,7.7 0,2.09 0.23,2.95 -0.45,4.99"/>
  <path class="fil5 str1" d="M836.93 671.83c0.95,4.62 1.04,3.37 3.69,7.5 2.2,3.44 12.24,12.74 12.24,15.86 0,0.29 1.65,6.54 1.81,6.8 5.74,9.29 12.19,10.42 19.94,16.77 3.53,2.9 4.55,2.28 7.25,3.62 0,0.93 0.45,0.68 1.81,1.36"/>
  <path class="fil5 str1" d="M808.89 645.33c3.44,6.88 24.79,8.28 32.63,12.46 7.01,3.75 24.12,12.46 32.63,12.46"/>
  <path class="fil5 str1" d="M810.72 687.63c10.05,19.6 39.41,27.62 39.41,35.2 0,9.09 2.91,22.81 9.06,29.91 6.78,7.82 8.92,18.9 13.59,23.57 10.72,10.7 20.48,18.6 28.1,31.73 1.37,2.36 3,3 4.53,4.53"/>
  <path class="fil5 str1" d="M879.13 764.52c-3.79,-5.68 -4.76,-7.3 -12.24,-9.06 -2.13,-0.5 0.73,-0.91 -3.62,-0.91 -2.24,0 -4.15,-3.36 -6.8,-2.27 -6.99,2.9 -10.47,-2.03 -17.22,-3.63 -1.26,-0.3 -7.33,-3.71 -8.61,-4.99 -1.74,-1.74 -1.81,-3.16 -1.81,0 0,0.04 1.32,6.26 1.36,6.35 2.64,6.37 7.53,8.72 11.33,13.6 6.4,8.22 4.2,8.13 14.5,14.5 11.77,7.28 8.87,5.13 15.86,16.77 1.56,0 1.9,5.44 4.08,5.44"/>
  <path class="fil5 str1" d="M829.22 741.98c0.12,-3.91 -6.71,-20.8 -10.36,-22.32 -0.78,-0.32 -10.75,-8.06 -11.33,-8.16 -5.12,-0.83 -5.41,-3.43 -9.06,-5.44 -2.55,-1.4 -4.21,-3.91 -6.8,-4.99 -2.01,-0.83 -5.22,-0.92 -6.35,-3.17 -2.27,0 -4.39,-11.06 -5.89,-13.14 -0.42,-0.58 -1.92,-6.35 -3.63,-6.35l-1.83 -3.63"/>
  <path class="fil5 str1" d="M788.17 700.02c-1.82,-1.34 -0.82,-0.96 -0.13,1.96 0.71,2.99 10.57,18.72 13.14,24.93 0.37,0.89 5.2,11.96 5.44,12.24 8.4,9.67 7.66,-0.98 14.5,12.69 1.36,2.72 1.81,2.09 1.81,4.53l1.36 1.81"/>
  <path class="fil5 str1" d="M736.34 698.13c13.42,-1.1 7.48,-8.11 25.41,-0.68 1.68,0.7 6.02,3.91 6.35,5.89 0.16,0.98 4.12,7.7 5.44,7.7 1.31,2.62 7.5,2.65 12.24,12.69 2.11,4.48 3.4,6.62 6.8,10.42 2.66,2.98 4.06,8.6 8.16,9.97 0,0.51 0.76,0.91 1.36,0.91l0.91 0.91"/>
  <path class="fil5 str1" d="M780.78 704.7c-1.46,-4.35 -1.21,-2.27 -4.99,-4.98 -0.52,-0.37 -10.24,-3.63 -10.88,-3.63 -0.76,0 -1.51,0 -2.27,0l-0.91 1.36"/>
  <path class="fil5 str1" d="M785.45 555.84c-4.94,-3.25 8.88,3.83 8.93,3.85 0.78,0.32 13.28,1.41 14.5,0.91 3.5,-1.45 4.04,-7.25 9.06,-7.25 1.57,0 11.1,-6.16 17.22,-3.63 12.44,5.15 34.48,-2.25 44.41,2.72l3.62 1.81"/>
  <path class="fil5 str1" d="M808.88 560.59c6.05,12.09 24.41,21.75 37.16,21.75 4.75,0 26.33,11.78 29,12.69"/>
  <path class="fil5 str1" d="M842.42 528.87c-8.27,0 -7.14,8.99 -14.5,7.25 -13.25,-3.13 -13.91,1.23 -21.75,9.06 -4.14,4.14 -9.49,9.16 -11.78,14.5"/>
  <path class="fil5 str1" d="M702.69 733.02c19.41,5.55 48.5,15.3 56.34,34.23 0.11,0.26 0.21,6 2.72,9.06 4.07,4.97 0.68,2.94 8.16,9.06 6.07,4.98 16.32,6.81 16.32,16.32 0,19.8 9.47,13.52 19.03,29 2.29,3.71 14.12,15.17 14.5,16.32 2.18,6.53 1.76,2.5 4.53,6.34 1.42,1.97 6.07,9.06 8.16,9.06"/>
  <path class="fil5 str1" d="M755.89 713.21c-1.87,7.42 -0.2,8.15 2.24,15.51 3.1,9.36 7.54,17.51 14.5,24.47 4.58,4.58 -3.84,7.86 10.88,21.3 3.65,3.33 18.77,13.72 19.94,17.22 0.31,0.94 3.58,8.9 4.08,9.52 5.3,6.48 2.5,7.41 5.44,14.5 0.76,1.83 10.21,2.05 13.59,5.44 4.66,4.66 6.01,3.92 10.88,10.42l1.36 1.81"/>
  <path class="fil5 str1" d="M765.29 781.31c0.19,11.14 -0.69,20.27 1.9,31.25 1.09,4.61 3.82,3.21 4.53,11.78 0.13,1.59 1.54,7.25 3.63,7.25 0.65,0 13.58,5.68 14.5,6.35 4.13,2.98 7.49,9.97 9.97,14.5 1.23,2.24 7.77,9.13 9.97,12.69 1.32,2.13 1.74,1.91 4.08,3.63"/>
  <path class="fil5 str1" d="M734.5 744.76c0.09,7.02 0.25,8.09 4.13,14.78 3.78,6.52 8.61,8.59 8.61,15.86 0,6.42 -0.05,7.46 1.81,13.6 0.35,1.16 3.35,6.52 4.08,7.25 4.42,4.42 7.71,1.84 7.71,10.42l0.45 0.91"/>
  <path class="fil5 str1" d="M712.11 735.86c0.55,-2.82 3.86,-14.22 3.86,-16.65 0.25,0 1.41,-0.45 3.17,-0.45 6.04,0 7.34,-0.13 11.78,4.99 2,2.3 5.17,9.12 7.71,9.97 2.38,0.79 1.67,2.72 4.53,2.72 0,0.25 4.66,3.6 5.44,4.08 2,1.24 8.22,8.16 9.52,8.16 0.85,2.56 4.58,5.89 5.44,9.52 0.77,3.27 4.69,3.43 5.89,6.35l0.45 1.81"/>
  <path class="fil5 str1" d="M661.03 766.68c8.79,3.07 7.02,0.68 12.33,6.01 2.41,2.42 1.76,2.27 5.89,2.27 6.3,0 11.72,1.96 14.5,8.16 2.72,6.06 4.45,13.33 8.61,18.13 9.29,10.71 -1.06,12.82 12.69,25.38 9.27,8.47 8.15,4.32 9.52,15.41 0.33,2.66 1.36,1.62 1.36,4.08"/>
  <path class="fil5 str1" d="M679.26 774.96c0,6.4 -0.48,14.46 4.53,19.04 5.82,5.31 7.31,5.62 10.42,13.14 0.54,1.31 4.08,4.34 4.53,5.44"/>
  <path class="fil5 str1" d="M700.83 743.65c-3.86,3.31 -7.07,6.89 -7.07,12.27 0,11.69 4.37,5.36 8.16,14.5 3.29,7.93 5.61,14.24 9.97,21.75 0.01,0.02 2.72,6.79 2.72,6.8"/>
  <path class="fil5 str1" d="M776.55 609.08c3.59,-0.81 6.44,-0.85 9.66,-3.16l0.91 -0.45c2.5,-0.59 1.96,-7.09 4.53,-8.16 2.36,-0.98 3.31,2.28 9.97,-2.72 0,-0.35 7.15,-6.35 9.97,-6.35 3.01,0 9.7,1.95 13.59,2.27 6.61,0.55 4.55,0.94 10.43,-0.45 5.58,-1.32 13.52,4.08 16.31,4.08"/>
  <path class="fil5 str1" d="M785.54 555.38c3.88,3.92 2.44,6.99 6.1,10.65 1.22,1.22 7.91,8.47 8.16,9.52 1.03,4.37 2.66,6.8 6.8,6.8 4.72,0 7.15,-0.12 11.78,0.45 2.41,0.3 2.91,0.91 5.89,0.91"/>
  <path class="fil5 str1" d="M886.58 650.55c-9.31,-6.21 -21.5,-12.24 -32.63,-14.05 -1.41,-0.23 -10,-4.01 -11.78,-4.53 -2.87,-0.85 -12.13,-1.86 -14.96,0.45 -5.09,4.17 -13.98,0.8 -19.49,-0.45 -2.47,-0.56 -6.06,-0.69 -8.16,-1.81 -1.15,-0.62 -9.72,-1.81 -11.33,-1.81 0,1.64 -5.44,0.81 -5.44,-5.44 0,-4.05 -0.87,-4.96 -3.17,-8.16 -0.6,-0.83 -1.36,-0.84 -1.59,-1.81 -1.3,-3.23 -1.75,0.66 -1.49,-3.86"/>
 </g>
</svg>
