<svg xmlns="http://www.w3.org/2000/svg" xml:space="preserve" width="210mm" height="297mm" version="1.0" style="shape-rendering:geometricPrecision; text-rendering:geometricPrecision; image-rendering:optimizeQuality; fill-rule:evenodd; clip-rule:evenodd"
viewBox="0 0 3427.45 4847.4"
 xmlns:xlink="http://www.w3.org/1999/xlink">
 <defs>
  <style type="text/css">
   <![CDATA[
    .str0 {stroke:black;stroke-width:2.88;stroke-miterlimit:2}
    .fil0 {fill:black}
    .fil1 {fill:#CCCCCC}
   ]]>
  </style>
 </defs>
 <g id="elephant">
  <rect class="fil0" width="3427.45" height="4847.4"/>
  <path class="fil1 str0" d="M681.02 2887.5c-73.25,18.32 -79.29,45.86 -105.22,123.64 -23.07,69.2 -19.91,225.85 -84.18,247.27 -46.59,15.53 -112.71,122.92 -131.53,168.36 -26.2,63.25 -16.32,33.57 -73.66,84.18 -78.16,69 -117.7,76.18 -184.14,168.36 -14.98,20.78 -57.87,59.44 -57.87,84.18 -4.45,0 -38.88,61.27 -31.57,78.92 12.02,29.03 14.8,69.41 36.83,99.96 17.98,24.94 26.09,67.93 52.61,78.92 46.9,19.42 -23.18,194.66 31.57,194.66 43.46,0 90.19,-4.5 131.53,5.26 17.6,4.16 10.52,-33.63 10.52,-52.61 0,-63.39 -63.13,-125.35 -63.13,-236.75 0,-49.13 13.89,-60.84 42.09,-99.96 10.83,-15.03 78.06,3.92 147.31,-99.96 11.8,0 99.96,-100.43 99.96,-110.48 0.19,0 29.48,-5.26 47.35,-5.26 0,-14.12 89.62,-21.63 115.75,-57.87 35.44,-49.17 77.39,-90.8 126.27,-121.01 0.86,-0.53 31.43,-15.78 31.57,-15.78 0,-7.28 7.03,-10.52 15.78,-10.52 0,-22 57.87,68.34 57.87,131.53 0,19.82 5.26,49.78 5.26,78.92 0,46.52 -5.18,97.8 5.26,142.05 7.27,30.78 110.48,101.68 110.48,131.53 0,106.37 -3.53,116.87 21.05,220.97 6.38,27.05 75.03,224.97 97.33,278.84 6.47,15.63 -7.11,114.22 13.55,144.49 45.32,66.38 -0.81,64.74 20.64,144.88 11.6,43.33 -48.69,135.57 -9.21,135.47l122.38 -0.3c21.81,-0.05 -2.69,-282.8 -2.69,-361.41 0,-70.73 -19.15,-72.26 -5.26,-157.83 13.35,-82.28 13.15,-139.8 13.15,-228.86 0,-55.28 198.82,136.46 134.16,410.37 -4.11,17.4 -55.24,74.93 -11.29,137.94 39.84,57.11 22.74,120.17 30.02,189.37l123.33 -2.43c-1.28,-142.9 -8.8,-370.66 15.78,-522.17 8.83,-54.44 5.26,-140.52 5.26,-199.92 67.76,0 171.99,113.07 386.69,113.11 -22.38,90.1 34.26,372.73 34.26,475.14 0,1.39 -5.26,23.24 -5.26,42.09 0,26.58 -3.54,47.15 5.26,68.4 3.8,9.17 6,12.43 14.47,32.88 47.08,5.93 97.87,0.9 107.79,-0.32 32.16,-3.96 24.5,-2.09 14.47,-26.3 -0.24,-0.58 5.26,-142.32 5.26,-157.83 0,-36.44 21.19,-181.61 31.57,-199.92 2.99,-5.28 24.72,-95.49 26.3,-105.22 51.24,-315.78 -40.96,-271.03 47.35,-57.87 20.47,49.41 26.31,100.99 26.31,157.83 0,22.72 -5.26,43.57 -5.26,52.61 0,43.96 26.39,63.38 42.09,101.28 8.13,19.63 0.69,99.96 10.52,99.96 0,14.35 -2.69,56.92 -5.26,63.13 -11.15,26.92 4.64,52.07 4.64,83.71 31.68,-7.92 24.4,-12.79 53.23,-0.85 35.22,14.59 46.07,-12.56 99.77,0.11 35.22,8.31 -7.78,-131.61 5.26,-163.09 12.79,-30.88 3.73,-75.81 10.52,-110.48 17.85,-91.14 -21.04,-236.79 -21.04,-334.08 0,-73.56 50.12,-321.06 84.36,-381.55 18.76,-33.13 21.46,-111.3 47.35,-163.1 29.17,5.26 95.84,143.42 105.22,147.31 95.64,39.62 82.94,137.02 142.05,205.19 83.48,96.26 9.09,110.48 168.36,110.48 -27.48,-27.48 -128.9,-47.87 -128.9,-86.81 0,-37 57.33,28.12 10.52,-36.83l-15.78 -15.78c-26.98,-34.55 -80.82,-144.63 -86.81,-181.51 -7.07,-43.57 -150.55,-197.55 -168.36,-281.47 -6.46,-30.45 -18.15,-28.53 -10.52,-55.24 -29.71,-54.17 -143.08,-115.29 -197.29,-136.79 -23.37,-9.27 -35.55,-30.4 -44.72,-34.2 -63.11,-26.14 -164.06,-31.62 -228.86,-55.24 -19.44,-7.09 -143.82,-61.29 -155.2,-63.13 -80.14,-13 -159.33,-29.11 -228.86,-73.66 -29.1,-18.65 -2.75,-15.27 -42.09,-31.57 -62.46,-25.87 -143.68,-52.92 -202.55,-84.18 -69.45,-36.87 -90.8,-44.62 -142.05,-99.96 -47.84,-51.66 -94.17,-64.87 -155.2,-102.59 -19.24,-11.89 -40.98,-40.08 -44.72,-63.13 -2.22,-13.7 -22.61,-17.73 -31.57,-21.04 -15.22,-5.63 -116.52,-2.63 -131.53,-2.63 -69.15,0 -69.56,-25.29 -128.9,21.04 -23.27,18.17 -28.37,10.75 -47.35,26.31 -14.5,11.89 -25.86,15.54 -34.2,21.04 -44.79,29.54 -1.59,3.19 -52.61,23.68 -43.36,17.41 -59.45,41.56 -73.66,84.18z"/>
 </g>
</svg>
