<svg xmlns="http://www.w3.org/2000/svg" xml:space="preserve" width="223.784mm" height="298.289mm" version="1.0" style="shape-rendering:geometricPrecision; text-rendering:geometricPrecision; image-rendering:optimizeQuality; fill-rule:evenodd; clip-rule:evenodd"
viewBox="0 0 3022.96 4029.4"
 xmlns:xlink="http://www.w3.org/1999/xlink">
 <defs>
  <style type="text/css">
   <![CDATA[
    .str4 {stroke:black;stroke-width:19.06;stroke-miterlimit:2}
    .str3 {stroke:black;stroke-width:14.3;stroke-miterlimit:2}
    .str2 {stroke:black;stroke-width:9.53;stroke-miterlimit:2}
    .str0 {stroke:black;stroke-width:2.38;stroke-miterlimit:2}
    .str1 {stroke:black;stroke-width:1.03;stroke-miterlimit:2}
    .fil4 {fill:none}
    .fil2 {fill:black}
    .fil3 {fill:#FFFFCC}
    .fil1 {fill:white}
    .fil0 {fill:white;fill-opacity:0.450980}
   ]]>
  </style>
 </defs>
 <g id="Layer_x0020_1">
  <path class="fil0" d="M-0 2057.02l91.42 0 0 87.62 -91.42 0 0 -87.62z"/>
  <rect class="fil1 str0" x="179.44" y="16.22" width="2836.76" height="4011.99"/>
  <rect class="fil2" x="2850.37" y="310.48" width="165.84" height="3717.73"/>
  <rect class="fil2" x="2343.2" width="237.87" height="2451.3"/>
  <rect class="fil2" x="384.44" y="16.22" width="165.84" height="4011.99"/>
  <path class="fil2" d="M179.44 16.22l205 0 0 1409.45 -205 -75.77 0 -1333.68z"/>
  <rect class="fil2" transform="matrix(0.925006 -0 -2.57814E-002 1 790.951 16.2168)" width="228.74" height="4011.99"/>
  <rect class="fil2" transform="matrix(-9.25006E-001 -0 0.0257814 1 1213.63 16.2168)" width="228.74" height="4011.99"/>
  <rect class="fil2" x="1442.37" y="16.22" width="280.21" height="4011.99"/>
  <rect class="fil2" x="2684.53" y="23.31" width="165.84" height="3741.97"/>
  <path class="fil2" d="M2755.35 3378.48l267.61 180.46 -204.76 321.03 -267.61 -180.46 204.76 -321.03z"/>
  <path class="fil2" d="M2344.74 2290.49l236.32 160.81 -180.82 286.08 -236.32 -160.81 180.82 -286.08z"/>
  <rect class="fil2" x="2163.92" y="2588.12" width="237.87" height="1440.09"/>
  <rect class="fil2" x="2232.37" y="343.33" width="116.24" height="2138.72"/>
  <path class="fil2" d="M2347.48 337.6l1.12 315.45 -1797.2 -72.03 -1.12 -212.51 1797.2 -30.91z"/>
  <rect class="fil2" transform="matrix(0.00493177 0.931039 -4.50494E-001 -1.73464E-001 2014.54 1840.81)" width="228.74" height="4011.99"/>
  <rect class="fil2" transform="matrix(0.000539948 0.929143 -4.93217E-002 -2.87393E-004 3015.96 3668.59)" width="228.74" height="4011.99"/>
  <rect class="fil2" transform="matrix(0.00637752 0.698425 -5.82557E-001 0.0057912 3014.75 3210.86)" width="228.74" height="4011.99"/>
  <rect class="fil2" x="1849.83" y="1900.92" width="165.84" height="2127.3"/>
  <path class="fil3 str1" d="M2349.12 574.96l-102.96 114.26 24.38 215.74 156.35 80 170.42 -176.5 -21.42 -189.59 -133.42 -52.79 -93.34 8.89z"/>
  <path class="fil4 str2" d="M2274.92 785.72c6.5,-9.37 30.35,-30.68 41.25,-37.76 -0.63,-5.55 18.62,-16.09 24.49,-17.66 56.83,-15.17 82.09,-10.67 135.34,11.19 27.14,11.14 25.52,38.35 74,39.64 7.58,0.2 20.37,6.73 30.71,8.12 -23.89,2.7 -24.56,5.6 -44.47,16.61 -22,12.17 -44.32,46.39 -90.18,51.57 -43.72,4.94 -75.83,-5.68 -106.87,-37.59 -14.42,-14.82 -34.05,-18.61 -52.36,-23.87 -1.5,-0.43 -5.16,-4.38 -8.73,-3.98l-3.19 -6.27z"/>
  <path class="fil4 str2" d="M2438.69 727.88c24.78,20.31 27.59,64.75 -5.78,86.34 -30.61,19.81 -62.16,17.75 -84.38,-9.1 -12.68,-15.33 -28.12,-46.69 -1.82,-72.6 4.79,-4.71 16.66,-8.21 24.72,-8.98"/>
  <circle class="fil4 str3" transform="matrix(-7.29048E+000 0.823724 0.823724 7.29048 2394.34 760.435)" r="3.39"/>
  <path class="fil4 str2" d="M2269.14 756.57c10.17,-4.71 4.8,0.15 16.43,-8.48 2.1,-1.56 11.52,-10.49 12.69,-12.19 7.16,-10.42 2.3,-17.11 18.66,-25.28 7.81,-3.9 47.29,-16.93 56.73,-18 16.73,-1.89 16.46,-2.45 33.88,-0.52 32.07,3.55 41.96,7.58 69.41,13.68 14.84,3.3 39.44,19.38 44.47,34.7 4.78,14.56 5.53,12.34 21.01,17.49 6.79,2.26 27.66,8.12 34.89,8.47 3.63,0.17 9.19,3.1 12.72,2.7"/>
  <path class="fil4 str2" d="M2432.2 888.77c-17.93,-9.24 -17.84,2.14 -41.25,-13.54 -15.38,-10.31 -32.62,-19.58 -49.45,-27.52l-8.91 -5.61c-4.85,-3.69 -13.85,-8.37 -20.72,-7.59 -19.74,2.23 -20.79,-14.22 -27.75,18.04 -3.87,17.95 11.1,28.49 21.32,42.28 4.86,6.56 16.2,23 27.29,21.75 4.36,-0.49 8.72,-0.98 13.08,-1.48"/>
  <path class="fil4 str2" d="M2254.78 710.19c20.5,-13.31 32.49,-25.2 55.14,-39.33 26.33,-16.42 72,-47.17 103.28,-38.16 126.17,36.31 57.72,33.54 113.83,69.91 7.54,4.88 12.36,1.2 24.17,8.85"/>
  <path class="fil3" d="M1642.01 1319.42l96.38 91.63 -6.62 187.61 -129.45 79.39 -158.68 -140.79 5.82 -164.87 111.5 -54.41 81.06 1.44z"/>
  <path class="fil4 str2" d="M1720.04 1496.15c-6.23,-7.64 -28.21,-24.42 -38.08,-29.8 0.17,-4.83 -17.12,-12.63 -22.29,-13.59 -50,-9.29 -71.48,-3.72 -115.92,18.68 -22.65,11.41 -19.44,34.76 -61.15,39.11 -6.52,0.68 -17.11,7.16 -25.93,9.05 20.77,0.73 21.55,3.19 39.44,11.35 19.77,9.02 41.3,37.04 81.18,38.44 38.02,1.34 64.99,-9.96 89.62,-39.53 11.45,-13.74 28.11,-18.31 43.54,-24.07 1.27,-0.47 4.16,-4.12 7.26,-4.01l2.33 -5.61z"/>
  <path class="fil4 str2" d="M1575 1457.21c-20.01,19.16 -19.46,57.66 10.75,74.05 27.71,15.04 54.77,11.16 72.13,-13.48 9.91,-14.06 21.13,-42.13 -3.27,-62.71 -4.44,-3.74 -14.91,-5.97 -21.91,-6.09"/>
  <circle class="fil4 str4" transform="matrix(6.33987 0.223771 -2.23771E-001 6.33987 1615.41 1482.32)" r="3.39"/>
  <path class="fil4 str2" d="M1723.08 1470.64c-9.08,-3.38 -4.13,0.45 -14.73,-6.21 -1.92,-1.2 -10.63,-8.28 -11.75,-9.67 -6.86,-8.51 -3.12,-14.6 -17.78,-20.55 -6.99,-2.84 -41.9,-11.44 -50.11,-11.73 -14.55,-0.51 -14.35,-1.01 -29.24,1.81 -27.42,5.2 -35.67,9.34 -58.92,16.42 -12.57,3.83 -32.71,19.34 -36.02,32.88 -3.15,12.87 -3.95,11.01 -16.95,16.48 -5.7,2.4 -23.3,8.85 -29.51,9.63 -3.12,0.39 -7.72,3.28 -10.78,3.17"/>
  <path class="fil4 str2" d="M1591.33 1595.48c14.84,-9.16 15.53,0.66 34.66,-14.43 12.57,-9.92 26.81,-19.05 40.8,-27.02l7.31 -5.43c3.94,-3.5 11.38,-8.14 17.36,-7.93 17.16,0.61 16.98,-13.65 25.13,13.7 4.53,15.21 -7.66,25.3 -15.56,37.87 -3.76,5.98 -12.43,20.91 -22.07,20.57 -3.79,-0.13 -7.58,-0.27 -11.37,-0.4"/>
  <path class="fil4 str2" d="M1732.36 1429.69c-18.56,-10.11 -29.69,-19.55 -50.16,-30.23 -23.8,-12.4 -65.22,-35.86 -91.58,-26.01 -106.35,39.71 -47.52,32.76 -93.47,67.86 -6.17,4.71 -10.57,1.86 -20.25,9.25"/>
  <path class="fil3 str1" d="M913.18 318.32l210.94 176.58 -247.18 150.84 -209.32 -148.6 245.56 -178.82z"/>
  <path class="fil4 str2" d="M1014 511.76c-5.3,-8.63 -25.41,-28.73 -34.73,-35.55 0.83,-4.9 -15.73,-15.2 -20.86,-16.89 -49.67,-16.28 -72.31,-13.54 -120.64,3.22 -24.63,8.54 -24.54,32.76 -67.63,31.5 -6.74,-0.2 -18.41,4.96 -27.65,5.68 21.06,3.58 21.52,6.18 38.63,16.94 18.91,11.89 37.02,43.36 77.46,50.23 38.55,6.55 67.57,-1.28 96.69,-28.05 13.53,-12.44 31.13,-14.82 47.64,-18.59 1.35,-0.31 4.8,-3.63 7.94,-3.1l3.14 -5.4z"/>
  <path class="fil4 str2" d="M871.54 452.31c-22.99,16.79 -27.69,56.09 0.85,76.9 26.18,19.1 54.27,18.83 75.32,-3.89 12.01,-12.97 27.27,-40.03 5.22,-64.33 -4.02,-4.42 -14.38,-8.11 -21.49,-9.19"/>
  <circle class="fil4 str3" transform="matrix(6.4282 1.09247 -1.09247E+000 6.4282 909.285 483.401)" r="3.39"/>
  <path class="fil4 str2" d="M1020.57 486.18c-8.79,-4.68 -4.27,-0.1 -14.16,-8.33 -1.79,-1.49 -9.7,-9.88 -10.65,-11.45 -5.83,-9.6 -1.19,-15.3 -15.31,-23.36 -6.73,-3.85 -41.12,-17.37 -49.44,-18.78 -14.76,-2.51 -14.48,-2.99 -30.03,-2.14 -28.64,1.56 -37.61,4.65 -62.27,8.7 -13.33,2.19 -35.96,15.25 -41.18,28.59 -4.97,12.68 -5.52,10.67 -19.51,14.48 -6.14,1.67 -24.95,5.84 -31.38,5.79 -3.23,-0.03 -8.31,2.29 -11.42,1.76"/>
  <path class="fil4 str2" d="M869.32 595.4c16.37,-7.31 15.73,2.79 37.28,-9.97 14.16,-8.39 29.91,-15.76 45.25,-21.97l8.18 -4.54c4.49,-3.03 12.71,-6.74 18.76,-5.71 17.4,2.96 20.92,-5.18 23.17,13.96"/>
  <path class="fil4 str2" d="M1035.61 445.74c-17.53,-12.83 -27.58,-23.97 -46.98,-37.63 -22.55,-15.88 -61.55,-45.42 -89.75,-38.98 -113.75,25.96 -52.88,26.9 -104.47,56.38 -6.93,3.96 -11.03,0.45 -21.89,6.66"/>
  <path class="fil3 str1" d="M2807.79 3107.13l-176.82 148.02 207.2 126.44 175.47 -124.57 -205.85 -149.9z"/>
  <path class="fil4 str2" d="M2723.29 3269.28c4.44,-7.24 21.3,-24.08 29.11,-29.8 -0.7,-4.11 13.18,-12.74 17.48,-14.16 41.64,-13.65 60.62,-11.35 101.13,2.7 20.65,7.16 20.57,27.47 56.69,26.41 5.65,-0.16 15.43,4.16 23.18,4.76 -17.66,3 -18.04,5.18 -32.39,14.2 -15.86,9.97 -31.04,36.35 -64.93,42.11 -32.32,5.49 -56.64,-1.07 -81.05,-23.51 -11.35,-10.43 -26.1,-12.42 -39.94,-15.58 -1.13,-0.26 -4.02,-3.05 -6.66,-2.6l-2.63 -4.53z"/>
  <path class="fil4 str2" d="M2842.7 3219.45c19.28,14.08 23.21,47.02 -0.71,64.46 -21.95,16.01 -45.49,15.79 -63.14,-3.26 -10.07,-10.87 -22.86,-33.56 -4.37,-53.93 3.37,-3.71 12.05,-6.8 18.01,-7.71"/>
  <circle class="fil4 str3" transform="matrix(-5.38848E+000 0.915769 0.915769 5.38848 2811.06 3245.51)" r="3.39"/>
  <path class="fil4 str2" d="M2717.78 3247.84c7.37,-3.93 3.58,-0.09 11.87,-6.99 1.5,-1.25 8.13,-8.28 8.93,-9.6 4.89,-8.05 1,-12.82 12.83,-19.58 5.64,-3.22 34.47,-14.56 41.45,-15.74 12.37,-2.1 12.14,-2.51 25.17,-1.79 24,1.31 31.53,3.9 52.2,7.29 11.18,1.84 30.14,12.78 34.52,23.96 4.17,10.63 4.63,8.95 16.36,12.13 5.15,1.4 20.91,4.89 26.3,4.85 2.71,-0.02 6.96,1.92 9.57,1.48"/>
  <path class="fil4 str2" d="M2844.56 3339.39c-13.72,-6.13 -13.18,2.34 -31.25,-8.36 -11.87,-7.03 -25.07,-13.21 -37.93,-18.41l-6.86 -3.8c-3.76,-2.54 -10.65,-5.65 -15.73,-4.79 -14.59,2.48 -17.54,-4.34 -19.42,11.7"/>
  <path class="fil4 str2" d="M2705.17 3213.93c14.7,-10.76 23.12,-20.09 39.38,-31.55 18.91,-13.31 51.59,-38.08 75.23,-32.68 95.35,21.76 44.33,22.54 87.57,47.26 5.81,3.32 9.24,0.38 18.35,5.58"/>
  <path class="fil3 str1" d="M1117.41 2332.06l-54.13 59.71 8.54 221.03 58.3 45.38 81.62 4.86 69.75 -115.35 -9.63 -204.61 -76.96 -24.14 -77.51 13.13z"/>
  <path class="fil4 str2" d="M1068.22 2512.82c4.86,-8.23 23.5,-27.51 32.19,-34.09 -0.86,-4.61 14.59,-14.59 19.4,-16.26 46.59,-16.15 69.5,-17.92 113.85,1.1 51.85,22.24 76.74,70.57 -17.96,98.77 -35.36,10.53 -63.76,-0.13 -91.66,-24.91 -12.97,-11.52 -29.6,-13.48 -45.24,-16.77 -1.28,-0.27 -4.58,-3.35 -7.54,-2.8l-3.05 -5.04z"/>
  <path class="fil4 str2" d="M1201.63 2454.46c21.96,15.47 27.02,52.47 0.43,72.55 -24.39,18.43 -50.89,18.63 -71.11,-2.47 -11.54,-12.04 -26.36,-37.33 -5.95,-60.6 3.72,-4.23 13.43,-7.88 20.12,-9.02"/>
  <circle class="fil4 str3" transform="matrix(-6.04606E+000 1.13352 1.13352 6.04606 1166.53 2484.39)" r="3.39"/>
  <path class="fil4 str2" d="M1061.61 2488.8c8.22,-4.56 4.03,-0.16 13.22,-8.09 1.66,-1.43 8.99,-9.47 9.86,-10.97 5.35,-9.15 0.88,-14.45 14.06,-22.28 6.29,-3.74 38.51,-17.04 46.34,-18.51 13.88,-2.6 13.61,-3.05 28.29,-2.5 27.04,1.01 35.55,3.78 58.88,7.2 12.61,1.85 34.16,13.8 39.3,26.3"/>
  <path class="fil4 str2" d="M1206.02 2589.39c-15.56,-6.63 -14.79,2.88 -35.32,-8.81 -13.49,-7.68 -28.47,-14.38 -43.03,-20l-7.79 -4.15c-4.28,-2.79 -12.09,-6.15 -17.79,-5.09 -16.37,3.07 -18.26,-10.62 -22.11,16.78 -2.14,15.24 11.02,23.15 20.41,34.05 4.47,5.19 14.95,18.24 24.14,16.52 3.62,-0.68 7.23,-1.35 10.84,-2.03"/>
  <path class="fil4 str2" d="M1064.51 2436.13c16.33,-12.38 7.89,-8.3 25.97,-21.49 21.02,-15.34 57.33,-43.83 84.03,-38.21 107.72,22.66 50.31,24.52 99.45,51.51"/>
 </g>
</svg>
