<svg xmlns="http://www.w3.org/2000/svg" xml:space="preserve" width="297.176mm" height="210.176mm" version="1.0" style="shape-rendering:geometricPrecision; text-rendering:geometricPrecision; image-rendering:optimizeQuality; fill-rule:evenodd; clip-rule:evenodd"
viewBox="0 0 29716.58 21016.89"
 xmlns:xlink="http://www.w3.org/1999/xlink">
 <defs>
  <style type="text/css">
   <![CDATA[
    .str0 {stroke:black;stroke-width:17.64;stroke-miterlimit:2.61313}
    .fil0 {fill:#99CCCC}
    .fil2 {fill:red}
    .fil4 {fill:#FF6600}
    .fil3 {fill:yellow}
    .fil1 {fill:white;fill-opacity:0.450980}
   ]]>
  </style>
 </defs>
 <g id="Layer_x0020_1">
  <rect class="fil0 str0" x="8.82" y="8.82" width="29698.94" height="20999.25"/>
  <path class="fil1" d="M14805.63 14504.6l3386.55 0 0 1622.72 -3386.55 0 0 -1622.72z"/>
  <path class="fil1" d="M13817.87 15245.42l6773.1 0 0 3245.44 -6773.1 0 0 -3245.44z"/>
  <path class="fil1" d="M21956.3 16374.27l6773.1 0 0 3245.44 -6773.1 0 0 -3245.44z"/>
  <path class="fil1" d="M5139.85 16656.48l6773.1 0 0 3245.44 -6773.1 0 0 -3245.44z"/>
  <path class="fil1" d="M8.82 14469.33l3386.55 0 0 3245.44 -3386.55 0 0 -3245.44z"/>
  <path class="fil1" d="M26693.83 12811.33l3013.93 0 0 1622.72 -3013.93 0 0 -1622.72z"/>
  <path class="fil1" d="M22601.75 14116.57l3386.55 0 0 1622.72 -3386.55 0 0 -1622.72z"/>
  <path class="fil1" d="M18615.51 12564.4l3386.55 0 0 1622.72 -3386.55 0 0 -1622.72z"/>
  <path class="fil1" d="M12755.01 12105.81l1914.13 0 0 917.19 -1914.13 0 0 -917.19z"/>
  <path class="fil1" d="M10537.18 12564.4l3386.55 0 0 1622.72 -3386.55 0 0 -1622.72z"/>
  <path class="fil1" d="M5351.52 14151.85l3386.55 0 0 1622.72 -3386.55 0 0 -1622.72z"/>
  <path class="fil1" d="M8.82 12176.37l1502.16 0 0 917.19 -1502.16 0 0 -917.19z"/>
  <path class="fil1" d="M553.91 12634.96l3386.55 0 0 1622.72 -3386.55 0 0 -1622.72z"/>
  <path class="fil1" d="M1642.89 11356.39l1914.13 0 0 917.19 -1914.13 0 0 -917.19z"/>
  <path class="fil1" d="M3724.21 12070.53l1914.13 0 0 917.19 -1914.13 0 0 -917.19z"/>
  <path class="fil1" d="M6017.19 11321.12l1914.13 0 0 917.19 -1914.13 0 0 -917.19z"/>
  <path class="fil1" d="M8257.24 12017.62l1914.13 0 0 917.19 -1914.13 0 0 -917.19z"/>
  <path class="fil1" d="M10603.13 11268.2l1914.13 0 0 917.19 -1914.13 0 0 -917.19z"/>
  <path class="fil1" d="M15136.17 11267.64l1914.13 0 0 917.19 -1914.13 0 0 -917.19z"/>
  <path class="fil1" d="M17288.04 11894.14l1914.13 0 0 917.19 -1914.13 0 0 -917.19z"/>
  <path class="fil1" d="M20039.62 11355.82l1914.13 0 0 917.19 -1914.13 0 0 -917.19z"/>
  <path class="fil1" d="M22397.87 12039.41l1914.13 0 0 917.19 -1914.13 0 0 -917.19z"/>
  <path class="fil1" d="M24902.5 11359.99l1914.13 0 0 917.19 -1914.13 0 0 -917.19z"/>
  <path class="fil1" d="M27160.2 12034.13l1914.13 0 0 917.19 -1914.13 0 0 -917.19z"/>
  <path class="fil1" d="M90.72 10774.34l957.07 0 0 458.59 -957.07 0 0 -458.59z"/>
  <path class="fil1" d="M1164.36 11100.54l957.07 0 0 458.59 -957.07 0 0 -458.59z"/>
  <path class="fil1" d="M2350.73 10761.81l957.07 0 0 458.59 -957.07 0 0 -458.59z"/>
  <path class="fil1" d="M3550.13 11065.27l957.07 0 0 458.59 -957.07 0 0 -458.59z"/>
  <path class="fil1" d="M4661.34 10726.53l957.07 0 0 458.59 -957.07 0 0 -458.59z"/>
  <path class="fil1" d="M5790.19 11065.26l957.07 0 0 458.59 -957.07 0 0 -458.59z"/>
  <path class="fil1" d="M6866.13 10757.4l957.07 0 0 458.59 -957.07 0 0 -458.59z"/>
  <path class="fil1" d="M7924.43 11029.98l957.07 0 0 458.59 -957.07 0 0 -458.59z"/>
  <path class="fil1" d="M8995.96 10739.77l957.07 0 0 458.59 -957.07 0 0 -458.59z"/>
  <path class="fil1" d="M10111.57 11100.52l957.07 0 0 458.59 -957.07 0 0 -458.59z"/>
  <path class="fil1" d="M11231.52 10724.56l957.07 0 0 458.59 -957.07 0 0 -458.59z"/>
  <path class="fil1" d="M12305.16 11050.77l957.07 0 0 458.59 -957.07 0 0 -458.59z"/>
  <path class="fil1" d="M13491.53 10712.03l957.07 0 0 458.59 -957.07 0 0 -458.59z"/>
  <path class="fil1" d="M14690.94 11015.49l957.07 0 0 458.59 -957.07 0 0 -458.59z"/>
  <path class="fil1" d="M15802.15 10676.75l957.07 0 0 458.59 -957.07 0 0 -458.59z"/>
  <path class="fil1" d="M16931 11015.48l957.07 0 0 458.59 -957.07 0 0 -458.59z"/>
  <path class="fil1" d="M18006.93 10707.62l957.07 0 0 458.59 -957.07 0 0 -458.59z"/>
  <path class="fil1" d="M19065.23 10980.2l957.07 0 0 458.59 -957.07 0 0 -458.59z"/>
  <path class="fil1" d="M20136.76 10689.99l957.07 0 0 458.59 -957.07 0 0 -458.59z"/>
  <path class="fil1" d="M21252.37 11050.75l957.07 0 0 458.59 -957.07 0 0 -458.59z"/>
  <path class="fil1" d="M22449.57 10734.51l957.07 0 0 458.59 -957.07 0 0 -458.59z"/>
  <path class="fil1" d="M23523.21 11060.72l957.07 0 0 458.59 -957.07 0 0 -458.59z"/>
  <path class="fil1" d="M24709.58 10721.98l957.07 0 0 458.59 -957.07 0 0 -458.59z"/>
  <path class="fil1" d="M25908.99 11025.44l957.07 0 0 458.59 -957.07 0 0 -458.59z"/>
  <path class="fil1" d="M27020.2 10686.7l957.07 0 0 458.59 -957.07 0 0 -458.59z"/>
  <path class="fil1" d="M28149.05 11025.43l957.07 0 0 458.59 -957.07 0 0 -458.59z"/>
  <path class="fil1" d="M29224.98 10717.57l478.53 0 0 458.59 -478.53 0 0 -458.59z"/>
  <ellipse class="fil2 str0" cx="25087.09" cy="3996.53" rx="3130.79" ry="3130.78"/>
  <ellipse class="fil3 str0" cx="18465.66" cy="6721.65" rx="3386.55" ry="3386.54"/>
  <path class="fil4 str0" d="M6091.9 35.78c136.48,321.03 211.99,674.24 211.99,1045.07 0,1476.49 -1196.94,2673.41 -2673.42,2673.41 -1476.5,0 -2673.42,-1196.93 -2673.42,-2673.41 0,-364.95 73.13,-712.82 205.52,-1029.75l4929.33 -15.32z"/>
 </g>
</svg>
