<svg xmlns="http://www.w3.org/2000/svg" xml:space="preserve" width="543.82mm" height="1831.8mm" version="1.0" style="shape-rendering:geometricPrecision; text-rendering:geometricPrecision; image-rendering:optimizeQuality; fill-rule:evenodd; clip-rule:evenodd"
viewBox="0 0 7706.67 25959.09"
 xmlns:xlink="http://www.w3.org/1999/xlink">
 <defs>
  <style type="text/css">
   <![CDATA[
    .str0 {stroke:#373535;stroke-width:2.5;stroke-miterlimit:2}
    .fil1 {fill:none}
    .fil3 {fill:white}
    .fil4 {fill:#373535}
    .fil0 {fill:#F9AC93}
    .fil2 {fill:#FAA955}
    .fil5 {fill:#F5886C}
   ]]>
  </style>
 </defs>
 <g id="man_0">
  <path class="fil0 str0" d="M4028.08 3160.8c91.45,0 573.39,-33.15 644.92,30 -14.91,268.33 15.62,427.23 52.49,584.92 263.96,1128.77 1822.26,1004.79 2242.21,1604.79 33.58,0 468.34,441.06 299.96,2339.7 -69.2,780.34 -125.43,897.74 -55.77,1563.13 80.62,770.11 132.73,1190.33 128.45,1535.4 -16.56,1332.6 -126.57,1563.49 -12.72,2677.51 30.32,296.64 434.96,668.26 371.12,1096.16 -156.46,1048.67 -608.93,858.43 -690.03,1000.31 -21.18,37.06 -232.63,18.58 -163.55,-131.1 229.52,-497.36 109.03,-908.46 37.86,-1033.18 -75.76,-132.76 -95.01,691.38 -334.52,609.96 -74.49,-25.32 53.41,-716.31 19.43,-1271.23 -61.43,-1003.07 -256.75,-2174.07 -322.17,-2577.14 -124.62,-767.82 129.31,-876.11 92.35,-1197.72 -28.54,-248.36 -252.33,-1252.4 -222.71,-2173.35 9.18,-285.55 228.7,-942.11 274.4,-1088.75 -193.83,309.84 -281.31,1326.27 -342.26,1387.23 -170.81,1065.79 -234.68,1379.87 -234.68,2047.44 0,908.29 374.95,1533.41 374.95,1829.76 454.83,2078.99 -277.12,5386.76 -329.96,6419.16 -27.93,545.7 306.04,1759.88 -386.9,4926.3 -3.48,15.91 -112.89,954.86 -24.76,1541.43 57.93,385.54 271.7,451.35 364.28,613.78 67.12,117.77 91.87,389.5 -155.62,373.15l-1040.52 -68.75c-167.24,-11.05 0.42,-643.76 1.64,-921.88 1.01,-230.88 -92.57,-147.78 -122.14,-397.32 -33.04,-278.8 159.94,-440.77 112.88,-771.93 -86.89,-611.5 -156.87,-1632.16 -219.64,-2070.07 -271.03,-1890.82 186.29,-1857.15 15.96,-2294.83 -233.77,-600.72 -280.48,-1158.67 -299.96,-1694.78 -5.07,-139.55 -110.66,-3092.82 -229.62,-3645.83 -134.36,-53.5 -264.21,3579.38 -269.85,3734.51 -19.48,536.11 -66.19,1094.06 -299.96,1694.78 -170.33,437.68 286.99,404.01 15.96,2294.83 -62.77,437.91 -132.74,1458.57 -219.64,2070.07 -47.06,331.16 145.92,493.13 112.88,771.93 -29.57,249.54 -123.15,166.44 -122.14,397.32 1.22,278.12 168.88,910.83 1.64,921.88l-1040.52 68.75c-247.49,16.35 -222.74,-255.37 -155.62,-373.15 92.57,-162.44 306.35,-228.24 364.28,-613.78 88.14,-586.57 -21.28,-1525.52 -24.76,-1541.43 -692.94,-3166.42 -358.97,-4380.59 -386.9,-4926.3 -52.84,-1032.4 -478.74,-4260.34 -329.96,-6419.16 58.77,-852.77 586.88,-1774.34 365.24,-3157.29 -60.95,-60.96 -178.43,-1947.27 -372.26,-2257.11 45.7,146.64 302.43,956.85 246.21,1236.96 -187.86,935.94 -173.48,1829.27 -202.02,2077.63 -36.96,321.61 29.49,527.38 -95.12,1295.2 -65.42,403.07 -260.74,1574.07 -322.17,2577.14 -33.98,554.92 93.93,1245.91 19.43,1271.23 -239.51,81.42 -258.76,-742.72 -334.52,-609.96 -71.17,124.72 -191.66,535.82 37.86,1033.18 69.07,149.68 -142.37,168.16 -163.55,131.1 -81.1,-141.88 -533.57,48.35 -690.03,-1000.31 -63.84,-427.9 340.8,-799.52 371.12,-1096.16 113.85,-1114.02 3.84,-1344.91 -12.72,-2677.51 -4.29,-345.08 47.83,-765.3 128.45,-1535.4 69.66,-665.39 13.43,-782.79 -55.77,-1563.13 -168.38,-1898.64 266.38,-2339.7 299.96,-2339.7 419.94,-600 2142.77,-561.59 2406.73,-1690.36 36.88,-157.69 67.41,-316.59 52.49,-584.92 71.53,-63.14 738.44,-33.1 829.88,-33.1z"/>
  <path class="fil1 str0" d="M5662.3 17839.01c-56.46,169.38 -117.12,499.71 -72.13,795.66 23.93,157.41 -92.85,240.84 -92.85,479.18 0,169.98 0,339.96 0,524.93"/>
  <path class="fil1 str0" d="M4447.45 17988.99c0,105.88 -28.21,196.47 174.18,599.14 31.4,62.47 41.1,524.27 88.29,638.2 12.56,30.32 77.93,199.26 77.54,428.21 -1.08,628.28 64.94,1365.78 64.94,1514.04"/>
  <path class="fil1 str0" d="M2202.87 17823.57c56.46,169.38 117.12,499.71 72.13,795.66 -23.93,157.41 92.85,240.84 92.85,479.18 0,169.98 0,339.96 0,524.93"/>
  <path class="fil1 str0" d="M3357.4 18320.81c-18.39,389.85 -119.82,360.03 -155.14,468.96 -68.89,212.45 0.18,307.19 -47.01,421.12 -12.56,30.32 -77.93,199.26 -77.54,428.21 1.08,628.28 -64.94,1365.78 -64.94,1514.04"/>
  <path class="fil1 str0" d="M4994.88 7580.37l749.9 15"/>
  <path class="fil1 str0" d="M2257.74 7632.86l794.9 7.5"/>
  <path class="fil1 str0" d="M4124.99 4258.3c0,232.63 35.42,399.58 -59.99,629.92 -8.88,21.41 -132.86,447.81 30,284.96 257.73,-257.73 229.39,-67.41 464.94,-164.98 72.23,-29.92 509.81,15.8 569.93,30 33.49,7.91 337.76,74.99 344.96,74.99"/>
  <path class="fil1 str0" d="M3705.04 4198.31c-103.14,206.27 18.75,657.81 18.75,914.88 0,128.84 -32.71,114.67 -93.74,30 -50.51,-70.08 -108.96,-89.99 -224.97,-89.99 -123.97,0 -220.53,81.54 -344.96,30 -14.26,-5.91 -534.42,8.06 -599.92,0 -96.24,-11.85 -113.37,-15 -209.97,-15"/>
  <path class="fil1 str0" d="M5032.37 12934.67c-114.71,-38.24 -308.92,53.95 -389.95,134.98 -252.01,252.02 -217.51,923.61 -768.97,933.42 -483.14,8.6 -696.74,-726.13 -760.83,-918.42 -31.37,0 -103.46,-329.96 -457.44,-329.96"/>
  <path class="fil0 str0" d="M3735.85 146.75c0.66,0 395.1,-7.97 445.39,-5.38 437.35,22.49 847,704.85 899.88,869.88 45.7,142.63 163.94,223.98 -22.5,802.4 -41.01,127.23 2.04,67.49 67.49,67.49 66.83,0 127.48,-106.48 127.48,176.23 0,144.63 -232.47,521.88 -232.47,528.68 0,34.11 -60.61,159.36 -119.98,149.98 -94.96,-15 -119.05,-10.23 -119.05,133.07 0,14.99 -20.45,175.78 -30.93,264.38 -45.95,388.27 -119.21,379.14 -449.94,547.43 -84.53,43.01 -186.25,145.59 -269.96,179.98 -305.9,125.64 -487.82,-61.86 -674.91,-164.98 -248.78,-137.12 -284.96,-260.28 -284.96,-389.95 0,-91.02 -46.09,-323.91 -52.49,-378.7 -7.47,-63.98 -7.5,-203.14 -7.5,-236.22 -27.54,128.83 -234.36,186.17 -224.97,-44.99 0.05,-1.29 -67.68,-284 -74.99,-314.96 -25.72,-108.95 -260.75,-392.63 -183.36,-523.61 21.09,-35.71 111.65,6.18 183.36,6.18 0,-207.82 -37.12,-683.16 59.99,-877.39 188.56,-377.11 477.23,-789.51 964.43,-789.51z"/>
  <path class="fil2 str0" d="M3543.8 411.36c0,129.45 149.98,246.14 149.98,314.96 12.8,0 77.64,98.81 149.98,134.98 58.75,29.37 224.97,124.4 224.97,179.98 23.76,0 70.95,59.99 194.98,59.99 1.15,0 82.92,15 134.98,15 134.17,0 234.91,15 374.95,15 0,6.39 89.99,126.27 89.99,209.97 0,83.57 142.79,106.28 89.99,329.96 -13.69,57.97 -44.99,-12.99 -44.99,194.97 54.18,0 51.36,143.41 30,194.98 -28.75,69.42 -73.91,245.15 -44.99,314.96 13.24,31.96 -13.33,59.59 30,-44.99 22.24,-53.69 33.15,-243.12 104.99,-314.96 31.18,-31.19 134.98,-232.09 134.98,-269.97 0,-32.74 30,-126.43 30,-224.97 0,-68.2 30,-106.38 30,-224.97 0,-50 -19.04,-363.49 -30,-389.95 -18.21,-43.95 -149.06,-329.96 -194.98,-329.96 0,-7.68 -119.98,-143.41 -119.98,-179.98 -11.92,0 -453.73,-237.9 -494.94,-254.97 -72.77,-30.14 -81.31,-59.99 -149.98,-59.99 -68.26,0 -459.5,-137.49 -577.43,-52.49 -78.2,56.36 -275.92,20.95 -517.43,262.47 -91.83,91.83 -229.19,109.45 -311.21,307.46 -20.99,50.67 -89.99,198.74 -89.99,254.97 0,114.64 -123.73,343.14 -123.73,562.43 -77.31,232.47 31.93,262.2 59.99,329.95 10.19,24.59 44.99,135.27 44.99,164.98 0,80.92 131.67,234.55 164.98,314.96 33.46,80.77 44.99,333.68 44.99,15 0,-0.54 -15,-79.83 -15,-134.98 0,-137.1 -14.92,-293.21 15,-419.95 20.38,-86.32 17.28,-68.08 44.99,-134.98 0.48,-1.17 164.24,-268.94 164.98,-269.96 16.92,-23.48 188.97,-319.51 194.97,-344.96 7.62,-32.26 44.99,-46.79 44.99,-119.98 0,-18.91 89.99,-287.34 89.99,-359.95 0,-2.27 44.99,-144.57 44.99,-44.99l30 0z"/>
  <path class="fil2 str0" d="M4762.39 1811.88c-19.39,-76.01 -79.73,-31.25 -138.73,-26.63 -87.44,6.85 -80.52,11.24 -164.98,-2.08 -46.48,-7.34 -104.36,19.57 -149.98,4.25 -0.47,-0.16 -121.59,-0.42 -127.48,2.48 -34.2,16.85 -72.3,20.66 -112.49,23.81 15.01,-1.17 10.59,-68.32 82.49,-73.95 24.54,-1.92 37.62,-17.94 89.99,-22.04 86.9,-6.81 275.5,-29.13 329.96,-10.84 34,11.42 49.52,26.12 89.99,22.95 0.34,-0.03 62.18,17.63 82.49,16.04 0,15.52 36.13,-0.57 18.75,66.02z"/>
  <path class="fil2 str0" d="M3013.24 1795.12c19.39,-75.23 79.73,-28.03 138.73,-21.03 87.44,10.38 80.52,14.5 164.98,4.58 46.48,-5.46 104.36,23.79 149.98,10.3 0.47,-0.14 121.59,4.49 127.48,7.63 34.2,18.23 72.3,23.58 112.49,28.35 -15.01,-1.78 -10.59,-68.75 -82.49,-77.28 -24.54,-2.91 -37.62,-19.46 -89.99,-25.68 -86.9,-10.32 -275.5,-40.26 -329.96,-24.17 -34,10.05 -49.52,24.12 -89.99,19.32 -0.34,-0.04 -62.18,15.12 -82.49,12.71 0,15.52 -36.13,-2.03 -18.75,65.27z"/>
  <path class="fil3 str0" d="M4190.59 2093.04c25.82,-60.08 86.16,-112.23 155.6,-117.61 48.95,-3.79 81.35,16.92 133.11,12.91 31.45,-2.43 87.33,-2.67 110.61,4.4 7.09,-0.55 27.31,16.75 31.87,23.78 9.66,14.88 7.56,15.95 26.25,27.96 15.23,9.8 33.54,53.92 5.62,56.08 -67.83,62.39 -266.57,66.88 -274.51,61.9 -5.01,-3.14 -66.7,-29 -76.07,-35.02 -6.17,-3.97 -99.61,-29.78 -101.24,-29.65 0,-6.3 -10.09,-7.44 -11.25,-4.75z"/>
  <ellipse class="fil4 str0" cx="4423.16" cy="2062.65" rx="75.24" ry="80.47"/>
  <path class="fil3 str0" d="M3604.06 2076.57c-25.82,-60.08 -86.16,-112.23 -155.6,-117.61 -48.95,-3.79 -81.35,16.92 -133.11,12.91 -31.45,-2.43 -87.33,-2.67 -110.61,4.4 -7.09,-0.55 -27.31,16.75 -31.87,23.78 -9.66,14.88 -7.56,15.95 -26.25,27.96 -15.23,9.8 -33.54,53.92 -5.62,56.08 67.83,62.39 266.57,66.88 274.51,61.9 5.01,-3.14 66.7,-29 76.07,-35.02 6.17,-3.97 99.61,-29.78 101.24,-29.65 0,-6.3 10.09,-7.44 11.25,-4.75z"/>
  <ellipse class="fil4 str0" cx="3371.49" cy="2046.19" rx="75.24" ry="80.47"/>
  <path class="fil1 str0" d="M4136.21 2514.9c19.01,57.03 76.19,208.77 30,254.97 -24.67,24.66 -93.74,85.11 -74.99,30 2.89,-8.5 -34.55,-67.63 -59.99,-74.99 -51.87,-15 -59.25,5.57 -59.99,67.49 -0.71,59.44 110.31,52.49 -104.99,52.49 -0.32,0 -80.33,-26.25 -33.74,-26.25 33.75,-47.51 8.12,-101.55 -32.8,-83.8 -33.76,14.64 -53.44,-4.88 -53.44,57.56 6.31,0 26.65,30 -15,30 -126.33,0 -101.24,-141.34 -82.49,-209.97"/>
  <path class="fil5 str0" d="M4196.2 3253.55c-19.18,-28.77 -47.14,-40.87 -81.11,-39.55 -81.54,3.16 -92.92,56.41 -188.85,54.55 -32.13,-0.62 -59.13,3.73 -86.24,-7.5 -51.23,-21.22 -251.22,-131.25 -251.22,-15 0,-11.71 -30,-2.74 -30,-59.99 0,-13.82 10.97,-33.75 22.5,-33.75 15.11,0 -11.43,-3.75 26.25,-3.75 40.89,0 126.61,-0.62 164.98,-11.25 73.87,-20.45 224.99,-21.36 262.47,-7.5 130.63,48.33 178.3,9.22 187.48,86.24 2.57,21.57 -25.42,38.73 -26.25,37.5z"/>
  <path class="fil5 str0" d="M4112.69 3151.8c8.02,4.01 87.91,3.33 106.14,38.99 0,20.01 33.5,-56.35 -2,-74.1 0,-13.35 -111.81,-65.62 -133.11,-65.62 -8.22,0 -52.71,-30.65 -61.87,-31.87 -50.76,-6.78 -92.38,31.5 -106.86,37.49 -24.58,10.18 -46.63,-38.31 -131.23,-33.75 -9.84,0.53 -138.09,54.37 -146.23,54.37 0,8.27 -15.26,-2.08 -33.74,11.25 -16.28,11.73 -38.89,12.31 -38.89,63.11 0,8.64 -8.62,9.92 0.02,13.67 23.6,-18.86 82.15,-11.62 146.85,-17.57 68.46,-6.29 144.16,-25.2 206.04,-24.74 97.98,0.72 98.17,-1.86 194.9,28.77z"/>
  <ellipse class="fil4 str0" transform="matrix(0.501057 -0 0.122133 0.426087 4019.48 2778.52)" rx="84.51" ry="106.04"/>
  <ellipse class="fil4 str0" transform="matrix(-4.91097E-001 -2.93569E-002 0.044343 -4.28394E-001 3795 2780.23)" rx="84.51" ry="106.04"/>
  <path class="fil2 str0" d="M4008.34 2870.54c14.36,18.7 330.72,203.97 336.32,203.97 8.15,17.37 111.22,174.82 134.26,174.82 28.97,0 78.07,43.42 104.43,31.78 60.99,-26.91 93.52,-13.04 119.34,-79.46 0.13,-0.33 10.22,-64.41 7.46,-71.52 -16.09,-41.36 -33.04,-223.57 -14.92,-270.17 9.6,-24.68 20.04,30.43 29.83,55.62 59.42,152.81 44.75,121.08 44.75,286.07 0,110.27 -5.16,146.79 -67.13,238.39 -15.77,23.3 -15.63,49.56 -44.75,87.41 -18.75,24.37 -47.35,95.35 -74.59,95.35 0,12.44 -130.45,130.56 -156.64,135.09 -6.7,1.16 -162.09,69.38 -171.56,79.46 -27,28.76 -161.65,87.41 -216.31,87.41 -47.85,0 -295.34,10.6 -328.2,0 -72.18,-23.28 15.86,-8.59 -44.75,-23.84 -24.46,-6.15 -95.57,-49.97 -149.18,-55.62 -102.69,-10.83 -238.61,-158.93 -253.61,-158.93 0,-14.76 -247.68,-87.25 -250.51,-877.13 -0,-0.44 70.16,331.31 153.55,416.25 90.13,91.8 111.88,50.13 111.88,23.84 3.95,0 302.86,-380.72 511.79,-380.72 65.12,0 23.05,36.46 -56.46,97.51 -12.18,9.35 -108.73,43.01 -119.47,70.62 -4.71,12.11 -89.71,17.95 -89.71,69.56 -10.57,0 -192.87,198.48 59.67,309.91 240.79,106.24 616.03,101.66 723.53,-174.82 9.83,-25.29 -7.46,-96.89 -7.46,-127.14 -0.51,0 -89.51,-27.47 -89.51,-47.68 -13,0 -175.75,-109.01 -175.75,-132.68 0,-21.19 -37.5,-46.13 -26.31,-63.34z"/>
 </g>
</svg>
