<svg xmlns="http://www.w3.org/2000/svg" xml:space="preserve" width="186mm" height="375mm" version="1.0" style="shape-rendering:geometricPrecision; text-rendering:geometricPrecision; image-rendering:optimizeQuality; fill-rule:evenodd; clip-rule:evenodd"
viewBox="0 0 2980 6007"
 xmlns:xlink="http://www.w3.org/1999/xlink">
 <defs>
  <style type="text/css">
   <![CDATA[
    .pattern_fil1 {fill:#EE3338}
   ]]>
  </style>
 </defs>
 <g id="pattern_spring">
  <path class="pattern_fil1" d="M1317.61 2791.93l170.7 172.31 174.38 -176.02 40.52 40.74 -174.46 176.1 170.62 172.23 -40.74 40.52 -170.7 -172.31 -166.38 164.82 -40.52 -40.74 166.46 -164.9 -170.62 -172.23 40.74 -40.52z"/>
  <path class="pattern_fil1" d="M1444.06 2676.28l48.75 -48.75 48.75 48.75 -48.75 48.75 -48.75 -48.75z"/>
  <path class="pattern_fil1" d="M1768.8 3000.47l46.88 -46.88 46.88 46.88 -46.88 46.88 -46.88 -46.88z"/>
  <path class="pattern_fil1" d="M1121.75 3001.45l47.8 -47.8 47.8 47.8 -47.8 47.8 -47.8 -47.8z"/>
  <path class="pattern_fil1" d="M1437.95 3307.73l50.06 -50.06 50.06 50.06 -50.06 50.05 -50.06 -50.05z"/>
  <path class="pattern_fil1" d="M1621.54 2749.29l-128.42 128.42 -128.42 -128.42 40.74 -40.74 87.68 87.68 87.67 -87.68 40.74 40.74z"/>
  <path class="pattern_fil1" d="M1017.58 2969.9l472.45 -472.45 505.56 505.56c-168.53,168.5 -337.04,337.03 -505.56,505.55l-505.56 -505.55 33.1 -33.11zm472.45 -412.32l-445.43 445.43 445.43 445.43 445.43 -445.42 -445.43 -445.43z"/>
  <path class="pattern_fil1" d="M911.68 2965.72l578.36 -578.36 615.65 615.66c-205.24,205.2 -410.44,410.43 -615.65,615.65l-615.65 -615.65 37.29 -37.3zm578.36 -518.23l-555.52 555.52 555.52 555.51 555.52 -555.51 -555.52 -555.52z"/>
  <path class="pattern_fil1" d="M804.84 2961.5l685.2 -685.2 726.71 726.72c-242.26,242.21 -484.48,484.47 -726.71,726.7l-726.71 -726.7 41.51 -41.51zm685.2 -625.07l-666.57 666.58 666.57 666.57 666.58 -666.57 -666.58 -666.58z"/>
  <path class="pattern_fil1" d="M1775.18 2212.32l472.45 -472.45 505.56 505.56c-168.53,168.5 -337.04,337.04 -505.56,505.56l-505.56 -505.56 33.1 -33.11zm472.45 -412.32l-445.43 445.43 445.43 445.42 445.43 -445.42 -445.43 -445.43z"/>
  <path class="pattern_fil1" d="M1669.27 2208.13l578.36 -578.36 615.65 615.65c-205.24,205.2 -410.44,410.43 -615.65,615.65l-615.65 -615.65 37.29 -37.3zm578.36 -518.22l-555.52 555.52 555.52 555.51 555.52 -555.51 -555.52 -555.52z"/>
  <path class="pattern_fil1" d="M1562.43 2203.91l685.2 -685.2 726.71 726.71c-242.26,242.21 -484.48,484.47 -726.71,726.71l-726.71 -726.71 41.51 -41.51zm685.2 -625.07l-666.57 666.58 666.57 666.57 666.58 -666.57 -666.58 -666.58z"/>
  <path class="pattern_fil1" d="M2071.69 2038.69l170.7 172.31 174.38 -176.02 40.52 40.74 -174.46 176.1 170.62 172.23 -40.74 40.52 -170.7 -172.31 -166.38 164.83 -40.52 -40.74 166.46 -164.91 -170.62 -172.23 40.74 -40.52z"/>
  <path class="pattern_fil1" d="M2198.14 1923.05l48.75 -48.75 48.75 48.75 -48.75 48.75 -48.75 -48.75z"/>
  <path class="pattern_fil1" d="M2522.88 2247.24l46.88 -46.88 46.88 46.88 -46.88 46.88 -46.88 -46.88z"/>
  <path class="pattern_fil1" d="M1875.83 2248.21l47.8 -47.8 47.8 47.8 -47.8 47.8 -47.8 -47.8z"/>
  <path class="pattern_fil1" d="M2192.03 2554.5l50.06 -50.06 50.06 50.06 -50.06 50.05 -50.06 -50.05z"/>
  <path class="pattern_fil1" d="M2375.62 1996.05l-128.42 128.42 -128.42 -128.42 40.74 -40.74 87.68 87.67 87.67 -87.67 40.74 40.74z"/>
  <path class="pattern_fil1" d="M2328.99 2525.94l-87.67 -87.67 -87.68 87.67 -40.74 -40.74 128.42 -128.42 128.41 128.42 -40.74 40.74z"/>
  <path class="pattern_fil1" d="M1994.24 2123.96l128.42 128.42 -128.42 128.42 -40.74 -40.74 87.68 -87.67 -87.68 -87.68 40.74 -40.74z"/>
  <path class="pattern_fil1" d="M2536.92 2156.18l-100.51 99.1 92.52 92.26 -40.74 40.74 -133.21 -130.02 141.21 -142.82 40.74 40.74z"/>
  <path class="pattern_fil1" d="M560.07 2034.4l170.7 172.31 174.38 -176.02 40.52 40.74 -174.46 176.1 170.62 172.23 -40.74 40.52 -170.7 -172.31 -166.38 164.83 -40.52 -40.74 166.46 -164.9 -170.62 -172.23 40.74 -40.52z"/>
  <path class="pattern_fil1" d="M686.52 1918.75l48.75 -48.75 48.75 48.75 -48.75 48.75 -48.75 -48.75z"/>
  <path class="pattern_fil1" d="M1011.26 2242.94l46.88 -46.88 46.88 46.88 -46.88 46.88 -46.88 -46.88z"/>
  <path class="pattern_fil1" d="M364.21 2243.92l47.8 -47.8 47.8 47.8 -47.8 47.8 -47.8 -47.8z"/>
  <path class="pattern_fil1" d="M680.41 2550.2l50.06 -50.06 50.06 50.06 -50.06 50.05 -50.06 -50.05z"/>
  <path class="pattern_fil1" d="M864 1991.75l-128.42 128.42 -128.42 -128.42 40.74 -40.74 87.68 87.67 87.67 -87.67 40.74 40.74z"/>
  <path class="pattern_fil1" d="M817.37 2521.64l-87.67 -87.67 -87.68 87.67 -40.74 -40.74 128.42 -128.42 128.41 128.42 -40.74 40.74z"/>
  <path class="pattern_fil1" d="M482.62 2119.67l128.42 128.41 -128.42 128.42 -40.74 -40.74 87.68 -87.68 -87.68 -87.67 40.74 -40.74z"/>
  <path class="pattern_fil1" d="M1025.3 2151.89l-100.51 99.1 92.52 92.26 -40.74 40.74 -133.21 -130.02 141.21 -142.82 40.74 40.74z"/>
  <path class="pattern_fil1" d="M260.05 2212.37l472.45 -472.45 505.56 505.56c-168.53,168.5 -337.04,337.04 -505.56,505.56l-505.56 -505.56 33.1 -33.11zm472.45 -412.32l-445.43 445.42 445.43 445.42 445.43 -445.42 -445.43 -445.43z"/>
  <path class="pattern_fil1" d="M154.14 2208.18l578.36 -578.36 615.65 615.65c-205.24,205.2 -410.44,410.43 -615.65,615.65l-615.65 -615.65 37.29 -37.3zm578.36 -518.22l-555.52 555.52 555.52 555.52 555.52 -555.52 -555.52 -555.52z"/>
  <path class="pattern_fil1" d="M47.3 2203.96l685.2 -685.2 726.71 726.71c-242.26,242.21 -484.48,484.47 -726.71,726.7l-726.71 -726.7 41.51 -41.51zm685.2 -625.07l-666.57 666.58 666.57 666.57 666.58 -666.57 -666.58 -666.58z"/>
  <path class="pattern_fil1" d="M1017.64 1454.78l472.45 -472.45 505.56 505.56c-168.53,168.5 -337.04,337.03 -505.56,505.55l-505.56 -505.55 33.1 -33.11zm472.45 -412.32l-445.43 445.43 445.43 445.42 445.43 -445.42 -445.43 -445.43z"/>
  <path class="pattern_fil1" d="M911.73 1450.6l578.36 -578.36 615.65 615.66c-205.24,205.2 -410.44,410.43 -615.65,615.64l-615.65 -615.64 37.29 -37.3zm578.36 -518.23l-555.52 555.52 555.52 555.51 555.52 -555.51 -555.52 -555.52z"/>
  <path class="pattern_fil1" d="M804.89 1446.38l685.2 -685.2 726.71 726.72c-242.26,242.21 -484.48,484.47 -726.71,726.7l-726.71 -726.7 41.51 -41.51zm685.2 -625.07l-666.57 666.58 666.57 666.57 666.58 -666.57 -666.58 -666.58z"/>
  <path class="pattern_fil1" d="M1314.15 1281.16l170.7 172.31 174.38 -176.02 40.52 40.74 -174.46 176.1 170.62 172.23 -40.74 40.52 -170.7 -172.31 -166.38 164.83 -40.52 -40.74 166.46 -164.9 -170.62 -172.23 40.74 -40.52z"/>
  <path class="pattern_fil1" d="M1440.6 1165.52l48.75 -48.75 48.75 48.75 -48.75 48.75 -48.75 -48.75z"/>
  <path class="pattern_fil1" d="M1765.34 1489.7l46.88 -46.88 46.88 46.88 -46.88 46.88 -46.88 -46.88z"/>
  <path class="pattern_fil1" d="M1118.29 1490.68l47.8 -47.8 47.8 47.8 -47.8 47.8 -47.8 -47.8z"/>
  <path class="pattern_fil1" d="M1434.49 1796.96l50.06 -50.05 50.06 50.05 -50.06 50.05 -50.06 -50.05z"/>
  <path class="pattern_fil1" d="M1618.08 1238.52l-128.42 128.42 -128.42 -128.42 40.74 -40.74 87.68 87.67 87.67 -87.67 40.74 40.74z"/>
  <path class="pattern_fil1" d="M1571.45 1768.41l-87.67 -87.68 -87.68 87.68 -40.74 -40.74 128.42 -128.42 128.41 128.42 -40.74 40.74z"/>
  <path class="pattern_fil1" d="M1236.7 1366.43l128.42 128.41 -128.42 128.42 -40.74 -40.74 87.68 -87.68 -87.68 -87.67 40.74 -40.74z"/>
  <path class="pattern_fil1" d="M1779.38 1398.65l-100.51 99.1 92.52 92.26 -40.74 40.74 -133.21 -130.02 141.21 -142.82 40.74 40.74z"/>
  <path class="pattern_fil1" d="M1317.26 4307.78l170.7 172.31 174.38 -176.02 40.52 40.74 -174.46 176.1 170.62 172.23 -40.74 40.52 -170.7 -172.31 -166.38 164.83 -40.52 -40.74 166.46 -164.9 -170.62 -172.23 40.74 -40.52z"/>
  <path class="pattern_fil1" d="M1443.71 4192.13l48.75 -48.75 48.75 48.75 -48.75 48.75 -48.75 -48.75z"/>
  <path class="pattern_fil1" d="M1768.45 4516.32l46.88 -46.88 46.88 46.88 -46.88 46.88 -46.88 -46.88z"/>
  <path class="pattern_fil1" d="M1121.39 4517.3l47.8 -47.8 47.8 47.8 -47.8 47.81 -47.8 -47.81z"/>
  <path class="pattern_fil1" d="M1437.6 4823.58l50.06 -50.06 50.06 50.06 -50.06 50.06 -50.06 -50.06z"/>
  <path class="pattern_fil1" d="M1621.18 4265.13l-128.42 128.42 -128.42 -128.42 40.74 -40.74 87.68 87.68 87.67 -87.68 40.74 40.74z"/>
  <path class="pattern_fil1" d="M1574.56 4795.03l-87.67 -87.68 -87.68 87.68 -40.74 -40.74 128.42 -128.42 128.41 128.42 -40.74 40.74z"/>
  <path class="pattern_fil1" d="M1239.8 4393.05l128.42 128.42 -128.42 128.42 -40.74 -40.74 87.68 -87.67 -87.68 -87.68 40.74 -40.74z"/>
  <path class="pattern_fil1" d="M1782.49 4425.27l-100.51 99.1 92.52 92.26 -40.74 40.74 -133.21 -130.02 141.21 -142.82 40.74 40.74z"/>
  <path class="pattern_fil1" d="M1017.23 4485.75l472.45 -472.45 505.56 505.56c-168.53,168.5 -337.04,337.03 -505.56,505.55l-505.56 -505.55 33.1 -33.11zm472.45 -412.32l-445.43 445.43 445.43 445.42 445.43 -445.42 -445.43 -445.43z"/>
  <path class="pattern_fil1" d="M911.32 4481.57l578.36 -578.36 615.65 615.66c-205.24,205.2 -410.44,410.43 -615.65,615.64l-615.65 -615.64 37.29 -37.3zm578.36 -518.23l-555.52 555.52 555.52 555.51 555.52 -555.51 -555.52 -555.52z"/>
  <path class="pattern_fil1" d="M804.49 4477.35l685.2 -685.2 726.71 726.72c-242.26,242.21 -484.48,484.47 -726.71,726.7l-726.71 -726.7 41.51 -41.51zm685.2 -625.07l-666.57 666.58 666.57 666.57 666.58 -666.57 -666.58 -666.58z"/>
  <path class="pattern_fil1" d="M1774.83 3728.16l472.45 -472.45 505.56 505.56c-168.53,168.5 -337.04,337.04 -505.56,505.56l-505.56 -505.56 33.1 -33.11zm472.45 -412.32l-445.43 445.43 445.43 445.42 445.43 -445.42 -445.43 -445.43z"/>
  <path class="pattern_fil1" d="M1668.92 3723.98l578.36 -578.36 615.65 615.66c-205.24,205.2 -410.44,410.43 -615.65,615.65l-615.65 -615.65 37.29 -37.3zm578.36 -518.22l-555.52 555.52 555.52 555.52 555.52 -555.52 -555.52 -555.52z"/>
  <path class="pattern_fil1" d="M1562.08 3719.76l685.2 -685.2 726.71 726.71c-242.26,242.21 -484.48,484.47 -726.71,726.71l-726.71 -726.71 41.51 -41.51zm685.2 -625.07l-666.57 666.58 666.57 666.57 666.58 -666.57 -666.58 -666.58z"/>
  <path class="pattern_fil1" d="M2071.34 3554.54l170.7 172.31 174.38 -176.02 40.52 40.74 -174.46 176.1 170.62 172.23 -40.74 40.51 -170.7 -172.31 -166.38 164.82 -40.52 -40.74 166.46 -164.9 -170.62 -172.23 40.74 -40.52z"/>
  <path class="pattern_fil1" d="M2197.78 3438.9l48.75 -48.75 48.75 48.75 -48.75 48.75 -48.75 -48.75z"/>
  <path class="pattern_fil1" d="M2522.53 3763.08l46.88 -46.88 46.88 46.88 -46.88 46.88 -46.88 -46.88z"/>
  <path class="pattern_fil1" d="M1875.47 3764.06l47.8 -47.8 47.8 47.8 -47.8 47.81 -47.8 -47.81z"/>
  <path class="pattern_fil1" d="M2191.68 4070.34l50.06 -50.06 50.06 50.06 -50.06 50.06 -50.06 -50.06z"/>
  <path class="pattern_fil1" d="M2375.26 3511.9l-128.42 128.42 -128.42 -128.42 40.74 -40.74 87.68 87.68 87.67 -87.68 40.74 40.74z"/>
  <path class="pattern_fil1" d="M2328.64 4041.79l-87.67 -87.68 -87.68 87.68 -40.74 -40.74 128.42 -128.42 128.41 128.42 -40.74 40.74z"/>
  <path class="pattern_fil1" d="M1993.88 3639.81l128.42 128.42 -128.42 128.42 -40.74 -40.74 87.68 -87.67 -87.68 -87.68 40.74 -40.74z"/>
  <path class="pattern_fil1" d="M2536.57 3672.03l-100.51 99.1 92.52 92.26 -40.74 40.74 -133.21 -130.02 141.21 -142.82 40.74 40.74z"/>
  <path class="pattern_fil1" d="M559.72 3550.24l170.7 172.31 174.38 -176.02 40.52 40.74 -174.46 176.1 170.62 172.23 -40.74 40.52 -170.7 -172.31 -166.38 164.83 -40.52 -40.74 166.46 -164.91 -170.62 -172.23 40.74 -40.52z"/>
  <path class="pattern_fil1" d="M1010.91 3758.78l46.88 -46.88 46.88 46.88 -46.88 46.88 -46.88 -46.88z"/>
  <path class="pattern_fil1" d="M363.86 3759.76l47.8 -47.8 47.8 47.8 -47.8 47.8 -47.8 -47.8z"/>
  <path class="pattern_fil1" d="M680.06 4066.05l50.06 -50.06 50.06 50.06 -50.06 50.05 -50.06 -50.05z"/>
  <path class="pattern_fil1" d="M863.65 3507.6l-128.42 128.42 -128.42 -128.42 40.74 -40.74 87.68 87.67 87.67 -87.67 40.74 40.74z"/>
  <path class="pattern_fil1" d="M817.02 4037.49l-87.67 -87.67 -87.68 87.67 -40.74 -40.74 128.42 -128.42 128.41 128.42 -40.74 40.74z"/>
  <path class="pattern_fil1" d="M482.27 3635.51l128.42 128.41 -128.42 128.42 -40.74 -40.74 87.68 -87.68 -87.68 -87.67 40.74 -40.74z"/>
  <path class="pattern_fil1" d="M1024.95 3667.73l-100.51 99.1 92.52 92.26 -40.74 40.74 -133.21 -130.02 141.21 -142.82 40.74 40.74z"/>
  <path class="pattern_fil1" d="M259.69 3728.21l472.45 -472.45 505.56 505.56c-168.53,168.5 -337.04,337.03 -505.56,505.55l-505.56 -505.55 33.1 -33.11zm472.45 -412.32l-445.43 445.43 445.43 445.42 445.43 -445.42 -445.43 -445.43z"/>
  <path class="pattern_fil1" d="M153.79 3724.03l578.36 -578.36 615.65 615.66c-205.24,205.2 -410.44,410.43 -615.65,615.65l-615.65 -615.65 37.29 -37.3zm578.36 -518.23l-555.52 555.52 555.52 555.52 555.52 -555.52 -555.52 -555.52z"/>
  <path class="pattern_fil1" d="M46.95 3719.81l685.2 -685.2 726.71 726.71c-242.26,242.21 -484.48,484.47 -726.71,726.7l-726.71 -726.7 41.51 -41.52zm685.2 -625.07l-666.57 666.58 666.57 666.57 666.58 -666.57 -666.58 -666.58z"/>
  <path class="pattern_fil1" d="M680.12 4964.9l48.75 -48.75 48.75 48.75 -48.75 48.75 -48.75 -48.75z"/>
  <path class="pattern_fil1" d="M1769.39 5247.4l472.45 -472.45 505.56 505.56c-168.53,168.5 -337.04,337.04 -505.56,505.56l-505.56 -505.56 33.1 -33.11zm472.45 -412.32l-445.43 445.43 445.43 445.42 445.43 -445.42 -445.43 -445.43z"/>
  <path class="pattern_fil1" d="M1663.48 5243.21l578.36 -578.36 615.65 615.66c-205.24,205.2 -410.44,410.43 -615.65,615.65l-615.65 -615.65 37.29 -37.3zm578.36 -518.22l-555.52 555.52 555.52 555.52 555.52 -555.52 -555.52 -555.52z"/>
  <path class="pattern_fil1" d="M1556.64 5238.99l685.2 -685.2 726.71 726.71c-242.26,242.21 -484.48,484.47 -726.71,726.71l-726.71 -726.71 41.51 -41.51zm685.2 -625.07l-666.57 666.58 666.57 666.57 666.58 -666.57 -666.58 -666.58z"/>
  <path class="pattern_fil1" d="M2065.9 5073.77l170.7 172.31 174.38 -176.02 40.52 40.74 -174.46 176.1 170.62 172.23 -40.74 40.51 -170.7 -172.31 -166.38 164.82 -40.52 -40.74 166.46 -164.9 -170.62 -172.23 40.74 -40.52z"/>
  <path class="pattern_fil1" d="M2192.35 4958.13l48.75 -48.75 48.75 48.75 -48.75 48.75 -48.75 -48.75z"/>
  <path class="pattern_fil1" d="M2517.09 5282.31l46.88 -46.88 46.88 46.88 -46.88 46.88 -46.88 -46.88z"/>
  <path class="pattern_fil1" d="M1870.03 5283.29l47.8 -47.8 47.8 47.8 -47.8 47.81 -47.8 -47.81z"/>
  <path class="pattern_fil1" d="M2186.24 5589.57l50.06 -50.06 50.06 50.06 -50.06 50.06 -50.06 -50.06z"/>
  <path class="pattern_fil1" d="M2369.82 5031.13l-128.42 128.42 -128.42 -128.42 40.74 -40.74 87.68 87.68 87.67 -87.68 40.74 40.74z"/>
  <path class="pattern_fil1" d="M2323.2 5561.02l-87.67 -87.68 -87.68 87.68 -40.74 -40.74 128.42 -128.42 128.41 128.42 -40.74 40.74z"/>
  <path class="pattern_fil1" d="M1988.44 5159.04l128.42 128.42 -128.42 128.42 -40.74 -40.74 87.68 -87.67 -87.68 -87.68 40.74 -40.74z"/>
  <path class="pattern_fil1" d="M2531.13 5191.26l-100.51 99.1 92.52 92.26 -40.74 40.74 -133.21 -130.02 141.21 -142.82 40.74 40.74z"/>
  <path class="pattern_fil1" d="M554.28 5069.47l170.7 172.31 174.38 -176.02 40.52 40.74 -174.46 176.1 170.62 172.23 -40.74 40.52 -170.7 -172.31 -166.38 164.83 -40.52 -40.74 166.46 -164.91 -170.62 -172.23 40.74 -40.52z"/>
  <path class="pattern_fil1" d="M1005.47 5278.01l46.88 -46.88 46.88 46.88 -46.88 46.88 -46.88 -46.88z"/>
  <path class="pattern_fil1" d="M358.42 5279l47.8 -47.8 47.8 47.8 -47.8 47.8 -47.8 -47.8z"/>
  <path class="pattern_fil1" d="M674.62 5585.28l50.06 -50.06 50.06 50.06 -50.06 50.05 -50.06 -50.05z"/>
  <path class="pattern_fil1" d="M858.21 5026.83l-128.42 128.42 -128.42 -128.42 40.74 -40.74 87.68 87.67 87.67 -87.67 40.74 40.74z"/>
  <path class="pattern_fil1" d="M811.58 5556.72l-87.67 -87.67 -87.68 87.67 -40.74 -40.74 128.42 -128.42 128.41 128.42 -40.74 40.74z"/>
  <path class="pattern_fil1" d="M476.83 5154.74l128.42 128.41 -128.42 128.42 -40.74 -40.74 87.68 -87.68 -87.68 -87.67 40.74 -40.74z"/>
  <path class="pattern_fil1" d="M1019.51 5186.96l-100.51 99.1 92.52 92.26 -40.74 40.74 -133.21 -130.02 141.21 -142.82 40.74 40.74z"/>
  <path class="pattern_fil1" d="M254.26 5247.45l472.45 -472.45 505.56 505.56c-168.53,168.5 -337.04,337.03 -505.56,505.55l-505.56 -505.55 33.1 -33.11zm472.45 -412.32l-445.43 445.43 445.43 445.42 445.43 -445.42 -445.43 -445.43z"/>
  <path class="pattern_fil1" d="M148.35 5243.26l578.36 -578.36 615.65 615.66c-205.24,205.2 -410.44,410.43 -615.65,615.65l-615.65 -615.65 37.29 -37.3zm578.36 -518.23l-555.52 555.52 555.52 555.52 555.52 -555.52 -555.52 -555.52z"/>
  <path class="pattern_fil1" d="M41.51 5239.04l685.2 -685.2 726.71 726.71c-242.26,242.21 -484.48,484.47 -726.71,726.7l-726.71 -726.7 41.51 -41.52zm685.2 -625.07l-666.57 666.58 666.57 666.57 666.58 -666.57 -666.58 -666.58z"/>
  <path class="pattern_fil1" d="M690.65 411.11l48.75 -48.75 48.75 48.75 -48.75 48.75 -48.75 -48.75z"/>
  <path class="pattern_fil1" d="M1779.91 693.6l472.45 -472.45 505.56 505.56c-168.53,168.5 -337.04,337.04 -505.56,505.56l-505.56 -505.56 33.1 -33.11zm472.45 -412.32l-445.43 445.43 445.43 445.42 445.43 -445.42 -445.43 -445.43z"/>
  <path class="pattern_fil1" d="M1674 689.42l578.36 -578.36 615.65 615.66c-205.24,205.2 -410.44,410.43 -615.65,615.65l-615.65 -615.65 37.29 -37.3zm578.36 -518.22l-555.52 555.52 555.52 555.52 555.52 -555.52 -555.52 -555.52z"/>
  <path class="pattern_fil1" d="M1567.16 685.2l685.2 -685.2 726.71 726.71c-242.26,242.21 -484.48,484.47 -726.71,726.71l-726.71 -726.71 41.51 -41.51zm685.2 -625.07l-666.57 666.58 666.57 666.57 666.58 -666.57 -666.58 -666.58z"/>
  <path class="pattern_fil1" d="M2076.42 519.98l170.7 172.31 174.38 -176.02 40.52 40.74 -174.46 176.1 170.62 172.23 -40.74 40.52 -170.7 -172.31 -166.38 164.83 -40.52 -40.74 166.46 -164.9 -170.62 -172.23 40.74 -40.52z"/>
  <path class="pattern_fil1" d="M2202.87 404.33l48.75 -48.75 48.75 48.75 -48.75 48.75 -48.75 -48.75z"/>
  <path class="pattern_fil1" d="M2527.61 728.52l46.88 -46.88 46.88 46.88 -46.88 46.88 -46.88 -46.88z"/>
  <path class="pattern_fil1" d="M1880.56 729.5l47.8 -47.8 47.8 47.8 -47.8 47.81 -47.8 -47.81z"/>
  <path class="pattern_fil1" d="M2196.76 1035.78l50.06 -50.06 50.06 50.06 -50.06 50.06 -50.06 -50.06z"/>
  <path class="pattern_fil1" d="M2380.35 477.33l-128.42 128.42 -128.42 -128.42 40.74 -40.74 87.68 87.68 87.67 -87.68 40.74 40.74z"/>
  <path class="pattern_fil1" d="M2333.72 1007.23l-87.67 -87.68 -87.68 87.68 -40.74 -40.74 128.42 -128.42 128.41 128.42 -40.74 40.74z"/>
  <path class="pattern_fil1" d="M1998.97 605.25l128.42 128.42 -128.42 128.42 -40.74 -40.74 87.68 -87.67 -87.68 -87.68 40.74 -40.74z"/>
  <path class="pattern_fil1" d="M2541.65 637.47l-100.51 99.1 92.52 92.26 -40.74 40.74 -133.21 -130.02 141.21 -142.82 40.74 40.74z"/>
  <path class="pattern_fil1" d="M564.81 515.68l170.7 172.31 174.38 -176.02 40.52 40.74 -174.46 176.1 170.62 172.23 -40.74 40.52 -170.7 -172.31 -166.38 164.83 -40.52 -40.74 166.46 -164.91 -170.62 -172.23 40.74 -40.52z"/>
  <path class="pattern_fil1" d="M1015.99 724.22l46.88 -46.88 46.88 46.88 -46.88 46.88 -46.88 -46.88z"/>
  <path class="pattern_fil1" d="M368.94 725.2l47.8 -47.8 47.8 47.8 -47.8 47.8 -47.8 -47.8z"/>
  <path class="pattern_fil1" d="M685.14 1031.48l50.06 -50.06 50.06 50.06 -50.06 50.05 -50.06 -50.05z"/>
  <path class="pattern_fil1" d="M868.73 473.04l-128.42 128.42 -128.42 -128.42 40.74 -40.74 87.68 87.67 87.67 -87.67 40.74 40.74z"/>
  <path class="pattern_fil1" d="M822.1 1002.93l-87.67 -87.67 -87.68 87.67 -40.74 -40.74 128.42 -128.42 128.41 128.42 -40.74 40.74z"/>
  <path class="pattern_fil1" d="M487.35 600.95l128.42 128.41 -128.42 128.42 -40.74 -40.74 87.68 -87.68 -87.68 -87.67 40.74 -40.74z"/>
  <path class="pattern_fil1" d="M1030.03 633.17l-100.51 99.1 92.52 92.26 -40.74 40.74 -133.21 -130.02 141.21 -142.82 40.74 40.74z"/>
  <path class="pattern_fil1" d="M264.78 693.65l472.45 -472.45 505.56 505.56c-168.53,168.5 -337.04,337.03 -505.56,505.55l-505.56 -505.55 33.1 -33.11zm472.45 -412.32l-445.43 445.43 445.43 445.42 445.43 -445.42 -445.43 -445.43z"/>
  <path class="pattern_fil1" d="M158.87 689.47l578.36 -578.36 615.65 615.66c-205.24,205.2 -410.44,410.43 -615.65,615.65l-615.65 -615.65 37.29 -37.3zm578.36 -518.23l-555.52 555.52 555.52 555.51 555.52 -555.51 -555.52 -555.52z"/>
  <path class="pattern_fil1" d="M52.03 685.25l685.2 -685.2 726.71 726.71c-242.26,242.21 -484.48,484.47 -726.71,726.7l-726.71 -726.7 41.51 -41.52zm685.2 -625.07l-666.57 666.58 666.57 666.57 666.58 -666.57 -666.58 -666.58z"/>
 </g>
</svg>
