<svg xmlns="http://www.w3.org/2000/svg" xml:space="preserve" width="210mm" height="297mm" version="1.0" style="shape-rendering:geometricPrecision; text-rendering:geometricPrecision; image-rendering:optimizeQuality; fill-rule:evenodd; clip-rule:evenodd"
viewBox="0 0 1216.21 1719.65"
 xmlns:xlink="http://www.w3.org/1999/xlink">
 <defs>
  <style type="text/css">
   <![CDATA[
    .str0 {stroke:#CCCCCC;stroke-width:1;stroke-miterlimit:2}
    .fil0 {fill:white}
    .fil2 {fill:#EE3338;fill-rule:nonzero}
    .fil1 {fill:#EE3338;fill-rule:nonzero}
   ]]>
  </style>
 </defs>
  <g id="red_forest">
   <rect class="fil0 str0" x="0.51" y="0.51" width="1215.19" height="1718.63"/>
   <g>
    <path class="fil1" d="M26.13 35.3l-6.12 0 0 -30.35 6.12 0 0 30.35zm0 1673.39l0 -3.88 -6.12 0 0 3.88 6.12 0zm0 -22.09l-6.12 0 0 -30.35 6.12 0 0 30.35zm0 -48.57l-6.12 0 0 -30.35 6.12 0 0 30.35zm0 -48.57l-6.12 0 0 -30.35 6.12 0 0 30.35zm0 -48.57l-6.12 0 0 -30.35 6.12 0 0 30.35zm0 -48.57l-6.12 0 0 -30.35 6.12 0 0 30.35zm0 -48.57l-6.12 0 0 -30.35 6.12 0 0 30.35zm0 -48.57l-6.12 0 0 -30.35 6.12 0 0 30.35zm0 -48.57l-6.12 0 0 -30.35 6.12 0 0 30.35zm0 -48.57l-6.12 0 0 -30.35 6.12 0 0 30.35zm0 -48.57l-6.12 0 0 -30.35 6.12 0 0 30.35zm0 -48.57l-6.12 0 0 -30.35 6.12 0 0 30.35zm0 -48.57l-6.12 0 0 -30.35 6.12 0 0 30.35zm0 -48.57l-6.12 0 0 -30.35 6.12 0 0 30.35zm0 -48.57l-6.12 0 0 -30.35 6.12 0 0 30.35zm0 -48.57l-6.12 0 0 -30.35 6.12 0 0 30.35zm0 -48.57l-6.12 0 0 -30.35 6.12 0 0 30.35zm0 -48.57l-6.12 0 0 -30.35 6.12 0 0 30.35zm0 -48.57l-6.12 0 0 -30.35 6.12 0 0 30.35zm0 -48.57l-6.12 0 0 -30.35 6.12 0 0 30.35zm0 -48.57l-6.12 0 0 -30.35 6.12 0 0 30.35zm0 -48.57l-6.12 0 0 -30.35 6.12 0 0 30.35zm0 -48.57l-6.12 0 0 -30.35 6.12 0 0 30.35zm0 -48.57l-6.12 0 0 -30.35 6.12 0 0 30.35zm0 -48.57l-6.12 0 0 -30.35 6.12 0 0 30.35zm0 -48.57l-6.12 0 0 -30.35 6.12 0 0 30.35zm0 -48.57l-6.12 0 0 -30.35 6.12 0 0 30.35zm0 -48.57l-6.12 0 0 -30.35 6.12 0 0 30.35zm0 -48.57l-6.12 0 0 -30.35 6.12 0 0 30.35zm0 -48.57l-6.12 0 0 -30.35 6.12 0 0 30.35zm0 -48.57l-6.12 0 0 -30.35 6.12 0 0 30.35zm0 -48.57l-6.12 0 0 -30.35 6.12 0 0 30.35zm0 -48.57l-6.12 0 0 -30.35 6.12 0 0 30.35zm0 -48.57l-6.12 0 0 -30.35 6.12 0 0 30.35zm0 -48.57l-6.12 0 0 -30.35 6.12 0 0 30.35z"/>
    <g>
     <path class="fil2" d="M54.77 24.76l0 -19.81 -6.12 0 -0 19.81 6.12 0zm-0.12 1694.39l-6.12 0 0 -24.87 6.12 0 -0 24.87zm0 -43.08l0 -30.35 -6.12 0 -0 30.35 6.12 0zm0 -48.57c0,-10.12 -0.04,-20.24 0,-30.35l-6.12 0c-0.04,10.11 -0,20.24 -0,30.35l6.12 0zm0 -48.57l0 -30.35 -6.12 0 -0 30.35 6.12 0zm0 -48.57l0 -30.35 -6.12 0 -0 30.35 6.12 0zm0 -48.57l0 -30.35 -6.12 0 -0 30.35 6.12 0zm0 -48.57l0 -30.35 -6.12 0 -0 30.35 6.12 0zm0 -48.57l0 -30.35 -6.12 0 -0 30.35 6.12 0zm0 -48.57c0,-10.12 -0.01,-20.24 0,-30.35l-6.12 0c-0.01,10.12 -0,20.24 -0,30.35l6.12 0zm0 -48.57l0 -30.35 -6.12 0 -0 30.35 6.12 0zm0 -48.57l0 -30.35 -6.12 0 -0 30.35 6.12 0zm0 -48.57l0 -30.35 -6.12 0 -0 30.35 6.12 0zm0 -48.57l0 -30.35 -6.12 0 -0 30.35 6.12 0zm0 -48.57c0,-10.11 -0.06,-20.25 0,-30.35l-6.12 0c-0.07,10.11 -0,20.24 -0,30.35l6.12 0zm0 -48.57l0 -30.35 -6.12 0 -0 30.35 6.12 0zm0 -48.57l0 -30.35 -6.12 0 -0 30.35 6.12 0zm0 -48.57l0 -30.35 -6.12 0 -0 30.35 6.12 0zm0 -48.57l0 -30.35 -6.12 0 -0 30.35 6.12 0zm0 -48.57l0 -30.35 -6.12 0 -0 30.35 6.12 0zm0 -48.57c0,-10.12 -0.01,-20.24 0,-30.35l-6.12 0c-0.01,10.12 -0,20.24 -0,30.35l6.12 0zm0 -48.57l0 -30.35 -6.12 0 -0 30.35 6.12 0zm0 -48.57l0 -30.35 -6.12 0 -0 30.35 6.12 0zm0 -48.57l0 -30.35 -6.12 0 -0 30.35 6.12 0zm0 -48.57l0 -30.35 -6.12 0 -0 30.35 6.12 0zm0 -48.57c0,-10.1 -0.13,-20.27 0,-30.35l-6.12 0c-0.13,10.08 -0,20.26 -0,30.35l6.12 0zm0 -48.57l0 -30.35 -6.12 0 -0 30.35 6.12 0zm0 -48.57l0 -30.35 -6.12 0 -0 30.35 6.12 0zm0 -48.57l0 -30.35 -6.12 0 -0 30.35 6.12 0zm0 -48.57l0 -30.35 -6.12 0 -0 30.35 6.12 0zm0 -48.57l0 -30.35 -6.12 0 -0 30.35 6.12 0zm0 -48.57c0,-10.12 -0.01,-20.24 0,-30.35l-6.12 0c-0.01,10.12 -0,20.24 -0,30.35l6.12 0zm0 -48.57l0 -30.35 -6.12 0 -0 30.35 6.12 0zm0 -48.57l0 -30.35 -6.12 0 -0 30.35 6.12 0zm0 -48.57l0 -30.35 -6.12 0 -0 30.35 6.12 0zm0 -48.57l0 -30.35 -6.12 0 -0 30.35 6.12 0z"/>
     <path class="fil2" d="M83.42 14.21l0 -9.27 -6.12 0 -0 9.27 6.12 0zm-0.23 1699.87l0 -30.35 -6.12 -0 -0 30.35 6.12 0zm0.01 -48.57l0 -30.35 -6.12 -0 -0 30.35 6.12 0zm0.01 -48.57l0 -30.35 -6.12 -0 -0 30.35 6.12 0zm0.01 -48.57l0 -30.35 -6.12 -0 -0 30.35 6.12 0zm0.01 -48.57l0 -30.35 -6.12 -0 -0 30.35 6.12 0zm0.01 -48.57l0 -30.35 -6.12 -0 -0 30.35 6.12 0zm0.01 -48.57c0,-10.11 -0.05,-20.24 0,-30.35l-6.12 -0c-0.06,10.11 -0,20.24 -0,30.35l6.12 0zm0.01 -48.57c0,-10.12 -0.01,-20.24 0,-30.35l-6.12 -0c-0.01,10.12 -0,20.24 -0,30.35l6.12 0zm0.01 -48.57l0 -30.35 -6.12 -0 -0 30.35 6.12 0zm0.01 -48.57l0 -30.35 -6.12 -0 -0 30.35 6.12 0zm0.01 -48.57l0 -30.35 -6.12 -0 -0 30.35 6.12 0zm0.01 -48.57l0 -30.35 -6.12 -0 -0 30.35 6.12 0zm0.01 -48.57l0 -30.35 -6.12 -0 -0 30.35 6.12 0zm0.01 -48.57l0 -30.35 -6.12 -0 -0 30.35 6.12 0zm0.01 -48.57l0 -30.35 -6.12 -0 -0 30.35 6.12 0zm0.01 -48.57l0 -30.35 -6.12 -0 -0 30.35 6.12 0zm0.01 -48.57l0 -30.35 -6.12 -0 -0 30.35 6.12 0zm0.01 -48.57l0 -30.35 -6.12 -0 -0 30.35 6.12 0zm0.01 -48.57l0 -30.35 -6.12 -0 -0 30.35 6.12 0zm0.01 -48.57l0 -30.35 -6.12 -0 -0 30.35 6.12 0zm0.01 -48.57l0 -30.35 -6.12 -0 -0 30.35 6.12 0zm0.01 -48.57c0,-10.12 -0.02,-20.24 0,-30.35l-6.12 -0c-0.02,10.12 -0,20.24 -0,30.35l6.12 0zm0.01 -48.57c0,-10.12 -0,-20.24 0,-30.35l-6.12 -0c-0.01,10.12 -0,20.24 -0,30.35l6.12 0zm0.01 -48.57l0 -30.35 -6.12 -0 -0 30.35 6.12 0zm0.01 -48.57l0 -30.35 -6.12 -0 -0 30.35 6.12 0zm0.01 -48.57l0 -30.35 -6.12 -0 -0 30.35 6.12 0zm0.01 -48.57l0 -30.35 -6.12 -0 -0 30.35 6.12 0zm0.01 -48.57l0 -30.35 -6.12 -0 -0 30.35 6.12 0zm0.01 -48.57l0 -30.35 -6.12 -0 -0 30.35 6.12 0zm0.01 -48.57l0 -30.35 -6.12 -0 -0 30.35 6.12 0zm0.01 -48.57l0 -30.35 -6.12 -0 -0 30.35 6.12 0zm0.01 -48.57l0 -30.35 -6.12 -0 -0 30.35 6.12 0zm0.01 -48.57l0 -30.35 -6.12 -0 -0 30.35 6.12 0zm0.01 -48.57l0 -30.35 -6.12 -0 -0 30.35 6.12 0zm0.01 -48.57l0 -30.35 -6.12 -0 -0 30.35 6.12 0z"/>
     <path class="fil2" d="M111.73 1703.54l0.01 -30.35 -6.12 -0 -0.01 30.35 6.12 0zm0.01 -48.57l0.01 -30.35 -6.12 -0 -0.01 30.35 6.12 0zm0.01 -48.57l0.01 -30.35 -6.12 -0 -0.01 30.35 6.12 0zm0.01 -48.57l0.01 -30.35 -6.12 -0 -0.01 30.35 6.12 0zm0.01 -48.57l0.01 -30.35 -6.12 -0 -0.01 30.35 6.12 0zm0.01 -48.57l0.01 -30.35 -6.12 -0 -0.01 30.35 6.12 0zm0.01 -48.57l0.01 -30.35 -6.12 -0 -0.01 30.35 6.12 0zm0.01 -48.57l0.01 -30.35 -6.12 -0 -0.01 30.35 6.12 0zm0.01 -48.57c0,-10.12 -0,-20.24 0.01,-30.35l-6.12 -0c-0.01,10.12 -0.01,20.24 -0.01,30.35l6.12 0zm0.01 -48.57c0,-10.12 -0.01,-20.24 0.01,-30.35l-6.12 -0c-0.01,10.12 -0.01,20.24 -0.01,30.35l6.12 0zm0.01 -48.57c0,-10.12 -0.03,-20.24 0.01,-30.35l-6.12 -0c-0.04,10.12 -0.01,20.24 -0.01,30.35l6.12 0zm0.01 -48.57l0.01 -30.35 -6.12 -0 -0.01 30.35 6.12 0zm0.01 -48.57l0.01 -30.35 -6.12 -0 -0.01 30.35 6.12 0zm0.01 -48.57l0.01 -30.35 -6.12 -0 -0.01 30.35 6.12 0zm0.01 -48.57l0.01 -30.35 -6.12 -0 -0.01 30.35 6.12 0zm0.01 -48.57l0.01 -30.35 -6.12 -0 -0.01 30.35 6.12 0zm0.01 -48.57l0.01 -30.35 -6.12 -0 -0.01 30.35 6.12 0zm0.01 -48.57l0.01 -30.35 -6.12 -0 -0.01 30.35 6.12 0zm0.01 -48.57l0.01 -30.35 -6.12 -0 -0.01 30.35 6.12 0zm0.01 -48.57l0.01 -30.35 -6.12 -0 -0.01 30.35 6.12 0zm0.01 -48.57l0.01 -30.35 -6.12 -0 -0.01 30.35 6.12 0zm0.01 -48.57l0.01 -30.35 -6.12 -0 -0.01 30.35 6.12 0zm0.01 -48.57l0.01 -30.35 -6.12 -0 -0.01 30.35 6.12 0zm0.01 -48.57l0.01 -30.35 -6.12 -0 -0.01 30.35 6.12 0zm0.01 -48.57l0.01 -30.35 -6.12 -0 -0.01 30.35 6.12 0zm0.01 -48.57l0.01 -30.35 -6.12 -0 -0.01 30.35 6.12 0zm0.01 -48.57l0.01 -30.35 -6.12 -0 -0.01 30.35 6.12 0zm0.01 -48.57l0.01 -30.35 -6.12 -0 -0.01 30.35 6.12 0zm0.01 -48.57l0.01 -30.35 -6.12 -0 -0.01 30.35 6.12 0zm0.01 -48.57l0.01 -30.35 -6.12 -0 -0.01 30.35 6.12 0zm0.01 -48.57l0.01 -30.35 -6.12 -0 -0.01 30.35 6.12 0zm0.01 -48.57l0.01 -30.35 -6.12 -0 -0.01 30.35 6.12 0zm0.01 -48.57l0.01 -30.35 -6.12 -0 -0.01 30.35 6.12 0zm0.01 -48.57c0,-10.12 -0,-20.24 0.01,-30.35l-6.12 -0c-0.01,10.12 -0.01,20.24 -0.01,30.35l6.12 0zm0.01 -48.57c0,-10.12 -0.01,-20.24 0.01,-30.35l-6.12 -0c-0.02,10.12 -0.01,20.24 -0.01,30.35l6.12 0z"/>
     <path class="fil2" d="M140.26 1719.14l-6.12 0 0 -7.93 6.12 0 -0 7.93zm0.01 -26.14l0.01 -30.35 -6.12 -0 -0.01 30.35 6.12 0zm0.01 -48.57l0.01 -30.35 -6.12 -0 -0.01 30.35 6.12 0zm0.01 -48.57l0.01 -30.35 -6.12 -0 -0.01 30.35 6.12 0zm0.01 -48.57l0.01 -30.35 -6.12 -0 -0.01 30.35 6.12 0zm0.01 -48.57l0.01 -30.35 -6.12 -0 -0.01 30.35 6.12 0zm0.01 -48.57l0.01 -30.35 -6.12 -0 -0.01 30.35 6.12 0zm0.01 -48.57l0.01 -30.35 -6.12 -0 -0.01 30.35 6.12 0zm0.01 -48.57l0.01 -30.35 -6.12 -0 -0.01 30.35 6.12 0zm0.01 -48.57l0.01 -30.35 -6.12 -0 -0.01 30.35 6.12 0zm0.01 -48.57l0.01 -30.35 -6.12 -0 -0.01 30.35 6.12 0zm0.01 -48.57l0.01 -30.35 -6.12 -0 -0.01 30.35 6.12 0zm0.01 -48.57l0.01 -30.35 -6.12 -0 -0.01 30.35 6.12 0zm0.01 -48.57l0.01 -30.35 -6.12 -0 -0.01 30.35 6.12 0zm0.01 -48.57l0.01 -30.35 -6.12 -0 -0.01 30.35 6.12 0zm0.01 -48.57c0,-10.12 -0,-20.24 0.01,-30.35l-6.12 -0c-0.01,10.12 -0.01,20.24 -0.01,30.35l6.12 0zm0.01 -48.57l0.01 -30.35 -6.12 -0 -0.01 30.35 6.12 0zm0.01 -48.57l0.01 -30.35 -6.12 -0 -0.01 30.35 6.12 0zm0.01 -48.57l0.01 -30.35 -6.12 -0 -0.01 30.35 6.12 0zm0.01 -48.57l0.01 -30.35 -6.12 -0 -0.01 30.35 6.12 0zm0.01 -48.57l0.01 -30.35 -6.12 -0 -0.01 30.35 6.12 0zm0.01 -48.57l0.01 -30.35 -6.12 -0 -0.01 30.35 6.12 0zm0.01 -48.57c0,-10.12 -0.01,-20.24 0.01,-30.35l-6.12 -0c-0.02,10.12 -0.01,20.24 -0.01,30.35l6.12 0zm0.01 -48.57l0.01 -30.35 -6.12 -0 -0.01 30.35 6.12 0zm0.01 -48.57l0.01 -30.35 -6.12 -0 -0.01 30.35 6.12 0zm0.01 -48.57l0.01 -30.35 -6.12 -0 -0.01 30.35 6.12 0zm0.01 -48.57l0.01 -30.35 -6.12 -0 -0.01 30.35 6.12 0zm0.01 -48.57l0.01 -30.35 -6.12 -0 -0.01 30.35 6.12 0zm0.01 -48.57l0.01 -30.35 -6.12 -0 -0.01 30.35 6.12 0zm0.01 -48.57c0,-10.12 -0.02,-20.24 0.01,-30.35l-6.12 -0c-0.03,10.12 -0.01,20.24 -0.01,30.35l6.12 0zm0.01 -48.57l0.01 -30.35 -6.12 -0 -0.01 30.35 6.12 0zm0.01 -48.57l0.01 -30.35 -6.12 -0 -0.01 30.35 6.12 0zm0.01 -48.57l0.01 -30.35 -6.12 -0 -0.01 30.35 6.12 0zm0.01 -48.57l0.01 -30.35 -6.12 -0 -0.01 30.35 6.12 0zm0.01 -48.57l0.01 -30.35 -6.12 -0 -0.01 30.35 6.12 0zm0.01 -48.57l0.01 -30.35 -6.12 -0 -0.01 30.35 6.12 0z"/>
     <path class="fil2" d="M163.23 4.94l6.12 0 -0.01 26.21 -6.12 -0 0.01 -26.21zm5.57 1714.2l-6.12 0 0.01 -18.47 6.12 0 -0.01 18.47zm0.01 -36.68l0.01 -30.35 -6.12 -0 -0.01 30.35 6.12 0zm0.02 -48.57l0.01 -30.35 -6.12 -0 -0.01 30.35 6.12 0zm0.02 -48.57l0.01 -30.35 -6.12 -0 -0.01 30.35 6.12 0zm0.02 -48.57l0.01 -30.35 -6.12 -0 -0.01 30.35 6.12 0zm0.02 -48.57l0.01 -30.35 -6.12 -0 -0.01 30.35 6.12 0zm0.02 -48.57l0.01 -30.35 -6.12 -0 -0.01 30.35 6.12 0zm0.02 -48.57l0.01 -30.35 -6.12 -0 -0.01 30.35 6.12 0zm0.02 -48.57l0.01 -30.35 -6.12 -0 -0.01 30.35 6.12 0zm0.02 -48.57l0.01 -30.35 -6.12 -0 -0.01 30.35 6.12 0zm0.02 -48.57l0.01 -30.35 -6.12 -0 -0.01 30.35 6.12 0zm0.02 -48.57l0.01 -30.35 -6.12 -0 -0.01 30.35 6.12 0zm0.02 -48.57l0.01 -30.35 -6.12 -0 -0.01 30.35 6.12 0zm0.02 -48.57l0.01 -30.35 -6.12 -0 -0.01 30.35 6.12 0zm0.02 -48.57l0.01 -30.35 -6.12 -0 -0.01 30.35 6.12 0zm0.02 -48.57l0.01 -30.35 -6.12 -0 -0.01 30.35 6.12 0zm0.02 -48.57l0.01 -30.35 -6.12 -0 -0.01 30.35 6.12 0zm0.02 -48.57l0.01 -30.35 -6.12 -0 -0.01 30.35 6.12 0zm0.02 -48.57l0.01 -30.35 -6.12 -0 -0.01 30.35 6.12 0zm0.02 -48.57l0.01 -30.35 -6.12 -0 -0.01 30.35 6.12 0zm0.02 -48.57l0.01 -30.35 -6.12 -0 -0.01 30.35 6.12 0zm0.02 -48.57l0.01 -30.35 -6.12 -0 -0.01 30.35 6.12 0zm0.02 -48.57l0.01 -30.35 -6.12 -0 -0.01 30.35 6.12 0zm0.02 -48.57l0.01 -30.35 -6.12 -0 -0.01 30.35 6.12 0zm0.02 -48.57l0.01 -30.35 -6.12 -0 -0.01 30.35 6.12 0zm0.02 -48.57l0.01 -30.35 -6.12 -0 -0.01 30.35 6.12 0zm0.02 -48.57l0.01 -30.35 -6.12 -0 -0.01 30.35 6.12 0zm0.02 -48.57l0.01 -30.35 -6.12 -0 -0.01 30.35 6.12 0zm0.02 -48.57l0.01 -30.35 -6.12 -0 -0.01 30.35 6.12 0zm0.02 -48.57l0.01 -30.35 -6.12 -0 -0.01 30.35 6.12 0zm0.02 -48.57l0.01 -30.35 -6.12 -0 -0.01 30.35 6.12 0zm0.02 -48.57l0.01 -30.35 -6.12 -0 -0.01 30.35 6.12 0zm0.02 -48.57l0.01 -30.35 -6.12 -0 -0.01 30.35 6.12 0zm0.02 -48.57l0.01 -30.35 -6.12 -0 -0.01 30.35 6.12 0zm0.02 -48.57l0.01 -30.35 -6.12 -0 -0.01 30.35 6.12 0z"/>
     <path class="fil2" d="M191.87 4.94l6.12 0 -0.01 15.66 -6.12 -0 0.01 -15.66zm5.47 1714.2l-6.12 0 0.01 -29.02 6.12 0 -0.01 29.02zm0.02 -47.23l0.01 -30.35 -6.12 -0 -0.01 30.35 6.12 0zm0.02 -48.57l0.01 -30.35 -6.12 -0 -0.01 30.35 6.12 0zm0.02 -48.57l0.01 -30.35 -6.12 -0 -0.01 30.35 6.12 0zm0.02 -48.57l0.01 -30.35 -6.12 -0 -0.01 30.35 6.12 0zm0.02 -48.57l0.01 -30.35 -6.12 -0 -0.01 30.35 6.12 0zm0.02 -48.57l0.01 -30.35 -6.12 -0 -0.01 30.35 6.12 0zm0.02 -48.57l0.01 -30.35 -6.12 -0 -0.01 30.35 6.12 0zm0.02 -48.57l0.01 -30.35 -6.12 -0 -0.01 30.35 6.12 0zm0.02 -48.57l0.01 -30.35 -6.12 -0 -0.01 30.35 6.12 0zm0.02 -48.57c0,-10.12 0,-20.24 0.01,-30.35l-6.12 -0c-0.01,10.12 -0.01,20.24 -0.01,30.35l6.12 0zm0.02 -48.57l0.01 -30.35 -6.12 -0 -0.01 30.35 6.12 0zm0.02 -48.57l0.01 -30.35 -6.12 -0 -0.01 30.35 6.12 0zm0.02 -48.57c0,-10.12 -0.01,-20.24 0.01,-30.35l-6.12 -0c-0.02,10.12 -0.01,20.24 -0.01,30.35l6.12 0zm0.02 -48.57l0.01 -30.35 -6.12 -0 -0.01 30.35 6.12 0zm0.02 -48.57l0.01 -30.35 -6.12 -0 -0.01 30.35 6.12 0zm0.02 -48.57l0.01 -30.35 -6.12 -0 -0.01 30.35 6.12 0zm0.02 -48.57l0.01 -30.35 -6.12 -0 -0.01 30.35 6.12 0zm0.02 -48.57l0.01 -30.35 -6.12 -0 -0.01 30.35 6.12 0zm0.02 -48.57l0.01 -30.35 -6.12 -0 -0.01 30.35 6.12 0zm0.02 -48.57l0.01 -30.35 -6.12 -0 -0.01 30.35 6.12 0zm0.02 -48.57l0.01 -30.35 -6.12 -0 -0.01 30.35 6.12 0zm0.02 -48.57l0.01 -30.35 -6.12 -0 -0.01 30.35 6.12 0zm0.02 -48.57l0.01 -30.35 -6.12 -0 -0.01 30.35 6.12 0zm0.02 -48.57l0.01 -30.35 -6.12 -0 -0.01 30.35 6.12 0zm0.02 -48.57l0.01 -30.35 -6.12 -0 -0.01 30.35 6.12 0zm0.02 -48.57l0.01 -30.35 -6.12 -0 -0.01 30.35 6.12 0zm0.02 -48.57l0.01 -30.35 -6.12 -0 -0.01 30.35 6.12 0zm0.02 -48.57l0.01 -30.35 -6.12 -0 -0.01 30.35 6.12 0zm0.02 -48.57l0.01 -30.35 -6.12 -0 -0.01 30.35 6.12 0zm0.02 -48.57l0.01 -30.35 -6.12 -0 -0.01 30.35 6.12 0zm0.02 -48.57l0.01 -30.35 -6.12 -0 -0.01 30.35 6.12 0zm0.02 -48.57l0.01 -30.35 -6.12 -0 -0.01 30.35 6.12 0zm0.02 -48.57c0,-10.12 -0.01,-20.24 0.01,-30.35l-6.12 -0c-0.02,10.12 -0.01,20.24 -0.01,30.35l6.12 0zm0.02 -48.57l0.01 -30.35 -6.12 -0 -0.01 30.35 6.12 0z"/>
     <path class="fil2" d="M220.51 4.94l6.12 0 -0 5.12 -6.12 -0 0 -5.12zm5.37 1704.99c0,-10.12 0,-20.24 0.01,-30.35l-6.12 -0c-0.01,10.12 -0.01,20.24 -0.01,30.35l6.12 0zm0.02 -48.57l0.01 -30.35 -6.12 -0 -0.01 30.35 6.12 0zm0.02 -48.57l0.01 -30.35 -6.12 -0 -0.01 30.35 6.12 0zm0.02 -48.57l0.01 -30.35 -6.12 -0 -0.01 30.35 6.12 0zm0.02 -48.57l0.01 -30.35 -6.12 -0 -0.01 30.35 6.12 0zm0.02 -48.57l0.01 -30.35 -6.12 -0 -0.01 30.35 6.12 0zm0.02 -48.57l0.01 -30.35 -6.12 -0 -0.01 30.35 6.12 0zm0.02 -48.57l0.01 -30.35 -6.12 -0 -0.01 30.35 6.12 0zm0.02 -48.57l0.01 -30.35 -6.12 -0 -0.01 30.35 6.12 0zm0.02 -48.57c0,-10.12 -0,-20.24 0.01,-30.35l-6.12 -0c-0.02,10.12 -0.01,20.24 -0.01,30.35l6.12 0zm0.02 -48.57l0.01 -30.35 -6.12 -0 -0.01 30.35 6.12 0zm0.02 -48.57l0.01 -30.35 -6.12 -0 -0.01 30.35 6.12 0zm0.02 -48.57l0.01 -30.35 -6.12 -0 -0.01 30.35 6.12 0zm0.02 -48.57l0.01 -30.35 -6.12 -0 -0.01 30.35 6.12 0zm0.02 -48.57l0.01 -30.35 -6.12 -0 -0.01 30.35 6.12 0zm0.02 -48.57l0.01 -30.35 -6.12 -0 -0.01 30.35 6.12 0zm0.02 -48.57l0.01 -30.35 -6.12 -0 -0.01 30.35 6.12 0zm0.02 -48.57l0.01 -30.35 -6.12 -0 -0.01 30.35 6.12 0zm0.02 -48.57c0,-10.12 -0.01,-20.24 0.01,-30.35l-6.12 -0c-0.03,10.12 -0.01,20.24 -0.01,30.35l6.12 0zm0.02 -48.57l0.01 -30.35 -6.12 -0 -0.01 30.35 6.12 0zm0.02 -48.57l0.01 -30.35 -6.12 -0 -0.01 30.35 6.12 0zm0.02 -48.57l0.01 -30.35 -6.12 -0 -0.01 30.35 6.12 0zm0.02 -48.57l0.01 -30.35 -6.12 -0 -0.01 30.35 6.12 0zm0.02 -48.57l0.01 -30.35 -6.12 -0 -0.01 30.35 6.12 0zm0.02 -48.57l0.01 -30.35 -6.12 -0 -0.01 30.35 6.12 0zm0.02 -48.57l0.01 -30.35 -6.12 -0 -0.01 30.35 6.12 0zm0.02 -48.57l0.01 -30.35 -6.12 -0 -0.01 30.35 6.12 0zm0.02 -48.57c0,-10.11 -0.04,-20.24 0.01,-30.35l-6.12 -0c-0.05,10.11 -0.01,20.24 -0.01,30.35l6.12 0zm0.02 -48.57l0.01 -30.35 -6.12 -0 -0.01 30.35 6.12 0zm0.02 -48.57l0.01 -30.35 -6.12 -0 -0.01 30.35 6.12 0zm0.02 -48.57l0.01 -30.35 -6.12 -0 -0.01 30.35 6.12 0zm0.02 -48.57l0.01 -30.35 -6.12 -0 -0.01 30.35 6.12 0zm0.02 -48.57l0.01 -30.35 -6.12 -0 -0.01 30.35 6.12 0zm0.02 -48.57l0.01 -30.35 -6.12 -0 -0.01 30.35 6.12 0zm0.02 -48.57l0.01 -30.35 -6.12 -0 -0.01 30.35 6.12 0z"/>
     <path class="fil2" d="M254.43 1719.14l-6.12 0 0 -1.54 6.12 0 -0 1.53zm0.01 -19.75l0.02 -30.36 -6.12 -0 -0.02 30.35 6.12 0zm0.02 -48.57l0.02 -30.35 -6.12 -0 -0.02 30.35 6.12 0zm0.02 -48.57l0.02 -30.35 -6.12 -0 -0.02 30.35 6.12 0zm0.02 -48.57l0.02 -30.35 -6.12 -0 -0.02 30.35 6.12 0zm0.02 -48.57l0.01 -30.35 -6.12 -0 -0.01 30.36 6.12 0zm0.02 -48.57l0.02 -30.35 -6.12 -0 -0.02 30.35 6.12 0zm0.02 -48.57l0.02 -30.35 -6.12 -0 -0.02 30.35 6.12 0zm0.02 -48.57l0.02 -30.35 -6.12 -0 -0.02 30.35 6.12 0zm0.02 -48.57l0.02 -30.35 -6.12 -0 -0.02 30.35 6.12 0zm0.02 -48.57l0.02 -30.35 -6.12 -0 -0.02 30.35 6.12 0zm0.02 -48.57c0,-10.12 -0,-20.24 0.02,-30.35l-6.12 -0c-0.02,10.12 -0.01,20.24 -0.02,30.35l6.12 0zm0.02 -48.57l0.02 -30.35 -6.12 -0 -0.02 30.35 6.12 0zm0.02 -48.57l0.02 -30.35 -6.12 -0 -0.02 30.35 6.12 0zm0.02 -48.57l0.02 -30.35 -6.12 -0 -0.02 30.35 6.12 0zm0.02 -48.57l0.02 -30.36 -6.12 -0 -0.02 30.35 6.12 0zm0.02 -48.57l0.02 -30.35 -6.12 -0 -0.02 30.35 6.12 0zm0.02 -48.57l0.02 -30.35 -6.12 -0 -0.02 30.35 6.12 0zm0.02 -48.57l0.02 -30.35 -6.12 -0 -0.02 30.35 6.12 0zm0.02 -48.57l0.02 -30.35 -6.12 -0 -0.02 30.36 6.12 0zm0.02 -48.57l0.02 -30.36 -6.12 -0 -0.02 30.35 6.12 0zm0.02 -48.57l0.02 -30.35 -6.12 -0 -0.02 30.35 6.12 0zm0.02 -48.57l0.01 -30.35 -6.12 -0 -0.01 30.35 6.12 0zm0.02 -48.57l0.02 -30.35 -6.12 -0 -0.02 30.35 6.12 0zm0.02 -48.57c0,-10.12 -0.02,-20.24 0.02,-30.35l-6.12 -0c-0.04,10.12 -0.02,20.24 -0.02,30.35l6.12 0zm0.02 -48.57l0.01 -30.35 -6.12 -0 -0.01 30.35 6.12 0zm0.02 -48.57l0.02 -30.35 -6.12 -0 -0.02 30.35 6.12 0zm0.02 -48.57l0.02 -30.35 -6.12 -0 -0.02 30.35 6.12 0zm0.02 -48.57l0.02 -30.36 -6.12 -0 -0.02 30.35 6.12 0zm0.02 -48.57l0.02 -30.35 -6.12 -0 -0.02 30.35 6.12 0zm0.02 -48.57l0.02 -30.35 -6.12 -0 -0.02 30.35 6.12 0zm0.02 -48.57l0.02 -30.36 -6.12 -0 -0.02 30.35 6.12 0zm0.02 -48.57l0.02 -30.35 -6.12 -0 -0.02 30.35 6.12 0zm0.02 -48.57l0.02 -30.35 -6.12 -0 -0.02 30.36 6.12 0zm0.02 -48.57l0.02 -30.35 -6.12 -0 -0.02 30.35 6.12 0zm0.02 -48.57l0.02 -30.35 -6.12 -0 -0.02 30.35 6.12 0z"/>
     <path class="fil2" d="M282.97 1719.14l-6.12 0 0.01 -12.08 6.12 0 -0.01 12.08zm0.02 -30.29l0.02 -30.35 -6.12 -0 -0.02 30.35 6.12 0zm0.03 -48.57l0.02 -30.35 -6.12 -0 -0.02 30.35 6.12 0zm0.03 -48.57l0.02 -30.35 -6.12 -0 -0.02 30.35 6.12 0zm0.03 -48.57l0.02 -30.35 -6.12 -0 -0.02 30.35 6.12 0zm0.03 -48.57l0.02 -30.35 -6.12 -0 -0.02 30.35 6.12 0zm0.03 -48.57l0.02 -30.35 -6.12 -0 -0.02 30.35 6.12 0zm0.03 -48.57l0.02 -30.35 -6.12 -0 -0.02 30.35 6.12 0zm0.03 -48.57l0.02 -30.35 -6.12 -0 -0.02 30.35 6.12 0zm0.03 -48.57l0.02 -30.35 -6.12 -0 -0.02 30.35 6.12 0zm0.03 -48.57c0.01,-10.12 0,-20.24 0.02,-30.35l-6.12 -0c-0.02,10.12 -0.01,20.24 -0.02,30.35l6.12 0zm0.03 -48.57l0.02 -30.35 -6.12 -0 -0.02 30.35 6.12 0zm0.03 -48.57l0.02 -30.35 -6.12 -0 -0.02 30.35 6.12 0zm0.03 -48.57l0.02 -30.35 -6.12 -0 -0.02 30.35 6.12 0zm0.03 -48.57l0.02 -30.35 -6.12 -0 -0.02 30.35 6.12 0zm0.03 -48.57l0.02 -30.35 -6.12 -0 -0.02 30.35 6.12 0zm0.03 -48.57l0.02 -30.35 -6.12 -0 -0.02 30.35 6.12 0zm0.03 -48.57l0.02 -30.35 -6.12 -0 -0.02 30.35 6.12 0zm0.03 -48.57l0.02 -30.35 -6.12 -0 -0.02 30.35 6.12 0zm0.03 -48.57l0.02 -30.35 -6.12 -0 -0.02 30.35 6.12 0zm0.03 -48.57l0.02 -30.35 -6.12 -0 -0.02 30.35 6.12 0zm0.03 -48.57l0.02 -30.35 -6.12 -0 -0.02 30.35 6.12 0zm0.03 -48.57l0.02 -30.35 -6.12 -0 -0.02 30.35 6.12 0zm0.03 -48.57l0.02 -30.35 -6.12 -0 -0.02 30.35 6.12 0zm0.03 -48.57l0.02 -30.35 -6.12 -0 -0.02 30.35 6.12 0zm0.03 -48.57l0.02 -30.35 -6.12 -0 -0.02 30.35 6.12 0zm0.03 -48.57l0.02 -30.35 -6.12 -0 -0.02 30.35 6.12 0zm0.03 -48.57l0.02 -30.35 -6.12 -0 -0.02 30.35 6.12 0zm0.03 -48.57l0.02 -30.35 -6.12 -0 -0.02 30.35 6.12 0zm0.03 -48.57c0.01,-10.12 0,-20.24 0.02,-30.35l-6.12 -0c-0.01,10.12 -0.01,20.24 -0.02,30.35l6.12 0zm0.03 -48.57l0.02 -30.35 -6.12 -0 -0.02 30.35 6.12 0zm0.03 -48.57l0.02 -30.35 -6.12 -0 -0.02 30.35 6.12 0zm0.03 -48.57l0.02 -30.35 -6.12 -0 -0.02 30.35 6.12 0zm0.03 -48.57l0.02 -30.35 -6.12 -0 -0.02 30.35 6.12 0zm0.03 -48.57l0.02 -30.35 -6.12 -0 -0.02 30.35 6.12 0zm0.03 -48.57l0.02 -30.35 -6.12 -0 -0.02 30.35 6.12 0z"/>
     <path class="fil2" d="M306.43 4.94l6.12 0 -0.01 22.06 -6.12 -0 0.01 -22.06zm5.09 1714.2l-6.12 0 0.01 -22.62 6.12 0 -0.01 22.62zm0.03 -40.83l0.02 -30.35 -6.12 -0 -0.02 30.35 6.12 0zm0.03 -48.57l0.02 -30.35 -6.12 -0 -0.02 30.35 6.12 0zm0.03 -48.57l0.02 -30.35 -6.12 -0 -0.02 30.35 6.12 0zm0.03 -48.57l0.02 -30.35 -6.12 -0 -0.02 30.35 6.12 0zm0.03 -48.57c0.01,-10.12 0,-20.24 0.02,-30.35l-6.12 -0c-0.02,10.12 -0.01,20.24 -0.02,30.35l6.12 0zm0.03 -48.57l0.02 -30.35 -6.12 -0 -0.02 30.35 6.12 0zm0.03 -48.57l0.02 -30.35 -6.12 -0 -0.02 30.35 6.12 0zm0.03 -48.57c0,-10.12 0.01,-20.24 0.02,-30.35l-6.12 -0c-0.01,10.12 -0.02,20.24 -0.02,30.35l6.12 0zm0.03 -48.57l0.02 -30.35 -6.12 -0 -0.02 30.35 6.12 0zm0.03 -48.57l0.02 -30.35 -6.12 -0 -0.02 30.35 6.12 0zm0.03 -48.57l0.02 -30.35 -6.12 -0 -0.02 30.35 6.12 0zm0.03 -48.57c0.01,-10.11 -0.07,-20.25 0.02,-30.35l-6.12 -0c-0.09,10.11 -0.01,20.24 -0.02,30.35l6.12 0zm0.03 -48.57l0.02 -30.35 -6.12 -0 -0.02 30.35 6.12 0zm0.03 -48.57l0.02 -30.35 -6.12 -0 -0.02 30.35 6.12 0zm0.03 -48.57c0,-10.12 0.01,-20.24 0.02,-30.35l-6.12 -0c-0.01,10.12 -0.02,20.24 -0.02,30.35l6.12 0zm0.03 -48.57c0.01,-10.12 0.01,-20.24 0.02,-30.35l-6.12 -0c-0.01,10.12 -0.01,20.24 -0.02,30.35l6.12 0zm0.03 -48.57l0.02 -30.35 -6.12 -0 -0.02 30.35 6.12 0zm0.03 -48.57l0.02 -30.35 -6.12 -0 -0.02 30.35 6.12 0zm0.03 -48.57l0.02 -30.35 -6.12 -0 -0.02 30.35 6.12 0zm0.03 -48.57l0.02 -30.35 -6.12 -0 -0.02 30.35 6.12 0zm0.03 -48.57l0.02 -30.35 -6.12 -0 -0.02 30.35 6.12 0zm0.03 -48.57l0.02 -30.35 -6.12 -0 -0.02 30.35 6.12 0zm0.03 -48.57l0.02 -30.35 -6.12 -0 -0.02 30.35 6.12 0zm0.03 -48.57l0.02 -30.35 -6.12 -0 -0.02 30.35 6.12 0zm0.03 -48.57l0.02 -30.35 -6.12 -0 -0.02 30.35 6.12 0zm0.03 -48.57c0,-10.12 0.01,-20.24 0.02,-30.35l-6.12 -0c-0.01,10.12 -0.02,20.24 -0.02,30.35l6.12 0zm0.03 -48.57l0.02 -30.35 -6.12 -0 -0.02 30.35 6.12 0zm0.03 -48.57l0.02 -30.35 -6.12 -0 -0.02 30.35 6.12 0zm0.03 -48.57l0.02 -30.35 -6.12 -0 -0.02 30.35 6.12 0zm0.03 -48.57c0.01,-10.12 0,-20.24 0.02,-30.35l-6.12 -0c-0.02,10.12 -0.01,20.24 -0.02,30.35l6.12 0zm0.03 -48.57l0.02 -30.35 -6.12 -0 -0.02 30.35 6.12 0zm0.03 -48.57l0.02 -30.35 -6.12 -0 -0.02 30.35 6.12 0zm0.03 -48.57c0,-10.12 0.01,-20.24 0.02,-30.35l-6.12 -0c-0.01,10.12 -0.02,20.24 -0.02,30.35l6.12 0zm0.03 -48.57l0.02 -30.35 -6.12 -0 -0.02 30.35 6.12 0z"/>
     <path class="fil2" d="M335.07 4.94l6.12 0 -0.01 11.52 -6.12 -0 0.01 -11.51zm5 1711.39c0,-10.12 0.01,-20.24 0.02,-30.35l-6.12 -0c-0.01,10.12 -0.02,20.24 -0.02,30.35l6.12 0zm0.03 -48.57c0.01,-10.12 0,-20.24 0.02,-30.35l-6.12 -0c-0.02,10.12 -0.01,20.24 -0.02,30.35l6.12 0zm0.03 -48.57l0.02 -30.35 -6.12 -0 -0.02 30.35 6.12 0zm0.03 -48.57l0.02 -30.35 -6.12 -0 -0.02 30.35 6.12 0zm0.03 -48.57l0.02 -30.35 -6.12 -0 -0.02 30.35 6.12 0zm0.03 -48.57c0,-10.12 0.01,-20.24 0.02,-30.35l-6.12 -0c-0.01,10.12 -0.02,20.24 -0.02,30.35l6.12 0zm0.03 -48.57c0.01,-10.11 -0.06,-20.25 0.02,-30.35l-6.12 -0c-0.08,10.11 -0.01,20.24 -0.02,30.35l6.12 0zm0.03 -48.57l0.02 -30.35 -6.12 -0 -0.02 30.35 6.12 0zm0.03 -48.57l0.02 -30.35 -6.12 -0 -0.02 30.35 6.12 0zm0.03 -48.57l0.02 -30.35 -6.12 -0 -0.02 30.35 6.12 0zm0.03 -48.57c0,-10.12 0.01,-20.24 0.02,-30.35l-6.12 -0c-0.01,10.12 -0.02,20.24 -0.02,30.35l6.12 0zm0.03 -48.57l0.02 -30.35 -6.12 -0 -0.02 30.35 6.12 0zm0.03 -48.57l0.02 -30.35 -6.12 -0 -0.02 30.35 6.12 0zm0.03 -48.57l0.02 -30.35 -6.12 -0 -0.02 30.35 6.12 0zm0.03 -48.57l0.02 -30.35 -6.12 -0 -0.02 30.35 6.12 0zm0.03 -48.57l0.02 -30.35 -6.12 -0 -0.02 30.35 6.12 0zm0.03 -48.57l0.02 -30.35 -6.12 -0 -0.02 30.35 6.12 0zm0.03 -48.57l0.02 -30.35 -6.12 -0 -0.02 30.35 6.12 0zm0.03 -48.57l0.02 -30.35 -6.12 -0 -0.02 30.35 6.12 0zm0.03 -48.57l0.02 -30.35 -6.12 -0 -0.02 30.35 6.12 0zm0.03 -48.57l0.02 -30.35 -6.12 -0 -0.02 30.35 6.12 0zm0.03 -48.57l0.02 -30.35 -6.12 -0 -0.02 30.35 6.12 0zm0.03 -48.57l0.02 -30.35 -6.12 -0 -0.02 30.35 6.12 0zm0.03 -48.57l0.02 -30.35 -6.12 -0 -0.02 30.35 6.12 0zm0.03 -48.57l0.02 -30.35 -6.12 -0 -0.02 30.35 6.12 0zm0.03 -48.57l0.02 -30.35 -6.12 -0 -0.02 30.35 6.12 0zm0.03 -48.57l0.02 -30.35 -6.12 -0 -0.02 30.35 6.12 0zm0.03 -48.57l0.02 -30.35 -6.12 -0 -0.02 30.35 6.12 0zm0.03 -48.57l0.02 -30.35 -6.12 -0 -0.02 30.35 6.12 0zm0.03 -48.57l0.02 -30.35 -6.12 -0 -0.02 30.35 6.12 0zm0.03 -48.57l0.02 -30.35 -6.12 -0 -0.02 30.35 6.12 0zm0.03 -48.57c0,-10.12 0.01,-20.24 0.02,-30.35l-6.12 -0c-0.01,10.12 -0.02,20.24 -0.02,30.35l6.12 0zm0.03 -48.57c0.01,-10.12 -0,-20.24 0.02,-30.35l-6.12 -0c-0.02,10.12 -0.01,20.24 -0.02,30.35l6.12 0zm0.03 -48.57l0.02 -30.35 -6.12 -0 -0.02 30.35 6.12 0zm0.03 -48.57l0.02 -30.35 -6.12 -0 -0.02 30.35 6.12 0z"/>
     <path class="fil2" d="M363.7 4.94l6.12 0 0 0.98 -6.12 -0 0 -0.97zm4.93 1700.85l0.02 -30.35 -6.12 -0 -0.02 30.35 6.12 0zm0.03 -48.57l0.02 -30.35 -6.12 -0 -0.02 30.35 6.12 0zm0.03 -48.57l0.02 -30.35 -6.12 -0 -0.02 30.35 6.12 0zm0.03 -48.57l0.02 -30.35 -6.12 -0 -0.02 30.35 6.12 0zm0.03 -48.57l0.02 -30.35 -6.12 -0 -0.02 30.35 6.12 0zm0.03 -48.57l0.02 -30.35 -6.12 -0 -0.02 30.35 6.12 0zm0.03 -48.57l0.02 -30.35 -6.12 -0 -0.02 30.35 6.12 0zm0.03 -48.57c0,-10.12 0.01,-20.24 0.02,-30.35l-6.12 -0c-0.01,10.12 -0.02,20.24 -0.02,30.35l6.12 0zm0.03 -48.57l0.02 -30.35 -6.12 -0 -0.02 30.35 6.12 0zm0.03 -48.57l0.02 -30.35 -6.12 -0 -0.02 30.35 6.12 0zm0.03 -48.57c0.01,-10.12 0.01,-20.24 0.02,-30.35l-6.12 -0c-0.01,10.12 -0.01,20.24 -0.02,30.35l6.12 0zm0.03 -48.57l0.02 -30.35 -6.12 -0 -0.02 30.35 6.12 0zm0.03 -48.57l0.02 -30.35 -6.12 -0 -0.02 30.35 6.12 0zm0.03 -48.57l0.02 -30.35 -6.12 -0 -0.02 30.35 6.12 0zm0.03 -48.57l0.02 -30.35 -6.12 -0 -0.02 30.35 6.12 0zm0.03 -48.57l0.02 -30.35 -6.12 -0 -0.02 30.35 6.12 0zm0.03 -48.57l0.02 -30.35 -6.12 -0 -0.02 30.35 6.12 0zm0.03 -48.57c0,-10.12 0.01,-20.24 0.02,-30.35l-6.12 -0c-0.01,10.12 -0.02,20.24 -0.02,30.35l6.12 0zm0.03 -48.57l0.02 -30.35 -6.12 -0 -0.02 30.35 6.12 0zm0.03 -48.57c0.01,-10.12 0,-20.24 0.02,-30.35l-6.12 -0c-0.02,10.12 -0.02,20.24 -0.02,30.35l6.12 0zm0.03 -48.57l0.02 -30.35 -6.12 -0 -0.02 30.35 6.12 0zm0.03 -48.57l0.02 -30.35 -6.12 -0 -0.02 30.35 6.12 0zm0.03 -48.57l0.02 -30.35 -6.12 -0 -0.02 30.35 6.12 0zm0.03 -48.57l0.02 -30.35 -6.12 -0 -0.02 30.35 6.12 0zm0.03 -48.57l0.02 -30.35 -6.12 -0 -0.02 30.35 6.12 0zm0.03 -48.57l0.02 -30.35 -6.12 -0 -0.02 30.35 6.12 0zm0.03 -48.57c0,-10.12 0.01,-20.24 0.02,-30.35l-6.12 -0c-0.01,10.12 -0.02,20.24 -0.02,30.35l6.12 0zm0.03 -48.57l0.02 -30.35 -6.12 -0 -0.02 30.35 6.12 0zm0.03 -48.57c0.01,-10.12 -0.02,-20.24 0.02,-30.35l-6.12 -0c-0.04,10.12 -0.01,20.24 -0.02,30.35l6.12 0zm0.03 -48.57l0.02 -30.35 -6.12 -0 -0.02 30.35 6.12 0zm0.03 -48.57l0.02 -30.35 -6.12 -0 -0.02 30.35 6.12 0zm0.03 -48.57l0.02 -30.35 -6.12 -0 -0.02 30.35 6.12 0zm0.03 -48.57l0.02 -30.35 -6.12 -0 -0.02 30.35 6.12 0zm0.03 -48.57l0.02 -30.35 -6.12 -0 -0.02 30.35 6.12 0zm0.03 -48.57l0.02 -30.35 -6.12 -0 -0.02 30.35 6.12 0z"/>
     <path class="fil2" d="M397.17 1719.14l-6.12 0 0 -5.68 6.12 0 -0 5.68zm0.02 -23.89l0.02 -30.35 -6.12 -0 -0.02 30.35 6.12 0zm0.04 -48.57c0.01,-10.12 -0.03,-20.24 0.02,-30.35l-6.12 -0c-0.05,10.11 -0.02,20.24 -0.02,30.35l6.12 0zm0.04 -48.57c0.01,-10.12 0,-20.24 0.02,-30.35l-6.12 -0c-0.02,10.12 -0.02,20.24 -0.02,30.35l6.12 0zm0.04 -48.57l0.02 -30.35 -6.12 -0 -0.02 30.35 6.12 0zm0.04 -48.57l0.02 -30.35 -6.12 -0 -0.02 30.35 6.12 0zm0.04 -48.57l0.02 -30.35 -6.12 -0 -0.02 30.35 6.12 0zm0.04 -48.57l0.02 -30.35 -6.12 -0 -0.02 30.35 6.12 0zm0.04 -48.57l0.02 -30.35 -6.12 -0 -0.02 30.35 6.12 0zm0.04 -48.57l0.02 -30.35 -6.12 -0 -0.02 30.35 6.12 0zm0.04 -48.57l0.02 -30.35 -6.12 -0 -0.02 30.35 6.12 0zm0.04 -48.57l0.02 -30.35 -6.12 -0 -0.02 30.35 6.12 0zm0.04 -48.57l0.02 -30.35 -6.12 -0 -0.02 30.35 6.12 0zm0.04 -48.57l0.02 -30.35 -6.12 -0 -0.02 30.35 6.12 0zm0.04 -48.57l0.02 -30.35 -6.12 -0 -0.02 30.35 6.12 0zm0.04 -48.57l0.02 -30.35 -6.12 -0 -0.02 30.35 6.12 0zm0.04 -48.57l0.02 -30.35 -6.12 -0 -0.02 30.35 6.12 0zm0.04 -48.57l0.02 -30.35 -6.12 -0 -0.02 30.35 6.12 0zm0.04 -48.57l0.02 -30.35 -6.12 -0 -0.02 30.35 6.12 0zm0.04 -48.57l0.02 -30.35 -6.12 -0 -0.02 30.35 6.12 0zm0.04 -48.57l0.02 -30.35 -6.12 -0 -0.02 30.35 6.12 0zm0.04 -48.57l0.02 -30.35 -6.12 -0 -0.02 30.35 6.12 0zm0.04 -48.57l0.02 -30.35 -6.12 -0 -0.02 30.35 6.12 0zm0.04 -48.57l0.02 -30.35 -6.12 -0 -0.02 30.35 6.12 0zm0.04 -48.57l0.02 -30.35 -6.12 -0 -0.02 30.35 6.12 0zm0.04 -48.57l0.02 -30.35 -6.12 -0 -0.02 30.35 6.12 0zm0.04 -48.57l0.02 -30.35 -6.12 -0 -0.02 30.35 6.12 0zm0.04 -48.57c0,-10.12 0.01,-20.24 0.02,-30.35l-6.12 -0c-0.01,10.12 -0.02,20.24 -0.02,30.35l6.12 0zm0.04 -48.57c0,-10.12 0.01,-20.24 0.02,-30.35l-6.12 -0c-0.01,10.12 -0.02,20.24 -0.02,30.35l6.12 0zm0.04 -48.57c0,-10.12 0.01,-20.24 0.02,-30.35l-6.12 -0c-0.01,10.12 -0.02,20.24 -0.02,30.35l6.12 0zm0.04 -48.57l0.02 -30.35 -6.12 -0 -0.02 30.35 6.12 0zm0.04 -48.57l0.02 -30.35 -6.12 -0 -0.02 30.35 6.12 0zm0.04 -48.57l0.02 -30.35 -6.12 -0 -0.02 30.35 6.12 0zm0.04 -48.57l0.02 -30.35 -6.12 -0 -0.02 30.35 6.12 0zm0.04 -48.57l0.02 -30.35 -6.12 -0 -0.02 30.35 6.12 0zm0.04 -48.57l0.02 -30.35 -6.12 -0 -0.02 30.35 6.12 0z"/>
     <path class="fil2" d="M420.97 4.94l6.12 0 -0.02 28.46 -6.12 -0 0.02 -28.45zm4.75 1714.2l-6.12 0 0.01 -16.23 6.12 0 -0.01 16.22zm0.03 -34.44l0.02 -30.35 -6.12 -0 -0.02 30.35 6.12 0zm0.04 -48.57l0.02 -30.35 -6.12 -0 -0.02 30.35 6.12 0zm0.04 -48.57l0.02 -30.35 -6.12 -0 -0.02 30.35 6.12 0zm0.04 -48.57l0.02 -30.35 -6.12 -0 -0.02 30.35 6.12 0zm0.04 -48.57l0.02 -30.35 -6.12 -0 -0.02 30.35 6.12 0zm0.04 -48.57c0,-10.12 0.02,-20.24 0.02,-30.35l-6.12 -0c-0.01,10.12 -0.02,20.24 -0.02,30.35l6.12 0zm0.04 -48.57l0.02 -30.35 -6.12 -0 -0.02 30.35 6.12 0zm0.04 -48.57l0.02 -30.35 -6.12 -0 -0.02 30.35 6.12 0zm0.04 -48.57l0.02 -30.35 -6.12 -0 -0.02 30.35 6.12 0zm0.04 -48.57l0.02 -30.35 -6.12 -0 -0.02 30.35 6.12 0zm0.04 -48.57l0.02 -30.35 -6.12 -0 -0.02 30.35 6.12 0zm0.04 -48.57l0.02 -30.35 -6.12 -0 -0.02 30.35 6.12 0zm0.04 -48.57l0.02 -30.35 -6.12 -0 -0.02 30.35 6.12 0zm0.04 -48.57l0.02 -30.35 -6.12 -0 -0.02 30.35 6.12 0zm0.04 -48.57l0.02 -30.35 -6.12 -0 -0.02 30.35 6.12 0zm0.04 -48.57l0.02 -30.35 -6.12 -0 -0.02 30.35 6.12 0zm0.04 -48.57c0.01,-10.12 0.01,-20.24 0.02,-30.35l-6.12 -0c-0.02,10.12 -0.02,20.24 -0.02,30.35l6.12 0zm0.04 -48.57c0.01,-10.12 0.01,-20.24 0.02,-30.35l-6.12 -0c-0.02,10.12 -0.02,20.24 -0.02,30.35l6.12 0zm0.04 -48.57l0.02 -30.35 -6.12 -0 -0.02 30.35 6.12 0zm0.04 -48.57l0.02 -30.35 -6.12 -0 -0.02 30.35 6.12 0zm0.04 -48.57l0.02 -30.35 -6.12 -0 -0.02 30.35 6.12 0zm0.04 -48.57l0.02 -30.35 -6.12 -0 -0.02 30.35 6.12 0zm0.04 -48.57l0.02 -30.35 -6.12 -0 -0.02 30.35 6.12 0zm0.04 -48.57l0.02 -30.35 -6.12 -0 -0.02 30.35 6.12 0zm0.04 -48.57c0,-10.12 0.02,-20.24 0.02,-30.35l-6.12 -0c-0.01,10.12 -0.02,20.24 -0.02,30.35l6.12 0zm0.04 -48.57c0,-10.12 0.02,-20.24 0.02,-30.35l-6.12 -0c-0.01,10.12 -0.02,20.24 -0.02,30.35l6.12 0zm0.04 -48.57l0.02 -30.35 -6.12 -0 -0.02 30.35 6.12 0zm0.04 -48.57l0.02 -30.35 -6.12 -0 -0.02 30.35 6.12 0zm0.04 -48.57l0.02 -30.35 -6.12 -0 -0.02 30.35 6.12 0zm0.04 -48.57l0.02 -30.35 -6.12 -0 -0.02 30.35 6.12 0zm0.04 -48.57l0.02 -30.35 -6.12 -0 -0.02 30.35 6.12 0zm0.04 -48.57l0.02 -30.35 -6.12 -0 -0.02 30.35 6.12 0zm0.04 -48.57l0.02 -30.35 -6.12 -0 -0.02 30.35 6.12 0zm0.04 -48.57l0.02 -30.35 -6.12 -0 -0.02 30.35 6.12 0z"/>
     <path class="fil2" d="M449.61 4.94l6.12 0 -0.02 17.91 -6.12 -0 0.02 -17.91zm4.67 1714.2l-6.12 0 0.02 -26.77 6.12 0.01 -0.02 26.77zm0.04 -44.98l0.03 -30.35 -6.12 -0 -0.03 30.35 6.12 0zm0.04 -48.57l0.03 -30.35 -6.12 -0 -0.03 30.35 6.12 0zm0.04 -48.57l0.03 -30.35 -6.12 -0 -0.03 30.35 6.12 0zm0.04 -48.57l0.03 -30.35 -6.12 -0 -0.03 30.35 6.12 0.01zm0.04 -48.57l0.03 -30.35 -6.12 -0.01 -0.03 30.35 6.12 0zm0.04 -48.57l0.03 -30.35 -6.12 -0 -0.03 30.35 6.12 0zm0.04 -48.57c0.01,-10.12 -0,-20.24 0.03,-30.35l-6.12 -0c-0.03,10.12 -0.02,20.24 -0.03,30.35l6.12 0zm0.04 -48.57l0.03 -30.35 -6.12 -0 -0.03 30.35 6.12 0zm0.04 -48.57l0.03 -30.36 -6.12 -0 -0.03 30.35 6.12 0.01zm0.04 -48.57c0,-10.12 0.02,-20.24 0.03,-30.35l-6.12 -0c-0.01,10.12 -0.03,20.24 -0.03,30.35l6.12 0zm0.04 -48.57l0.03 -30.36 -6.12 -0 -0.03 30.35 6.12 0.01zm0.04 -48.57l0.03 -30.35 -6.12 -0.01 -0.03 30.36 6.12 0zm0.04 -48.57l0.03 -30.35 -6.12 -0 -0.03 30.35 6.12 0zm0.04 -48.57l0.03 -30.35 -6.12 -0 -0.03 30.35 6.12 0zm0.04 -48.57l0.03 -30.35 -6.12 -0 -0.03 30.35 6.12 0zm0.04 -48.57l0.03 -30.36 -6.12 -0 -0.03 30.35 6.12 0.01zm0.04 -48.57l0.03 -30.35 -6.12 -0 -0.03 30.35 6.12 0zm0.04 -48.57c0,-10.12 0.02,-20.24 0.03,-30.36l-6.12 -0c-0.01,10.12 -0.03,20.24 -0.03,30.35l6.12 0.01zm0.04 -48.57l0.03 -30.35 -6.12 -0.01 -0.03 30.36 6.12 0zm0.04 -48.57l0.03 -30.35 -6.12 -0 -0.03 30.35 6.12 0zm0.04 -48.57l0.03 -30.35 -6.12 -0 -0.03 30.35 6.12 0zm0.04 -48.57l0.03 -30.35 -6.12 -0 -0.03 30.35 6.12 0zm0.04 -48.57l0.03 -30.35 -6.12 -0 -0.03 30.35 6.12 0.01zm0.04 -48.57l0.03 -30.35 -6.12 -0 -0.03 30.35 6.12 0zm0.04 -48.57l0.03 -30.36 -6.12 -0 -0.03 30.35 6.12 0.01zm0.04 -48.57l0.03 -30.35 -6.12 -0.01 -0.03 30.36 6.12 0zm0.04 -48.57l0.03 -30.35 -6.12 -0 -0.03 30.35 6.12 0zm0.04 -48.57l0.03 -30.35 -6.12 -0.01 -0.03 30.36 6.12 0zm0.04 -48.57l0.03 -30.35 -6.12 -0 -0.03 30.35 6.12 0zm0.04 -48.57c0.01,-10.12 0.01,-20.24 0.03,-30.35l-6.12 -0c-0.02,10.12 -0.02,20.24 -0.03,30.35l6.12 0zm0.04 -48.57l0.03 -30.35 -6.12 -0 -0.03 30.35 6.12 0zm0.04 -48.57l0.03 -30.36 -6.12 -0 -0.03 30.35 6.12 0.01zm0.04 -48.57c0,-10.12 0.02,-20.24 0.03,-30.35l-6.12 -0c-0.01,10.12 -0.03,20.24 -0.03,30.35l6.12 0zm0.04 -48.57l0.03 -30.35 -6.12 -0 -0.03 30.35 6.12 0.01z"/>
     <path class="fil2" d="M478.24 4.94l6.12 0 -0 7.37 -6.12 -0.01 0 -7.37zm4.61 1707.24l0.03 -30.35 -6.12 -0.01 -0.03 30.35 6.12 0.01zm0.04 -48.57c0,-10.12 0.02,-20.24 0.03,-30.35l-6.12 -0.01c-0.01,10.12 -0.03,20.24 -0.03,30.35l6.12 0.01zm0.04 -48.57l0.03 -30.35 -6.12 -0.01 -0.03 30.35 6.12 0.01zm0.04 -48.57l0.03 -30.35 -6.12 -0.01 -0.03 30.35 6.12 0.01zm0.04 -48.57l0.03 -30.35 -6.12 -0.01 -0.03 30.35 6.12 0.01zm0.04 -48.57l0.03 -30.35 -6.12 -0.01 -0.03 30.35 6.12 0.01zm0.04 -48.57c0,-10.12 0.02,-20.24 0.03,-30.35l-6.12 -0.01c-0.01,10.12 -0.03,20.24 -0.03,30.35l6.12 0.01zm0.04 -48.57l0.03 -30.35 -6.12 -0.01 -0.03 30.35 6.12 0.01zm0.04 -48.57l0.03 -30.35 -6.12 -0.01 -0.03 30.35 6.12 0.01zm0.04 -48.57l0.03 -30.35 -6.12 -0.01 -0.03 30.35 6.12 0.01zm0.04 -48.57l0.03 -30.35 -6.12 -0.01 -0.03 30.35 6.12 0.01zm0.04 -48.57c0,-10.12 0.02,-20.24 0.03,-30.35l-6.12 -0.01c-0.01,10.12 -0.03,20.24 -0.03,30.35l6.12 0.01zm0.04 -48.57l0.03 -30.35 -6.12 -0.01 -0.03 30.35 6.12 0.01zm0.04 -48.57l0.03 -30.35 -6.12 -0.01 -0.03 30.35 6.12 0.01zm0.04 -48.57l0.03 -30.35 -6.12 -0.01 -0.03 30.35 6.12 0.01zm0.04 -48.57l0.03 -30.35 -6.12 -0.01 -0.03 30.35 6.12 0.01zm0.04 -48.57l0.03 -30.35 -6.12 -0.01 -0.03 30.35 6.12 0.01zm0.04 -48.57l0.03 -30.35 -6.12 -0.01 -0.03 30.35 6.12 0.01zm0.04 -48.57l0.03 -30.35 -6.12 -0.01 -0.03 30.35 6.12 0.01zm0.04 -48.57l0.03 -30.35 -6.12 -0.01 -0.03 30.35 6.12 0.01zm0.04 -48.57l0.03 -30.35 -6.12 -0.01 -0.03 30.35 6.12 0.01zm0.04 -48.57l0.03 -30.35 -6.12 -0.01 -0.03 30.35 6.12 0.01zm0.04 -48.57l0.03 -30.35 -6.12 -0.01 -0.03 30.35 6.12 0.01zm0.04 -48.57c0.01,-10.12 0.01,-20.24 0.03,-30.35l-6.12 -0.01c-0.02,10.12 -0.02,20.24 -0.03,30.35l6.12 0.01zm0.04 -48.57l0.03 -30.35 -6.12 -0.01 -0.03 30.35 6.12 0.01zm0.04 -48.57l0.03 -30.35 -6.12 -0.01 -0.03 30.35 6.12 0.01zm0.04 -48.57l0.03 -30.35 -6.12 -0.01 -0.03 30.35 6.12 0.01zm0.04 -48.57l0.03 -30.35 -6.12 -0.01 -0.03 30.35 6.12 0.01zm0.04 -48.57l0.03 -30.35 -6.12 -0.01 -0.03 30.35 6.12 0.01zm0.04 -48.57l0.03 -30.35 -6.12 -0.01 -0.03 30.35 6.12 0.01zm0.04 -48.57l0.03 -30.35 -6.12 -0.01 -0.03 30.35 6.12 0.01zm0.04 -48.57l0.03 -30.35 -6.12 -0.01 -0.03 30.35 6.12 0.01zm0.04 -48.57l0.03 -30.35 -6.12 -0.01 -0.03 30.35 6.12 0.01zm0.04 -48.57c0.01,-10.12 0,-20.24 0.03,-30.35l-6.12 -0.01c-0.03,10.12 -0.02,20.24 -0.03,30.35l6.12 0.01zm0.04 -48.57l0.03 -30.35 -6.12 -0.01 -0.03 30.35 6.12 0.01z"/>
     <path class="fil2" d="M511.41 1701.64l0.03 -30.35 -6.12 -0.01 -0.03 30.35 6.12 0.01zm0.05 -48.57l0.03 -30.35 -6.12 -0.01 -0.03 30.35 6.12 0.01zm0.05 -48.57c0.01,-10.12 0.01,-20.24 0.03,-30.35l-6.12 -0.01c-0.02,10.12 -0.02,20.24 -0.03,30.35l6.12 0.01zm0.05 -48.57l0.03 -30.35 -6.12 -0.01 -0.03 30.35 6.12 0.01zm0.05 -48.57l0.03 -30.35 -6.12 -0.01 -0.03 30.35 6.12 0.01zm0.05 -48.57l0.03 -30.35 -6.12 -0.01 -0.03 30.35 6.12 0.01zm0.05 -48.57l0.03 -30.35 -6.12 -0.01 -0.03 30.35 6.12 0.01zm0.05 -48.57l0.03 -30.35 -6.12 -0.01 -0.03 30.35 6.12 0.01zm0.05 -48.57l0.03 -30.35 -6.12 -0.01 -0.03 30.35 6.12 0.01zm0.05 -48.57l0.03 -30.35 -6.12 -0.01 -0.03 30.35 6.12 0.01zm0.05 -48.57l0.03 -30.35 -6.12 -0.01 -0.03 30.35 6.12 0.01zm0.05 -48.57c0,-10.12 0.02,-20.24 0.03,-30.35l-6.12 -0.01c-0.01,10.12 -0.03,20.24 -0.03,30.35l6.12 0.01zm0.05 -48.57l0.03 -30.35 -6.12 -0.01 -0.03 30.35 6.12 0.01zm0.05 -48.57l0.03 -30.35 -6.12 -0.01 -0.03 30.35 6.12 0.01zm0.05 -48.57l0.03 -30.35 -6.12 -0.01 -0.03 30.35 6.12 0.01zm0.05 -48.57l0.03 -30.35 -6.12 -0.01 -0.03 30.35 6.12 0.01zm0.05 -48.57l0.03 -30.35 -6.12 -0.01 -0.03 30.35 6.12 0.01zm0.05 -48.57l0.03 -30.35 -6.12 -0.01 -0.03 30.35 6.12 0.01zm0.05 -48.57l0.03 -30.35 -6.12 -0.01 -0.03 30.35 6.12 0.01zm0.05 -48.57l0.03 -30.35 -6.12 -0.01 -0.03 30.35 6.12 0.01zm0.05 -48.57c0.01,-10.12 -0,-20.24 0.03,-30.35l-6.12 -0.01c-0.03,10.12 -0.02,20.24 -0.03,30.35l6.12 0.01zm0.05 -48.57l0.03 -30.35 -6.12 -0.01 -0.03 30.35 6.12 0.01zm0.05 -48.57l0.03 -30.35 -6.12 -0.01 -0.03 30.35 6.12 0.01zm0.05 -48.57l0.03 -30.35 -6.12 -0.01 -0.03 30.35 6.12 0.01zm0.05 -48.57l0.03 -30.35 -6.12 -0.01 -0.03 30.35 6.12 0.01zm0.05 -48.57l0.03 -30.35 -6.12 -0.01 -0.03 30.35 6.12 0.01zm0.05 -48.57l0.03 -30.35 -6.12 -0.01 -0.03 30.35 6.12 0.01zm0.05 -48.57l0.03 -30.35 -6.12 -0.01 -0.03 30.35 6.12 0.01zm0.05 -48.57l0.03 -30.35 -6.12 -0.01 -0.03 30.35 6.12 0.01zm0.05 -48.57c0,-10.12 0.02,-20.24 0.03,-30.35l-6.12 -0.01c-0.01,10.12 -0.03,20.24 -0.03,30.35l6.12 0.01zm0.05 -48.57l0.03 -30.35 -6.12 -0.01 -0.03 30.35 6.12 0.01zm0.05 -48.57l0.03 -30.35 -6.12 -0.01 -0.03 30.35 6.12 0.01zm0.05 -48.57l0.03 -30.35 -6.12 -0.01 -0.03 30.35 6.12 0.01zm0.05 -48.57l0.03 -30.35 -6.12 -0.01 -0.03 30.35 6.12 0.01zm0.05 -48.57l0.03 -30.35 -6.12 -0.01 -0.03 30.35 6.12 0.01z"/>
     <path class="fil2" d="M539.95 1719.14l-6.12 0 0.01 -9.83 6.12 0.01 -0.01 9.83zm0.03 -28.04l0.03 -30.35 -6.12 -0.01 -0.03 30.35 6.12 0.01zm0.05 -48.57l0.03 -30.35 -6.12 -0.01 -0.03 30.35 6.12 0.01zm0.05 -48.57l0.03 -30.35 -6.12 -0.01 -0.03 30.35 6.12 0.01zm0.05 -48.57l0.03 -30.35 -6.12 -0.01 -0.03 30.35 6.12 0.01zm0.05 -48.57l0.03 -30.35 -6.12 -0.01 -0.03 30.35 6.12 0.01zm0.05 -48.57l0.03 -30.35 -6.12 -0.01 -0.03 30.35 6.12 0.01zm0.05 -48.57l0.03 -30.35 -6.12 -0.01 -0.03 30.35 6.12 0.01zm0.05 -48.57l0.03 -30.35 -6.12 -0.01 -0.03 30.35 6.12 0.01zm0.05 -48.57c0,-10.12 0.02,-20.24 0.03,-30.35l-6.12 -0.01c-0.01,10.12 -0.03,20.24 -0.03,30.35l6.12 0.01zm0.05 -48.57l0.03 -30.35 -6.12 -0.01 -0.03 30.35 6.12 0.01zm0.05 -48.57l0.03 -30.35 -6.12 -0.01 -0.03 30.35 6.12 0.01zm0.05 -48.57c0,-10.12 0.02,-20.24 0.03,-30.35l-6.12 -0.01c-0.01,10.12 -0.03,20.24 -0.03,30.35l6.12 0.01zm0.05 -48.57l0.03 -30.35 -6.12 -0.01 -0.03 30.35 6.12 0.01zm0.05 -48.57l0.03 -30.35 -6.12 -0.01 -0.03 30.35 6.12 0.01zm0.05 -48.57l0.03 -30.35 -6.12 -0.01 -0.03 30.35 6.12 0.01zm0.05 -48.57c0.01,-10.12 0.01,-20.24 0.03,-30.35l-6.12 -0.01c-0.02,10.12 -0.02,20.24 -0.03,30.35l6.12 0.01zm0.05 -48.57l0.03 -30.35 -6.12 -0.01 -0.03 30.35 6.12 0.01zm0.05 -48.57l0.03 -30.35 -6.12 -0.01 -0.03 30.35 6.12 0.01zm0.05 -48.57c0.01,-10.12 -0.01,-20.24 0.03,-30.35l-6.12 -0.01c-0.04,10.12 -0.02,20.24 -0.03,30.35l6.12 0.01zm0.05 -48.57l0.03 -30.35 -6.12 -0.01 -0.03 30.35 6.12 0.01zm0.05 -48.57l0.03 -30.35 -6.12 -0.01 -0.03 30.35 6.12 0.01zm0.05 -48.57l0.03 -30.35 -6.12 -0.01 -0.03 30.35 6.12 0.01zm0.05 -48.57l0.03 -30.35 -6.12 -0.01 -0.03 30.35 6.12 0.01zm0.05 -48.57l0.03 -30.35 -6.12 -0.01 -0.03 30.35 6.12 0.01zm0.05 -48.57l0.03 -30.35 -6.12 -0.01 -0.03 30.35 6.12 0.01zm0.05 -48.57l0.03 -30.35 -6.12 -0.01 -0.03 30.35 6.12 0.01zm0.05 -48.57l0.03 -30.35 -6.12 -0.01 -0.03 30.35 6.12 0.01zm0.05 -48.57l0.03 -30.35 -6.12 -0.01 -0.03 30.35 6.12 0.01zm0.05 -48.57c0,-10.12 0.02,-20.24 0.03,-30.35l-6.12 -0.01c-0.01,10.12 -0.03,20.24 -0.03,30.35l6.12 0.01zm0.05 -48.57l0.03 -30.35 -6.12 -0.01 -0.03 30.35 6.12 0.01zm0.05 -48.57l0.03 -30.35 -6.12 -0.01 -0.03 30.35 6.12 0.01zm0.05 -48.57l0.03 -30.35 -6.12 -0.01 -0.03 30.35 6.12 0.01zm0.05 -48.57l0.03 -30.35 -6.12 -0.01 -0.03 30.35 6.12 0.01zm0.05 -48.57l0.03 -30.35 -6.12 -0.01 -0.03 30.35 6.12 0.01zm0.05 -48.57l0.03 -30.35 -6.12 -0.01 -0.03 30.35 6.12 0.01z"/>
     <path class="fil2" d="M564.13 4.94l6.12 0 -0.02 24.31 -6.12 -0.01 0.02 -24.3zm4.38 1714.2l-6.12 0 0.02 -20.38 6.12 0.01 -0.02 20.37zm0.04 -38.58l0.03 -30.35 -6.12 -0.01 -0.03 30.35 6.12 0.01zm0.05 -48.57l0.03 -30.35 -6.12 -0.01 -0.03 30.35 6.12 0.01zm0.05 -48.57l0.03 -30.35 -6.12 -0.01 -0.03 30.35 6.12 0.01zm0.05 -48.57l0.03 -30.35 -6.12 -0.01 -0.03 30.35 6.12 0.01zm0.05 -48.57l0.03 -30.35 -6.12 -0.01 -0.03 30.35 6.12 0.01zm0.05 -48.57l0.03 -30.35 -6.12 -0.01 -0.03 30.35 6.12 0.01zm0.05 -48.57c0,-10.12 0.02,-20.24 0.03,-30.35l-6.12 -0.01c-0.01,10.12 -0.03,20.24 -0.03,30.35l6.12 0.01zm0.05 -48.57l0.03 -30.35 -6.12 -0.01 -0.03 30.35 6.12 0.01zm0.05 -48.57l0.03 -30.35 -6.12 -0.01 -0.03 30.35 6.12 0.01zm0.05 -48.57l0.03 -30.35 -6.12 -0.01 -0.03 30.35 6.12 0.01zm0.05 -48.57l0.03 -30.35 -6.12 -0.01 -0.03 30.35 6.12 0.01zm0.05 -48.57l0.03 -30.35 -6.12 -0.01 -0.03 30.35 6.12 0.01zm0.05 -48.57l0.03 -30.35 -6.12 -0.01 -0.03 30.35 6.12 0.01zm0.05 -48.57l0.03 -30.35 -6.12 -0.01 -0.03 30.35 6.12 0.01zm0.05 -48.57l0.03 -30.35 -6.12 -0.01 -0.03 30.35 6.12 0.01zm0.05 -48.57l0.03 -30.35 -6.12 -0.01 -0.03 30.35 6.12 0.01zm0.05 -48.57l0.03 -30.35 -6.12 -0.01 -0.03 30.35 6.12 0.01zm0.05 -48.57l0.03 -30.35 -6.12 -0.01 -0.03 30.35 6.12 0.01zm0.05 -48.57l0.03 -30.35 -6.12 -0.01 -0.03 30.35 6.12 0.01zm0.05 -48.57l0.03 -30.35 -6.12 -0.01 -0.03 30.35 6.12 0.01zm0.05 -48.57l0.03 -30.35 -6.12 -0.01 -0.03 30.35 6.12 0.01zm0.05 -48.57l0.03 -30.35 -6.12 -0.01 -0.03 30.35 6.12 0.01zm0.05 -48.57l0.03 -30.35 -6.12 -0.01 -0.03 30.35 6.12 0.01zm0.05 -48.57l0.03 -30.35 -6.12 -0.01 -0.03 30.35 6.12 0.01zm0.05 -48.57l0.03 -30.35 -6.12 -0.01 -0.03 30.35 6.12 0.01zm0.05 -48.57c0,-10.12 0.02,-20.24 0.03,-30.35l-6.12 -0.01c-0.01,10.12 -0.03,20.24 -0.03,30.35l6.12 0.01zm0.05 -48.57l0.03 -30.35 -6.12 -0.01 -0.03 30.35 6.12 0.01zm0.05 -48.57l0.03 -30.35 -6.12 -0.01 -0.03 30.35 6.12 0.01zm0.05 -48.57l0.03 -30.35 -6.12 -0.01 -0.03 30.35 6.12 0.01zm0.05 -48.57l0.03 -30.35 -6.12 -0.01 -0.03 30.35 6.12 0.01zm0.05 -48.57l0.03 -30.35 -6.12 -0.01 -0.03 30.35 6.12 0.01zm0.05 -48.57l0.03 -30.35 -6.12 -0.01 -0.03 30.35 6.12 0.01zm0.05 -48.57l0.03 -30.35 -6.12 -0.01 -0.03 30.35 6.12 0.01zm0.05 -48.57l0.03 -30.35 -6.12 -0.01 -0.03 30.35 6.12 0.01z"/>
     <path class="fil2" d="M592.76 4.94l6.12 0 -0.01 13.77 -6.12 -0.01 0.01 -13.76zm4.31 1713.64c0.01,-10.12 0.01,-20.24 0.03,-30.35l-6.12 -0.01c-0.02,10.12 -0.02,20.24 -0.03,30.35l6.12 0.01zm0.05 -48.57l0.03 -30.35 -6.12 -0.01 -0.03 30.35 6.12 0.01zm0.05 -48.57l0.03 -30.35 -6.12 -0.01 -0.03 30.35 6.12 0.01zm0.05 -48.57l0.03 -30.35 -6.12 -0.01 -0.03 30.35 6.12 0.01zm0.05 -48.57c0.01,-10.12 0.02,-20.24 0.03,-30.35l-6.12 -0.01c-0.02,10.12 -0.02,20.24 -0.03,30.35l6.12 0.01zm0.05 -48.57l0.03 -30.35 -6.12 -0.01 -0.03 30.35 6.12 0.01zm0.05 -48.57l0.03 -30.35 -6.12 -0.01 -0.03 30.35 6.12 0.01zm0.05 -48.57l0.03 -30.35 -6.12 -0.01 -0.03 30.35 6.12 0.01zm0.05 -48.57l0.03 -30.35 -6.12 -0.01 -0.03 30.35 6.12 0.01zm0.05 -48.57l0.03 -30.35 -6.12 -0.01 -0.03 30.35 6.12 0.01zm0.05 -48.57l0.03 -30.35 -6.12 -0.01 -0.03 30.35 6.12 0.01zm0.05 -48.57l0.03 -30.35 -6.12 -0.01 -0.03 30.35 6.12 0.01zm0.05 -48.57l0.03 -30.35 -6.12 -0.01 -0.03 30.35 6.12 0.01zm0.05 -48.57l0.03 -30.35 -6.12 -0.01 -0.03 30.35 6.12 0.01zm0.05 -48.57l0.03 -30.35 -6.12 -0.01 -0.03 30.35 6.12 0.01zm0.05 -48.57l0.03 -30.35 -6.12 -0.01 -0.03 30.35 6.12 0.01zm0.05 -48.57l0.03 -30.35 -6.12 -0.01 -0.03 30.35 6.12 0.01zm0.05 -48.57l0.03 -30.35 -6.12 -0.01 -0.03 30.35 6.12 0.01zm0.05 -48.57l0.03 -30.35 -6.12 -0.01 -0.03 30.35 6.12 0.01zm0.05 -48.57l0.03 -30.35 -6.12 -0.01 -0.03 30.35 6.12 0.01zm0.05 -48.57l0.03 -30.35 -6.12 -0.01 -0.03 30.35 6.12 0.01zm0.05 -48.57l0.03 -30.35 -6.12 -0.01 -0.03 30.35 6.12 0.01zm0.05 -48.57l0.03 -30.35 -6.12 -0.01 -0.03 30.35 6.12 0.01zm0.05 -48.57l0.03 -30.35 -6.12 -0.01 -0.03 30.35 6.12 0.01zm0.05 -48.57l0.03 -30.35 -6.12 -0.01 -0.03 30.35 6.12 0.01zm0.05 -48.57l0.03 -30.35 -6.12 -0.01 -0.03 30.35 6.12 0.01zm0.05 -48.57l0.03 -30.35 -6.12 -0.01 -0.03 30.35 6.12 0.01zm0.05 -48.57l0.03 -30.35 -6.12 -0.01 -0.03 30.35 6.12 0.01zm0.05 -48.57l0.03 -30.35 -6.12 -0.01 -0.03 30.35 6.12 0.01zm0.05 -48.57l0.03 -30.35 -6.12 -0.01 -0.03 30.35 6.12 0.01zm0.05 -48.57c0,-10.12 0.02,-20.24 0.03,-30.35l-6.12 -0.01c-0.01,10.12 -0.03,20.24 -0.03,30.35l6.12 0.01zm0.05 -48.57l0.03 -30.35 -6.12 -0.01 -0.03 30.35 6.12 0.01zm0.05 -48.57c0,-10.12 0.02,-20.24 0.03,-30.35l-6.12 -0.01c-0.01,10.12 -0.03,20.24 -0.03,30.35l6.12 0.01zm0.05 -48.57l0.03 -30.35 -6.12 -0.01 -0.03 30.35 6.12 0.01zm0.05 -48.57l0.03 -30.35 -6.12 -0.01 -0.03 30.35 6.12 0.01z"/>
     <path class="fil2" d="M621.39 4.94l6.12 0 -0 3.22 -6.12 -0.01 0 -3.22zm4.25 1703.1l0.03 -30.35 -6.12 -0.01 -0.03 30.35 6.12 0.01zm0.05 -48.57l0.03 -30.35 -6.12 -0.01 -0.03 30.35 6.12 0.01zm0.05 -48.57l0.03 -30.35 -6.12 -0.01 -0.03 30.35 6.12 0.01zm0.05 -48.57c0.01,-10.11 -0.06,-20.25 0.03,-30.35l-6.12 -0.01c-0.1,10.1 -0.02,20.25 -0.03,30.35l6.12 0.01zm0.05 -48.57l0.03 -30.35 -6.12 -0.01 -0.03 30.35 6.12 0.01zm0.05 -48.57l0.03 -30.35 -6.12 -0.01 -0.03 30.35 6.12 0.01zm0.05 -48.57l0.03 -30.35 -6.12 -0.01 -0.03 30.35 6.12 0.01zm0.05 -48.57l0.03 -30.35 -6.12 -0.01 -0.03 30.35 6.12 0.01zm0.05 -48.57l0.03 -30.35 -6.12 -0.01 -0.03 30.35 6.12 0.01zm0.05 -48.57l0.03 -30.35 -6.12 -0.01 -0.03 30.35 6.12 0.01zm0.05 -48.57l0.03 -30.35 -6.12 -0.01 -0.03 30.35 6.12 0.01zm0.05 -48.57l0.03 -30.35 -6.12 -0.01 -0.03 30.35 6.12 0.01zm0.05 -48.57c0.01,-10.1 -0.09,-20.26 0.03,-30.35l-6.12 -0.01c-0.13,10.09 -0.02,20.25 -0.03,30.35l6.12 0.01zm0.05 -48.57l0.03 -30.35 -6.12 -0.01 -0.03 30.35 6.12 0.01zm0.05 -48.57l0.03 -30.35 -6.12 -0.01 -0.03 30.35 6.12 0.01zm0.05 -48.57l0.03 -30.35 -6.12 -0.01 -0.03 30.35 6.12 0.01zm0.05 -48.57l0.03 -30.35 -6.12 -0.01 -0.03 30.35 6.12 0.01zm0.05 -48.57l0.03 -30.35 -6.12 -0.01 -0.03 30.35 6.12 0.01zm0.05 -48.57l0.03 -30.35 -6.12 -0.01 -0.03 30.35 6.12 0.01zm0.05 -48.57l0.03 -30.35 -6.12 -0.01 -0.03 30.35 6.12 0.01zm0.05 -48.57l0.03 -30.35 -6.12 -0.01 -0.03 30.35 6.12 0.01zm0.05 -48.57c0.01,-10.08 -0.16,-20.3 0.03,-30.35l-6.12 -0.01c-0.19,10.05 -0.02,20.28 -0.03,30.35l6.12 0.01zm0.05 -48.57l0.03 -30.35 -6.12 -0.01 -0.03 30.35 6.12 0.01zm0.05 -48.57l0.03 -30.35 -6.12 -0.01 -0.03 30.35 6.12 0.01zm0.05 -48.57l0.03 -30.35 -6.12 -0.01 -0.03 30.35 6.12 0.01zm0.05 -48.57l0.03 -30.35 -6.12 -0.01 -0.03 30.35 6.12 0.01zm0.05 -48.57l0.03 -30.35 -6.12 -0.01 -0.03 30.35 6.12 0.01zm0.05 -48.57l0.03 -30.35 -6.12 -0.01 -0.03 30.35 6.12 0.01zm0.05 -48.57l0.03 -30.35 -6.12 -0.01 -0.03 30.35 6.12 0.01zm0.05 -48.57l0.03 -30.35 -6.12 -0.01 -0.03 30.35 6.12 0.01zm0.05 -48.57c0.01,-9.95 -0.34,-20.49 0.03,-30.35l-6.12 -0.01c-0.37,9.86 -0.02,20.4 -0.03,30.35l6.12 0.01zm0.05 -48.57l0.03 -30.35 -6.12 -0.01 -0.03 30.35 6.12 0.01zm0.05 -48.57l0.03 -30.35 -6.12 -0.01 -0.03 30.35 6.12 0.01zm0.05 -48.57l0.03 -30.35 -6.12 -0.01 -0.03 30.35 6.12 0.01zm0.05 -48.57l0.03 -30.35 -6.12 -0.01 -0.03 30.35 6.12 0.01z"/>
     <path class="fil2" d="M654.19 1719.14l-6.12 0 0 -3.44 6.12 0.01 -0 3.43zm0.02 -21.65l0.03 -30.35 -6.12 -0.01 -0.03 30.35 6.12 0.01zm0.06 -48.57l0.03 -30.35 -6.12 -0.01 -0.03 30.35 6.12 0.01zm0.05 -48.57l0.03 -30.35 -6.12 -0.01 -0.03 30.35 6.12 0.01zm0.05 -48.57c0,-10.12 0.02,-20.24 0.03,-30.35l-6.12 -0.01c-0.01,10.12 -0.03,20.24 -0.03,30.35l6.12 0.01zm0.06 -48.57l0.03 -30.35 -6.12 -0.01 -0.03 30.35 6.12 0.01zm0.06 -48.57l0.03 -30.35 -6.12 -0.01 -0.03 30.35 6.12 0.01zm0.05 -48.57l0.03 -30.35 -6.12 -0.01 -0.03 30.35 6.12 0.01zm0.06 -48.57l0.03 -30.35 -6.12 -0.01 -0.03 30.35 6.12 0.01zm0.05 -48.57l0.03 -30.35 -6.12 -0.01 -0.03 30.35 6.12 0.01zm0.05 -48.57l0.03 -30.35 -6.12 -0.01 -0.03 30.35 6.12 0.01zm0.06 -48.57c0.01,-10.07 -0.16,-20.3 0.03,-30.35l-6.12 -0.01c-0.2,10.05 -0.02,20.28 -0.03,30.35l6.12 0.01zm0.05 -48.57l0.03 -30.35 -6.12 -0.01 -0.03 30.35 6.12 0.01zm0.06 -48.57l0.03 -30.35 -6.12 -0.01 -0.03 30.35 6.12 0.01zm0.06 -48.57l0.03 -30.35 -6.12 -0.01 -0.03 30.35 6.12 0.01zm0.05 -48.57l0.03 -30.35 -6.12 -0.01 -0.03 30.35 6.12 0.01zm0.06 -48.57l0.03 -30.35 -6.12 -0.01 -0.03 30.35 6.12 0.01zm0.06 -48.57l0.03 -30.35 -6.12 -0.01 -0.03 30.35 6.12 0.01zm0.05 -48.57l0.03 -30.35 -6.12 -0.01 -0.03 30.35 6.12 0.01zm0.06 -48.57c0.01,-10.12 0.02,-20.24 0.03,-30.35l-6.12 -0.01c-0.02,10.12 -0.02,20.24 -0.03,30.35l6.12 0.01zm0.05 -48.57l0.03 -30.35 -6.12 -0.01 -0.03 30.35 6.12 0.01zm0.05 -48.57l0.03 -30.35 -6.12 -0.01 -0.03 30.35 6.12 0.01zm0.06 -48.57l0.03 -30.35 -6.12 -0.01 -0.03 30.35 6.12 0.01zm0.05 -48.57l0.03 -30.35 -6.12 -0.01 -0.03 30.35 6.12 0.01zm0.06 -48.57l0.03 -30.35 -6.12 -0.01 -0.03 30.35 6.12 0.01zm0.06 -48.57c0,-10.12 0.02,-20.24 0.03,-30.35l-6.12 -0.01c-0.01,10.12 -0.03,20.24 -0.03,30.35l6.12 0.01zm0.05 -48.57l0.03 -30.35 -6.12 -0.01 -0.03 30.35 6.12 0.01zm0.06 -48.57c0.01,-10.12 0.02,-20.24 0.03,-30.35l-6.12 -0.01c-0.02,10.12 -0.02,20.24 -0.03,30.35l6.12 0.01zm0.06 -48.57l0.03 -30.35 -6.12 -0.01 -0.03 30.35 6.12 0.01zm0.05 -48.57l0.03 -30.35 -6.12 -0.01 -0.03 30.35 6.12 0.01zm0.06 -48.57l0.03 -30.35 -6.12 -0.01 -0.03 30.35 6.12 0.01zm0.05 -48.57l0.03 -30.35 -6.12 -0.01 -0.03 30.35 6.12 0.01zm0.05 -48.57l0.03 -30.35 -6.12 -0.01 -0.03 30.35 6.12 0.01zm0.06 -48.57c0,-10.12 0.02,-20.24 0.03,-30.35l-6.12 -0.01c-0.01,10.12 -0.03,20.24 -0.03,30.35l6.12 0.01zm0.05 -48.57l0.03 -30.35 -6.12 -0.01 -0.03 30.35 6.12 0.01zm0.06 -48.57l0.03 -30.35 -6.12 -0.01 -0.03 30.35 6.12 0.01z"/>
     <path class="fil2" d="M682.76 1719.14l-6.12 0 0.02 -13.98 6.12 0.01 -0.02 13.98zm0.04 -32.19l0.04 -30.35 -6.12 -0.01 -0.04 30.35 6.12 0.01zm0.06 -48.57c0.01,-10.09 -0.12,-20.27 0.04,-30.35l-6.12 -0.01c-0.15,10.08 -0.02,20.26 -0.04,30.35l6.12 0.01zm0.06 -48.57c0,-10.12 0.02,-20.24 0.04,-30.35l-6.12 -0.01c-0.01,10.12 -0.04,20.24 -0.04,30.35l6.12 0.01zm0.06 -48.57l0.04 -30.35 -6.12 -0.01 -0.04 30.35 6.12 0.01zm0.06 -48.57l0.04 -30.35 -6.12 -0.01 -0.04 30.35 6.12 0.01zm0.06 -48.57c0,-10.12 0.02,-20.24 0.04,-30.35l-6.12 -0.01c-0.01,10.12 -0.04,20.24 -0.04,30.35l6.12 0.01zm0.06 -48.57l0.04 -30.35 -6.12 -0.01 -0.04 30.35 6.12 0.01zm0.06 -48.57l0.04 -30.35 -6.12 -0.01 -0.04 30.35 6.12 0.01zm0.06 -48.57c0.01,-10.12 0.02,-20.24 0.04,-30.35l-6.12 -0.01c-0.01,10.12 -0.03,20.24 -0.04,30.35l6.12 0.01zm0.06 -48.57l0.04 -30.35 -6.12 -0.01 -0.04 30.35 6.12 0.01zm0.06 -48.57l0.04 -30.35 -6.12 -0.01 -0.04 30.35 6.12 0.01zm0.06 -48.57l0.04 -30.35 -6.12 -0.01 -0.04 30.35 6.12 0.01zm0.06 -48.57l0.04 -30.35 -6.12 -0.01 -0.04 30.35 6.12 0.01zm0.06 -48.57l0.04 -30.35 -6.12 -0.01 -0.04 30.35 6.12 0.01zm0.06 -48.57l0.04 -30.35 -6.12 -0.01 -0.04 30.35 6.12 0.01zm0.06 -48.57l0.04 -30.35 -6.12 -0.01 -0.04 30.35 6.12 0.01zm0.06 -48.57l0.04 -30.35 -6.12 -0.01 -0.04 30.35 6.12 0.01zm0.06 -48.57c0.01,-10.12 0.01,-20.24 0.04,-30.35l-6.12 -0.01c-0.02,10.12 -0.02,20.24 -0.04,30.35l6.12 0.01zm0.06 -48.57l0.04 -30.35 -6.12 -0.01 -0.04 30.35 6.12 0.01zm0.06 -48.57l0.04 -30.35 -6.12 -0.01 -0.04 30.35 6.12 0.01zm0.06 -48.57c0.01,-10.01 -0.26,-20.39 0.04,-30.35l-6.12 -0.01c-0.3,9.96 -0.02,20.34 -0.04,30.35l6.12 0.01zm0.06 -48.57c0,-10.12 0.02,-20.24 0.04,-30.35l-6.12 -0.01c-0.01,10.12 -0.04,20.24 -0.04,30.35l6.12 0.01zm0.06 -48.57l0.04 -30.35 -6.12 -0.01 -0.04 30.35 6.12 0.01zm0.06 -48.57l0.04 -30.35 -6.12 -0.01 -0.04 30.35 6.12 0.01zm0.06 -48.57l0.04 -30.35 -6.12 -0.01 -0.04 30.35 6.12 0.01zm0.06 -48.57l0.04 -30.35 -6.12 -0.01 -0.04 30.35 6.12 0.01zm0.06 -48.57l0.04 -30.35 -6.12 -0.01 -0.04 30.35 6.12 0.01zm0.06 -48.57c0.01,-10.12 0.02,-20.24 0.04,-30.35l-6.12 -0.01c-0.01,10.12 -0.03,20.24 -0.04,30.35l6.12 0.01zm0.06 -48.57l0.04 -30.35 -6.12 -0.01 -0.04 30.35 6.12 0.01zm0.06 -48.57l0.04 -30.35 -6.12 -0.01 -0.04 30.35 6.12 0.01zm0.06 -48.57l0.04 -30.35 -6.12 -0.01 -0.04 30.35 6.12 0.01zm0.06 -48.57l0.04 -30.35 -6.12 -0.01 -0.04 30.35 6.12 0.01zm0.06 -48.57l0.04 -30.35 -6.12 -0.01 -0.04 30.35 6.12 0.01zm0.06 -48.57c0.01,-10.12 0.02,-20.24 0.04,-30.35l-6.12 -0.01c-0.02,10.12 -0.02,20.24 -0.04,30.35l6.12 0.01zm0.06 -48.57l0.04 -30.35 -6.12 -0.01 -0.04 30.35 6.12 0.01z"/>
     <path class="fil2" d="M707.28 4.94l6.12 0 -0.02 20.16 -6.12 -0.01 0.02 -20.16zm4.05 1714.2l-6.12 0 0.03 -24.53 6.12 0.01 -0.03 24.52zm0.05 -42.73l0.04 -30.35 -6.12 -0.01 -0.04 30.35 6.12 0.01zm0.06 -48.57l0.04 -30.35 -6.12 -0.01 -0.04 30.35 6.12 0.01zm0.06 -48.57l0.04 -30.35 -6.12 -0.01 -0.04 30.35 6.12 0.01zm0.06 -48.57l0.04 -30.35 -6.12 -0.01 -0.04 30.35 6.12 0.01zm0.06 -48.57l0.04 -30.35 -6.12 -0.01 -0.04 30.35 6.12 0.01zm0.06 -48.57l0.04 -30.35 -6.12 -0.01 -0.04 30.35 6.12 0.01zm0.06 -48.57l0.04 -30.35 -6.12 -0.01 -0.04 30.35 6.12 0.01zm0.06 -48.57l0.04 -30.35 -6.12 -0.01 -0.04 30.35 6.12 0.01zm0.06 -48.57l0.04 -30.35 -6.12 -0.01 -0.04 30.35 6.12 0.01zm0.06 -48.57l0.04 -30.35 -6.12 -0.01 -0.04 30.35 6.12 0.01zm0.06 -48.57l0.04 -30.35 -6.12 -0.01 -0.04 30.35 6.12 0.01zm0.06 -48.57l0.04 -30.35 -6.12 -0.01 -0.04 30.35 6.12 0.01zm0.06 -48.57l0.04 -30.35 -6.12 -0.01 -0.04 30.35 6.12 0.01zm0.06 -48.57l0.04 -30.35 -6.12 -0.01 -0.04 30.35 6.12 0.01zm0.06 -48.57l0.04 -30.35 -6.12 -0.01 -0.04 30.35 6.12 0.01zm0.06 -48.57l0.04 -30.35 -6.12 -0.01 -0.04 30.35 6.12 0.01zm0.06 -48.57l0.04 -30.35 -6.12 -0.01 -0.04 30.35 6.12 0.01zm0.06 -48.57l0.04 -30.35 -6.12 -0.01 -0.04 30.35 6.12 0.01zm0.06 -48.57l0.04 -30.35 -6.12 -0.01 -0.04 30.35 6.12 0.01zm0.06 -48.57l0.04 -30.35 -6.12 -0.01 -0.04 30.35 6.12 0.01zm0.06 -48.57l0.04 -30.35 -6.12 -0.01 -0.04 30.35 6.12 0.01zm0.06 -48.57l0.04 -30.35 -6.12 -0.01 -0.04 30.35 6.12 0.01zm0.06 -48.57l0.04 -30.35 -6.12 -0.01 -0.04 30.35 6.12 0.01zm0.06 -48.57l0.04 -30.35 -6.12 -0.01 -0.04 30.35 6.12 0.01zm0.06 -48.57l0.04 -30.35 -6.12 -0.01 -0.04 30.35 6.12 0.01zm0.06 -48.57l0.04 -30.35 -6.12 -0.01 -0.04 30.35 6.12 0.01zm0.06 -48.57l0.04 -30.35 -6.12 -0.01 -0.04 30.35 6.12 0.01zm0.06 -48.57l0.04 -30.35 -6.12 -0.01 -0.04 30.35 6.12 0.01zm0.06 -48.57l0.04 -30.35 -6.12 -0.01 -0.04 30.35 6.12 0.01zm0.06 -48.57l0.04 -30.35 -6.12 -0.01 -0.04 30.35 6.12 0.01zm0.06 -48.57l0.04 -30.35 -6.12 -0.01 -0.04 30.35 6.12 0.01zm0.06 -48.57l0.04 -30.35 -6.12 -0.01 -0.04 30.35 6.12 0.01zm0.06 -48.57l0.04 -30.35 -6.12 -0.01 -0.04 30.35 6.12 0.01zm0.06 -48.57l0.04 -30.35 -6.12 -0.01 -0.04 30.35 6.12 0.01z"/>
     <path class="fil2" d="M735.9 4.94l6.12 0 -0.01 9.62 -6.12 -0.01 0.01 -9.61zm3.99 1709.49l0.04 -30.35 -6.12 -0.01 -0.04 30.35 6.12 0.01zm0.06 -48.57l0.04 -30.36 -6.12 -0.01 -0.04 30.35 6.12 0.01zm0.06 -48.57l0.04 -30.35 -6.12 -0.01 -0.04 30.35 6.12 0.01zm0.06 -48.57l0.04 -30.35 -6.12 -0.01 -0.04 30.35 6.12 0.01zm0.06 -48.57c0.01,-10.12 0.01,-20.24 0.04,-30.35l-6.12 -0.01c-0.02,10.12 -0.03,20.24 -0.04,30.35l6.12 0.01zm0.06 -48.57c0,-10.12 0.02,-20.24 0.04,-30.35l-6.12 -0.01c-0.02,10.12 -0.04,20.24 -0.04,30.36l6.12 0.01zm0.06 -48.57l0.04 -30.35 -6.12 -0.01 -0.04 30.36 6.12 0.01zm0.06 -48.57l0.04 -30.35 -6.12 -0.01 -0.04 30.35 6.12 0.01zm0.06 -48.57l0.04 -30.36 -6.12 -0.01 -0.04 30.35 6.12 0.01zm0.06 -48.57c0.01,-10.12 -0,-20.24 0.04,-30.36l-6.12 -0.01c-0.04,10.12 -0.03,20.24 -0.04,30.35l6.12 0.01zm0.06 -48.57c0,-10.12 0.02,-20.24 0.04,-30.35l-6.12 -0.01c-0.02,10.12 -0.04,20.24 -0.04,30.35l6.12 0.01zm0.06 -48.57l0.04 -30.35 -6.12 -0.01 -0.04 30.35 6.12 0.01zm0.06 -48.57l0.04 -30.35 -6.12 -0.01 -0.04 30.35 6.12 0.01zm0.06 -48.57l0.04 -30.35 -6.12 -0.01 -0.04 30.36 6.12 0.01zm0.06 -48.57l0.04 -30.35 -6.12 -0.01 -0.04 30.35 6.12 0.01zm0.06 -48.57l0.04 -30.36 -6.12 -0.01 -0.04 30.35 6.12 0.01zm0.06 -48.57l0.04 -30.36 -6.12 -0.01 -0.04 30.35 6.12 0.01zm0.06 -48.57l0.04 -30.36 -6.12 -0.01 -0.04 30.35 6.12 0.01zm0.06 -48.57l0.04 -30.35 -6.12 -0.01 -0.04 30.35 6.12 0.01zm0.06 -48.57l0.04 -30.35 -6.12 -0.01 -0.04 30.36 6.12 0.01zm0.06 -48.57l0.04 -30.35 -6.12 -0.01 -0.04 30.35 6.12 0.01zm0.06 -48.57l0.04 -30.35 -6.12 -0.01 -0.04 30.35 6.12 0.01zm0.06 -48.57l0.04 -30.35 -6.12 -0.01 -0.04 30.35 6.12 0.01zm0.06 -48.57l0.04 -30.36 -6.12 -0.01 -0.04 30.35 6.12 0.01zm0.06 -48.57l0.04 -30.35 -6.12 -0.01 -0.04 30.35 6.12 0.01zm0.06 -48.57l0.04 -30.35 -6.12 -0.01 -0.04 30.35 6.12 0.01zm0.06 -48.57l0.04 -30.35 -6.12 -0.01 -0.04 30.36 6.12 0.01zm0.06 -48.57l0.04 -30.35 -6.12 -0.01 -0.04 30.36 6.12 0.01zm0.06 -48.57l0.04 -30.35 -6.12 -0.01 -0.04 30.35 6.12 0.01zm0.06 -48.57l0.04 -30.36 -6.12 -0.01 -0.04 30.35 6.12 0.01zm0.06 -48.57l0.04 -30.35 -6.12 -0.01 -0.04 30.35 6.12 0.01zm0.06 -48.57l0.04 -30.35 -6.12 -0.01 -0.04 30.35 6.12 0.01zm0.06 -48.57l0.04 -30.35 -6.12 -0.01 -0.04 30.36 6.12 0.01zm0.06 -48.57l0.04 -30.35 -6.12 -0.01 -0.04 30.35 6.12 0.01zm0.06 -48.57l0.04 -30.36 -6.12 -0.01 -0.04 30.35 6.12 0.01z"/>
     <path class="fil2" d="M768.47 1703.89l0.04 -30.35 -6.12 -0.01 -0.04 30.35 6.12 0.01zm0.06 -48.57l0.04 -30.35 -6.12 -0.01 -0.04 30.35 6.12 0.01zm0.06 -48.57l0.04 -30.35 -6.12 -0.01 -0.04 30.35 6.12 0.01zm0.06 -48.57c0.01,-10.12 0.01,-20.24 0.04,-30.35l-6.12 -0.01c-0.03,10.12 -0.03,20.24 -0.04,30.35l6.12 0.01zm0.06 -48.57c0,-10.12 0.03,-20.24 0.04,-30.35l-6.12 -0.01c-0.01,10.12 -0.04,20.24 -0.04,30.35l6.12 0.01zm0.06 -48.57l0.04 -30.35 -6.12 -0.01 -0.04 30.35 6.12 0.01zm0.06 -48.57l0.04 -30.35 -6.12 -0.01 -0.04 30.35 6.12 0.01zm0.06 -48.57l0.04 -30.35 -6.12 -0.01 -0.04 30.35 6.12 0.01zm0.06 -48.57l0.04 -30.35 -6.12 -0.01 -0.04 30.35 6.12 0.01zm0.06 -48.57l0.04 -30.35 -6.12 -0.01 -0.04 30.35 6.12 0.01zm0.06 -48.57l0.04 -30.35 -6.12 -0.01 -0.04 30.35 6.12 0.01zm0.06 -48.57l0.04 -30.35 -6.12 -0.01 -0.04 30.35 6.12 0.01zm0.06 -48.57l0.04 -30.35 -6.12 -0.01 -0.04 30.35 6.12 0.01zm0.06 -48.57l0.04 -30.35 -6.12 -0.01 -0.04 30.35 6.12 0.01zm0.06 -48.57l0.04 -30.35 -6.12 -0.01 -0.04 30.35 6.12 0.01zm0.06 -48.57l0.04 -30.35 -6.12 -0.01 -0.04 30.35 6.12 0.01zm0.06 -48.57l0.04 -30.35 -6.12 -0.01 -0.04 30.35 6.12 0.01zm0.06 -48.57l0.04 -30.35 -6.12 -0.01 -0.04 30.35 6.12 0.01zm0.06 -48.57c0.01,-10.12 0.02,-20.24 0.04,-30.35l-6.12 -0.01c-0.02,10.12 -0.03,20.24 -0.04,30.35l6.12 0.01zm0.06 -48.57c0,-10.12 0.03,-20.24 0.04,-30.35l-6.12 -0.01c-0.01,10.12 -0.04,20.24 -0.04,30.35l6.12 0.01zm0.06 -48.57l0.04 -30.35 -6.12 -0.01 -0.04 30.35 6.12 0.01zm0.06 -48.57l0.04 -30.35 -6.12 -0.01 -0.04 30.35 6.12 0.01zm0.06 -48.57l0.04 -30.35 -6.12 -0.01 -0.04 30.35 6.12 0.01zm0.06 -48.57l0.04 -30.35 -6.12 -0.01 -0.04 30.35 6.12 0.01zm0.06 -48.57l0.04 -30.35 -6.12 -0.01 -0.04 30.35 6.12 0.01zm0.06 -48.57l0.04 -30.35 -6.12 -0.01 -0.04 30.35 6.12 0.01zm0.06 -48.57l0.04 -30.35 -6.12 -0.01 -0.04 30.35 6.12 0.01zm0.06 -48.57l0.04 -30.35 -6.12 -0.01 -0.04 30.35 6.12 0.01zm0.06 -48.57l0.04 -30.35 -6.12 -0.01 -0.04 30.35 6.12 0.01zm0.06 -48.57l0.04 -30.35 -6.12 -0.01 -0.04 30.35 6.12 0.01zm0.06 -48.57l0.04 -30.35 -6.12 -0.01 -0.04 30.35 6.12 0.01zm0.06 -48.57l0.04 -30.35 -6.12 -0.01 -0.04 30.35 6.12 0.01zm0.06 -48.57l0.04 -30.35 -6.12 -0.01 -0.04 30.35 6.12 0.01zm0.06 -48.57c0.01,-10.12 0.02,-20.24 0.04,-30.35l-6.12 -0.01c-0.02,10.12 -0.03,20.24 -0.04,30.35l6.12 0.01zm0.06 -48.57c0,-10.12 0.02,-20.24 0.04,-30.35l-6.12 -0.01c-0.02,10.12 -0.04,20.24 -0.04,30.35l6.12 0.01z"/>
     <path class="fil2" d="M797.02 1719.14l-6.12 0 0.01 -7.59 6.12 0.01 -0.01 7.58zm0.03 -25.79l0.04 -30.35 -6.12 -0.01 -0.04 30.35 6.12 0.01zm0.06 -48.57l0.04 -30.35 -6.12 -0.01 -0.04 30.35 6.12 0.01zm0.06 -48.57l0.04 -30.35 -6.12 -0.01 -0.04 30.35 6.12 0.01zm0.06 -48.57l0.04 -30.35 -6.12 -0.01 -0.04 30.35 6.12 0.01zm0.06 -48.57l0.04 -30.35 -6.12 -0.01 -0.04 30.35 6.12 0.01zm0.06 -48.57l0.04 -30.35 -6.12 -0.01 -0.04 30.35 6.12 0.01zm0.06 -48.57l0.04 -30.35 -6.12 -0.01 -0.04 30.35 6.12 0.01zm0.06 -48.57l0.04 -30.35 -6.12 -0.01 -0.04 30.35 6.12 0.01zm0.06 -48.57l0.04 -30.35 -6.12 -0.01 -0.04 30.35 6.12 0.01zm0.06 -48.57l0.04 -30.35 -6.12 -0.01 -0.04 30.35 6.12 0.01zm0.06 -48.57l0.04 -30.35 -6.12 -0.01 -0.04 30.35 6.12 0.01zm0.06 -48.57l0.04 -30.35 -6.12 -0.01 -0.04 30.35 6.12 0.01zm0.06 -48.57l0.04 -30.35 -6.12 -0.01 -0.04 30.35 6.12 0.01zm0.06 -48.57l0.04 -30.35 -6.12 -0.01 -0.04 30.35 6.12 0.01zm0.06 -48.57c0.01,-10.12 0.02,-20.24 0.04,-30.35l-6.12 -0.01c-0.02,10.12 -0.03,20.24 -0.04,30.35l6.12 0.01zm0.06 -48.57l0.04 -30.35 -6.12 -0.01 -0.04 30.35 6.12 0.01zm0.06 -48.57l0.04 -30.35 -6.12 -0.01 -0.04 30.35 6.12 0.01zm0.06 -48.57l0.04 -30.35 -6.12 -0.01 -0.04 30.35 6.12 0.01zm0.06 -48.57l0.04 -30.35 -6.12 -0.01 -0.04 30.35 6.12 0.01zm0.06 -48.57l0.04 -30.35 -6.12 -0.01 -0.04 30.35 6.12 0.01zm0.06 -48.57l0.04 -30.35 -6.12 -0.01 -0.04 30.35 6.12 0.01zm0.06 -48.57l0.04 -30.35 -6.12 -0.01 -0.04 30.35 6.12 0.01zm0.06 -48.57l0.04 -30.35 -6.12 -0.01 -0.04 30.35 6.12 0.01zm0.06 -48.57l0.04 -30.35 -6.12 -0.01 -0.04 30.35 6.12 0.01zm0.06 -48.57l0.04 -30.35 -6.12 -0.01 -0.04 30.35 6.12 0.01zm0.06 -48.57l0.04 -30.35 -6.12 -0.01 -0.04 30.35 6.12 0.01zm0.06 -48.57l0.04 -30.35 -6.12 -0.01 -0.04 30.35 6.12 0.01zm0.06 -48.57c0.01,-10.12 -0.01,-20.24 0.04,-30.35l-6.12 -0.01c-0.05,10.12 -0.03,20.24 -0.04,30.35l6.12 0.01zm0.06 -48.57l0.04 -30.35 -6.12 -0.01 -0.04 30.35 6.12 0.01zm0.06 -48.57c0,-10.12 0.03,-20.24 0.04,-30.35l-6.12 -0.01c-0.02,10.12 -0.04,20.24 -0.04,30.35l6.12 0.01zm0.06 -48.57l0.04 -30.35 -6.12 -0.01 -0.04 30.35 6.12 0.01zm0.06 -48.57l0.04 -30.35 -6.12 -0.01 -0.04 30.35 6.12 0.01zm0.06 -48.57l0.04 -30.35 -6.12 -0.01 -0.04 30.35 6.12 0.01zm0.06 -48.57l0.04 -30.35 -6.12 -0.01 -0.04 30.35 6.12 0.01zm0.06 -48.57l0.04 -30.35 -6.12 -0.01 -0.04 30.35 6.12 0.01z"/>
     <path class="fil2" d="M821.78 4.94l6.12 0 -0.04 26.56 -6.12 -0.01 0.04 -26.55zm3.81 1714.2l-6.12 0 0.02 -18.13 6.12 0.01 -0.02 18.12zm0.05 -36.34l0.04 -30.35 -6.12 -0.01 -0.04 30.35 6.12 0.01zm0.07 -48.57l0.04 -30.35 -6.12 -0.01 -0.04 30.35 6.12 0.01zm0.07 -48.57l0.04 -30.35 -6.12 -0.01 -0.04 30.35 6.12 0.01zm0.07 -48.57l0.04 -30.35 -6.12 -0.01 -0.04 30.35 6.12 0.01zm0.07 -48.57l0.04 -30.35 -6.12 -0.01 -0.04 30.35 6.12 0.01zm0.07 -48.57l0.04 -30.35 -6.12 -0.01 -0.04 30.35 6.12 0.01zm0.07 -48.57l0.04 -30.35 -6.12 -0.01 -0.04 30.35 6.12 0.01zm0.07 -48.57l0.04 -30.35 -6.12 -0.01 -0.04 30.35 6.12 0.01zm0.07 -48.57l0.04 -30.35 -6.12 -0.01 -0.04 30.35 6.12 0.01zm0.07 -48.57l0.04 -30.35 -6.12 -0.01 -0.04 30.35 6.12 0.01zm0.07 -48.57l0.04 -30.35 -6.12 -0.01 -0.04 30.35 6.12 0.01zm0.07 -48.57l0.04 -30.35 -6.12 -0.01 -0.04 30.35 6.12 0.01zm0.07 -48.57l0.04 -30.35 -6.12 -0.01 -0.04 30.35 6.12 0.01zm0.07 -48.57l0.04 -30.35 -6.12 -0.01 -0.04 30.35 6.12 0.01zm0.07 -48.57l0.04 -30.35 -6.12 -0.01 -0.04 30.35 6.12 0.01zm0.07 -48.57l0.04 -30.35 -6.12 -0.01 -0.04 30.35 6.12 0.01zm0.07 -48.57l0.04 -30.35 -6.12 -0.01 -0.04 30.35 6.12 0.01zm0.07 -48.57l0.04 -30.35 -6.12 -0.01 -0.04 30.35 6.12 0.01zm0.07 -48.57l0.04 -30.35 -6.12 -0.01 -0.04 30.35 6.12 0.01zm0.07 -48.57l0.04 -30.35 -6.12 -0.01 -0.04 30.35 6.12 0.01zm0.07 -48.57l0.04 -30.35 -6.12 -0.01 -0.04 30.35 6.12 0.01zm0.07 -48.57l0.04 -30.35 -6.12 -0.01 -0.04 30.35 6.12 0.01zm0.07 -48.57l0.04 -30.35 -6.12 -0.01 -0.04 30.35 6.12 0.01zm0.07 -48.57l0.04 -30.35 -6.12 -0.01 -0.04 30.35 6.12 0.01zm0.07 -48.57l0.04 -30.35 -6.12 -0.01 -0.04 30.35 6.12 0.01zm0.07 -48.57l0.04 -30.35 -6.12 -0.01 -0.04 30.35 6.12 0.01zm0.07 -48.57l0.04 -30.35 -6.12 -0.01 -0.04 30.35 6.12 0.01zm0.07 -48.57l0.04 -30.35 -6.12 -0.01 -0.04 30.35 6.12 0.01zm0.07 -48.57l0.04 -30.35 -6.12 -0.01 -0.04 30.35 6.12 0.01zm0.07 -48.57l0.04 -30.35 -6.12 -0.01 -0.04 30.35 6.12 0.01zm0.07 -48.57l0.04 -30.35 -6.12 -0.01 -0.04 30.35 6.12 0.01zm0.07 -48.57l0.04 -30.35 -6.12 -0.01 -0.04 30.35 6.12 0.01zm0.07 -48.57l0.04 -30.35 -6.12 -0.01 -0.04 30.35 6.12 0.01zm0.07 -48.57l0.04 -30.35 -6.12 -0.01 -0.04 30.35 6.12 0.01z"/>
     <path class="fil2" d="M850.41 4.94l6.12 0 -0.02 16.02 -6.12 -0.01 0.02 -16.01zm3.75 1714.2l-6.12 0 0.04 -28.67 6.12 0.01 -0.04 28.67zm0.06 -46.88l0.04 -30.35 -6.12 -0.01 -0.04 30.35 6.12 0.01zm0.07 -48.57l0.04 -30.35 -6.12 -0.01 -0.04 30.35 6.12 0.01zm0.07 -48.57l0.04 -30.35 -6.12 -0.01 -0.04 30.35 6.12 0.01zm0.07 -48.57l0.04 -30.35 -6.12 -0.01 -0.04 30.35 6.12 0.01zm0.07 -48.57l0.04 -30.35 -6.12 -0.01 -0.04 30.35 6.12 0.01zm0.07 -48.57l0.04 -30.35 -6.12 -0.01 -0.04 30.35 6.12 0.01zm0.07 -48.57l0.04 -30.35 -6.12 -0.01 -0.04 30.35 6.12 0.01zm0.07 -48.57l0.04 -30.35 -6.12 -0.01 -0.04 30.35 6.12 0.01zm0.07 -48.57l0.04 -30.35 -6.12 -0.01 -0.04 30.35 6.12 0.01zm0.07 -48.57l0.04 -30.35 -6.12 -0.01 -0.04 30.35 6.12 0.01zm0.07 -48.57c0,-10.12 0.03,-20.24 0.04,-30.35l-6.12 -0.01c-0.02,10.12 -0.04,20.24 -0.04,30.35l6.12 0.01zm0.07 -48.57c0.01,-10.12 0.02,-20.24 0.04,-30.35l-6.12 -0.01c-0.03,10.12 -0.03,20.24 -0.04,30.35l6.12 0.01zm0.07 -48.57c0.01,-10.11 -0.03,-20.24 0.04,-30.35l-6.12 -0.01c-0.07,10.11 -0.03,20.24 -0.04,30.35l6.12 0.01zm0.07 -48.57l0.04 -30.35 -6.12 -0.01 -0.04 30.35 6.12 0.01zm0.07 -48.57l0.04 -30.35 -6.12 -0.01 -0.04 30.35 6.12 0.01zm0.07 -48.57l0.04 -30.35 -6.12 -0.01 -0.04 30.35 6.12 0.01zm0.07 -48.57l0.04 -30.35 -6.12 -0.01 -0.04 30.35 6.12 0.01zm0.07 -48.57l0.04 -30.35 -6.12 -0.01 -0.04 30.35 6.12 0.01zm0.07 -48.57l0.04 -30.35 -6.12 -0.01 -0.04 30.35 6.12 0.01zm0.07 -48.57l0.04 -30.35 -6.12 -0.01 -0.04 30.35 6.12 0.01zm0.07 -48.57l0.04 -30.35 -6.12 -0.01 -0.04 30.35 6.12 0.01zm0.07 -48.57l0.04 -30.35 -6.12 -0.01 -0.04 30.35 6.12 0.01zm0.07 -48.57l0.04 -30.35 -6.12 -0.01 -0.04 30.35 6.12 0.01zm0.07 -48.57l0.04 -30.35 -6.12 -0.01 -0.04 30.35 6.12 0.01zm0.07 -48.57l0.04 -30.35 -6.12 -0.01 -0.04 30.35 6.12 0.01zm0.07 -48.57l0.04 -30.35 -6.12 -0.01 -0.04 30.35 6.12 0.01zm0.07 -48.57l0.04 -30.35 -6.12 -0.01 -0.04 30.35 6.12 0.01zm0.07 -48.57l0.04 -30.35 -6.12 -0.01 -0.04 30.35 6.12 0.01zm0.07 -48.57l0.04 -30.35 -6.12 -0.01 -0.04 30.35 6.12 0.01zm0.07 -48.57l0.04 -30.35 -6.12 -0.01 -0.04 30.35 6.12 0.01zm0.07 -48.57l0.04 -30.35 -6.12 -0.01 -0.04 30.35 6.12 0.01zm0.07 -48.57l0.04 -30.35 -6.12 -0.01 -0.04 30.35 6.12 0.01zm0.07 -48.57l0.04 -30.35 -6.12 -0.01 -0.04 30.35 6.12 0.01zm0.07 -48.57l0.04 -30.35 -6.12 -0.01 -0.04 30.35 6.12 0.01z"/>
     <path class="fil2" d="M879.03 4.94l6.12 0 -0.01 5.47 -6.12 -0.01 0.01 -5.46zm3.71 1705.34l0.04 -30.35 -6.12 -0.01 -0.04 30.36 6.12 0.01zm0.07 -48.57l0.04 -30.35 -6.12 -0.01 -0.04 30.36 6.12 0.01zm0.07 -48.57l0.04 -30.35 -6.12 -0.01 -0.04 30.36 6.12 0.01zm0.07 -48.57l0.04 -30.35 -6.12 -0.01 -0.04 30.36 6.12 0.01zm0.07 -48.57l0.04 -30.35 -6.12 -0.01 -0.04 30.36 6.12 0.01zm0.07 -48.57l0.04 -30.35 -6.12 -0.01 -0.04 30.35 6.12 0.01zm0.07 -48.57l0.04 -30.35 -6.12 -0.01 -0.04 30.35 6.12 0.01zm0.07 -48.57c0,-10.12 0.02,-20.24 0.04,-30.35l-6.12 -0.01c-0.02,10.12 -0.04,20.24 -0.04,30.36l6.12 0.01zm0.07 -48.57l0.04 -30.35 -6.12 -0.01 -0.04 30.36 6.12 0.01zm0.07 -48.57l0.04 -30.35 -6.12 -0.01 -0.04 30.36 6.12 0.01zm0.07 -48.57l0.04 -30.35 -6.12 -0.01 -0.04 30.36 6.12 0.01zm0.07 -48.57l0.04 -30.35 -6.12 -0.01 -0.04 30.36 6.12 0.01zm0.07 -48.57l0.04 -30.35 -6.12 -0.01 -0.04 30.36 6.12 0.01zm0.07 -48.57l0.04 -30.35 -6.12 -0.01 -0.04 30.36 6.12 0.01zm0.07 -48.57l0.04 -30.35 -6.12 -0.01 -0.04 30.35 6.12 0.01zm0.07 -48.57l0.04 -30.35 -6.12 -0.01 -0.04 30.35 6.12 0.01zm0.07 -48.57l0.04 -30.35 -6.12 -0.01 -0.04 30.36 6.12 0.01zm0.07 -48.57l0.04 -30.35 -6.12 -0.01 -0.04 30.36 6.12 0.01zm0.07 -48.57l0.04 -30.35 -6.12 -0.01 -0.04 30.36 6.12 0.01zm0.07 -48.57l0.04 -30.35 -6.12 -0.01 -0.04 30.36 6.12 0.01zm0.07 -48.57l0.04 -30.35 -6.12 -0.01 -0.04 30.36 6.12 0.01zm0.07 -48.57l0.04 -30.35 -6.12 -0.01 -0.04 30.36 6.12 0.01zm0.07 -48.57l0.04 -30.35 -6.12 -0.01 -0.04 30.36 6.12 0.01zm0.07 -48.57l0.04 -30.35 -6.12 -0.01 -0.04 30.36 6.12 0.01zm0.07 -48.57l0.04 -30.35 -6.12 -0.01 -0.04 30.35 6.12 0.01zm0.07 -48.57l0.04 -30.35 -6.12 -0.01 -0.04 30.35 6.12 0.01zm0.07 -48.57l0.04 -30.35 -6.12 -0.01 -0.04 30.36 6.12 0.01zm0.07 -48.57l0.04 -30.35 -6.12 -0.01 -0.04 30.36 6.12 0.01zm0.07 -48.57l0.04 -30.35 -6.12 -0.01 -0.04 30.36 6.12 0.01zm0.07 -48.57l0.04 -30.35 -6.12 -0.01 -0.04 30.36 6.12 0.01zm0.07 -48.57c0.01,-10.12 0.03,-20.24 0.04,-30.36l-6.12 -0.01c-0.01,10.12 -0.03,20.24 -0.04,30.35l6.12 0.01zm0.07 -48.57l0.04 -30.36 -6.12 -0.01 -0.04 30.35 6.12 0.01zm0.07 -48.57l0.04 -30.36 -6.12 -0.01 -0.04 30.35 6.12 0.01zm0.07 -48.57l0.04 -30.36 -6.12 -0.01 -0.04 30.35 6.12 0.01zm0.07 -48.57l0.04 -30.36 -6.12 -0.01 -0.04 30.35 6.12 0.01z"/>
     <path class="fil2" d="M911.29 1719.14l-6.12 0 0.01 -1.19 6.12 0.01 -0.01 1.18zm0.03 -19.4l0.04 -30.35 -6.12 -0.01 -0.04 30.35 6.12 0.01zm0.07 -48.57l0.04 -30.35 -6.12 -0.01 -0.04 30.35 6.12 0.01zm0.07 -48.57l0.04 -30.35 -6.12 -0.01 -0.04 30.35 6.12 0.01zm0.07 -48.57l0.04 -30.35 -6.12 -0.01 -0.04 30.35 6.12 0.01zm0.07 -48.57l0.04 -30.35 -6.12 -0.01 -0.04 30.35 6.12 0.01zm0.07 -48.57l0.04 -30.35 -6.12 -0.01 -0.04 30.35 6.12 0.01zm0.07 -48.57c0,-10.11 -0.02,-20.24 0.04,-30.35l-6.12 -0.01c-0.06,10.11 -0.04,20.24 -0.04,30.35l6.12 0.01zm0.07 -48.57l0.04 -30.35 -6.12 -0.01 -0.04 30.35 6.12 0.01zm0.07 -48.57l0.04 -30.35 -6.12 -0.01 -0.04 30.35 6.12 0.01zm0.07 -48.57l0.04 -30.35 -6.12 -0.01 -0.04 30.35 6.12 0.01zm0.07 -48.57l0.04 -30.35 -6.12 -0.01 -0.04 30.35 6.12 0.01zm0.07 -48.57l0.04 -30.35 -6.12 -0.01 -0.04 30.35 6.12 0.01zm0.07 -48.57l0.04 -30.35 -6.12 -0.01 -0.04 30.35 6.12 0.01zm0.07 -48.57c0,-10.11 -0.03,-20.25 0.04,-30.35l-6.12 -0.01c-0.08,10.11 -0.04,20.24 -0.04,30.35l6.12 0.01zm0.07 -48.57l0.04 -30.35 -6.12 -0.01 -0.04 30.35 6.12 0.01zm0.07 -48.57l0.04 -30.35 -6.12 -0.01 -0.04 30.35 6.12 0.01zm0.07 -48.57l0.04 -30.35 -6.12 -0.01 -0.04 30.35 6.12 0.01zm0.07 -48.57l0.04 -30.35 -6.12 -0.01 -0.04 30.35 6.12 0.01zm0.07 -48.57l0.04 -30.35 -6.12 -0.01 -0.04 30.35 6.12 0.01zm0.07 -48.57l0.04 -30.35 -6.12 -0.01 -0.04 30.35 6.12 0.01zm0.07 -48.57c0,-10.1 -0.06,-20.26 0.04,-30.35l-6.12 -0.01c-0.1,10.1 -0.04,20.25 -0.04,30.35l6.12 0.01zm0.07 -48.57l0.04 -30.35 -6.12 -0.01 -0.04 30.35 6.12 0.01zm0.07 -48.57l0.04 -30.35 -6.12 -0.01 -0.04 30.35 6.12 0.01zm0.07 -48.57l0.04 -30.35 -6.12 -0.01 -0.04 30.35 6.12 0.01zm0.07 -48.57l0.04 -30.35 -6.12 -0.01 -0.04 30.35 6.12 0.01zm0.07 -48.57l0.04 -30.35 -6.12 -0.01 -0.04 30.35 6.12 0.01zm0.07 -48.57l0.04 -30.35 -6.12 -0.01 -0.04 30.35 6.12 0.01zm0.07 -48.57c0,-10.09 -0.11,-20.28 0.04,-30.35l-6.12 -0.01c-0.15,10.07 -0.04,20.27 -0.04,30.35l6.12 0.01zm0.07 -48.57l0.04 -30.35 -6.12 -0.01 -0.04 30.35 6.12 0.01zm0.07 -48.57l0.04 -30.35 -6.12 -0.01 -0.04 30.35 6.12 0.01zm0.07 -48.57l0.04 -30.35 -6.12 -0.01 -0.04 30.35 6.12 0.01zm0.07 -48.57l0.04 -30.35 -6.12 -0.01 -0.04 30.35 6.12 0.01zm0.07 -48.57l0.04 -30.35 -6.12 -0.01 -0.04 30.35 6.12 0.01zm0.07 -48.57l0.04 -30.35 -6.12 -0.01 -0.04 30.35 6.12 0.01zm0.07 -48.57c0,-9.99 -0.26,-20.42 0.04,-30.35l-6.12 -0.01c-0.3,9.94 -0.04,20.36 -0.04,30.35l6.12 0.01z"/>
     <path class="fil2" d="M939.87 1719.14l-6.12 0 0.02 -11.74 6.12 0.01 -0.02 11.73zm0.04 -29.94c0,-10.12 0.03,-20.24 0.04,-30.35l-6.12 -0.01c-0.02,10.12 -0.04,20.24 -0.04,30.35l6.12 0.01zm0.07 -48.57l0.04 -30.35 -6.12 -0.01 -0.04 30.35 6.12 0.01zm0.07 -48.57l0.04 -30.35 -6.12 -0.01 -0.04 30.35 6.12 0.01zm0.07 -48.57l0.05 -30.35 -6.12 -0.01 -0.05 30.35 6.12 0.01zm0.07 -48.57l0.05 -30.35 -6.12 -0.01 -0.05 30.35 6.12 0.01zm0.07 -48.57c0.01,-10.12 0.01,-20.24 0.05,-30.35l-6.12 -0.01c-0.03,10.12 -0.03,20.24 -0.05,30.35l6.12 0.01zm0.07 -48.57l0.05 -30.35 -6.12 -0.01 -0.05 30.35 6.12 0.01zm0.07 -48.57l0.05 -30.35 -6.12 -0.01 -0.05 30.35 6.12 0.01zm0.07 -48.57l0.04 -30.35 -6.12 -0.01 -0.04 30.35 6.12 0.01zm0.07 -48.57l0.04 -30.35 -6.12 -0.01 -0.04 30.35 6.12 0.01zm0.07 -48.57c0.01,-10.12 0.02,-20.24 0.04,-30.35l-6.12 -0.01c-0.03,10.12 -0.03,20.24 -0.04,30.35l6.12 0.01zm0.07 -48.57l0.05 -30.35 -6.12 -0.01 -0.05 30.35 6.12 0.01zm0.07 -48.57l0.05 -30.35 -6.12 -0.01 -0.05 30.35 6.12 0.01zm0.07 -48.57l0.05 -30.35 -6.12 -0.01 -0.05 30.35 6.12 0.01zm0.07 -48.57l0.05 -30.35 -6.12 -0.01 -0.05 30.35 6.12 0.01zm0.07 -48.57l0.05 -30.35 -6.12 -0.01 -0.05 30.35 6.12 0.01zm0.07 -48.57l0.05 -30.35 -6.12 -0.01 -0.05 30.35 6.12 0.01zm0.07 -48.57l0.04 -30.35 -6.12 -0.01 -0.04 30.35 6.12 0.01zm0.07 -48.57l0.04 -30.35 -6.12 -0.01 -0.04 30.35 6.12 0.01zm0.07 -48.57l0.04 -30.35 -6.12 -0.01 -0.04 30.35 6.12 0.01zm0.07 -48.57l0.04 -30.35 -6.12 -0.01 -0.04 30.35 6.12 0.01zm0.07 -48.57l0.04 -30.35 -6.12 -0.01 -0.04 30.35 6.12 0.01zm0.07 -48.57l0.04 -30.35 -6.12 -0.01 -0.04 30.35 6.12 0.01zm0.07 -48.57l0.04 -30.35 -6.12 -0.01 -0.04 30.35 6.12 0.01zm0.07 -48.57l0.05 -30.35 -6.12 -0.01 -0.05 30.35 6.12 0.01zm0.07 -48.57l0.05 -30.35 -6.12 -0.01 -0.05 30.35 6.12 0.01zm0.07 -48.57c0.01,-10.12 0.03,-20.24 0.05,-30.35l-6.12 -0.01c-0.02,10.12 -0.04,20.24 -0.05,30.35l6.12 0.01zm0.07 -48.57l0.04 -30.35 -6.12 -0.01 -0.04 30.35 6.12 0.01zm0.07 -48.57l0.04 -30.35 -6.12 -0.01 -0.04 30.35 6.12 0.01zm0.07 -48.57l0.04 -30.35 -6.12 -0.01 -0.04 30.35 6.12 0.01zm0.07 -48.57l0.04 -30.35 -6.12 -0.01 -0.04 30.35 6.12 0.01zm0.07 -48.57l0.04 -30.35 -6.12 -0.01 -0.04 30.35 6.12 0.01zm0.07 -48.57l0.04 -30.35 -6.12 -0.01 -0.04 30.35 6.12 0.01zm0.07 -48.57l0.04 -30.35 -6.12 -0.01 -0.04 30.35 6.12 0.01zm0.07 -48.57l0.05 -30.35 -6.12 -0.01 -0.05 30.35 6.12 0.01z"/>
     <path class="fil2" d="M964.9 4.94l6.12 0 -0.03 22.41 -6.12 -0.01 0.03 -22.4zm3.54 1714.2l-6.12 0 0.03 -22.28 6.12 0.01 -0.03 22.27zm0.06 -40.48c0.02,-10.12 0.02,-20.24 0.05,-30.35l-6.12 -0.01c-0.02,10.12 -0.03,20.24 -0.05,30.35l6.12 0.01zm0.07 -48.57l0.05 -30.35 -6.12 -0.01 -0.05 30.35 6.12 0.01zm0.07 -48.57l0.05 -30.35 -6.12 -0.01 -0.05 30.35 6.12 0.01zm0.07 -48.57l0.05 -30.35 -6.12 -0.01 -0.05 30.35 6.12 0.01zm0.07 -48.57l0.05 -30.35 -6.12 -0.01 -0.05 30.35 6.12 0.01zm0.07 -48.57l0.05 -30.35 -6.12 -0.01 -0.05 30.35 6.12 0.01zm0.07 -48.57l0.05 -30.35 -6.12 -0.01 -0.05 30.35 6.12 0.01zm0.07 -48.57l0.05 -30.35 -6.12 -0.01 -0.05 30.35 6.12 0.01zm0.07 -48.57l0.05 -30.35 -6.12 -0.01 -0.05 30.35 6.12 0.01zm0.07 -48.57l0.05 -30.35 -6.12 -0.01 -0.05 30.35 6.12 0.01zm0.07 -48.57l0.05 -30.35 -6.12 -0.01 -0.05 30.35 6.12 0.01zm0.07 -48.57l0.05 -30.35 -6.12 -0.01 -0.05 30.35 6.12 0.01zm0.07 -48.57l0.05 -30.35 -6.12 -0.01 -0.05 30.35 6.12 0.01zm0.07 -48.57l0.05 -30.35 -6.12 -0.01 -0.05 30.35 6.12 0.01zm0.07 -48.57l0.05 -30.35 -6.12 -0.01 -0.05 30.35 6.12 0.01zm0.07 -48.57l0.05 -30.35 -6.12 -0.01 -0.05 30.35 6.12 0.01zm0.07 -48.57l0.05 -30.35 -6.12 -0.01 -0.05 30.35 6.12 0.01zm0.07 -48.57c0.01,-10.12 0.03,-20.24 0.05,-30.35l-6.12 -0.01c-0.02,10.12 -0.04,20.24 -0.05,30.35l6.12 0.01zm0.07 -48.57l0.05 -30.35 -6.12 -0.01 -0.05 30.35 6.12 0.01zm0.07 -48.57l0.05 -30.35 -6.12 -0.01 -0.05 30.35 6.12 0.01zm0.07 -48.57l0.05 -30.35 -6.12 -0.01 -0.05 30.35 6.12 0.01zm0.07 -48.57l0.05 -30.35 -6.12 -0.01 -0.05 30.35 6.12 0.01zm0.07 -48.57l0.05 -30.35 -6.12 -0.01 -0.05 30.35 6.12 0.01zm0.07 -48.57l0.05 -30.35 -6.12 -0.01 -0.05 30.35 6.12 0.01zm0.07 -48.57l0.05 -30.35 -6.12 -0.01 -0.05 30.35 6.12 0.01zm0.07 -48.57l0.05 -30.35 -6.12 -0.01 -0.05 30.35 6.12 0.01zm0.07 -48.57l0.05 -30.35 -6.12 -0.01 -0.05 30.35 6.12 0.01zm0.07 -48.57l0.05 -30.35 -6.12 -0.01 -0.05 30.35 6.12 0.01zm0.07 -48.57l0.05 -30.35 -6.12 -0.01 -0.05 30.35 6.12 0.01zm0.07 -48.57c0,-10.12 0.03,-20.24 0.05,-30.35l-6.12 -0.01c-0.02,10.12 -0.05,20.24 -0.05,30.35l6.12 0.01zm0.07 -48.57l0.05 -30.35 -6.12 -0.01 -0.05 30.35 6.12 0.01zm0.07 -48.57l0.05 -30.35 -6.12 -0.01 -0.05 30.35 6.12 0.01zm0.07 -48.57l0.05 -30.35 -6.12 -0.01 -0.05 30.35 6.12 0.01zm0.07 -48.57c0,-10.12 0.03,-20.24 0.05,-30.35l-6.12 -0.01c-0.02,10.12 -0.05,20.24 -0.05,30.35l6.12 0.01z"/>
     <path class="fil2" d="M993.53 4.94l6.12 0 -0.02 11.87 -6.12 -0.01 0.02 -11.86zm3.49 1711.74l0.05 -30.35 -6.12 -0.01 -0.05 30.35 6.12 0.01zm0.07 -48.57l0.05 -30.35 -6.12 -0.01 -0.05 30.35 6.12 0.01zm0.07 -48.57l0.05 -30.35 -6.12 -0.01 -0.05 30.35 6.12 0.01zm0.07 -48.57l0.05 -30.35 -6.12 -0.01 -0.05 30.35 6.12 0.01zm0.07 -48.57l0.05 -30.35 -6.12 -0.01 -0.05 30.35 6.12 0.01zm0.07 -48.57c0,-10.12 0.03,-20.24 0.05,-30.35l-6.12 -0.01c-0.02,10.12 -0.05,20.24 -0.05,30.35l6.12 0.01zm0.07 -48.57l0.05 -30.35 -6.12 -0.01 -0.05 30.35 6.12 0.01zm0.07 -48.57l0.05 -30.35 -6.12 -0.01 -0.05 30.35 6.12 0.01zm0.07 -48.57c0.02,-10.12 0.02,-20.24 0.05,-30.35l-6.12 -0.01c-0.03,10.12 -0.03,20.24 -0.05,30.35l6.12 0.01zm0.07 -48.57l0.05 -30.35 -6.12 -0.01 -0.05 30.35 6.12 0.01zm0.07 -48.57l0.05 -30.35 -6.12 -0.01 -0.05 30.35 6.12 0.01zm0.07 -48.57l0.05 -30.35 -6.12 -0.01 -0.05 30.35 6.12 0.01zm0.07 -48.57l0.05 -30.35 -6.12 -0.01 -0.05 30.35 6.12 0.01zm0.07 -48.57l0.05 -30.35 -6.12 -0.01 -0.05 30.35 6.12 0.01zm0.07 -48.57l0.05 -30.35 -6.12 -0.01 -0.05 30.35 6.12 0.01zm0.07 -48.57l0.05 -30.35 -6.12 -0.01 -0.05 30.35 6.12 0.01zm0.07 -48.57l0.05 -30.35 -6.12 -0.01 -0.05 30.35 6.12 0.01zm0.08 -48.57l0.05 -30.35 -6.12 -0.01 -0.05 30.35 6.12 0.01zm0.07 -48.57l0.05 -30.35 -6.12 -0.01 -0.05 30.35 6.12 0.01zm0.07 -48.57l0.05 -30.35 -6.12 -0.01 -0.05 30.35 6.12 0.01zm0.07 -48.57l0.05 -30.35 -6.12 -0.01 -0.05 30.35 6.12 0.01zm0.07 -48.57l0.05 -30.35 -6.12 -0.01 -0.05 30.35 6.12 0.01zm0.07 -48.57c0,-10.12 0.03,-20.24 0.05,-30.35l-6.12 -0.01c-0.02,10.12 -0.05,20.24 -0.05,30.35l6.12 0.01zm0.07 -48.57l0.05 -30.35 -6.12 -0.01 -0.05 30.35 6.12 0.01zm0.07 -48.57l0.05 -30.35 -6.12 -0.01 -0.05 30.35 6.12 0.01zm0.07 -48.57c0.02,-10.12 0.02,-20.24 0.05,-30.35l-6.12 -0.01c-0.03,10.12 -0.03,20.24 -0.05,30.35l6.12 0.01zm0.07 -48.57l0.05 -30.35 -6.12 -0.01 -0.05 30.35 6.12 0.01zm0.07 -48.57l0.05 -30.35 -6.12 -0.01 -0.05 30.35 6.12 0.01zm0.07 -48.57l0.05 -30.35 -6.12 -0.01 -0.05 30.35 6.12 0.01zm0.07 -48.57l0.05 -30.35 -6.12 -0.01 -0.05 30.35 6.12 0.01zm0.07 -48.57l0.05 -30.35 -6.12 -0.01 -0.05 30.35 6.12 0.01zm0.07 -48.57l0.05 -30.35 -6.12 -0.01 -0.05 30.35 6.12 0.01zm0.07 -48.57l0.05 -30.35 -6.12 -0.01 -0.05 30.35 6.12 0.01zm0.07 -48.57l0.05 -30.35 -6.12 -0.01 -0.05 30.35 6.12 0.01zm0.07 -48.57l0.05 -30.35 -6.12 -0.01 -0.05 30.35 6.12 0.01z"/>
     <path class="fil2" d="M1022.15 4.94l6.12 0 -0 1.33 -6.12 -0.01 0 -1.32zm3.46 1701.2l0.05 -30.35 -6.12 -0.01 -0.05 30.35 6.12 0.01zm0.08 -48.57l0.05 -30.35 -6.12 -0.01 -0.05 30.35 6.12 0.01zm0.08 -48.57l0.05 -30.35 -6.12 -0.01 -0.05 30.35 6.12 0.01zm0.08 -48.57l0.05 -30.35 -6.12 -0.01 -0.05 30.35 6.12 0.01zm0.08 -48.57c0.02,-10.12 0.03,-20.24 0.05,-30.35l-6.12 -0.01c-0.02,10.12 -0.03,20.24 -0.05,30.35l6.12 0.01zm0.08 -48.57l0.05 -30.35 -6.12 -0.01 -0.05 30.35 6.12 0.01zm0.08 -48.57l0.05 -30.35 -6.12 -0.01 -0.05 30.35 6.12 0.01zm0.08 -48.57c0.02,-10.12 0.02,-20.24 0.05,-30.35l-6.12 -0.01c-0.03,10.12 -0.03,20.24 -0.05,30.35l6.12 0.01zm0.08 -48.57l0.05 -30.35 -6.12 -0.01 -0.05 30.35 6.12 0.01zm0.08 -48.57l0.05 -30.35 -6.12 -0.01 -0.05 30.35 6.12 0.01zm0.08 -48.57c0.02,-10.12 -0.01,-20.24 0.05,-30.35l-6.12 -0.01c-0.06,10.12 -0.03,20.24 -0.05,30.35l6.12 0.01zm0.08 -48.57l0.05 -30.35 -6.12 -0.01 -0.05 30.35 6.12 0.01zm0.08 -48.57l0.05 -30.35 -6.12 -0.01 -0.05 30.35 6.12 0.01zm0.08 -48.57l0.05 -30.35 -6.12 -0.01 -0.05 30.35 6.12 0.01zm0.08 -48.57l0.05 -30.35 -6.12 -0.01 -0.05 30.35 6.12 0.01zm0.08 -48.57l0.05 -30.35 -6.12 -0.01 -0.05 30.35 6.12 0.01zm0.08 -48.57l0.05 -30.35 -6.12 -0.01 -0.05 30.35 6.12 0.01zm0.08 -48.57l0.05 -30.35 -6.12 -0.01 -0.05 30.35 6.12 0.01zm0.08 -48.57l0.05 -30.35 -6.12 -0.01 -0.05 30.35 6.12 0.01zm0.08 -48.57l0.05 -30.35 -6.12 -0.01 -0.05 30.35 6.12 0.01zm0.08 -48.57l0.05 -30.35 -6.12 -0.01 -0.05 30.35 6.12 0.01zm0.08 -48.57l0.05 -30.35 -6.12 -0.01 -0.05 30.35 6.12 0.01zm0.08 -48.57c0,-10.12 0.03,-20.24 0.05,-30.35l-6.12 -0.01c-0.02,10.12 -0.05,20.24 -0.05,30.35l6.12 0.01zm0.08 -48.57l0.05 -30.35 -6.12 -0.01 -0.05 30.35 6.12 0.01zm0.08 -48.57l0.05 -30.35 -6.12 -0.01 -0.05 30.35 6.12 0.01zm0.08 -48.57c0.01,-10.12 0.03,-20.24 0.05,-30.35l-6.12 -0.01c-0.02,10.12 -0.04,20.24 -0.05,30.35l6.12 0.01zm0.08 -48.57l0.05 -30.35 -6.12 -0.01 -0.05 30.35 6.12 0.01zm0.08 -48.57l0.05 -30.35 -6.12 -0.01 -0.05 30.35 6.12 0.01zm0.08 -48.57l0.05 -30.35 -6.12 -0.01 -0.05 30.35 6.12 0.01zm0.08 -48.57l0.05 -30.35 -6.12 -0.01 -0.05 30.35 6.12 0.01zm0.08 -48.57l0.05 -30.35 -6.12 -0.01 -0.05 30.35 6.12 0.01zm0.08 -48.57l0.05 -30.35 -6.12 -0.01 -0.05 30.35 6.12 0.01zm0.08 -48.57l0.05 -30.35 -6.12 -0.01 -0.05 30.35 6.12 0.01zm0.08 -48.57l0.05 -30.35 -6.12 -0.01 -0.05 30.35 6.12 0.01zm0.08 -48.57l0.05 -30.35 -6.12 -0.01 -0.05 30.35 6.12 0.01z"/>
     <path class="fil2" d="M1054.16 1719.14l-6.12 0 0.01 -5.34 6.12 0.01 -0.01 5.33zm0.04 -23.55l0.05 -30.35 -6.12 -0.01 -0.05 30.35 6.12 0.01zm0.08 -48.57l0.05 -30.35 -6.12 -0.01 -0.05 30.35 6.12 0.01zm0.08 -48.57l0.05 -30.35 -6.12 -0.01 -0.05 30.35 6.12 0.01zm0.08 -48.57l0.05 -30.35 -6.12 -0.01 -0.05 30.35 6.12 0.01zm0.08 -48.57l0.05 -30.35 -6.12 -0.01 -0.05 30.35 6.12 0.01zm0.08 -48.57l0.05 -30.35 -6.12 -0.01 -0.05 30.35 6.12 0.01zm0.08 -48.57l0.05 -30.35 -6.12 -0.01 -0.05 30.35 6.12 0.01zm0.08 -48.57l0.05 -30.35 -6.12 -0.01 -0.05 30.35 6.12 0.01zm0.08 -48.57l0.05 -30.35 -6.12 -0.01 -0.05 30.35 6.12 0.01zm0.08 -48.57l0.05 -30.35 -6.12 -0.01 -0.05 30.35 6.12 0.01zm0.08 -48.57l0.05 -30.35 -6.12 -0.01 -0.05 30.35 6.12 0.01zm0.08 -48.57l0.05 -30.35 -6.12 -0.01 -0.05 30.35 6.12 0.01zm0.08 -48.57l0.05 -30.35 -6.12 -0.01 -0.05 30.35 6.12 0.01zm0.08 -48.57l0.05 -30.35 -6.12 -0.01 -0.05 30.35 6.12 0.01zm0.08 -48.57l0.05 -30.35 -6.12 -0.01 -0.05 30.35 6.12 0.01zm0.08 -48.57l0.05 -30.35 -6.12 -0.01 -0.05 30.35 6.12 0.01zm0.08 -48.57l0.05 -30.35 -6.12 -0.01 -0.05 30.35 6.12 0.01zm0.08 -48.57l0.05 -30.35 -6.12 -0.01 -0.05 30.35 6.12 0.01zm0.08 -48.57l0.05 -30.35 -6.12 -0.01 -0.05 30.35 6.12 0.01zm0.08 -48.57c0.02,-10.12 -0.01,-20.24 0.05,-30.35l-6.12 -0.01c-0.06,10.11 -0.03,20.24 -0.05,30.35l6.12 0.01zm0.08 -48.57l0.05 -30.35 -6.12 -0.01 -0.05 30.35 6.12 0.01zm0.08 -48.57l0.05 -30.35 -6.12 -0.01 -0.05 30.35 6.12 0.01zm0.08 -48.57l0.05 -30.35 -6.12 -0.01 -0.05 30.35 6.12 0.01zm0.08 -48.57l0.05 -30.35 -6.12 -0.01 -0.05 30.35 6.12 0.01zm0.08 -48.57c0.02,-10.12 0.03,-20.24 0.05,-30.35l-6.12 -0.01c-0.02,10.12 -0.03,20.24 -0.05,30.35l6.12 0.01zm0.08 -48.57l0.05 -30.35 -6.12 -0.01 -0.05 30.35 6.12 0.01zm0.08 -48.57l0.05 -30.35 -6.12 -0.01 -0.05 30.35 6.12 0.01zm0.08 -48.57c0,-10.12 0.03,-20.24 0.05,-30.35l-6.12 -0.01c-0.02,10.12 -0.05,20.24 -0.05,30.35l6.12 0.01zm0.08 -48.57l0.05 -30.35 -6.12 -0.01 -0.05 30.35 6.12 0.01zm0.08 -48.57l0.05 -30.35 -6.12 -0.01 -0.05 30.35 6.12 0.01zm0.08 -48.57l0.05 -30.35 -6.12 -0.01 -0.05 30.35 6.12 0.01zm0.08 -48.57l0.05 -30.35 -6.12 -0.01 -0.05 30.35 6.12 0.01zm0.08 -48.57l0.05 -30.35 -6.12 -0.01 -0.05 30.35 6.12 0.01zm0.08 -48.57l0.05 -30.35 -6.12 -0.01 -0.05 30.35 6.12 0.01zm0.08 -48.57l0.05 -30.35 -6.12 -0.01 -0.05 30.35 6.12 0.01z"/>
     <path class="fil2" d="M1079.39 4.94l6.12 0 -0.05 28.81 -6.12 -0.01 0.05 -28.8zm3.34 1714.2l-6.12 0 0.03 -15.89 6.12 0.01 -0.03 15.88zm0.05 -34.09l0.05 -30.35 -6.12 -0.01 -0.05 30.36 6.12 0.01zm0.08 -48.57l0.05 -30.36 -6.12 -0.01 -0.05 30.35 6.12 0.01zm0.08 -48.57l0.05 -30.35 -6.12 -0.01 -0.05 30.35 6.12 0.01zm0.08 -48.57l0.05 -30.35 -6.12 -0.01 -0.05 30.36 6.12 0.01zm0.08 -48.57l0.05 -30.36 -6.12 -0.01 -0.05 30.35 6.12 0.01zm0.08 -48.57l0.05 -30.36 -6.12 -0.01 -0.05 30.35 6.12 0.01zm0.08 -48.57c0.01,-10.12 0.03,-20.24 0.05,-30.35l-6.12 -0.01c-0.02,10.12 -0.04,20.24 -0.05,30.35l6.12 0.01zm0.08 -48.57l0.05 -30.35 -6.12 -0.01 -0.05 30.35 6.12 0.01zm0.08 -48.57l0.05 -30.35 -6.12 -0.01 -0.05 30.35 6.12 0.01zm0.08 -48.57l0.05 -30.35 -6.12 -0.01 -0.05 30.35 6.12 0.01zm0.08 -48.57l0.05 -30.35 -6.12 -0.01 -0.05 30.36 6.12 0.01zm0.08 -48.57l0.05 -30.36 -6.12 -0.01 -0.05 30.35 6.12 0.01zm0.08 -48.57l0.05 -30.35 -6.12 -0.01 -0.05 30.35 6.12 0.01zm0.08 -48.57l0.05 -30.35 -6.12 -0.01 -0.05 30.36 6.12 0.01zm0.08 -48.57l0.05 -30.35 -6.12 -0.01 -0.05 30.35 6.12 0.01zm0.08 -48.57c0,-10.12 0.03,-20.24 0.05,-30.35l-6.12 -0.01c-0.02,10.12 -0.05,20.24 -0.05,30.35l6.12 0.01zm0.08 -48.57l0.05 -30.35 -6.12 -0.01 -0.05 30.35 6.12 0.01zm0.08 -48.57l0.05 -30.35 -6.12 -0.01 -0.05 30.35 6.12 0.01zm0.08 -48.57l0.05 -30.35 -6.12 -0.01 -0.05 30.35 6.12 0.01zm0.08 -48.57l0.05 -30.35 -6.12 -0.01 -0.05 30.35 6.12 0.01zm0.08 -48.57l0.05 -30.35 -6.12 -0.01 -0.05 30.35 6.12 0.01zm0.08 -48.57l0.05 -30.36 -6.12 -0.01 -0.05 30.35 6.12 0.01zm0.08 -48.57l0.05 -30.35 -6.12 -0.01 -0.05 30.35 6.12 0.01zm0.08 -48.57l0.05 -30.35 -6.12 -0.01 -0.05 30.36 6.12 0.01zm0.08 -48.57l0.05 -30.35 -6.12 -0.01 -0.05 30.35 6.12 0.01zm0.08 -48.57l0.05 -30.35 -6.12 -0.01 -0.05 30.35 6.12 0.01zm0.08 -48.57c0.02,-10.12 0.01,-20.24 0.05,-30.35l-6.12 -0.01c-0.04,10.12 -0.03,20.24 -0.05,30.35l6.12 0.01zm0.08 -48.57l0.05 -30.35 -6.12 -0.01 -0.05 30.35 6.12 0.01zm0.08 -48.57l0.05 -30.36 -6.12 -0.01 -0.05 30.35 6.12 0.01zm0.08 -48.57l0.05 -30.35 -6.12 -0.01 -0.05 30.36 6.12 0.01zm0.08 -48.57l0.05 -30.35 -6.12 -0.01 -0.05 30.35 6.12 0.01zm0.08 -48.57c0,-10.12 0.03,-20.24 0.05,-30.36l-6.12 -0.01c-0.02,10.12 -0.05,20.24 -0.05,30.35l6.12 0.01zm0.08 -48.57l0.05 -30.35 -6.12 -0.01 -0.05 30.35 6.12 0.01zm0.08 -48.57l0.05 -30.35 -6.12 -0.01 -0.05 30.35 6.12 0.01z"/>
     <path class="fil2" d="M1108.01 4.94l6.12 0 -0.03 18.26 -6.12 -0.01 0.03 -18.25zm3.29 1714.2l-6.12 0c0.01,-8.81 0.03,-17.62 0.05,-26.43l6.12 0.01c-0.02,8.81 -0.04,17.61 -0.05,26.42zm0.08 -44.63l0.05 -30.35 -6.12 -0.01 -0.05 30.35 6.12 0.01zm0.08 -48.57l0.05 -30.35 -6.12 -0.01 -0.05 30.35 6.12 0.01zm0.08 -48.57l0.05 -30.35 -6.12 -0.01 -0.05 30.35 6.12 0.01zm0.08 -48.57l0.05 -30.35 -6.12 -0.01 -0.05 30.35 6.12 0.01zm0.08 -48.57l0.05 -30.35 -6.12 -0.01 -0.05 30.35 6.12 0.01zm0.08 -48.57l0.05 -30.35 -6.12 -0.01 -0.05 30.35 6.12 0.01zm0.08 -48.57l0.05 -30.35 -6.12 -0.01 -0.05 30.35 6.12 0.01zm0.08 -48.57l0.05 -30.35 -6.12 -0.01 -0.05 30.35 6.12 0.01zm0.08 -48.57l0.05 -30.35 -6.12 -0.01 -0.05 30.35 6.12 0.01zm0.08 -48.57l0.05 -30.35 -6.12 -0.01 -0.05 30.35 6.12 0.01zm0.08 -48.57l0.05 -30.35 -6.12 -0.01 -0.05 30.35 6.12 0.01zm0.08 -48.57c0.02,-10.12 -0.01,-20.24 0.05,-30.35l-6.12 -0.01c-0.06,10.12 -0.03,20.24 -0.05,30.35l6.12 0.01zm0.08 -48.57l0.05 -30.35 -6.12 -0.01 -0.05 30.35 6.12 0.01zm0.08 -48.57c0.02,-10.12 0.02,-20.24 0.05,-30.35l-6.12 -0.01c-0.03,10.12 -0.03,20.24 -0.05,30.35l6.12 0.01zm0.08 -48.57l0.05 -30.35 -6.12 -0.01 -0.05 30.35 6.12 0.01zm0.08 -48.57c0.02,-10.12 0.03,-20.24 0.05,-30.35l-6.12 -0.01c-0.02,10.12 -0.03,20.24 -0.05,30.35l6.12 0.01zm0.08 -48.57l0.05 -30.35 -6.12 -0.01 -0.05 30.35 6.12 0.01zm0.08 -48.57l0.05 -30.35 -6.12 -0.01 -0.05 30.35 6.12 0.01zm0.08 -48.57l0.05 -30.35 -6.12 -0.01 -0.05 30.35 6.12 0.01zm0.08 -48.57l0.05 -30.35 -6.12 -0.01 -0.05 30.35 6.12 0.01zm0.08 -48.57l0.05 -30.35 -6.12 -0.01 -0.05 30.35 6.12 0.01zm0.08 -48.57l0.05 -30.35 -6.12 -0.01 -0.05 30.35 6.12 0.01zm0.08 -48.57l0.05 -30.35 -6.12 -0.01 -0.05 30.35 6.12 0.01zm0.08 -48.57l0.05 -30.35 -6.12 -0.01 -0.05 30.35 6.12 0.01zm0.08 -48.57l0.05 -30.35 -6.12 -0.01 -0.05 30.35 6.12 0.01zm0.08 -48.57l0.05 -30.35 -6.12 -0.01 -0.05 30.35 6.12 0.01zm0.08 -48.57l0.05 -30.35 -6.12 -0.01 -0.05 30.35 6.12 0.01zm0.08 -48.57l0.05 -30.35 -6.12 -0.01 -0.05 30.35 6.12 0.01zm0.08 -48.57l0.05 -30.35 -6.12 -0.01 -0.05 30.35 6.12 0.01zm0.08 -48.57l0.05 -30.35 -6.12 -0.01 -0.05 30.35 6.12 0.01zm0.08 -48.57c0,-10.12 0.03,-20.24 0.05,-30.35l-6.12 -0.01c-0.02,10.12 -0.05,20.24 -0.05,30.35l6.12 0.01zm0.08 -48.57l0.05 -30.35 -6.12 -0.01 -0.05 30.35 6.12 0.01zm0.08 -48.57l0.05 -30.35 -6.12 -0.01 -0.05 30.35 6.12 0.01zm0.08 -48.57l0.05 -30.35 -6.12 -0.01 -0.05 30.35 6.12 0.01z"/>
     <path class="fil2" d="M1136.63 4.94l6.12 0 -0.01 7.72 -6.12 -0.01 0.01 -7.71zm3.26 1707.59l0.05 -30.35 -6.12 -0.01 -0.05 30.35 6.12 0.01zm0.08 -48.57l0.05 -30.35 -6.12 -0.01 -0.05 30.35 6.12 0.01zm0.08 -48.57l0.05 -30.35 -6.12 -0.01 -0.05 30.35 6.12 0.01zm0.08 -48.57l0.05 -30.35 -6.12 -0.01 -0.05 30.35 6.12 0.01zm0.08 -48.57l0.05 -30.35 -6.12 -0.01 -0.05 30.35 6.12 0.01zm0.08 -48.57l0.05 -30.35 -6.12 -0.01 -0.05 30.35 6.12 0.01zm0.08 -48.57l0.05 -30.35 -6.12 -0.01 -0.05 30.35 6.12 0.01zm0.08 -48.57c0.02,-10.12 0.03,-20.24 0.05,-30.35l-6.12 -0.01c-0.02,10.12 -0.03,20.24 -0.05,30.35l6.12 0.01zm0.08 -48.57l0.05 -30.35 -6.12 -0.01 -0.05 30.35 6.12 0.01zm0.08 -48.57l0.05 -30.35 -6.12 -0.01 -0.05 30.35 6.12 0.01zm0.08 -48.57l0.05 -30.35 -6.12 -0.01 -0.05 30.35 6.12 0.01zm0.08 -48.57l0.05 -30.35 -6.12 -0.01 -0.05 30.35 6.12 0.01zm0.08 -48.57l0.05 -30.35 -6.12 -0.01 -0.05 30.35 6.12 0.01zm0.08 -48.57l0.05 -30.35 -6.12 -0.01 -0.05 30.35 6.12 0.01zm0.08 -48.57l0.05 -30.35 -6.12 -0.01 -0.05 30.35 6.12 0.01zm0.08 -48.57l0.05 -30.35 -6.12 -0.01 -0.05 30.35 6.12 0.01zm0.08 -48.57l0.05 -30.35 -6.12 -0.01 -0.05 30.35 6.12 0.01zm0.08 -48.57l0.05 -30.35 -6.12 -0.01 -0.05 30.35 6.12 0.01zm0.08 -48.57l0.05 -30.35 -6.12 -0.01 -0.05 30.35 6.12 0.01zm0.08 -48.57l0.05 -30.35 -6.12 -0.01 -0.05 30.35 6.12 0.01zm0.08 -48.57l0.05 -30.35 -6.12 -0.01 -0.05 30.35 6.12 0.01zm0.08 -48.57l0.05 -30.35 -6.12 -0.01 -0.05 30.35 6.12 0.01zm0.08 -48.57l0.05 -30.35 -6.12 -0.01 -0.05 30.35 6.12 0.01zm0.08 -48.57l0.05 -30.35 -6.12 -0.01 -0.05 30.35 6.12 0.01zm0.08 -48.57l0.05 -30.35 -6.12 -0.01 -0.05 30.35 6.12 0.01zm0.08 -48.57l0.05 -30.35 -6.12 -0.01 -0.05 30.35 6.12 0.01zm0.08 -48.57l0.05 -30.35 -6.12 -0.01 -0.05 30.35 6.12 0.01zm0.08 -48.57l0.05 -30.35 -6.12 -0.01 -0.05 30.35 6.12 0.01zm0.08 -48.57l0.05 -30.35 -6.12 -0.01 -0.05 30.35 6.12 0.01zm0.08 -48.57l0.05 -30.35 -6.12 -0.01 -0.05 30.35 6.12 0.01zm0.08 -48.57l0.05 -30.35 -6.12 -0.01 -0.05 30.35 6.12 0.01zm0.08 -48.57l0.05 -30.35 -6.12 -0.01 -0.05 30.35 6.12 0.01zm0.08 -48.57l0.05 -30.35 -6.12 -0.01 -0.05 30.35 6.12 0.01zm0.08 -48.57l0.05 -30.35 -6.12 -0.01 -0.05 30.35 6.12 0.01zm0.08 -48.57l0.05 -30.35 -6.12 -0.01 -0.05 30.35 6.12 0.01z"/>
     <path class="fil2" d="M1168.49 1701.99l0.05 -30.35 -6.12 -0.01 -0.05 30.35 6.12 0.01zm0.08 -48.57c0.02,-10.12 0.03,-20.24 0.05,-30.35l-6.12 -0.01c-0.02,10.12 -0.03,20.24 -0.05,30.35l6.12 0.01zm0.08 -48.57l0.05 -30.35 -6.12 -0.01 -0.05 30.35 6.12 0.01zm0.08 -48.57l0.05 -30.35 -6.12 -0.01 -0.05 30.35 6.12 0.01zm0.08 -48.57l0.05 -30.35 -6.12 -0.01 -0.05 30.35 6.12 0.01zm0.08 -48.57l0.05 -30.35 -6.12 -0.01 -0.05 30.35 6.12 0.01zm0.08 -48.57l0.05 -30.35 -6.12 -0.01 -0.05 30.35 6.12 0.01zm0.08 -48.57l0.05 -30.35 -6.12 -0.01 -0.05 30.35 6.12 0.01zm0.08 -48.57l0.05 -30.35 -6.12 -0.01 -0.05 30.35 6.12 0.01zm0.08 -48.57l0.05 -30.35 -6.12 -0.01 -0.05 30.35 6.12 0.01zm0.08 -48.57l0.05 -30.35 -6.12 -0.01 -0.05 30.35 6.12 0.01zm0.08 -48.57l0.05 -30.35 -6.12 -0.01 -0.05 30.35 6.12 0.01zm0.08 -48.57c0,-10.12 0.03,-20.24 0.05,-30.35l-6.12 -0.01c-0.02,10.12 -0.05,20.24 -0.05,30.35l6.12 0.01zm0.08 -48.57l0.05 -30.35 -6.12 -0.01 -0.05 30.35 6.12 0.01zm0.08 -48.57l0.05 -30.35 -6.12 -0.01 -0.05 30.35 6.12 0.01zm0.08 -48.57c0.02,-10.12 0.03,-20.24 0.05,-30.35l-6.12 -0.01c-0.02,10.12 -0.04,20.24 -0.05,30.35l6.12 0.01zm0.08 -48.57l0.05 -30.35 -6.12 -0.01 -0.05 30.35 6.12 0.01zm0.08 -48.57l0.05 -30.35 -6.12 -0.01 -0.05 30.35 6.12 0.01zm0.08 -48.57l0.05 -30.35 -6.12 -0.01 -0.05 30.35 6.12 0.01zm0.08 -48.57c0,-10.12 0.03,-20.24 0.05,-30.35l-6.12 -0.01c-0.02,10.12 -0.05,20.24 -0.05,30.35l6.12 0.01zm0.08 -48.57l0.05 -30.35 -6.12 -0.01 -0.05 30.35 6.12 0.01zm0.08 -48.57l0.05 -30.35 -6.12 -0.01 -0.05 30.35 6.12 0.01zm0.08 -48.57c0.02,-10.12 0.02,-20.24 0.05,-30.35l-6.12 -0.01c-0.03,10.12 -0.03,20.24 -0.05,30.35l6.12 0.01zm0.08 -48.57l0.05 -30.35 -6.12 -0.01 -0.05 30.35 6.12 0.01zm0.08 -48.57l0.05 -30.35 -6.12 -0.01 -0.05 30.35 6.12 0.01zm0.08 -48.57l0.05 -30.35 -6.12 -0.01 -0.05 30.35 6.12 0.01zm0.08 -48.57c0,-10.12 0.03,-20.24 0.05,-30.35l-6.12 -0.01c-0.02,10.12 -0.05,20.24 -0.05,30.35l6.12 0.01zm0.08 -48.57l0.05 -30.35 -6.12 -0.01 -0.05 30.35 6.12 0.01zm0.08 -48.57l0.05 -30.35 -6.12 -0.01 -0.05 30.35 6.12 0.01zm0.08 -48.57c0.02,-10.12 0.03,-20.24 0.05,-30.35l-6.12 -0.01c-0.02,10.12 -0.04,20.24 -0.05,30.35l6.12 0.01zm0.08 -48.57l0.05 -30.35 -6.12 -0.01 -0.05 30.35 6.12 0.01zm0.08 -48.57l0.05 -30.35 -6.12 -0.01 -0.05 30.35 6.12 0.01zm0.08 -48.57l0.05 -30.35 -6.12 -0.01 -0.05 30.35 6.12 0.01zm0.08 -48.57l0.05 -30.35 -6.12 -0.01 -0.05 30.35 6.12 0.01zm0.08 -48.57l0.05 -30.35 -6.12 -0.01 -0.05 30.35 6.12 0.01z"/>
    </g>
    <path class="fil1" d="M1197.05 1719.14l-6.12 0 0.02 -9.49 6.12 0.01 -0.02 9.48zm0.05 -27.69l-6.12 -0.01 0.05 -30.35 6.12 0.01 -0.05 30.35zm0.08 -48.57l-6.12 -0.01 0.05 -30.35 6.12 0.01 -0.05 30.35zm0.08 -48.57l-6.12 -0.01 0.05 -30.35 6.12 0.01 -0.05 30.35zm0.08 -48.57l-6.12 -0.01 0.05 -30.35 6.12 0.01 -0.05 30.35zm0.08 -48.57l-6.12 -0.01 0.05 -30.35 6.12 0.01 -0.05 30.35zm0.08 -48.57l-6.12 -0.01 0.05 -30.35 6.12 0.01 -0.05 30.35zm0.08 -48.57l-6.12 -0.01 0.05 -30.35 6.12 0.01 -0.05 30.35zm0.08 -48.57l-6.12 -0.01 0.05 -30.35 6.12 0.01 -0.05 30.35zm0.08 -48.57l-6.12 -0.01 0.05 -30.35 6.12 0.01 -0.05 30.35zm0.08 -48.57l-6.12 -0.01 0.05 -30.35 6.12 0.01 -0.05 30.35zm0.08 -48.57l-6.12 -0.01 0.05 -30.35 6.12 0.01 -0.05 30.35zm0.08 -48.57l-6.12 -0.01 0.05 -30.35 6.12 0.01 -0.05 30.35zm0.08 -48.57l-6.12 -0.01 0.05 -30.35 6.12 0.01 -0.05 30.35zm0.08 -48.57l-6.12 -0.01 0.05 -30.35 6.12 0.01 -0.05 30.35zm0.08 -48.57l-6.12 -0.01 0.05 -30.35 6.12 0.01 -0.05 30.35zm0.08 -48.57l-6.12 -0.01 0.05 -30.35 6.12 0.01 -0.05 30.35zm0.08 -48.57l-6.12 -0.01 0.05 -30.35 6.12 0.01 -0.05 30.35zm0.08 -48.57l-6.12 -0.01 0.05 -30.35 6.12 0.01 -0.05 30.35zm0.08 -48.57l-6.12 -0.01 0.05 -30.35 6.12 0.01 -0.05 30.35zm0.08 -48.57l-6.12 -0.01 0.05 -30.35 6.12 0.01 -0.05 30.35zm0.08 -48.57l-6.12 -0.01 0.05 -30.35 6.12 0.01 -0.05 30.35zm0.08 -48.57l-6.12 -0.01 0.05 -30.35 6.12 0.01 -0.05 30.35zm0.08 -48.57l-6.12 -0.01 0.05 -30.35 6.12 0.01 -0.05 30.35zm0.08 -48.57l-6.12 -0.01 0.05 -30.35 6.12 0.01 -0.05 30.35zm0.08 -48.57l-6.12 -0.01 0.05 -30.35 6.12 0.01 -0.05 30.35zm0.08 -48.57l-6.12 -0.01 0.05 -30.35 6.12 0.01 -0.05 30.35zm0.08 -48.57l-6.12 -0.01 0.05 -30.35 6.12 0.01 -0.05 30.35zm0.08 -48.57l-6.12 -0.01 0.05 -30.35 6.12 0.01 -0.05 30.35zm0.08 -48.57l-6.12 -0.01 0.05 -30.35 6.12 0.01 -0.05 30.35zm0.08 -48.57l-6.12 -0.01 0.05 -30.35 6.12 0.01 -0.05 30.35zm0.08 -48.57l-6.12 -0.01 0.05 -30.35 6.12 0.01 -0.05 30.35zm0.08 -48.57l-6.12 -0.01 0.05 -30.35 6.12 0.01 -0.05 30.35zm0.08 -48.57l-6.12 -0.01 0.05 -30.35 6.12 0.01 -0.05 30.35zm0.08 -48.57l-6.12 -0.01 0.05 -30.35 6.12 0.01 -0.05 30.35zm0.08 -48.57l-6.12 -0.01 0.05 -30.35 6.12 0.01 -0.05 30.35z"/>
   </g>
  </g>
</svg>
