<svg xmlns="http://www.w3.org/2000/svg" xml:space="preserve" width="257.145mm" height="315.87mm" version="1.0" style="shape-rendering:geometricPrecision; text-rendering:geometricPrecision; image-rendering:optimizeQuality; fill-rule:evenodd; clip-rule:evenodd"
viewBox="0 0 2068.58 2540.98"
 xmlns:xlink="http://www.w3.org/1999/xlink">
 <defs>
  <style type="text/css">
   <![CDATA[
    .str2 {stroke:white;stroke-width:2.84;stroke-miterlimit:2.61313}
    .str1 {stroke:white;stroke-width:2.84;stroke-miterlimit:2.61313}
    .str0 {stroke:black;stroke-width:1.42;stroke-miterlimit:2.61313}
    .fil4 {fill:none}
    .fil3 {fill:black}
    .fil2 {fill:black}
    .fil0 {fill:gray}
    .fil1 {fill:white}
   ]]>
  </style>
 </defs>
  <g id="spaceships">
   <rect class="fil0" x="267.39" width="1689.32" height="2389.18"/>
   <ellipse class="fil1 str0" cx="1527.16" cy="773.24" rx="331.29" ry="102.58"/>
   <ellipse class="fil1 str0" cx="702.08" cy="1167.42" rx="419.3" ry="129.83"/>
   <ellipse class="fil2 str0" cx="1300.16" cy="767.28" rx="27.67" ry="25.54"/>
   <g>
    <path class="fil3 str0" d="M1371.62 741.74c15.28,0 27.67,11.44 27.67,25.54 0,14.11 -12.39,25.54 -27.67,25.54 -15.28,0 -27.67,-11.44 -27.67,-25.54 0,-14.11 12.39,-25.54 27.67,-25.54z"/>
    <path class="fil3 str0" d="M1443.07 741.74c15.28,0 27.67,11.44 27.67,25.54 0,14.11 -12.39,25.54 -27.67,25.54 -15.28,0 -27.67,-11.44 -27.67,-25.54 0,-14.11 12.39,-25.54 27.67,-25.54z"/>
    <path class="fil3 str0" d="M1514.52 741.74c15.28,0 27.67,11.44 27.67,25.54 0,14.11 -12.39,25.54 -27.67,25.54 -15.28,0 -27.67,-11.44 -27.67,-25.54 0,-14.11 12.39,-25.54 27.67,-25.54z"/>
    <path class="fil3 str0" d="M1585.98 741.74c15.28,0 27.67,11.44 27.67,25.54 0,14.11 -12.39,25.54 -27.67,25.54 -15.28,0 -27.67,-11.44 -27.67,-25.54 0,-14.11 12.39,-25.54 27.67,-25.54z"/>
    <path class="fil3 str0" d="M1657.43 741.74c15.28,0 27.67,11.44 27.67,25.54 0,14.11 -12.39,25.54 -27.67,25.54 -15.28,0 -27.67,-11.44 -27.67,-25.54 0,-14.11 12.39,-25.54 27.67,-25.54z"/>
    <path class="fil3 str0" d="M1728.89 741.74c15.28,0 27.67,11.44 27.67,25.54 0,14.11 -12.39,25.54 -27.67,25.54 -15.28,0 -27.67,-11.44 -27.67,-25.54 0,-14.11 12.39,-25.54 27.67,-25.54z"/>
   </g>
   <ellipse class="fil2 str0" cx="1800.34" cy="767.28" rx="27.67" ry="25.54"/>
   <ellipse class="fil2 str0" cx="1046.88" cy="1161.03" rx="27.67" ry="25.54"/>
   <g>
    <path class="fil3 str0" d="M950.19 1135.8c15.28,0 27.67,11.44 27.67,25.54 0,14.11 -12.39,25.54 -27.67,25.54 -15.28,0 -27.67,-11.44 -27.67,-25.54 0,-14.11 12.39,-25.54 27.67,-25.54z"/>
    <path class="fil3 str0" d="M853.5 1136.1c15.28,0 27.67,11.44 27.67,25.54 0,14.11 -12.39,25.54 -27.67,25.54 -15.28,0 -27.67,-11.44 -27.67,-25.54 0,-14.11 12.39,-25.54 27.67,-25.54z"/>
    <path class="fil3 str0" d="M756.81 1136.4c15.28,0 27.67,11.44 27.67,25.54 0,14.11 -12.39,25.54 -27.67,25.54 -15.28,0 -27.67,-11.44 -27.67,-25.54 0,-14.11 12.39,-25.54 27.67,-25.54z"/>
    <path class="fil3 str0" d="M660.12 1136.71c15.28,0 27.67,11.44 27.67,25.54 0,14.11 -12.39,25.54 -27.67,25.54 -15.28,0 -27.67,-11.44 -27.67,-25.54 0,-14.11 12.39,-25.54 27.67,-25.54z"/>
    <path class="fil3 str0" d="M563.43 1137.01c15.28,0 27.67,11.44 27.67,25.54 0,14.11 -12.39,25.54 -27.67,25.54 -15.28,0 -27.67,-11.44 -27.67,-25.54 0,-14.11 12.39,-25.54 27.67,-25.54z"/>
    <path class="fil3 str0" d="M466.74 1137.32c15.28,0 27.67,11.44 27.67,25.54 0,14.11 -12.39,25.54 -27.67,25.54 -15.28,0 -27.67,-11.44 -27.67,-25.54 0,-14.11 12.39,-25.54 27.67,-25.54z"/>
   </g>
   <ellipse class="fil2 str0" cx="370.05" cy="1163.16" rx="27.67" ry="25.54"/>
   <path class="fil4 str1" d="M1822.15 835.61l245.04 1144.86"/>
   <g>
    <path class="fil4 str2" d="M1793.58 833.52c79.28,381.09 158.57,762.18 237.85,1143.27"/>
    <path class="fil4 str2" d="M1765.01 831.42c76.89,380.56 153.78,761.12 230.66,1141.67"/>
    <path class="fil4 str2" d="M1736.43 829.33c74.49,380.03 148.99,760.05 223.48,1140.08"/>
    <path class="fil4 str2" d="M1707.86 827.24c72.1,379.49 144.19,758.99 216.29,1138.48"/>
    <path class="fil4 str2" d="M1679.29 825.15c69.7,378.96 139.4,757.93 209.1,1136.89"/>
    <path class="fil4 str2" d="M1650.72 823.06c67.3,378.43 134.61,756.86 201.91,1135.29"/>
    <path class="fil4 str2" d="M1622.15 820.97c64.91,377.9 129.82,755.8 194.73,1133.7"/>
    <path class="fil4 str2" d="M1593.58 818.87c62.51,377.37 125.03,754.74 187.54,1132.1"/>
    <path class="fil4 str2" d="M1565 816.78c60.12,376.84 120.24,753.67 180.35,1130.51"/>
    <path class="fil4 str2" d="M1536.43 814.69c57.72,376.3 115.44,752.61 173.16,1128.91"/>
    <path class="fil4 str2" d="M1507.86 812.6c55.33,375.77 110.65,751.55 165.98,1127.32"/>
    <path class="fil4 str2" d="M1479.29 810.51c52.93,375.24 105.86,750.48 158.79,1125.72"/>
    <path class="fil4 str2" d="M1450.72 808.41c50.53,374.71 101.07,749.42 151.6,1124.13"/>
    <path class="fil4 str2" d="M1422.15 806.32c48.14,374.18 96.28,748.36 144.41,1122.53"/>
    <path class="fil4 str2" d="M1393.57 804.23c45.74,373.65 91.48,747.29 137.23,1120.94"/>
    <path class="fil4 str2" d="M1365 802.14c43.35,373.12 86.69,746.23 130.04,1119.35"/>
    <path class="fil4 str2" d="M1336.43 800.05c40.95,372.58 81.9,745.17 122.85,1117.75"/>
    <path class="fil4 str2" d="M1307.86 797.96c38.55,372.05 77.11,744.1 115.66,1116.15"/>
    <path class="fil4 str2" d="M1279.29 795.87c36.16,371.52 72.32,743.04 108.48,1114.56"/>
    <path class="fil4 str2" d="M1250.72 793.77c33.76,370.99 67.53,741.98 101.29,1112.97"/>
   </g>
   <path class="fil4 str1" d="M1222.14 791.68l94.1 1111.37"/>
   <path class="fil4 str1" d="M1067.15 1212.38l-120.55 1328.47"/>
   <g>
    <path class="fil4 str2" d="M1030.86 1210.25c-43.09,442.23 -86.18,884.46 -129.27,1326.69"/>
    <path class="fil4 str2" d="M994.56 1208.11c-46,441.64 -91.99,883.27 -137.99,1324.91"/>
    <path class="fil4 str2" d="M958.27 1205.98c-48.9,441.04 -97.81,882.09 -146.71,1323.13"/>
    <path class="fil4 str2" d="M921.98 1203.84c-51.81,440.45 -103.62,880.9 -155.43,1321.35"/>
    <path class="fil4 str2" d="M885.69 1201.71c-54.72,439.86 -109.43,879.72 -164.15,1319.57"/>
    <path class="fil4 str2" d="M849.4 1199.57c-57.62,439.26 -115.25,878.53 -172.87,1317.79"/>
    <path class="fil4 str2" d="M813.11 1197.44c-60.53,438.67 -121.06,877.34 -181.59,1316.01"/>
    <path class="fil4 str2" d="M776.82 1195.3c-63.44,438.08 -126.87,876.16 -190.31,1314.23"/>
    <path class="fil4 str2" d="M740.53 1193.16c-66.34,437.48 -132.69,874.97 -199.03,1312.45"/>
    <path class="fil4 str2" d="M704.24 1191.03c-69.25,436.89 -138.5,873.78 -207.75,1310.67"/>
    <path class="fil4 str2" d="M667.95 1188.89c-72.16,436.3 -144.31,872.6 -216.47,1308.89"/>
    <path class="fil4 str2" d="M631.66 1186.76c-75.06,435.7 -150.13,871.41 -225.19,1307.11"/>
    <path class="fil4 str2" d="M595.37 1184.62c-77.97,435.11 -155.94,870.22 -233.91,1305.33"/>
    <path class="fil4 str2" d="M559.08 1182.49c-80.88,434.52 -161.75,869.04 -242.63,1303.55"/>
    <path class="fil4 str2" d="M522.79 1180.35c-83.78,433.93 -167.56,867.85 -251.35,1301.77"/>
    <path class="fil4 str2" d="M486.5 1178.22c-86.69,433.33 -173.38,866.66 -260.07,1300"/>
    <path class="fil4 str2" d="M450.21 1176.08c-89.6,432.74 -179.19,865.48 -268.79,1298.22"/>
    <path class="fil4 str2" d="M413.92 1173.95c-92.5,432.15 -185,864.29 -277.51,1296.44"/>
    <path class="fil4 str2" d="M377.63 1171.81c-95.41,431.55 -190.82,863.1 -286.23,1294.66"/>
    <path class="fil4 str2" d="M341.34 1169.67c-98.32,430.96 -196.63,861.92 -294.95,1292.88"/>
   </g>
   <path class="fil4 str1" d="M305.05 1167.54l-303.67 1291.1"/>
 </g>
</svg>
