<svg xmlns="http://www.w3.org/2000/svg" xml:space="preserve" width="210.356mm" height="298.041mm" version="1.0" style="shape-rendering:geometricPrecision; text-rendering:geometricPrecision; image-rendering:optimizeQuality; fill-rule:evenodd; clip-rule:evenodd"
viewBox="0 0 4454.19 6310.89"
 xmlns:xlink="http://www.w3.org/1999/xlink">
 <defs>
  <style type="text/css">
   <![CDATA[
    .str0 {stroke:black;stroke-width:3.74;stroke-miterlimit:2}
    .fil4 {fill:none}
    .fil3 {fill:black}
    .fil1 {fill:#FF0066}
    .fil0 {fill:white}
    .fil2 {fill:url(#id0)}
    .fil5 {fill:url(#id1)}
   ]]>
  </style>
  <linearGradient id="id0" gradientUnits="objectBoundingBox" x1="91.8285%" y1="18.6535%" x2="12.8091%" y2="96.078%">
   <stop offset="0" style="stop-opacity:1; stop-color:#FF9933"/>
   <stop offset="0.00392157" style="stop-opacity:1; stop-color:#DFAC39"/>
   <stop offset="0.129412" style="stop-opacity:1; stop-color:yellow"/>
   <stop offset="0.231373" style="stop-opacity:1; stop-color:#FFFF99"/>
   <stop offset="0.8" style="stop-opacity:1; stop-color:#EDE21F"/>
   <stop offset="1" style="stop-opacity:1; stop-color:#BFBF3F"/>
  </linearGradient>
  <linearGradient id="id1" gradientUnits="objectBoundingBox" xlink:href="#id0" x1="91.828%" y1="18.6532%" x2="12.8095%" y2="96.0776%">
  </linearGradient>
 </defs>
 <g id="Layer_x0020_1">
  <rect class="fil0" y="22.04" width="4446.66" height="6288.85"/>
  <path class="fil1" d="M15.83 0c0,858.48 269.86,1159.36 360.75,1234.39 242.64,200.31 179.28,643.63 179.28,774.57 0,180.6 -22.5,1025.96 22.41,1148.51 23.82,64.99 85.88,273.28 212.89,231.48 25.28,-8.32 42.86,-23.59 61.63,-44.52 21.45,-62.96 75.19,-111.97 84.04,-169.16 62.44,-403.38 21.2,-600.88 50.42,-1030.16 23.77,-349.24 58.57,-661.9 252.03,-634.17 157.85,22.62 180.93,373.8 168.15,631.57 -29.03,585.68 -17.59,1090.33 11.21,1554.05 44.75,720.79 431.39,844.17 431.39,-13.46 0,-33.32 20.33,-1357.33 27.99,-1863.93 6,-396.97 332.55,-417.7 352.98,-123.91 6.8,97.75 0.55,871.35 5.6,990.33l26.47 623.9c11.87,279.86 123.49,321.7 276.07,302.03 120.31,-15.51 154.13,-251.77 156.87,-329.42l33.61 -952.64c4.67,-132.36 -11.21,-262.57 -11.21,-400.64 0,-89.83 -17.27,-685.54 168.07,-685.54 331.88,0 275.91,408.78 302.53,632.12 64.82,543.77 13.91,3191.16 67.23,3570.16 12.78,90.85 -10.47,138.29 134.46,195.87 59.42,23.6 134.05,6.05 190.48,-8.9 0,-7.53 39.92,-35.67 56.02,-53.42 141.51,-155.99 123.25,-634.93 123.25,-836.89 0,-83.3 -22.41,-148.83 -22.41,-249.29 0,-285.37 -35.45,-1562.47 -5.58,-1619.77 52.99,-101.64 162.7,-225.79 302.53,-225.79 100.85,0 240.84,162.51 324.94,190.18 1.92,0.63 69.97,13.57 94.26,22.48l-7.53 -2838 -4430.84 -22.04z"/>
  <g id="_105828489239296">
   <path class="fil2 str0" d="M3585.53 380.13c-7.8,5.2 -13.43,-9.13 -13.43,-3.16 -1.34,0 -0.16,1.68 -2.37,4.74 -2.41,3.33 -6.84,16.84 -9.48,22.13 -1.74,0 -5.19,15.44 -6.32,18.18 -0.6,1.46 0.06,2.24 -2.37,7.11 -5.09,10.17 -5.16,22.07 -13.43,31.61 -3.61,4.17 -3.03,6.36 -7.9,12.64 -13.27,17.12 -12.22,17.76 -31.61,30.03 -6.31,4 -3.18,3.96 -12.65,8.69 -8.6,4.3 -48.2,19.76 -56.89,19.76 -6.8,0 -20.2,2.37 -25.44,0.2 -0.98,-0.41 -0.42,1.35 -1.04,1.98 7.65,7.65 18.77,17.6 28.05,21.53 25.21,10.69 64.08,-1.57 69.54,-3.16 42.26,-12.31 49.83,-29.76 71.12,-62.82 36.24,-56.27 -15.81,-79.4 14.22,-109.45z"/>
   <path class="fil3 str0" d="M3583.59 381.05c4.56,0.01 10.45,-0.78 8.26,-5.67 -1.63,-3.63 0.05,-2.86 -3.56,-3.95 -1.46,-0.44 -5.13,-3.14 -5.13,-4.74 -3.41,-1.7 -3.04,-1.47 -6.72,1.19 -3.45,2.49 -2.76,4.36 -3.5,7.7 3.96,1.66 4.43,5.79 10.66,5.47z"/>
   <path class="fil4 str0" d="M3575.65 430.41c5.25,-4.82 -0.93,23.3 -2.38,27.47 -3.18,9.12 -17.88,33.05 -23.72,40.9 -2.38,3.2 -2.86,5.98 -6.55,10.23 -7.51,8.66 -44.43,28.29 -58.95,32.41 -0.41,0.12 -0.8,0.22 -1.18,0.31 -11.82,2.88 -21.63,7.77 -34.36,7.77 -23.32,0 -19.05,1.57 -37.81,-7.8"/>
  </g>
  <g id="_105828279530048">
   <path class="fil5 str0" d="M3913.44 715.17c-7.8,5.2 -13.43,-9.13 -13.43,-3.16 -1.34,0 -0.16,1.68 -2.37,4.74 -2.41,3.33 -6.84,16.83 -9.48,22.13 -1.74,0 -5.19,15.44 -6.32,18.18 -0.6,1.46 0.06,2.25 -2.37,7.11 -5.09,10.17 -5.16,22.07 -13.43,31.61 -3.61,4.17 -3.03,6.36 -7.9,12.64 -13.27,17.13 -12.22,17.76 -31.61,30.03 -6.31,3.99 -3.18,3.96 -12.65,8.69 -8.6,4.3 -48.2,19.76 -56.89,19.76 -6.8,0 -20.2,2.37 -25.44,0.2 -0.98,-0.4 -0.42,1.35 -1.04,1.98 7.65,7.65 18.77,17.6 28.05,21.53 25.21,10.69 64.08,-1.57 69.54,-3.16 42.26,-12.31 49.83,-29.76 71.12,-62.82 36.24,-56.27 -15.81,-79.4 14.22,-109.45z"/>
   <path class="fil3 str0" d="M3911.51 716.09c4.56,0.01 10.45,-0.78 8.26,-5.66 -1.63,-3.63 0.05,-2.86 -3.56,-3.95 -1.46,-0.44 -5.13,-3.14 -5.13,-4.74 -3.41,-1.7 -3.04,-1.47 -6.72,1.18 -3.45,2.49 -2.76,4.36 -3.5,7.7 3.96,1.66 4.43,5.79 10.66,5.47z"/>
   <path class="fil4 str0" d="M3903.57 765.45c5.25,-4.82 -0.93,23.3 -2.38,27.47 -3.18,9.12 -17.88,33.05 -23.72,40.9 -2.38,3.2 -2.86,5.98 -6.55,10.23 -7.51,8.66 -44.43,28.29 -58.95,32.41 -0.41,0.12 -0.8,0.22 -1.18,0.31 -11.82,2.88 -21.63,7.77 -34.36,7.77 -23.32,0 -19.05,1.57 -37.81,-7.8"/>
  </g>
  <g id="_105828350886912">
   <path class="fil5 str0" d="M4215.98 227.75c-7.8,5.2 -13.43,-9.13 -13.43,-3.16 -1.34,0 -0.16,1.68 -2.37,4.74 -2.41,3.33 -6.84,16.83 -9.48,22.13 -1.74,0 -5.19,15.44 -6.32,18.18 -0.6,1.46 0.06,2.25 -2.37,7.11 -5.09,10.17 -5.16,22.07 -13.43,31.61 -3.61,4.17 -3.03,6.36 -7.9,12.64 -13.27,17.13 -12.22,17.76 -31.61,30.03 -6.31,3.99 -3.18,3.96 -12.65,8.69 -8.6,4.3 -48.2,19.76 -56.89,19.76 -6.8,0 -20.2,2.37 -25.44,0.2 -0.98,-0.4 -0.42,1.35 -1.04,1.98 7.65,7.65 18.77,17.6 28.05,21.53 25.21,10.69 64.08,-1.57 69.54,-3.16 42.26,-12.31 49.83,-29.76 71.12,-62.82 36.24,-56.27 -15.81,-79.4 14.22,-109.45z"/>
   <path class="fil3 str0" d="M4214.04 228.68c4.56,0.01 10.45,-0.78 8.26,-5.66 -1.63,-3.63 0.05,-2.86 -3.56,-3.95 -1.46,-0.44 -5.13,-3.14 -5.13,-4.74 -3.41,-1.7 -3.04,-1.47 -6.72,1.18 -3.45,2.49 -2.76,4.36 -3.5,7.7 3.96,1.66 4.43,5.79 10.66,5.47z"/>
   <path class="fil4 str0" d="M4206.1 278.03c5.25,-4.82 -0.93,23.3 -2.38,27.47 -3.18,9.12 -17.88,33.05 -23.72,40.9 -2.38,3.2 -2.86,5.98 -6.55,10.23 -7.51,8.66 -44.43,28.29 -58.95,32.41 -0.41,0.12 -0.8,0.22 -1.18,0.31 -11.82,2.88 -21.63,7.77 -34.36,7.77 -23.32,0 -19.05,1.57 -37.81,-7.8"/>
  </g>
  <g id="_105828432697920">
   <path class="fil5 str0" d="M4384.13 728.33c-7.8,5.2 -13.43,-9.13 -13.43,-3.16 -1.34,0 -0.16,1.68 -2.37,4.74 -2.41,3.33 -6.84,16.83 -9.48,22.13 -1.74,0 -5.19,15.44 -6.32,18.18 -0.6,1.46 0.06,2.25 -2.37,7.11 -5.09,10.17 -5.16,22.07 -13.43,31.61 -3.61,4.17 -3.03,6.36 -7.9,12.64 -13.27,17.13 -12.22,17.76 -31.61,30.03 -6.31,3.99 -3.18,3.96 -12.65,8.69 -8.6,4.3 -48.2,19.76 -56.89,19.76 -6.8,0 -20.2,2.37 -25.44,0.2 -0.98,-0.4 -0.42,1.35 -1.04,1.98 7.65,7.65 18.77,17.6 28.05,21.53 25.21,10.69 64.08,-1.57 69.54,-3.16 42.26,-12.31 49.83,-29.76 71.12,-62.82 36.24,-56.27 -15.81,-79.4 14.22,-109.45z"/>
   <path class="fil3 str0" d="M4382.19 729.26c4.56,0.01 10.45,-0.78 8.26,-5.66 -1.63,-3.63 0.05,-2.86 -3.56,-3.95 -1.46,-0.44 -5.13,-3.14 -5.13,-4.74 -3.41,-1.7 -3.04,-1.47 -6.72,1.18 -3.45,2.49 -2.76,4.36 -3.5,7.7 3.96,1.66 4.43,5.79 10.66,5.47z"/>
   <path class="fil4 str0" d="M4374.25 778.61c5.25,-4.82 -0.93,23.3 -2.38,27.47 -3.18,9.12 -17.88,33.05 -23.72,40.9 -2.38,3.2 -2.86,5.98 -6.55,10.23 -7.51,8.66 -44.43,28.29 -58.95,32.41 -0.41,0.12 -0.8,0.22 -1.18,0.31 -11.82,2.88 -21.63,7.77 -34.36,7.77 -23.32,0 -19.05,1.57 -37.81,-7.8"/>
  </g>
  <g id="_105828476755840">
   <path class="fil5 str0" d="M3252.43 44.84c-7.8,5.2 -13.43,-9.13 -13.43,-3.16 -1.34,0 -0.16,1.68 -2.37,4.74 -2.41,3.33 -6.84,16.83 -9.48,22.13 -1.74,0 -5.19,15.44 -6.32,18.18 -0.6,1.46 0.06,2.25 -2.37,7.11 -5.09,10.17 -5.16,22.07 -13.43,31.61 -3.61,4.17 -3.03,6.36 -7.9,12.64 -13.27,17.13 -12.22,17.76 -31.61,30.03 -6.31,3.99 -3.18,3.96 -12.65,8.69 -8.6,4.3 -48.2,19.76 -56.89,19.76 -6.8,0 -20.2,2.37 -25.44,0.2 -0.98,-0.4 -0.42,1.35 -1.04,1.98 7.65,7.65 18.77,17.6 28.05,21.53 25.21,10.69 64.08,-1.57 69.54,-3.16 42.26,-12.31 49.83,-29.76 71.12,-62.82 36.24,-56.27 -15.81,-79.4 14.22,-109.45z"/>
   <path class="fil3 str0" d="M3250.5 45.76c4.56,0.01 10.45,-0.78 8.26,-5.66 -1.63,-3.63 0.05,-2.86 -3.56,-3.95 -1.46,-0.44 -5.13,-3.14 -5.13,-4.74 -3.41,-1.7 -3.04,-1.47 -6.72,1.18 -3.45,2.49 -2.76,4.36 -3.5,7.7 3.96,1.66 4.43,5.79 10.66,5.47z"/>
   <path class="fil4 str0" d="M3242.56 95.11c5.25,-4.82 -0.93,23.3 -2.38,27.47 -3.18,9.12 -17.88,33.05 -23.72,40.9 -2.38,3.2 -2.86,5.98 -6.55,10.23 -7.51,8.66 -44.43,28.29 -58.95,32.41 -0.41,0.12 -0.8,0.22 -1.18,0.31 -11.82,2.88 -21.63,7.77 -34.36,7.77 -23.32,0 -19.05,1.57 -37.81,-7.8"/>
  </g>
  <g id="_105828692731072">
   <path class="fil5 str0" d="M3095.56 621.89c-7.8,5.2 -13.43,-9.13 -13.43,-3.16 -1.34,0 -0.16,1.68 -2.37,4.74 -2.41,3.33 -6.84,16.83 -9.48,22.13 -1.74,0 -5.19,15.44 -6.32,18.18 -0.6,1.46 0.06,2.25 -2.37,7.11 -5.09,10.17 -5.16,22.07 -13.43,31.61 -3.61,4.17 -3.03,6.36 -7.9,12.64 -13.27,17.13 -12.22,17.76 -31.61,30.03 -6.31,3.99 -3.18,3.96 -12.65,8.69 -8.6,4.3 -48.2,19.76 -56.89,19.76 -6.8,0 -20.2,2.37 -25.44,0.2 -0.98,-0.4 -0.42,1.35 -1.04,1.98 7.65,7.65 18.77,17.6 28.05,21.53 25.21,10.69 64.08,-1.57 69.54,-3.16 42.26,-12.31 49.83,-29.76 71.12,-62.82 36.24,-56.27 -15.81,-79.4 14.22,-109.45z"/>
   <path class="fil3 str0" d="M3093.63 622.81c4.56,0.01 10.45,-0.78 8.26,-5.66 -1.63,-3.63 0.05,-2.86 -3.56,-3.95 -1.46,-0.44 -5.13,-3.14 -5.13,-4.74 -3.41,-1.7 -3.04,-1.47 -6.72,1.18 -3.45,2.49 -2.76,4.36 -3.5,7.7 3.96,1.66 4.43,5.79 10.66,5.47z"/>
   <path class="fil4 str0" d="M3085.69 672.17c5.25,-4.82 -0.93,23.3 -2.38,27.47 -3.18,9.12 -17.88,33.05 -23.72,40.9 -2.38,3.2 -2.86,5.98 -6.55,10.23 -7.51,8.66 -44.43,28.29 -58.95,32.41 -0.41,0.12 -0.8,0.22 -1.18,0.31 -11.82,2.88 -21.63,7.77 -34.36,7.77 -23.32,0 -19.05,1.57 -37.81,-7.8"/>
  </g>
  <g id="_105828432703584">
   <path class="fil5 str0" d="M3409.3 1036.47c-7.8,5.2 -13.43,-9.13 -13.43,-3.16 -1.34,0 -0.16,1.68 -2.37,4.74 -2.41,3.33 -6.84,16.83 -9.48,22.13 -1.74,0 -5.19,15.44 -6.32,18.18 -0.6,1.46 0.06,2.25 -2.37,7.11 -5.09,10.17 -5.16,22.07 -13.43,31.61 -3.61,4.17 -3.03,6.36 -7.9,12.64 -13.27,17.13 -12.22,17.76 -31.61,30.03 -6.31,3.99 -3.18,3.96 -12.65,8.69 -8.6,4.3 -48.2,19.76 -56.89,19.76 -6.8,0 -20.2,2.37 -25.44,0.2 -0.98,-0.4 -0.42,1.35 -1.04,1.98 7.65,7.65 18.77,17.6 28.05,21.53 25.21,10.69 64.08,-1.57 69.54,-3.16 42.26,-12.31 49.83,-29.76 71.12,-62.82 36.24,-56.27 -15.81,-79.4 14.22,-109.45z"/>
   <path class="fil3 str0" d="M3407.36 1037.39c4.56,0.01 10.45,-0.78 8.26,-5.66 -1.63,-3.63 0.05,-2.86 -3.56,-3.95 -1.46,-0.44 -5.13,-3.14 -5.13,-4.74 -3.41,-1.7 -3.04,-1.47 -6.72,1.18 -3.45,2.49 -2.76,4.36 -3.5,7.7 3.96,1.66 4.43,5.79 10.66,5.47z"/>
   <path class="fil4 str0" d="M3399.43 1086.75c5.25,-4.82 -0.93,23.3 -2.38,27.47 -3.18,9.12 -17.88,33.05 -23.72,40.9 -2.38,3.2 -2.86,5.98 -6.55,10.23 -7.51,8.66 -44.43,28.29 -58.95,32.41 -0.41,0.12 -0.8,0.22 -1.18,0.31 -11.82,2.88 -21.63,7.77 -34.36,7.77 -23.32,0 -19.05,1.57 -37.81,-7.8"/>
  </g>
  <g id="_105828334100448">
   <path class="fil5 str0" d="M3958.34 1243.76c-7.8,5.2 -13.43,-9.13 -13.43,-3.16 -1.34,0 -0.16,1.68 -2.37,4.74 -2.41,3.33 -6.84,16.83 -9.48,22.13 -1.74,0 -5.19,15.44 -6.32,18.18 -0.6,1.46 0.06,2.25 -2.37,7.11 -5.09,10.17 -5.16,22.07 -13.43,31.61 -3.61,4.17 -3.03,6.36 -7.9,12.64 -13.27,17.13 -12.22,17.76 -31.61,30.03 -6.31,3.99 -3.18,3.96 -12.65,8.69 -8.6,4.3 -48.2,19.76 -56.89,19.76 -6.8,0 -20.2,2.37 -25.44,0.2 -0.98,-0.4 -0.42,1.35 -1.04,1.98 7.65,7.65 18.77,17.6 28.05,21.53 25.21,10.69 64.08,-1.57 69.54,-3.16 42.26,-12.31 49.83,-29.76 71.12,-62.82 36.24,-56.27 -15.81,-79.4 14.22,-109.45z"/>
   <path class="fil3 str0" d="M3956.4 1244.68c4.56,0.01 10.45,-0.78 8.26,-5.66 -1.63,-3.63 0.05,-2.86 -3.56,-3.95 -1.46,-0.44 -5.13,-3.14 -5.13,-4.74 -3.41,-1.7 -3.04,-1.47 -6.72,1.18 -3.45,2.49 -2.76,4.36 -3.5,7.7 3.96,1.66 4.43,5.79 10.66,5.47z"/>
   <path class="fil4 str0" d="M3948.47 1294.04c5.25,-4.82 -0.93,23.3 -2.38,27.47 -3.18,9.12 -17.88,33.05 -23.72,40.9 -2.38,3.2 -2.86,5.98 -6.55,10.23 -7.51,8.66 -44.43,28.29 -58.95,32.41 -0.41,0.12 -0.8,0.22 -1.18,0.31 -11.82,2.88 -21.63,7.77 -34.36,7.77 -23.32,0 -19.05,1.57 -37.81,-7.8"/>
  </g>
  <g id="_105828476761056">
   <path class="fil5 str0" d="M4316.93 1475.32c-7.8,5.2 -13.43,-9.13 -13.43,-3.16 -1.34,0 -0.16,1.68 -2.37,4.74 -2.41,3.33 -6.84,16.83 -9.48,22.13 -1.74,0 -5.19,15.44 -6.32,18.18 -0.6,1.46 0.06,2.25 -2.37,7.11 -5.09,10.17 -5.16,22.07 -13.43,31.61 -3.61,4.17 -3.03,6.36 -7.9,12.64 -13.27,17.13 -12.22,17.76 -31.61,30.03 -6.31,3.99 -3.18,3.96 -12.65,8.69 -8.6,4.3 -48.2,19.76 -56.89,19.76 -6.8,0 -20.2,2.37 -25.44,0.2 -0.98,-0.4 -0.42,1.35 -1.04,1.98 7.65,7.65 18.77,17.6 28.05,21.53 25.21,10.69 64.08,-1.57 69.54,-3.16 42.26,-12.31 49.83,-29.76 71.12,-62.82 36.24,-56.27 -15.81,-79.4 14.22,-109.45z"/>
   <path class="fil3 str0" d="M4314.99 1476.24c4.56,0.01 10.45,-0.78 8.26,-5.66 -1.63,-3.63 0.05,-2.86 -3.56,-3.95 -1.46,-0.44 -5.13,-3.14 -5.13,-4.74 -3.41,-1.7 -3.04,-1.47 -6.72,1.18 -3.45,2.49 -2.76,4.36 -3.5,7.7 3.96,1.66 4.43,5.79 10.66,5.47z"/>
   <path class="fil4 str0" d="M4307.05 1525.6c5.25,-4.82 -0.93,23.3 -2.38,27.47 -3.18,9.12 -17.88,33.05 -23.72,40.9 -2.38,3.2 -2.86,5.98 -6.55,10.23 -7.51,8.66 -44.43,28.29 -58.95,32.41 -0.41,0.12 -0.8,0.22 -1.18,0.31 -11.82,2.88 -21.63,7.77 -34.36,7.77 -23.32,0 -19.05,1.57 -37.81,-7.8"/>
  </g>
  <g id="_105828485123040">
   <path class="fil5 str0" d="M3599.81 1710.62c-7.8,5.2 -13.43,-9.13 -13.43,-3.16 -1.34,0 -0.16,1.68 -2.37,4.74 -2.41,3.33 -6.84,16.83 -9.48,22.13 -1.74,0 -5.19,15.44 -6.32,18.18 -0.6,1.46 0.06,2.25 -2.37,7.11 -5.09,10.17 -5.16,22.07 -13.43,31.61 -3.61,4.17 -3.03,6.36 -7.9,12.64 -13.27,17.13 -12.22,17.76 -31.61,30.03 -6.31,3.99 -3.18,3.96 -12.65,8.69 -8.6,4.3 -48.2,19.76 -56.89,19.76 -6.8,0 -20.2,2.37 -25.44,0.2 -0.98,-0.4 -0.42,1.35 -1.04,1.98 7.65,7.65 18.77,17.6 28.05,21.53 25.21,10.69 64.08,-1.57 69.54,-3.16 42.26,-12.31 49.83,-29.76 71.12,-62.82 36.24,-56.27 -15.81,-79.4 14.22,-109.45z"/>
   <path class="fil3 str0" d="M3597.88 1711.54c4.56,0.01 10.45,-0.78 8.26,-5.66 -1.63,-3.63 0.05,-2.86 -3.56,-3.95 -1.46,-0.44 -5.13,-3.14 -5.13,-4.74 -3.41,-1.7 -3.04,-1.47 -6.72,1.18 -3.45,2.49 -2.76,4.36 -3.5,7.7 3.96,1.66 4.43,5.79 10.66,5.47z"/>
   <path class="fil4 str0" d="M3589.94 1760.9c5.25,-4.82 -0.93,23.3 -2.38,27.47 -3.18,9.12 -17.88,33.05 -23.72,40.9 -2.38,3.2 -2.86,5.98 -6.55,10.23 -7.51,8.66 -44.43,28.29 -58.95,32.41 -0.41,0.12 -0.8,0.22 -1.18,0.31 -11.82,2.88 -21.63,7.77 -34.36,7.77 -23.32,0 -19.05,1.57 -37.81,-7.8"/>
  </g>
  <g id="_105828357114880">
   <path class="fil5 str0" d="M3955.58 1943.31c-7.8,5.2 -13.43,-9.13 -13.43,-3.16 -1.34,0 -0.16,1.68 -2.37,4.74 -2.41,3.33 -6.84,16.83 -9.48,22.13 -1.74,0 -5.19,15.44 -6.32,18.18 -0.6,1.46 0.06,2.25 -2.37,7.11 -5.09,10.17 -5.16,22.07 -13.43,31.61 -3.61,4.17 -3.03,6.36 -7.9,12.64 -13.27,17.13 -12.22,17.76 -31.61,30.03 -6.31,3.99 -3.18,3.96 -12.65,8.69 -8.6,4.3 -48.2,19.76 -56.89,19.76 -6.8,0 -20.2,2.37 -25.44,0.2 -0.98,-0.4 -0.42,1.35 -1.04,1.98 7.65,7.65 18.77,17.6 28.05,21.53 25.21,10.69 64.08,-1.57 69.54,-3.16 42.26,-12.31 49.83,-29.76 71.12,-62.82 36.24,-56.27 -15.81,-79.4 14.22,-109.45z"/>
   <path class="fil3 str0" d="M3953.64 1944.24c4.56,0.01 10.45,-0.78 8.26,-5.66 -1.63,-3.63 0.05,-2.86 -3.56,-3.95 -1.46,-0.44 -5.13,-3.14 -5.13,-4.74 -3.41,-1.7 -3.04,-1.47 -6.72,1.18 -3.45,2.49 -2.76,4.36 -3.5,7.7 3.96,1.66 4.43,5.79 10.66,5.47z"/>
   <path class="fil4 str0" d="M3945.71 1993.59c5.25,-4.82 -0.93,23.3 -2.38,27.47 -3.18,9.12 -17.88,33.05 -23.72,40.9 -2.38,3.2 -2.86,5.98 -6.55,10.23 -7.51,8.66 -44.43,28.29 -58.95,32.41 -0.41,0.12 -0.8,0.22 -1.18,0.31 -11.82,2.88 -21.63,7.77 -34.36,7.77 -23.32,0 -19.05,1.57 -37.81,-7.8"/>
  </g>
  <g id="_105828784960736">
   <path class="fil5 str0" d="M4409.23 2040.15c-7.8,5.2 -13.43,-9.13 -13.43,-3.16 -1.34,0 -0.16,1.68 -2.37,4.74 -2.41,3.33 -6.84,16.83 -9.48,22.13 -1.74,0 -5.19,15.44 -6.32,18.18 -0.6,1.46 0.06,2.25 -2.37,7.11 -5.09,10.17 -5.16,22.07 -13.43,31.61 -3.61,4.17 -3.03,6.36 -7.9,12.64 -13.27,17.13 -12.22,17.76 -31.61,30.03 -6.31,3.99 -3.18,3.96 -12.65,8.69 -8.6,4.3 -48.2,19.76 -56.89,19.76 -6.8,0 -20.2,2.37 -25.44,0.2 -0.98,-0.4 -0.42,1.35 -1.04,1.98 7.65,7.65 18.77,17.6 28.05,21.53 25.21,10.69 64.08,-1.57 69.54,-3.16 42.26,-12.31 49.83,-29.76 71.12,-62.82 36.24,-56.27 -15.81,-79.4 14.22,-109.45z"/>
   <path class="fil3 str0" d="M4407.3 2041.07c4.56,0.01 10.45,-0.78 8.26,-5.66 -1.63,-3.63 0.05,-2.86 -3.56,-3.95 -1.46,-0.44 -5.13,-3.14 -5.13,-4.74 -3.41,-1.7 -3.04,-1.47 -6.72,1.18 -3.45,2.49 -2.76,4.36 -3.5,7.7 3.96,1.66 4.43,5.79 10.66,5.47z"/>
   <path class="fil4 str0" d="M4399.36 2090.43c5.25,-4.82 -0.93,23.3 -2.38,27.47 -3.18,9.12 -17.88,33.05 -23.72,40.9 -2.38,3.2 -2.86,5.98 -6.55,10.23 -7.51,8.66 -44.43,28.29 -58.95,32.41 -0.41,0.12 -0.8,0.22 -1.18,0.31 -11.82,2.88 -21.63,7.77 -34.36,7.77 -23.32,0 -19.05,1.57 -37.81,-7.8"/>
  </g>
  <g id="_105828483030848">
   <path class="fil5 str0" d="M3574.47 2353.89c-7.8,5.2 -13.43,-9.13 -13.43,-3.16 -1.34,0 -0.16,1.68 -2.37,4.74 -2.41,3.33 -6.84,16.83 -9.48,22.13 -1.74,0 -5.19,15.44 -6.32,18.18 -0.6,1.46 0.06,2.25 -2.37,7.11 -5.09,10.17 -5.16,22.07 -13.43,31.61 -3.61,4.17 -3.03,6.36 -7.9,12.64 -13.27,17.13 -12.22,17.76 -31.61,30.03 -6.31,3.99 -3.18,3.96 -12.65,8.69 -8.6,4.3 -48.2,19.76 -56.89,19.76 -6.8,0 -20.2,2.37 -25.44,0.2 -0.98,-0.4 -0.42,1.35 -1.04,1.98 7.65,7.65 18.77,17.6 28.05,21.53 25.21,10.69 64.08,-1.57 69.54,-3.16 42.26,-12.31 49.83,-29.76 71.12,-62.82 36.24,-56.27 -15.81,-79.4 14.22,-109.45z"/>
   <path class="fil3 str0" d="M3572.53 2354.81c4.56,0.01 10.45,-0.78 8.26,-5.66 -1.63,-3.63 0.05,-2.86 -3.56,-3.95 -1.46,-0.44 -5.13,-3.14 -5.13,-4.74 -3.41,-1.7 -3.04,-1.47 -6.72,1.18 -3.45,2.49 -2.76,4.36 -3.5,7.7 3.96,1.66 4.43,5.79 10.66,5.47z"/>
   <path class="fil4 str0" d="M3564.59 2404.17c5.25,-4.82 -0.93,23.3 -2.38,27.47 -3.18,9.12 -17.88,33.05 -23.72,40.9 -2.38,3.2 -2.86,5.98 -6.55,10.23 -7.51,8.66 -44.43,28.29 -58.95,32.41 -0.41,0.12 -0.8,0.22 -1.18,0.31 -11.82,2.88 -21.63,7.77 -34.36,7.77 -23.32,0 -19.05,1.57 -37.81,-7.8"/>
  </g>
  <g id="_105828690632256">
   <path class="fil5 str0" d="M3641.7 2858.11c-7.8,5.2 -13.43,-9.13 -13.43,-3.16 -1.34,0 -0.16,1.68 -2.37,4.74 -2.41,3.33 -6.84,16.83 -9.48,22.13 -1.74,0 -5.19,15.44 -6.32,18.18 -0.6,1.46 0.06,2.25 -2.37,7.11 -5.09,10.17 -5.16,22.07 -13.43,31.61 -3.61,4.17 -3.03,6.36 -7.9,12.64 -13.27,17.13 -12.22,17.76 -31.61,30.03 -6.31,3.99 -3.18,3.96 -12.65,8.69 -8.6,4.3 -48.2,19.76 -56.89,19.76 -6.8,0 -20.2,2.37 -25.44,0.2 -0.98,-0.4 -0.42,1.35 -1.04,1.98 7.65,7.65 18.77,17.6 28.05,21.53 25.21,10.69 64.08,-1.57 69.54,-3.16 42.26,-12.31 49.83,-29.76 71.12,-62.82 36.24,-56.27 -15.81,-79.4 14.22,-109.45z"/>
   <path class="fil3 str0" d="M3639.76 2859.03c4.56,0.01 10.45,-0.78 8.26,-5.66 -1.63,-3.63 0.05,-2.86 -3.56,-3.95 -1.46,-0.44 -5.13,-3.14 -5.13,-4.74 -3.41,-1.7 -3.04,-1.47 -6.72,1.18 -3.45,2.49 -2.76,4.36 -3.5,7.7 3.96,1.66 4.43,5.79 10.66,5.47z"/>
   <path class="fil4 str0" d="M3631.82 2908.39c5.25,-4.82 -0.93,23.3 -2.38,27.47 -3.18,9.12 -17.88,33.05 -23.72,40.9 -2.38,3.2 -2.86,5.98 -6.55,10.23 -7.51,8.66 -44.43,28.29 -58.95,32.41 -0.41,0.12 -0.8,0.22 -1.18,0.31 -11.82,2.88 -21.63,7.77 -34.36,7.77 -23.32,0 -19.05,1.57 -37.81,-7.8"/>
  </g>
  <g id="_105828692695104">
   <path class="fil5 str0" d="M3472.9 3477.84c-7.8,5.2 -13.43,-9.13 -13.43,-3.16 -1.34,0 -0.16,1.68 -2.37,4.74 -2.41,3.33 -6.84,16.83 -9.48,22.13 -1.74,0 -5.19,15.44 -6.32,18.18 -0.6,1.46 0.06,2.25 -2.37,7.11 -5.09,10.17 -5.16,22.07 -13.43,31.61 -3.61,4.17 -3.03,6.36 -7.9,12.64 -13.27,17.13 -12.22,17.76 -31.61,30.03 -6.31,3.99 -3.18,3.96 -12.65,8.69 -8.6,4.3 -48.2,19.76 -56.89,19.76 -6.8,0 -20.2,2.37 -25.44,0.2 -0.98,-0.4 -0.42,1.35 -1.04,1.98 7.65,7.65 18.77,17.6 28.05,21.53 25.21,10.69 64.08,-1.57 69.54,-3.16 42.26,-12.31 49.83,-29.76 71.12,-62.82 36.24,-56.27 -15.81,-79.4 14.22,-109.45z"/>
   <path class="fil3 str0" d="M3470.96 3478.76c4.56,0.01 10.45,-0.78 8.26,-5.66 -1.63,-3.63 0.05,-2.86 -3.56,-3.95 -1.46,-0.44 -5.13,-3.14 -5.13,-4.74 -3.41,-1.7 -3.04,-1.47 -6.72,1.18 -3.45,2.49 -2.76,4.36 -3.5,7.7 3.96,1.66 4.43,5.79 10.66,5.47z"/>
   <path class="fil4 str0" d="M3463.02 3528.11c5.25,-4.82 -0.93,23.3 -2.38,27.47 -3.18,9.12 -17.88,33.05 -23.72,40.9 -2.38,3.2 -2.86,5.98 -6.55,10.23 -7.51,8.66 -44.43,28.29 -58.95,32.41 -0.41,0.12 -0.8,0.22 -1.18,0.31 -11.82,2.88 -21.63,7.77 -34.36,7.77 -23.32,0 -19.05,1.57 -37.81,-7.8"/>
  </g>
  <g id="_105828608772320">
   <path class="fil5 str0" d="M3680.48 3916.97c-7.8,5.2 -13.43,-9.13 -13.43,-3.16 -1.34,0 -0.16,1.68 -2.37,4.74 -2.41,3.33 -6.84,16.83 -9.48,22.13 -1.74,0 -5.19,15.44 -6.32,18.18 -0.6,1.46 0.06,2.25 -2.37,7.11 -5.09,10.17 -5.16,22.07 -13.43,31.61 -3.61,4.17 -3.03,6.36 -7.9,12.64 -13.27,17.13 -12.22,17.76 -31.61,30.03 -6.31,3.99 -3.18,3.96 -12.65,8.69 -8.6,4.3 -48.2,19.76 -56.89,19.76 -6.8,0 -20.2,2.37 -25.44,0.2 -0.98,-0.4 -0.42,1.35 -1.04,1.98 7.65,7.65 18.77,17.6 28.05,21.53 25.21,10.69 64.08,-1.57 69.54,-3.16 42.26,-12.31 49.83,-29.76 71.12,-62.82 36.24,-56.27 -15.81,-79.4 14.22,-109.45z"/>
   <path class="fil3 str0" d="M3678.55 3917.9c4.56,0.01 10.45,-0.78 8.26,-5.66 -1.63,-3.63 0.05,-2.86 -3.56,-3.95 -1.46,-0.44 -5.13,-3.14 -5.13,-4.74 -3.41,-1.7 -3.04,-1.47 -6.72,1.18 -3.45,2.49 -2.76,4.36 -3.5,7.7 3.96,1.66 4.43,5.79 10.66,5.47z"/>
   <path class="fil4 str0" d="M3670.61 3967.25c5.25,-4.82 -0.93,23.3 -2.38,27.47 -3.18,9.12 -17.88,33.05 -23.72,40.9 -2.38,3.2 -2.86,5.98 -6.55,10.23 -7.51,8.66 -44.43,28.29 -58.95,32.41 -0.41,0.12 -0.8,0.22 -1.18,0.31 -11.82,2.88 -21.63,7.77 -34.36,7.77 -23.32,0 -19.05,1.57 -37.81,-7.8"/>
  </g>
  <g id="_105828371860000">
   <path class="fil5 str0" d="M3479.32 4436.21c-7.8,5.2 -13.43,-9.13 -13.43,-3.16 -1.34,0 -0.16,1.68 -2.37,4.74 -2.41,3.33 -6.84,16.83 -9.48,22.13 -1.74,0 -5.19,15.44 -6.32,18.18 -0.6,1.46 0.06,2.25 -2.37,7.11 -5.09,10.17 -5.16,22.07 -13.43,31.61 -3.61,4.17 -3.03,6.36 -7.9,12.64 -13.27,17.13 -12.22,17.76 -31.61,30.03 -6.31,3.99 -3.18,3.96 -12.65,8.69 -8.6,4.3 -48.2,19.76 -56.89,19.76 -6.8,0 -20.2,2.37 -25.44,0.2 -0.98,-0.4 -0.42,1.35 -1.04,1.98 7.65,7.65 18.77,17.6 28.05,21.53 25.21,10.69 64.08,-1.57 69.54,-3.16 42.26,-12.31 49.83,-29.76 71.12,-62.82 36.24,-56.27 -15.81,-79.4 14.22,-109.45z"/>
   <path class="fil3 str0" d="M3477.39 4437.13c4.56,0.01 10.45,-0.78 8.26,-5.66 -1.63,-3.63 0.05,-2.86 -3.56,-3.95 -1.46,-0.44 -5.13,-3.14 -5.13,-4.74 -3.41,-1.7 -3.04,-1.47 -6.72,1.18 -3.45,2.49 -2.76,4.36 -3.5,7.7 3.96,1.66 4.43,5.79 10.66,5.47z"/>
   <path class="fil4 str0" d="M3469.45 4486.49c5.25,-4.82 -0.93,23.3 -2.38,27.47 -3.18,9.12 -17.88,33.05 -23.72,40.9 -2.38,3.2 -2.86,5.98 -6.55,10.23 -7.51,8.66 -44.43,28.29 -58.95,32.41 -0.41,0.12 -0.8,0.22 -1.18,0.31 -11.82,2.88 -21.63,7.77 -34.36,7.77 -23.32,0 -19.05,1.57 -37.81,-7.8"/>
  </g>
  <g id="_105828579464192">
   <path class="fil5 str0" d="M3664.21 4772.36c-7.8,5.2 -13.43,-9.13 -13.43,-3.16 -1.34,0 -0.16,1.68 -2.37,4.74 -2.41,3.33 -6.84,16.83 -9.48,22.13 -1.74,0 -5.19,15.44 -6.32,18.18 -0.6,1.46 0.06,2.25 -2.37,7.11 -5.09,10.17 -5.16,22.07 -13.43,31.61 -3.61,4.17 -3.03,6.36 -7.9,12.64 -13.27,17.13 -12.22,17.76 -31.61,30.03 -6.31,3.99 -3.18,3.96 -12.65,8.69 -8.6,4.3 -48.2,19.76 -56.89,19.76 -6.8,0 -20.2,2.37 -25.44,0.2 -0.98,-0.4 -0.42,1.35 -1.04,1.98 7.65,7.65 18.77,17.6 28.05,21.53 25.21,10.69 64.08,-1.57 69.54,-3.16 42.26,-12.31 49.83,-29.76 71.12,-62.82 36.24,-56.27 -15.81,-79.4 14.22,-109.45z"/>
   <path class="fil3 str0" d="M3662.27 4773.28c4.56,0.01 10.45,-0.78 8.26,-5.66 -1.63,-3.63 0.05,-2.86 -3.56,-3.95 -1.46,-0.44 -5.13,-3.14 -5.13,-4.74 -3.41,-1.7 -3.04,-1.47 -6.72,1.18 -3.45,2.49 -2.76,4.36 -3.5,7.7 3.96,1.66 4.43,5.79 10.66,5.47z"/>
   <path class="fil4 str0" d="M3654.33 4822.63c5.25,-4.82 -0.93,23.3 -2.38,27.47 -3.18,9.12 -17.88,33.05 -23.72,40.9 -2.38,3.2 -2.86,5.98 -6.55,10.23 -7.51,8.66 -44.43,28.29 -58.95,32.41 -0.41,0.12 -0.8,0.22 -1.18,0.31 -11.82,2.88 -21.63,7.77 -34.36,7.77 -23.32,0 -19.05,1.57 -37.81,-7.8"/>
  </g>
  <g id="_105828482987520">
   <path class="fil5 str0" d="M3619.26 5234.35c-7.8,5.2 -13.43,-9.13 -13.43,-3.16 -1.34,0 -0.16,1.68 -2.37,4.74 -2.41,3.33 -6.84,16.83 -9.48,22.13 -1.74,0 -5.19,15.44 -6.32,18.18 -0.6,1.46 0.06,2.25 -2.37,7.11 -5.09,10.17 -5.16,22.07 -13.43,31.61 -3.61,4.17 -3.03,6.36 -7.9,12.64 -13.27,17.13 -12.22,17.76 -31.61,30.03 -6.31,3.99 -3.18,3.96 -12.65,8.69 -8.6,4.3 -48.2,19.76 -56.89,19.76 -6.8,0 -20.2,2.37 -25.44,0.2 -0.98,-0.4 -0.42,1.35 -1.04,1.98 7.65,7.65 18.77,17.6 28.05,21.53 25.21,10.69 64.08,-1.57 69.54,-3.16 42.26,-12.31 49.83,-29.76 71.12,-62.82 36.24,-56.27 -15.81,-79.4 14.22,-109.45z"/>
   <path class="fil3 str0" d="M3617.32 5235.27c4.56,0.01 10.45,-0.78 8.26,-5.66 -1.63,-3.63 0.05,-2.86 -3.56,-3.95 -1.46,-0.44 -5.13,-3.14 -5.13,-4.74 -3.41,-1.7 -3.04,-1.47 -6.72,1.18 -3.45,2.49 -2.76,4.36 -3.5,7.7 3.96,1.66 4.43,5.79 10.66,5.47z"/>
   <path class="fil4 str0" d="M3609.39 5284.63c5.25,-4.82 -0.93,23.3 -2.38,27.47 -3.18,9.12 -17.88,33.05 -23.72,40.9 -2.38,3.2 -2.86,5.98 -6.55,10.23 -7.51,8.66 -44.43,28.29 -58.95,32.41 -0.41,0.12 -0.8,0.22 -1.18,0.31 -11.82,2.88 -21.63,7.77 -34.36,7.77 -23.32,0 -19.05,1.57 -37.81,-7.8"/>
  </g>
  <g id="_105828694852672">
   <path class="fil2 str0" d="M1762.9 217.37c-7.8,5.2 -13.43,-9.13 -13.43,-3.16 -1.34,0 -0.16,1.68 -2.37,4.74 -2.41,3.33 -6.84,16.84 -9.48,22.13 -1.74,0 -5.19,15.44 -6.32,18.18 -0.6,1.46 0.06,2.24 -2.37,7.11 -5.09,10.17 -5.16,22.07 -13.43,31.61 -3.61,4.17 -3.03,6.36 -7.9,12.64 -13.27,17.12 -12.22,17.76 -31.61,30.03 -6.31,4 -3.18,3.96 -12.65,8.69 -8.6,4.3 -48.2,19.76 -56.89,19.76 -6.8,0 -20.2,2.37 -25.44,0.2 -0.98,-0.41 -0.42,1.35 -1.04,1.98 7.65,7.65 18.77,17.6 28.05,21.53 25.21,10.69 64.08,-1.57 69.54,-3.16 42.26,-12.31 49.83,-29.76 71.12,-62.82 36.24,-56.27 -15.81,-79.4 14.22,-109.45z"/>
   <path class="fil3 str0" d="M1760.97 218.29c4.56,0.01 10.45,-0.78 8.26,-5.67 -1.63,-3.63 0.05,-2.86 -3.56,-3.95 -1.46,-0.44 -5.13,-3.14 -5.13,-4.74 -3.41,-1.7 -3.04,-1.47 -6.72,1.19 -3.45,2.49 -2.76,4.36 -3.5,7.7 3.96,1.66 4.43,5.79 10.66,5.47z"/>
   <path class="fil4 str0" d="M1753.03 267.65c5.25,-4.82 -0.93,23.3 -2.38,27.47 -3.18,9.12 -17.88,33.05 -23.72,40.9 -2.38,3.2 -2.86,5.98 -6.55,10.23 -7.51,8.66 -44.43,28.29 -58.95,32.41 -0.41,0.12 -0.8,0.22 -1.18,0.31 -11.82,2.88 -21.63,7.77 -34.36,7.77 -23.32,0 -19.05,1.57 -37.81,-7.8"/>
  </g>
  <g id="_105828497625152">
   <path class="fil5 str0" d="M2090.82 552.41c-7.8,5.2 -13.43,-9.13 -13.43,-3.16 -1.34,0 -0.16,1.68 -2.37,4.74 -2.41,3.33 -6.84,16.83 -9.48,22.13 -1.74,0 -5.19,15.44 -6.32,18.18 -0.6,1.46 0.06,2.25 -2.37,7.11 -5.09,10.17 -5.16,22.07 -13.43,31.61 -3.61,4.17 -3.03,6.36 -7.9,12.64 -13.27,17.13 -12.22,17.76 -31.61,30.03 -6.31,3.99 -3.18,3.96 -12.65,8.69 -8.6,4.3 -48.2,19.76 -56.89,19.76 -6.8,0 -20.2,2.37 -25.44,0.2 -0.98,-0.4 -0.42,1.35 -1.04,1.98 7.65,7.65 18.77,17.6 28.05,21.53 25.21,10.69 64.08,-1.57 69.54,-3.16 42.26,-12.31 49.83,-29.76 71.12,-62.82 36.24,-56.27 -15.81,-79.4 14.22,-109.45z"/>
   <path class="fil3 str0" d="M2088.88 553.33c4.56,0.01 10.45,-0.78 8.26,-5.66 -1.63,-3.63 0.05,-2.86 -3.56,-3.95 -1.46,-0.44 -5.13,-3.14 -5.13,-4.74 -3.41,-1.7 -3.04,-1.47 -6.72,1.18 -3.45,2.49 -2.76,4.36 -3.5,7.7 3.96,1.66 4.43,5.79 10.66,5.47z"/>
   <path class="fil4 str0" d="M2080.94 602.69c5.25,-4.82 -0.93,23.3 -2.38,27.47 -3.18,9.12 -17.88,33.05 -23.72,40.9 -2.38,3.2 -2.86,5.98 -6.55,10.23 -7.51,8.66 -44.43,28.29 -58.95,32.41 -0.41,0.12 -0.8,0.22 -1.18,0.31 -11.82,2.88 -21.63,7.77 -34.36,7.77 -23.32,0 -19.05,1.57 -37.81,-7.8"/>
  </g>
  <g id="_105828357119744">
   <path class="fil5 str0" d="M2393.35 65c-7.8,5.2 -13.43,-9.13 -13.43,-3.16 -1.34,0 -0.16,1.68 -2.37,4.74 -2.41,3.33 -6.84,16.83 -9.48,22.13 -1.74,0 -5.19,15.44 -6.32,18.18 -0.6,1.46 0.06,2.25 -2.37,7.11 -5.09,10.17 -5.16,22.07 -13.43,31.61 -3.61,4.17 -3.03,6.36 -7.9,12.64 -13.27,17.13 -12.22,17.76 -31.61,30.03 -6.31,3.99 -3.18,3.96 -12.65,8.69 -8.6,4.3 -48.2,19.76 -56.89,19.76 -6.8,0 -20.2,2.37 -25.44,0.2 -0.98,-0.4 -0.42,1.35 -1.04,1.98 7.65,7.65 18.77,17.6 28.05,21.53 25.21,10.69 64.08,-1.57 69.54,-3.16 42.26,-12.31 49.83,-29.76 71.12,-62.82 36.24,-56.27 -15.81,-79.4 14.22,-109.45z"/>
   <path class="fil3 str0" d="M2391.42 65.92c4.56,0.01 10.45,-0.78 8.26,-5.66 -1.63,-3.63 0.05,-2.86 -3.56,-3.95 -1.46,-0.44 -5.13,-3.14 -5.13,-4.74 -3.41,-1.7 -3.04,-1.47 -6.72,1.18 -3.45,2.49 -2.76,4.36 -3.5,7.7 3.96,1.66 4.43,5.79 10.66,5.47z"/>
   <path class="fil4 str0" d="M2383.48 115.27c5.25,-4.82 -0.93,23.3 -2.38,27.47 -3.18,9.12 -17.88,33.05 -23.72,40.9 -2.38,3.2 -2.86,5.98 -6.55,10.23 -7.51,8.66 -44.43,28.29 -58.95,32.41 -0.41,0.12 -0.8,0.22 -1.18,0.31 -11.82,2.88 -21.63,7.77 -34.36,7.77 -23.32,0 -19.05,1.57 -37.81,-7.8"/>
  </g>
  <g id="_105828447409888">
   <path class="fil5 str0" d="M2561.5 565.58c-7.8,5.2 -13.43,-9.13 -13.43,-3.16 -1.34,0 -0.16,1.68 -2.37,4.74 -2.41,3.33 -6.84,16.83 -9.48,22.13 -1.74,0 -5.19,15.44 -6.32,18.18 -0.6,1.46 0.06,2.25 -2.37,7.11 -5.09,10.17 -5.16,22.07 -13.43,31.61 -3.61,4.17 -3.03,6.36 -7.9,12.64 -13.27,17.13 -12.22,17.76 -31.61,30.03 -6.31,3.99 -3.18,3.96 -12.65,8.69 -8.6,4.3 -48.2,19.76 -56.89,19.76 -6.8,0 -20.2,2.37 -25.44,0.2 -0.98,-0.4 -0.42,1.35 -1.04,1.98 7.65,7.65 18.77,17.6 28.05,21.53 25.21,10.69 64.08,-1.57 69.54,-3.16 42.26,-12.31 49.83,-29.76 71.12,-62.82 36.24,-56.27 -15.81,-79.4 14.22,-109.45z"/>
   <path class="fil3 str0" d="M2559.57 566.5c4.56,0.01 10.45,-0.78 8.26,-5.66 -1.63,-3.63 0.05,-2.86 -3.56,-3.95 -1.46,-0.44 -5.13,-3.14 -5.13,-4.74 -3.41,-1.7 -3.04,-1.47 -6.72,1.18 -3.45,2.49 -2.76,4.36 -3.5,7.7 3.96,1.66 4.43,5.79 10.66,5.47z"/>
   <path class="fil4 str0" d="M2551.63 615.85c5.25,-4.82 -0.93,23.3 -2.38,27.47 -3.18,9.12 -17.88,33.05 -23.72,40.9 -2.38,3.2 -2.86,5.98 -6.55,10.23 -7.51,8.66 -44.43,28.29 -58.95,32.41 -0.41,0.12 -0.8,0.22 -1.18,0.31 -11.82,2.88 -21.63,7.77 -34.36,7.77 -23.32,0 -19.05,1.57 -37.81,-7.8"/>
  </g>
  <g id="_105828696862752">
   <path class="fil5 str0" d="M1112.42 47.79c-7.8,5.2 -13.43,-9.13 -13.43,-3.16 -1.34,0 -0.16,1.68 -2.37,4.74 -2.41,3.33 -6.84,16.83 -9.48,22.13 -1.74,0 -5.19,15.44 -6.32,18.18 -0.6,1.46 0.06,2.25 -2.37,7.11 -5.09,10.17 -5.16,22.07 -13.43,31.61 -3.61,4.17 -3.03,6.36 -7.9,12.64 -13.27,17.13 -12.22,17.76 -31.61,30.03 -6.31,3.99 -3.18,3.96 -12.65,8.69 -8.6,4.3 -48.2,19.76 -56.89,19.76 -6.8,0 -20.2,2.37 -25.44,0.2 -0.98,-0.4 -0.42,1.35 -1.04,1.98 7.65,7.65 18.77,17.6 28.05,21.53 25.21,10.69 64.08,-1.57 69.54,-3.16 42.26,-12.31 49.83,-29.76 71.12,-62.82 36.24,-56.27 -15.81,-79.4 14.22,-109.45z"/>
   <path class="fil3 str0" d="M1110.48 48.72c4.56,0.01 10.45,-0.78 8.26,-5.66 -1.63,-3.63 0.05,-2.86 -3.56,-3.95 -1.46,-0.44 -5.13,-3.14 -5.13,-4.74 -3.41,-1.7 -3.04,-1.47 -6.72,1.18 -3.45,2.49 -2.76,4.36 -3.5,7.7 3.96,1.66 4.43,5.79 10.66,5.47z"/>
   <path class="fil4 str0" d="M1102.54 98.07c5.25,-4.82 -0.93,23.3 -2.38,27.47 -3.18,9.12 -17.88,33.05 -23.72,40.9 -2.38,3.2 -2.86,5.98 -6.55,10.23 -7.51,8.66 -44.43,28.29 -58.95,32.41 -0.41,0.12 -0.8,0.22 -1.18,0.31 -11.82,2.88 -21.63,7.77 -34.36,7.77 -23.32,0 -19.05,1.57 -37.81,-7.8"/>
  </g>
  <g id="_105828782922720">
   <path class="fil5 str0" d="M1272.94 459.13c-7.8,5.2 -13.43,-9.13 -13.43,-3.16 -1.34,0 -0.16,1.68 -2.37,4.74 -2.41,3.33 -6.84,16.83 -9.48,22.13 -1.74,0 -5.19,15.44 -6.32,18.18 -0.6,1.46 0.06,2.25 -2.37,7.11 -5.09,10.17 -5.16,22.07 -13.43,31.61 -3.61,4.17 -3.03,6.36 -7.9,12.64 -13.27,17.13 -12.22,17.76 -31.61,30.03 -6.31,3.99 -3.18,3.96 -12.65,8.69 -8.6,4.3 -48.2,19.76 -56.89,19.76 -6.8,0 -20.2,2.37 -25.44,0.2 -0.98,-0.4 -0.42,1.35 -1.04,1.98 7.65,7.65 18.77,17.6 28.05,21.53 25.21,10.69 64.08,-1.57 69.54,-3.16 42.26,-12.31 49.83,-29.76 71.12,-62.82 36.24,-56.27 -15.81,-79.4 14.22,-109.45z"/>
   <path class="fil3 str0" d="M1271 460.05c4.56,0.01 10.45,-0.78 8.26,-5.66 -1.63,-3.63 0.05,-2.86 -3.56,-3.95 -1.46,-0.44 -5.13,-3.14 -5.13,-4.74 -3.41,-1.7 -3.04,-1.47 -6.72,1.18 -3.45,2.49 -2.76,4.36 -3.5,7.7 3.96,1.66 4.43,5.79 10.66,5.47z"/>
   <path class="fil4 str0" d="M1263.06 509.41c5.25,-4.82 -0.93,23.3 -2.38,27.47 -3.18,9.12 -17.88,33.05 -23.72,40.9 -2.38,3.2 -2.86,5.98 -6.55,10.23 -7.51,8.66 -44.43,28.29 -58.95,32.41 -0.41,0.12 -0.8,0.22 -1.18,0.31 -11.82,2.88 -21.63,7.77 -34.36,7.77 -23.32,0 -19.05,1.57 -37.81,-7.8"/>
  </g>
  <g id="_105828539572768">
   <path class="fil5 str0" d="M1586.68 873.71c-7.8,5.2 -13.43,-9.13 -13.43,-3.16 -1.34,0 -0.16,1.68 -2.37,4.74 -2.41,3.33 -6.84,16.83 -9.48,22.13 -1.74,0 -5.19,15.44 -6.32,18.18 -0.6,1.46 0.06,2.25 -2.37,7.11 -5.09,10.17 -5.16,22.07 -13.43,31.61 -3.61,4.17 -3.03,6.36 -7.9,12.64 -13.27,17.13 -12.22,17.76 -31.61,30.03 -6.31,3.99 -3.18,3.96 -12.65,8.69 -8.6,4.3 -48.2,19.76 -56.89,19.76 -6.8,0 -20.2,2.37 -25.44,0.2 -0.98,-0.4 -0.42,1.35 -1.04,1.98 7.65,7.65 18.77,17.6 28.05,21.53 25.21,10.69 64.08,-1.57 69.54,-3.16 42.26,-12.31 49.83,-29.76 71.12,-62.82 36.24,-56.27 -15.81,-79.4 14.22,-109.45z"/>
   <path class="fil3 str0" d="M1584.74 874.63c4.56,0.01 10.45,-0.78 8.26,-5.66 -1.63,-3.63 0.05,-2.86 -3.56,-3.95 -1.46,-0.44 -5.13,-3.14 -5.13,-4.74 -3.41,-1.7 -3.04,-1.47 -6.72,1.18 -3.45,2.49 -2.76,4.36 -3.5,7.7 3.96,1.66 4.43,5.79 10.66,5.47z"/>
   <path class="fil4 str0" d="M1576.8 923.99c5.25,-4.82 -0.93,23.3 -2.38,27.47 -3.18,9.12 -17.88,33.05 -23.72,40.9 -2.38,3.2 -2.86,5.98 -6.55,10.23 -7.51,8.66 -44.43,28.29 -58.95,32.41 -0.41,0.12 -0.8,0.22 -1.18,0.31 -11.82,2.88 -21.63,7.77 -34.36,7.77 -23.32,0 -19.05,1.57 -37.81,-7.8"/>
  </g>
  <g id="_105828338350272">
   <path class="fil5 str0" d="M2135.72 1081c-7.8,5.2 -13.43,-9.13 -13.43,-3.16 -1.34,0 -0.16,1.68 -2.37,4.74 -2.41,3.33 -6.84,16.83 -9.48,22.13 -1.74,0 -5.19,15.44 -6.32,18.18 -0.6,1.46 0.06,2.25 -2.37,7.11 -5.09,10.17 -5.16,22.07 -13.43,31.61 -3.61,4.17 -3.03,6.36 -7.9,12.64 -13.27,17.13 -12.22,17.76 -31.61,30.03 -6.31,3.99 -3.18,3.96 -12.65,8.69 -8.6,4.3 -48.2,19.76 -56.89,19.76 -6.8,0 -20.2,2.37 -25.44,0.2 -0.98,-0.4 -0.42,1.35 -1.04,1.98 7.65,7.65 18.77,17.6 28.05,21.53 25.21,10.69 64.08,-1.57 69.54,-3.16 42.26,-12.31 49.83,-29.76 71.12,-62.82 36.24,-56.27 -15.81,-79.4 14.22,-109.45z"/>
   <path class="fil3 str0" d="M2133.78 1081.92c4.56,0.01 10.45,-0.78 8.26,-5.66 -1.63,-3.63 0.05,-2.86 -3.56,-3.95 -1.46,-0.44 -5.13,-3.14 -5.13,-4.74 -3.41,-1.7 -3.04,-1.47 -6.72,1.18 -3.45,2.49 -2.76,4.36 -3.5,7.7 3.96,1.66 4.43,5.79 10.66,5.47z"/>
   <path class="fil4 str0" d="M2125.84 1131.28c5.25,-4.82 -0.93,23.3 -2.38,27.47 -3.18,9.12 -17.88,33.05 -23.72,40.9 -2.38,3.2 -2.86,5.98 -6.55,10.23 -7.51,8.66 -44.43,28.29 -58.95,32.41 -0.41,0.12 -0.8,0.22 -1.18,0.31 -11.82,2.88 -21.63,7.77 -34.36,7.77 -23.32,0 -19.05,1.57 -37.81,-7.8"/>
  </g>
  <g id="_105828348723744">
   <path class="fil5 str0" d="M2494.3 1312.56c-7.8,5.2 -13.43,-9.13 -13.43,-3.16 -1.34,0 -0.16,1.68 -2.37,4.74 -2.41,3.33 -6.84,16.83 -9.48,22.13 -1.74,0 -5.19,15.44 -6.32,18.18 -0.6,1.46 0.06,2.25 -2.37,7.11 -5.09,10.17 -5.16,22.07 -13.43,31.61 -3.61,4.17 -3.03,6.36 -7.9,12.64 -13.27,17.13 -12.22,17.76 -31.61,30.03 -6.31,3.99 -3.18,3.96 -12.65,8.69 -8.6,4.3 -48.2,19.76 -56.89,19.76 -6.8,0 -20.2,2.37 -25.44,0.2 -0.98,-0.4 -0.42,1.35 -1.04,1.98 7.65,7.65 18.77,17.6 28.05,21.53 25.21,10.69 64.08,-1.57 69.54,-3.16 42.26,-12.31 49.83,-29.76 71.12,-62.82 36.24,-56.27 -15.81,-79.4 14.22,-109.45z"/>
   <path class="fil3 str0" d="M2492.37 1313.48c4.56,0.01 10.45,-0.78 8.26,-5.66 -1.63,-3.63 0.05,-2.86 -3.56,-3.95 -1.46,-0.44 -5.13,-3.14 -5.13,-4.74 -3.41,-1.7 -3.04,-1.47 -6.72,1.18 -3.45,2.49 -2.76,4.36 -3.5,7.7 3.96,1.66 4.43,5.79 10.66,5.47z"/>
   <path class="fil4 str0" d="M2484.43 1362.84c5.25,-4.82 -0.93,23.3 -2.38,27.47 -3.18,9.12 -17.88,33.05 -23.72,40.9 -2.38,3.2 -2.86,5.98 -6.55,10.23 -7.51,8.66 -44.43,28.29 -58.95,32.41 -0.41,0.12 -0.8,0.22 -1.18,0.31 -11.82,2.88 -21.63,7.77 -34.36,7.77 -23.32,0 -19.05,1.57 -37.81,-7.8"/>
  </g>
  <g id="_105828269106016">
   <path class="fil5 str0" d="M546.57 120.63c-7.8,5.2 -13.43,-9.13 -13.43,-3.16 -1.34,0 -0.16,1.68 -2.37,4.74 -2.41,3.33 -6.84,16.83 -9.48,22.13 -1.74,0 -5.19,15.44 -6.32,18.18 -0.6,1.46 0.06,2.25 -2.37,7.11 -5.09,10.17 -5.16,22.07 -13.43,31.61 -3.61,4.17 -3.03,6.36 -7.9,12.64 -13.27,17.13 -12.22,17.76 -31.61,30.03 -6.31,3.99 -3.18,3.96 -12.65,8.69 -8.6,4.3 -48.2,19.76 -56.89,19.76 -6.8,0 -20.2,2.37 -25.44,0.2 -0.98,-0.4 -0.42,1.35 -1.04,1.98 7.65,7.65 18.77,17.6 28.05,21.53 25.21,10.69 64.08,-1.57 69.54,-3.16 42.26,-12.31 49.83,-29.76 71.12,-62.82 36.24,-56.27 -15.81,-79.4 14.22,-109.45z"/>
   <path class="fil3 str0" d="M544.63 121.55c4.56,0.01 10.45,-0.78 8.26,-5.66 -1.63,-3.63 0.05,-2.86 -3.56,-3.95 -1.46,-0.44 -5.13,-3.14 -5.13,-4.74 -3.41,-1.7 -3.04,-1.47 -6.72,1.18 -3.45,2.49 -2.76,4.36 -3.5,7.7 3.96,1.66 4.43,5.79 10.66,5.47z"/>
   <path class="fil4 str0" d="M536.69 170.9c5.25,-4.82 -0.93,23.3 -2.38,27.47 -3.18,9.12 -17.88,33.05 -23.72,40.9 -2.38,3.2 -2.86,5.98 -6.55,10.23 -7.51,8.66 -44.43,28.29 -58.95,32.41 -0.41,0.12 -0.8,0.22 -1.18,0.31 -11.82,2.88 -21.63,7.77 -34.36,7.77 -23.32,0 -19.05,1.57 -37.81,-7.8"/>
  </g>
  <g id="_105828369723936">
   <path class="fil5 str0" d="M489.08 607.94c-7.8,5.2 -13.43,-9.13 -13.43,-3.16 -1.34,0 -0.16,1.68 -2.37,4.74 -2.41,3.33 -6.84,16.83 -9.48,22.13 -1.74,0 -5.19,15.44 -6.32,18.18 -0.6,1.46 0.06,2.25 -2.37,7.11 -5.09,10.17 -5.16,22.07 -13.43,31.61 -3.61,4.17 -3.03,6.36 -7.9,12.64 -13.27,17.13 -12.22,17.76 -31.61,30.03 -6.31,3.99 -3.18,3.96 -12.65,8.69 -8.6,4.3 -48.2,19.76 -56.89,19.76 -6.8,0 -20.2,2.37 -25.44,0.2 -0.98,-0.4 -0.42,1.35 -1.04,1.98 7.65,7.65 18.77,17.6 28.05,21.53 25.21,10.69 64.08,-1.57 69.54,-3.16 42.26,-12.31 49.83,-29.76 71.12,-62.82 36.24,-56.27 -15.81,-79.4 14.22,-109.45z"/>
   <path class="fil3 str0" d="M487.15 608.86c4.56,0.01 10.45,-0.78 8.26,-5.66 -1.63,-3.63 0.05,-2.86 -3.56,-3.95 -1.46,-0.44 -5.13,-3.14 -5.13,-4.74 -3.41,-1.7 -3.04,-1.47 -6.72,1.18 -3.45,2.49 -2.76,4.36 -3.5,7.7 3.96,1.66 4.43,5.79 10.66,5.47z"/>
   <path class="fil4 str0" d="M479.21 658.22c5.25,-4.82 -0.93,23.3 -2.38,27.47 -3.18,9.12 -17.88,33.05 -23.72,40.9 -2.38,3.2 -2.86,5.98 -6.55,10.23 -7.51,8.66 -44.43,28.29 -58.95,32.41 -0.41,0.12 -0.8,0.22 -1.18,0.31 -11.82,2.88 -21.63,7.77 -34.36,7.77 -23.32,0 -19.05,1.57 -37.81,-7.8"/>
  </g>
  <g id="_105828615143200">
   <path class="fil5 str0" d="M864.45 848.84c-7.8,5.2 -13.43,-9.13 -13.43,-3.16 -1.34,0 -0.16,1.68 -2.37,4.74 -2.41,3.33 -6.84,16.83 -9.48,22.13 -1.74,0 -5.19,15.44 -6.32,18.18 -0.6,1.46 0.06,2.25 -2.37,7.11 -5.09,10.17 -5.16,22.07 -13.43,31.61 -3.61,4.17 -3.03,6.36 -7.9,12.64 -13.27,17.13 -12.22,17.76 -31.61,30.03 -6.31,3.99 -3.18,3.96 -12.65,8.69 -8.6,4.3 -48.2,19.76 -56.89,19.76 -6.8,0 -20.2,2.37 -25.44,0.2 -0.98,-0.4 -0.42,1.35 -1.04,1.98 7.65,7.65 18.77,17.6 28.05,21.53 25.21,10.69 64.08,-1.57 69.54,-3.16 42.26,-12.31 49.83,-29.76 71.12,-62.82 36.24,-56.27 -15.81,-79.4 14.22,-109.45z"/>
   <path class="fil3 str0" d="M862.51 849.77c4.56,0.01 10.45,-0.78 8.26,-5.66 -1.63,-3.63 0.05,-2.86 -3.56,-3.95 -1.46,-0.44 -5.13,-3.14 -5.13,-4.74 -3.41,-1.7 -3.04,-1.47 -6.72,1.18 -3.45,2.49 -2.76,4.36 -3.5,7.7 3.96,1.66 4.43,5.79 10.66,5.47z"/>
   <path class="fil4 str0" d="M854.57 899.12c5.25,-4.82 -0.93,23.3 -2.38,27.47 -3.18,9.12 -17.88,33.05 -23.72,40.9 -2.38,3.2 -2.86,5.98 -6.55,10.23 -7.51,8.66 -44.43,28.29 -58.95,32.41 -0.41,0.12 -0.8,0.22 -1.18,0.31 -11.82,2.88 -21.63,7.77 -34.36,7.77 -23.32,0 -19.05,1.57 -37.81,-7.8"/>
  </g>
  <g id="_105828772475360">
   <path class="fil5 str0" d="M1220 1123.04c-7.8,5.2 -13.43,-9.13 -13.43,-3.16 -1.34,0 -0.16,1.68 -2.37,4.74 -2.41,3.33 -6.84,16.83 -9.48,22.13 -1.74,0 -5.19,15.44 -6.32,18.18 -0.6,1.46 0.06,2.25 -2.37,7.11 -5.09,10.17 -5.16,22.07 -13.43,31.61 -3.61,4.17 -3.03,6.36 -7.9,12.64 -13.27,17.13 -12.22,17.76 -31.61,30.03 -6.31,3.99 -3.18,3.96 -12.65,8.69 -8.6,4.3 -48.2,19.76 -56.89,19.76 -6.8,0 -20.2,2.37 -25.44,0.2 -0.98,-0.4 -0.42,1.35 -1.04,1.98 7.65,7.65 18.77,17.6 28.05,21.53 25.21,10.69 64.08,-1.57 69.54,-3.16 42.26,-12.31 49.83,-29.76 71.12,-62.82 36.24,-56.27 -15.81,-79.4 14.22,-109.45z"/>
   <path class="fil3 str0" d="M1218.07 1123.96c4.56,0.01 10.45,-0.78 8.26,-5.66 -1.63,-3.63 0.05,-2.86 -3.56,-3.95 -1.46,-0.44 -5.13,-3.14 -5.13,-4.74 -3.41,-1.7 -3.04,-1.47 -6.72,1.18 -3.45,2.49 -2.76,4.36 -3.5,7.7 3.96,1.66 4.43,5.79 10.66,5.47z"/>
   <path class="fil4 str0" d="M1210.13 1173.32c5.25,-4.82 -0.93,23.3 -2.38,27.47 -3.18,9.12 -17.88,33.05 -23.72,40.9 -2.38,3.2 -2.86,5.98 -6.55,10.23 -7.51,8.66 -44.43,28.29 -58.95,32.41 -0.41,0.12 -0.8,0.22 -1.18,0.31 -11.82,2.88 -21.63,7.77 -34.36,7.77 -23.32,0 -19.05,1.57 -37.81,-7.8"/>
  </g>
  <g id="_105828432699744">
   <path class="fil5 str0" d="M872.65 1509.61c-7.8,5.2 -13.43,-9.13 -13.43,-3.16 -1.34,0 -0.16,1.68 -2.37,4.74 -2.41,3.33 -6.84,16.83 -9.48,22.13 -1.74,0 -5.19,15.44 -6.32,18.18 -0.6,1.46 0.06,2.25 -2.37,7.11 -5.09,10.17 -5.16,22.07 -13.43,31.61 -3.61,4.17 -3.03,6.36 -7.9,12.64 -13.27,17.13 -12.22,17.76 -31.61,30.03 -6.31,3.99 -3.18,3.96 -12.65,8.69 -8.6,4.3 -48.2,19.76 -56.89,19.76 -6.8,0 -20.2,2.37 -25.44,0.2 -0.98,-0.4 -0.42,1.35 -1.04,1.98 7.65,7.65 18.77,17.6 28.05,21.53 25.21,10.69 64.08,-1.57 69.54,-3.16 42.26,-12.31 49.83,-29.76 71.12,-62.82 36.24,-56.27 -15.81,-79.4 14.22,-109.45z"/>
   <path class="fil3 str0" d="M870.72 1510.53c4.56,0.01 10.45,-0.78 8.26,-5.66 -1.63,-3.63 0.05,-2.86 -3.56,-3.95 -1.46,-0.44 -5.13,-3.14 -5.13,-4.74 -3.41,-1.7 -3.04,-1.47 -6.72,1.18 -3.45,2.49 -2.76,4.36 -3.5,7.7 3.96,1.66 4.43,5.79 10.66,5.47z"/>
   <path class="fil4 str0" d="M862.78 1559.89c5.25,-4.82 -0.93,23.3 -2.38,27.47 -3.18,9.12 -17.88,33.05 -23.72,40.9 -2.38,3.2 -2.86,5.98 -6.55,10.23 -7.51,8.66 -44.43,28.29 -58.95,32.41 -0.41,0.12 -0.8,0.22 -1.18,0.31 -11.82,2.88 -21.63,7.77 -34.36,7.77 -23.32,0 -19.05,1.57 -37.81,-7.8"/>
  </g>
  <g id="_105828741015488">
   <path class="fil5 str0" d="M2911.93 1025c-7.8,5.2 -13.43,-9.13 -13.43,-3.16 -1.34,0 -0.16,1.68 -2.37,4.74 -2.41,3.33 -6.84,16.83 -9.48,22.13 -1.74,0 -5.19,15.44 -6.32,18.18 -0.6,1.46 0.06,2.25 -2.37,7.11 -5.09,10.17 -5.16,22.07 -13.43,31.61 -3.61,4.17 -3.03,6.36 -7.9,12.64 -13.27,17.13 -12.22,17.76 -31.61,30.03 -6.31,3.99 -3.18,3.96 -12.65,8.69 -8.6,4.3 -48.2,19.76 -56.89,19.76 -6.8,0 -20.2,2.37 -25.44,0.2 -0.98,-0.4 -0.42,1.35 -1.04,1.98 7.65,7.65 18.77,17.6 28.05,21.53 25.21,10.69 64.08,-1.57 69.54,-3.16 42.26,-12.31 49.83,-29.76 71.12,-62.82 36.24,-56.27 -15.81,-79.4 14.22,-109.45z"/>
   <path class="fil3 str0" d="M2910 1025.92c4.56,0.01 10.45,-0.78 8.26,-5.66 -1.63,-3.63 0.05,-2.86 -3.56,-3.95 -1.46,-0.44 -5.13,-3.14 -5.13,-4.74 -3.41,-1.7 -3.04,-1.47 -6.72,1.18 -3.45,2.49 -2.76,4.36 -3.5,7.7 3.96,1.66 4.43,5.79 10.66,5.47z"/>
   <path class="fil4 str0" d="M2902.06 1075.28c5.25,-4.82 -0.93,23.3 -2.38,27.47 -3.18,9.12 -17.88,33.05 -23.72,40.9 -2.38,3.2 -2.86,5.98 -6.55,10.23 -7.51,8.66 -44.43,28.29 -58.95,32.41 -0.41,0.12 -0.8,0.22 -1.18,0.31 -11.82,2.88 -21.63,7.77 -34.36,7.77 -23.32,0 -19.05,1.57 -37.81,-7.8"/>
  </g>
  <g id="_105828495588160">
   <path class="fil5 str0" d="M2630.97 1990.43c-7.8,5.2 -13.43,-9.13 -13.43,-3.16 -1.34,0 -0.16,1.68 -2.37,4.74 -2.41,3.33 -6.84,16.83 -9.48,22.13 -1.74,0 -5.19,15.44 -6.32,18.18 -0.6,1.46 0.06,2.25 -2.37,7.11 -5.09,10.17 -5.16,22.07 -13.43,31.61 -3.61,4.17 -3.03,6.36 -7.9,12.64 -13.27,17.13 -12.22,17.76 -31.61,30.03 -6.31,3.99 -3.18,3.96 -12.65,8.69 -8.6,4.3 -48.2,19.76 -56.89,19.76 -6.8,0 -20.2,2.37 -25.44,0.2 -0.98,-0.4 -0.42,1.35 -1.04,1.98 7.65,7.65 18.77,17.6 28.05,21.53 25.21,10.69 64.08,-1.57 69.54,-3.16 42.26,-12.31 49.83,-29.76 71.12,-62.82 36.24,-56.27 -15.81,-79.4 14.22,-109.45z"/>
   <path class="fil3 str0" d="M2629.03 1991.36c4.56,0.01 10.45,-0.78 8.26,-5.66 -1.63,-3.63 0.05,-2.86 -3.56,-3.95 -1.46,-0.44 -5.13,-3.14 -5.13,-4.74 -3.41,-1.7 -3.04,-1.47 -6.72,1.18 -3.45,2.49 -2.76,4.36 -3.5,7.7 3.96,1.66 4.43,5.79 10.66,5.47z"/>
   <path class="fil4 str0" d="M2621.09 2040.71c5.25,-4.82 -0.93,23.3 -2.38,27.47 -3.18,9.12 -17.88,33.05 -23.72,40.9 -2.38,3.2 -2.86,5.98 -6.55,10.23 -7.51,8.66 -44.43,28.29 -58.95,32.41 -0.41,0.12 -0.8,0.22 -1.18,0.31 -11.82,2.88 -21.63,7.77 -34.36,7.77 -23.32,0 -19.05,1.57 -37.81,-7.8"/>
  </g>
  <g id="_105828753561888">
   <path class="fil5 str0" d="M2474.1 2505.86c-7.8,5.2 -13.43,-9.13 -13.43,-3.16 -1.34,0 -0.16,1.68 -2.37,4.74 -2.41,3.33 -6.84,16.83 -9.48,22.13 -1.74,0 -5.19,15.44 -6.32,18.18 -0.6,1.46 0.06,2.25 -2.37,7.11 -5.09,10.17 -5.16,22.07 -13.43,31.61 -3.61,4.17 -3.03,6.36 -7.9,12.64 -13.27,17.13 -12.22,17.76 -31.61,30.03 -6.31,3.99 -3.18,3.96 -12.65,8.69 -8.6,4.3 -48.2,19.76 -56.89,19.76 -6.8,0 -20.2,2.37 -25.44,0.2 -0.98,-0.4 -0.42,1.35 -1.04,1.98 7.65,7.65 18.77,17.6 28.05,21.53 25.21,10.69 64.08,-1.57 69.54,-3.16 42.26,-12.31 49.83,-29.76 71.12,-62.82 36.24,-56.27 -15.81,-79.4 14.22,-109.45z"/>
   <path class="fil3 str0" d="M2472.16 2506.78c4.56,0.01 10.45,-0.78 8.26,-5.66 -1.63,-3.63 0.05,-2.86 -3.56,-3.95 -1.46,-0.44 -5.13,-3.14 -5.13,-4.74 -3.41,-1.7 -3.04,-1.47 -6.72,1.18 -3.45,2.49 -2.76,4.36 -3.5,7.7 3.96,1.66 4.43,5.79 10.66,5.47z"/>
   <path class="fil4 str0" d="M2464.22 2556.14c5.25,-4.82 -0.93,23.3 -2.38,27.47 -3.18,9.12 -17.88,33.05 -23.72,40.9 -2.38,3.2 -2.86,5.98 -6.55,10.23 -7.51,8.66 -44.43,28.29 -58.95,32.41 -0.41,0.12 -0.8,0.22 -1.18,0.31 -11.82,2.88 -21.63,7.77 -34.36,7.77 -23.32,0 -19.05,1.57 -37.81,-7.8"/>
  </g>
  <g id="_105828738908000">
   <path class="fil5 str0" d="M2659.23 2713.87c-7.8,5.2 -13.43,-9.13 -13.43,-3.16 -1.34,0 -0.16,1.68 -2.37,4.74 -2.41,3.33 -6.84,16.83 -9.48,22.13 -1.74,0 -5.19,15.44 -6.32,18.18 -0.6,1.46 0.06,2.25 -2.37,7.11 -5.09,10.17 -5.16,22.07 -13.43,31.61 -3.61,4.17 -3.03,6.36 -7.9,12.64 -13.27,17.13 -12.22,17.76 -31.61,30.03 -6.31,3.99 -3.18,3.96 -12.65,8.69 -8.6,4.3 -48.2,19.76 -56.89,19.76 -6.8,0 -20.2,2.37 -25.44,0.2 -0.98,-0.4 -0.42,1.35 -1.04,1.98 7.65,7.65 18.77,17.6 28.05,21.53 25.21,10.69 64.08,-1.57 69.54,-3.16 42.26,-12.31 49.83,-29.76 71.12,-62.82 36.24,-56.27 -15.81,-79.4 14.22,-109.45z"/>
   <path class="fil3 str0" d="M2657.3 2714.8c4.56,0.01 10.45,-0.78 8.26,-5.66 -1.63,-3.63 0.05,-2.86 -3.56,-3.95 -1.46,-0.44 -5.13,-3.14 -5.13,-4.74 -3.41,-1.7 -3.04,-1.47 -6.72,1.18 -3.45,2.49 -2.76,4.36 -3.5,7.7 3.96,1.66 4.43,5.79 10.66,5.47z"/>
   <path class="fil4 str0" d="M2649.36 2764.15c5.25,-4.82 -0.93,23.3 -2.38,27.47 -3.18,9.12 -17.88,33.05 -23.72,40.9 -2.38,3.2 -2.86,5.98 -6.55,10.23 -7.51,8.66 -44.43,28.29 -58.95,32.41 -0.41,0.12 -0.8,0.22 -1.18,0.31 -11.82,2.88 -21.63,7.77 -34.36,7.77 -23.32,0 -19.05,1.57 -37.81,-7.8"/>
  </g>
  <g id="_105828325776288">
   <path class="fil5 str0" d="M2521.28 3153.25c-7.8,5.2 -13.43,-9.13 -13.43,-3.16 -1.34,0 -0.16,1.68 -2.37,4.74 -2.41,3.33 -6.84,16.83 -9.48,22.13 -1.74,0 -5.19,15.44 -6.32,18.18 -0.6,1.46 0.06,2.25 -2.37,7.11 -5.09,10.17 -5.16,22.07 -13.43,31.61 -3.61,4.17 -3.03,6.36 -7.9,12.64 -13.27,17.13 -12.22,17.76 -31.61,30.03 -6.31,3.99 -3.18,3.96 -12.65,8.69 -8.6,4.3 -48.2,19.76 -56.89,19.76 -6.8,0 -20.2,2.37 -25.44,0.2 -0.98,-0.4 -0.42,1.35 -1.04,1.98 7.65,7.65 18.77,17.6 28.05,21.53 25.21,10.69 64.08,-1.57 69.54,-3.16 42.26,-12.31 49.83,-29.76 71.12,-62.82 36.24,-56.27 -15.81,-79.4 14.22,-109.45z"/>
   <path class="fil3 str0" d="M2519.35 3154.17c4.56,0.01 10.45,-0.78 8.26,-5.66 -1.63,-3.63 0.05,-2.86 -3.56,-3.95 -1.46,-0.44 -5.13,-3.14 -5.13,-4.74 -3.41,-1.7 -3.04,-1.47 -6.72,1.18 -3.45,2.49 -2.76,4.36 -3.5,7.7 3.96,1.66 4.43,5.79 10.66,5.47z"/>
   <path class="fil4 str0" d="M2511.41 3203.53c5.25,-4.82 -0.93,23.3 -2.38,27.47 -3.18,9.12 -17.88,33.05 -23.72,40.9 -2.38,3.2 -2.86,5.98 -6.55,10.23 -7.51,8.66 -44.43,28.29 -58.95,32.41 -0.41,0.12 -0.8,0.22 -1.18,0.31 -11.82,2.88 -21.63,7.77 -34.36,7.77 -23.32,0 -19.05,1.57 -37.81,-7.8"/>
  </g>
  <g id="_105828810132576">
   <path class="fil5 str0" d="M802.2 2163.95c-7.8,5.2 -13.43,-9.13 -13.43,-3.16 -1.34,0 -0.16,1.68 -2.37,4.74 -2.41,3.33 -6.84,16.83 -9.48,22.13 -1.74,0 -5.19,15.44 -6.32,18.18 -0.6,1.46 0.06,2.25 -2.37,7.11 -5.09,10.17 -5.16,22.07 -13.43,31.61 -3.61,4.17 -3.03,6.36 -7.9,12.64 -13.27,17.13 -12.22,17.76 -31.61,30.03 -6.31,3.99 -3.18,3.96 -12.65,8.69 -8.6,4.3 -48.2,19.76 -56.89,19.76 -6.8,0 -20.2,2.37 -25.44,0.2 -0.98,-0.4 -0.42,1.35 -1.04,1.98 7.65,7.65 18.77,17.6 28.05,21.53 25.21,10.69 64.08,-1.57 69.54,-3.16 42.26,-12.31 49.83,-29.76 71.12,-62.82 36.24,-56.27 -15.81,-79.4 14.22,-109.45z"/>
   <path class="fil3 str0" d="M800.26 2164.88c4.56,0.01 10.45,-0.78 8.26,-5.66 -1.63,-3.63 0.05,-2.86 -3.56,-3.95 -1.46,-0.44 -5.13,-3.14 -5.13,-4.74 -3.41,-1.7 -3.04,-1.47 -6.72,1.18 -3.45,2.49 -2.76,4.36 -3.5,7.7 3.96,1.66 4.43,5.79 10.66,5.47z"/>
   <path class="fil4 str0" d="M792.33 2214.23c5.25,-4.82 -0.93,23.3 -2.38,27.47 -3.18,9.12 -17.88,33.05 -23.72,40.9 -2.38,3.2 -2.86,5.98 -6.55,10.23 -7.51,8.66 -44.43,28.29 -58.95,32.41 -0.41,0.12 -0.8,0.22 -1.18,0.31 -11.82,2.88 -21.63,7.77 -34.36,7.77 -23.32,0 -19.05,1.57 -37.81,-7.8"/>
  </g>
  <g id="_105828701096704">
   <path class="fil5 str0" d="M1730.94 1440.52c-7.8,5.2 -13.43,-9.13 -13.43,-3.16 -1.34,0 -0.16,1.68 -2.37,4.74 -2.41,3.33 -6.84,16.83 -9.48,22.13 -1.74,0 -5.19,15.44 -6.32,18.18 -0.6,1.46 0.06,2.25 -2.37,7.11 -5.09,10.17 -5.16,22.07 -13.43,31.61 -3.61,4.17 -3.03,6.36 -7.9,12.64 -13.27,17.13 -12.22,17.76 -31.61,30.03 -6.31,3.99 -3.18,3.96 -12.65,8.69 -8.6,4.3 -48.2,19.76 -56.89,19.76 -6.8,0 -20.2,2.37 -25.44,0.2 -0.98,-0.4 -0.42,1.35 -1.04,1.98 7.65,7.65 18.77,17.6 28.05,21.53 25.21,10.69 64.08,-1.57 69.54,-3.16 42.26,-12.31 49.83,-29.76 71.12,-62.82 36.24,-56.27 -15.81,-79.4 14.22,-109.45z"/>
   <path class="fil3 str0" d="M1729 1441.45c4.56,0.01 10.45,-0.78 8.26,-5.66 -1.63,-3.63 0.05,-2.86 -3.56,-3.95 -1.46,-0.44 -5.13,-3.14 -5.13,-4.74 -3.41,-1.7 -3.04,-1.47 -6.72,1.18 -3.45,2.49 -2.76,4.36 -3.5,7.7 3.96,1.66 4.43,5.79 10.66,5.47z"/>
   <path class="fil4 str0" d="M1721.06 1490.8c5.25,-4.82 -0.93,23.3 -2.38,27.47 -3.18,9.12 -17.88,33.05 -23.72,40.9 -2.38,3.2 -2.86,5.98 -6.55,10.23 -7.51,8.66 -44.43,28.29 -58.95,32.41 -0.41,0.12 -0.8,0.22 -1.18,0.31 -11.82,2.88 -21.63,7.77 -34.36,7.77 -23.32,0 -19.05,1.57 -37.81,-7.8"/>
  </g>
  <g id="_105828344612704">
   <path class="fil5 str0" d="M810.4 2824.72c-7.8,5.2 -13.43,-9.13 -13.43,-3.16 -1.34,0 -0.16,1.68 -2.37,4.74 -2.41,3.33 -6.84,16.83 -9.48,22.13 -1.74,0 -5.19,15.44 -6.32,18.18 -0.6,1.46 0.06,2.25 -2.37,7.11 -5.09,10.17 -5.16,22.07 -13.43,31.61 -3.61,4.17 -3.03,6.36 -7.9,12.64 -13.27,17.13 -12.22,17.76 -31.61,30.03 -6.31,3.99 -3.18,3.96 -12.65,8.69 -8.6,4.3 -48.2,19.76 -56.89,19.76 -6.8,0 -20.2,2.37 -25.44,0.2 -0.98,-0.4 -0.42,1.35 -1.04,1.98 7.65,7.65 18.77,17.6 28.05,21.53 25.21,10.69 64.08,-1.57 69.54,-3.16 42.26,-12.31 49.83,-29.76 71.12,-62.82 36.24,-56.27 -15.81,-79.4 14.22,-109.45z"/>
   <path class="fil3 str0" d="M808.47 2825.64c4.56,0.01 10.45,-0.78 8.26,-5.66 -1.63,-3.63 0.05,-2.86 -3.56,-3.95 -1.46,-0.44 -5.13,-3.14 -5.13,-4.74 -3.41,-1.7 -3.04,-1.47 -6.72,1.18 -3.45,2.49 -2.76,4.36 -3.5,7.7 3.96,1.66 4.43,5.79 10.66,5.47z"/>
   <path class="fil4 str0" d="M800.53 2875c5.25,-4.82 -0.93,23.3 -2.38,27.47 -3.18,9.12 -17.88,33.05 -23.72,40.9 -2.38,3.2 -2.86,5.98 -6.55,10.23 -7.51,8.66 -44.43,28.29 -58.95,32.41 -0.41,0.12 -0.8,0.22 -1.18,0.31 -11.82,2.88 -21.63,7.77 -34.36,7.77 -23.32,0 -19.05,1.57 -37.81,-7.8"/>
  </g>
  <g id="_105828579435456">
   <path class="fil5 str0" d="M1809.37 2000.76c-7.8,5.2 -13.43,-9.13 -13.43,-3.16 -1.34,0 -0.16,1.68 -2.37,4.74 -2.41,3.33 -6.84,16.83 -9.48,22.13 -1.74,0 -5.19,15.44 -6.32,18.18 -0.6,1.46 0.06,2.25 -2.37,7.11 -5.09,10.17 -5.16,22.07 -13.43,31.61 -3.61,4.17 -3.03,6.36 -7.9,12.64 -13.27,17.13 -12.22,17.76 -31.61,30.03 -6.31,3.99 -3.18,3.96 -12.65,8.69 -8.6,4.3 -48.2,19.76 -56.89,19.76 -6.8,0 -20.2,2.37 -25.44,0.2 -0.98,-0.4 -0.42,1.35 -1.04,1.98 7.65,7.65 18.77,17.6 28.05,21.53 25.21,10.69 64.08,-1.57 69.54,-3.16 42.26,-12.31 49.83,-29.76 71.12,-62.82 36.24,-56.27 -15.81,-79.4 14.22,-109.45z"/>
   <path class="fil3 str0" d="M1807.44 2001.69c4.56,0.01 10.45,-0.78 8.26,-5.66 -1.63,-3.63 0.05,-2.86 -3.56,-3.95 -1.46,-0.44 -5.13,-3.14 -5.13,-4.74 -3.41,-1.7 -3.04,-1.47 -6.72,1.18 -3.45,2.49 -2.76,4.36 -3.5,7.7 3.96,1.66 4.43,5.79 10.66,5.47z"/>
   <path class="fil4 str0" d="M1799.5 2051.04c5.25,-4.82 -0.93,23.3 -2.38,27.47 -3.18,9.12 -17.88,33.05 -23.72,40.9 -2.38,3.2 -2.86,5.98 -6.55,10.23 -7.51,8.66 -44.43,28.29 -58.95,32.41 -0.41,0.12 -0.8,0.22 -1.18,0.31 -11.82,2.88 -21.63,7.77 -34.36,7.77 -23.32,0 -19.05,1.57 -37.81,-7.8"/>
  </g>
  <g id="_105828485103872">
   <path class="fil5 str0" d="M1591.16 2586.39c-7.8,5.2 -13.43,-9.13 -13.43,-3.16 -1.34,0 -0.16,1.68 -2.37,4.74 -2.41,3.33 -6.84,16.83 -9.48,22.13 -1.74,0 -5.19,15.44 -6.32,18.18 -0.6,1.46 0.06,2.25 -2.37,7.11 -5.09,10.17 -5.16,22.07 -13.43,31.61 -3.61,4.17 -3.03,6.36 -7.9,12.64 -13.27,17.13 -12.22,17.76 -31.61,30.03 -6.31,3.99 -3.18,3.96 -12.65,8.69 -8.6,4.3 -48.2,19.76 -56.89,19.76 -6.8,0 -20.2,2.37 -25.44,0.2 -0.98,-0.4 -0.42,1.35 -1.04,1.98 7.65,7.65 18.77,17.6 28.05,21.53 25.21,10.69 64.08,-1.57 69.54,-3.16 42.26,-12.31 49.83,-29.76 71.12,-62.82 36.24,-56.27 -15.81,-79.4 14.22,-109.45z"/>
   <path class="fil3 str0" d="M1589.23 2587.32c4.56,0.01 10.45,-0.78 8.26,-5.66 -1.63,-3.63 0.05,-2.86 -3.56,-3.95 -1.46,-0.44 -5.13,-3.14 -5.13,-4.74 -3.41,-1.7 -3.04,-1.47 -6.72,1.18 -3.45,2.49 -2.76,4.36 -3.5,7.7 3.96,1.66 4.43,5.79 10.66,5.47z"/>
   <path class="fil4 str0" d="M1581.29 2636.67c5.25,-4.82 -0.93,23.3 -2.38,27.47 -3.18,9.12 -17.88,33.05 -23.72,40.9 -2.38,3.2 -2.86,5.98 -6.55,10.23 -7.51,8.66 -44.43,28.29 -58.95,32.41 -0.41,0.12 -0.8,0.22 -1.18,0.31 -11.82,2.88 -21.63,7.77 -34.36,7.77 -23.32,0 -19.05,1.57 -37.81,-7.8"/>
  </g>
  <g id="_105828579469440">
   <path class="fil5 str0" d="M1759.24 3113.02c-7.8,5.2 -13.43,-9.13 -13.43,-3.16 -1.34,0 -0.16,1.68 -2.37,4.74 -2.41,3.33 -6.84,16.83 -9.48,22.13 -1.74,0 -5.19,15.44 -6.32,18.18 -0.6,1.46 0.06,2.25 -2.37,7.11 -5.09,10.17 -5.16,22.07 -13.43,31.61 -3.61,4.17 -3.03,6.36 -7.9,12.64 -13.27,17.13 -12.22,17.76 -31.61,30.03 -6.31,3.99 -3.18,3.96 -12.65,8.69 -8.6,4.3 -48.2,19.76 -56.89,19.76 -6.8,0 -20.2,2.37 -25.44,0.2 -0.98,-0.4 -0.42,1.35 -1.04,1.98 7.65,7.65 18.77,17.6 28.05,21.53 25.21,10.69 64.08,-1.57 69.54,-3.16 42.26,-12.31 49.83,-29.76 71.12,-62.82 36.24,-56.27 -15.81,-79.4 14.22,-109.45z"/>
   <path class="fil3 str0" d="M1757.3 3113.95c4.56,0.01 10.45,-0.78 8.26,-5.66 -1.63,-3.63 0.05,-2.86 -3.56,-3.95 -1.46,-0.44 -5.13,-3.14 -5.13,-4.74 -3.41,-1.7 -3.04,-1.47 -6.72,1.18 -3.45,2.49 -2.76,4.36 -3.5,7.7 3.96,1.66 4.43,5.79 10.66,5.47z"/>
   <path class="fil4 str0" d="M1749.36 3163.3c5.25,-4.82 -0.93,23.3 -2.38,27.47 -3.18,9.12 -17.88,33.05 -23.72,40.9 -2.38,3.2 -2.86,5.98 -6.55,10.23 -7.51,8.66 -44.43,28.29 -58.95,32.41 -0.41,0.12 -0.8,0.22 -1.18,0.31 -11.82,2.88 -21.63,7.77 -34.36,7.77 -23.32,0 -19.05,1.57 -37.81,-7.8"/>
  </g>
  <g id="_105828461999072">
   <path class="fil5 str0" d="M1686.39 3702.08c-7.8,5.2 -13.43,-9.13 -13.43,-3.16 -1.34,0 -0.16,1.68 -2.37,4.74 -2.41,3.33 -6.84,16.83 -9.48,22.13 -1.74,0 -5.19,15.44 -6.32,18.18 -0.6,1.46 0.06,2.25 -2.37,7.11 -5.09,10.17 -5.16,22.07 -13.43,31.61 -3.61,4.17 -3.03,6.36 -7.9,12.64 -13.27,17.13 -12.22,17.76 -31.61,30.03 -6.31,3.99 -3.18,3.96 -12.65,8.69 -8.6,4.3 -48.2,19.76 -56.89,19.76 -6.8,0 -20.2,2.37 -25.44,0.2 -0.98,-0.4 -0.42,1.35 -1.04,1.98 7.65,7.65 18.77,17.6 28.05,21.53 25.21,10.69 64.08,-1.57 69.54,-3.16 42.26,-12.31 49.83,-29.76 71.12,-62.82 36.24,-56.27 -15.81,-79.4 14.22,-109.45z"/>
   <path class="fil3 str0" d="M1684.45 3703.01c4.56,0.01 10.45,-0.78 8.26,-5.66 -1.63,-3.63 0.05,-2.86 -3.56,-3.95 -1.46,-0.44 -5.13,-3.14 -5.13,-4.74 -3.41,-1.7 -3.04,-1.47 -6.72,1.18 -3.45,2.49 -2.76,4.36 -3.5,7.7 3.96,1.66 4.43,5.79 10.66,5.47z"/>
   <path class="fil4 str0" d="M1676.51 3752.36c5.25,-4.82 -0.93,23.3 -2.38,27.47 -3.18,9.12 -17.88,33.05 -23.72,40.9 -2.38,3.2 -2.86,5.98 -6.55,10.23 -7.51,8.66 -44.43,28.29 -58.95,32.41 -0.41,0.12 -0.8,0.22 -1.18,0.31 -11.82,2.88 -21.63,7.77 -34.36,7.77 -23.32,0 -19.05,1.57 -37.81,-7.8"/>
  </g>
  <rect class="fil4" x="0" y="22.04" width="4446.66" height="6288.85"/>
 </g>
</svg>
