<svg xmlns="http://www.w3.org/2000/svg" xml:space="preserve" width="149.7mm" height="202.565mm" version="1.0" style="shape-rendering:geometricPrecision; text-rendering:geometricPrecision; image-rendering:optimizeQuality; fill-rule:evenodd; clip-rule:evenodd"
viewBox="0 0 761.87 1030.92" xmlns:xlink="http://www.w3.org/1999/xlink">
 <defs>
  <style type="text/css">
   <![CDATA[
    .str0 {stroke:black;stroke-width:0.4;stroke-miterlimit:2}
    .fil0 {fill:#E6E6E6}
   ]]>
  </style>
 </defs>
 <g id="cinema_hall_walls">
  <rect class="fil0 str0" x="732.62" y="43.61" width="7.63" height="230.74"/>
  <path class="fil0 str0" d="M313.99 0.19l7.63 0 440.05 0 0 7.63 -21.91 0 0 2.63 -7.81 0 0 -2.63 -336.28 0 0 26.17 0 4.58 -4.58 0 -69.48 0 0 240.16 70.29 0 4.58 0 0 4.58 0 26.81 336.13 0 0 -2.63 7.63 0 0 12.89 -7.63 0 0 -2.63 -336.13 0 0 28.34 0 4.58 -4.58 0 -70.29 0 0 238.42 69.98 0 4.58 0 0 4.58 0 27.21 336.42 0 0 -2.64 7.63 0c0,4.28 0,8.62 0,12.89l-7.63 0 0 -2.62 -336.42 0 0 27.94 0 4.58 -4.58 0 -69.98 0 0 238.79 70.11 0 4.39 0 0.19 0 0 31 336.31 0 0 -2.71 7.63 0 0 10.34 -6.56 0 -1.07 0 -202.83 0 0 92.27 -4.42 0 0 -92.27 -203.75 0 -7.63 0 0 -7.63 0 -26.42 0 -4.58 0 -271.3 -94.9 0 0 -7.63 94.9 0 0 -152.84 -89.83 0 -2.06 0 -1.67 0 0 -48.59 3.74 0 0 45.01 89.83 0 0 -83.7 -89.83 0 0 13.13 -3.74 0 0 -20.7 3.74 0 0 3.99 89.83 0 0 -35.32 -89.83 0 0 5.3 -3.82 0 0 -317.9 0 -21.22 0 -7.63 26.7 0 0 7.63 -22.88 0 0 51.32 54.49 0 0 -51.32 -5.58 0 0 -7.63 5.58 0 3.62 0 0.19 0 0 97.93 -3.82 0 0 -31.34 -54.49 0 0 61.41 7.6 0 0 3.82 -7.6 0 0 68.41 54.74 0 0 -68.41 -21.59 0 0 -3.82 21.59 0 0 -4.52 3.31 0 0 76.74 3.3 0 0 3.58 -6.61 0 -54.74 0 0 46.47 60.74 0 0 3.58 -60.74 0 0 84.03 89.83 0 0 -84.03 -2.9 0 0 -3.58 2.9 0 0 -46.47 -2.73 0 0 -3.58 2.73 0 0 -192.8 0 -7.63zm-132.74 7.84l-181.06 0 0 -7.63 181.06 -0 0 7.63zm209.85 -0.21l-69.48 0 0 26.17 69.48 0 0 -26.17zm-69.48 275.5l0 26.81 70.29 0 0 -26.81 -70.29 0zm70.29 34.44l-70.29 0 0 28.34 70.29 0 0 -28.34zm-70.29 586.64l0 26.42 70.11 0 0 -26.42 -70.11 0zm0 -310.72l0 27.21 69.98 0 0 -27.21 -69.98 0zm0 34.84l0 27.94 69.98 0 0 -27.94 -69.98 0zm-140.37 -318.2l-180.66 -0.19 0 7.63 180.66 0.19 0 -7.63z"/>
  <rect class="fil0 str0" x="732.62" y="353.55" width="7.63" height="231.54"/>
  <rect class="fil0 str0" x="732.62" y="664.29" width="7.63" height="230.67"/>
 </g>
</svg>
