<svg xmlns="http://www.w3.org/2000/svg" xml:space="preserve" width="511.911mm" height="1726.74mm" version="1.0" style="shape-rendering:geometricPrecision; text-rendering:geometricPrecision; image-rendering:optimizeQuality; fill-rule:evenodd; clip-rule:evenodd"
viewBox="0 0 14047.07 47382.66"
 xmlns:xlink="http://www.w3.org/1999/xlink">
 <defs>
  <style type="text/css">
   <![CDATA[
    .str0 {stroke:#373535;stroke-width:4;stroke-miterlimit:2}
    .fil1 {fill:none}
    .fil3 {fill:white}
    .fil2 {fill:#373535}
    .fil0 {fill:#FCD4C3}
    .fil6 {fill:#D3AE6E}
    .fil5 {fill:#F9AC93}
    .fil4 {fill:#F5886C}
   ]]>
  </style>
 </defs>
 <g id="woman_0">
  <path class="fil0 str0" d="M5603.63 7162.87l-109.87 -1072.16c0,-88.22 1409.06,-343.19 1598.93,-343.19 15.47,0 1403.64,125.91 1403.64,202.97l-154.52 1318.61 173.67 520.67c198.42,300.79 560.45,552.31 648.23,588.66 246.54,102.11 1371.68,577.97 2043.68,881.53 647.31,292.4 1144.62,1022.74 1281.2,2379.22 -13.74,256.31 380.28,5367.49 455.96,5550.21 628.23,1516.74 298.36,3731.03 314.96,5482.55 25.62,2702.75 24.37,2550.87 24.37,2574.73 194.62,601.12 1629.32,1684.69 -28.63,3098.7 -171.45,146.22 -818.58,222.84 -634.27,-249.93 221.71,-290.13 359.91,-1097.73 283.15,-1423.01 -13.29,-56.32 -56.45,-361.98 -116.16,-217.81 -28.56,68.96 -203.29,322.87 -203.29,392.06 -27.59,0 -72.6,171.53 -72.6,217.81 0,148.85 -24,394.7 29.04,522.74 0.27,0.64 0,154.7 0,174.25 -36.5,0 -31.25,74.85 -87.12,29.04 -325.42,-266.8 -348.49,-569.24 -348.49,-1030.96 0,-269.71 40.22,-829.74 87.12,-1103.56 23.12,-134.97 44.41,-294.45 14.52,-421.1 -269.31,-1141.08 55.06,-1799.58 -522.74,-3194.52 -0.59,-1.42 -359.38,-2355.08 -348.49,-2381.37 89.74,-216.67 116.16,-935.91 116.16,-1219.73 0,-100.43 -346.57,-1124.79 -377.54,-1234.25 -423.6,-1497.21 -320.97,-1508.28 -320.97,-2458.46 0,-972.31 291.93,-1810.78 291.93,-2754.43 0,455.89 -1122.93,4069.93 -913.67,6117.23 161.03,1575.42 1276.69,2963.35 1436.41,5891.29 251.29,4606.34 458.15,3427.32 -1074.52,9598.1 -129.93,523.11 -152.54,980.62 -29.04,1452.06 516.9,1973.21 260.19,3724.3 -573.58,8015.37 -44.2,227.45 -145.21,772.64 -145.21,1016.44 0,78.79 -1.6,1041.62 0,1045.48 60.84,146.89 43.56,468.1 43.56,682.47 0,65.43 415.67,752.78 421.1,755.07 542.42,228.9 165.61,929.57 -275.89,798.63 -1.76,1.27 -1484.65,0 -1640.83,0 -537.26,-415.66 -225.85,-966.52 -217.81,-987.4 0,-60.3 152.67,-587.89 -14.52,-755.07 -727.5,-727.46 29.04,-1587.08 29.04,-1727.95 0,-1250.24 -135.25,-2541.13 -203.29,-3789.87 -117.81,-2162.1 -578.75,-1606.88 -127.6,-3606.44 267.4,-1185.15 -376.15,-758.99 25.96,-2884.26 -447.41,-3508.69 -596.33,-5830.47 -733.29,-7674.12 -3.28,-44.13 -15.63,-98.9 -33.1,-160.37 -12.82,48.64 -21.68,92.26 -24.39,128.65 -136.96,1843.65 -285.88,4165.44 -733.29,7674.12 402.11,2125.27 -241.45,1699.11 25.96,2884.26 451.15,1999.56 -9.79,1444.34 -127.6,3606.44 -68.04,1248.74 -203.29,2539.63 -203.29,3789.87 0,140.87 756.54,1000.49 29.04,1727.95 -167.19,167.18 -14.52,694.77 -14.52,755.07 8.04,20.88 319.45,571.74 -217.81,987.4 -156.17,0 -1639.07,1.27 -1640.83,0 -441.5,130.94 -818.31,-569.73 -275.89,-798.63 5.44,-2.29 421.1,-689.63 421.1,-755.07 0,-214.37 -17.28,-535.58 43.56,-682.47 1.6,-3.86 0,-966.69 0,-1045.48 0,-243.8 -101.01,-788.98 -145.21,-1016.44 -833.77,-4291.07 -1090.48,-6042.16 -573.58,-8015.37 123.5,-471.44 100.88,-928.95 -29.04,-1452.06 -1532.67,-6170.78 -1325.81,-4991.76 -1074.52,-9598.1 159.73,-2927.94 1275.39,-4315.87 1436.41,-5891.29 209.26,-2047.3 -913.67,-5661.34 -913.67,-6117.23 0,943.64 291.93,1782.11 291.93,2754.43 0,950.18 102.62,961.26 -320.97,2458.46 -30.97,109.46 -377.54,1133.82 -377.54,1234.25 0,283.82 26.42,1003.06 116.16,1219.73 10.89,26.29 -347.91,2379.95 -348.49,2381.37 -577.8,1394.95 -253.43,2053.44 -522.74,3194.52 -29.89,126.65 -8.6,286.12 14.52,421.1 46.9,273.82 87.12,833.85 87.12,1103.56 0,461.72 -23.07,764.17 -348.49,1030.96 -55.88,45.81 -50.62,-29.04 -87.12,-29.04 0,-19.54 -0.27,-173.6 0,-174.25 53.04,-128.04 29.04,-373.89 29.04,-522.74 0,-46.28 -45.02,-217.81 -72.6,-217.81 0,-69.18 -174.72,-323.1 -203.29,-392.06 -59.72,-144.17 -102.87,161.49 -116.16,217.81 -76.76,325.28 61.43,1132.88 283.15,1423.01 184.31,472.77 -462.82,396.15 -634.27,249.93 -1657.95,-1414.01 -223.26,-2497.57 -28.63,-3098.7 0,-23.86 -1.25,128.02 24.37,-2574.73 16.6,-1751.52 -313.27,-3965.81 314.96,-5482.55 75.68,-182.72 469.7,-5293.9 455.96,-5550.21 136.58,-1356.48 633.89,-2086.82 1281.2,-2379.22 672,-303.55 1797.14,-779.42 2043.68,-881.53 87.15,-36.1 546.32,-545.71 745.61,-843.68l-17.83 -239.15 -7.53 -101z"/>
  <path class="fil1 str0" d="M5847.01 14235.64c-230.96,-58.08 -326.53,140.82 -784.11,232.33 -1490.86,298.18 -1976.68,-665.33 -1655.35,-2090.96 139.43,-618.61 -755.07,-752.46 -755.07,-885.76"/>
  <path class="fil1 str0" d="M8163.03 14250.17c230.96,-58.08 326.53,140.82 784.11,232.33 1490.86,298.18 1976.68,-665.33 1655.35,-2090.96 -139.43,-618.61 755.07,-752.46 755.07,-885.76"/>
  <path class="fil1 str0" d="M8054.11 33243.09c52.35,335.67 -108.66,439.1 -72.73,742.29 51.33,433.09 250.63,924.03 363.14,963.88 259.76,92.01 36.3,580.54 123.42,660.69"/>
  <path class="fil1 str0" d="M9978.09 33446.37c8.26,123.93 29.55,266.85 0,392.06 -69.95,296.32 -112.63,541.9 -112.63,874.29 0,303.88 61.81,603.83 61.81,984.34"/>
  <path class="fil0 str0" d="M9257.17 3734.46c21.29,-303.32 152.31,-587.48 212.34,-890.09 151.52,-763.91 149.76,-1443.96 -930.96,-2358.23 -693.96,-587.08 -2337.13,-645.58 -3033.85,-146.02 -796.37,571.01 -1351.99,1823.65 -834.63,3078.23 39.4,95.54 80.47,254.32 150.36,324.2l-166.84 -121.73c-175.75,-58.59 -158.41,497.79 -133.54,557.82 52.02,125.59 237.21,631.32 253.92,767.14 15.61,126.8 85.11,252.13 174.35,252.13 0,-1.79 71.44,-280.85 117.53,-188.68 48.19,623.37 383.27,1291.85 546.19,1454.77 213.38,213.36 797.05,757.85 1075.79,844.8 209.02,65.2 309.65,51.68 532.58,-33.07 452.29,-171.96 937.42,-639.85 1160.38,-1059.67 137.46,-258.83 284.01,-756.37 352.56,-1149.08 10.73,-61.46 55.67,248.66 145.17,206.02 221.43,-105.49 489.36,-658.31 489.36,-916.7 0,-3.01 102.73,-429.12 114.22,-456.86 0.12,-0.29 12.69,-70.95 12.69,-76.14 -65.17,0 0.4,-38.07 -76.14,-38.07 0,-13.29 -146.59,-35.87 -161.48,-50.76z"/>
  <path class="fil2 str0" d="M6446.62 3475.51c-114.81,-114.82 -80.96,-41.36 -193.97,-88.17l-35.27 0c0,-48.06 -215.84,-158.7 -317.41,-158.7 -190.06,0 -327.59,1.2 -357.7,1.2 0,64.4 -203.13,95.23 -203.13,199.68 -35.3,0 -6.97,111.55 -91.62,116.53 76.34,-4.49 218.33,-262.7 391.41,-273.81 176.77,-11.34 344.38,-0.84 442.17,36.38 168.02,63.95 215.34,175.73 365.53,166.9z"/>
  <path class="fil3 str0" d="M7411.74 3876.02c-42.72,-32.03 305.03,216.5 305.83,217.3 24.45,24.45 98.49,48.29 144.86,48.29 408.85,0 477.52,-120.11 579.46,-177.06 56.95,-31.81 314.75,-37.25 48.29,-80.48 -259.49,-42.1 -151.16,-193.15 -402.4,-193.15 -147.1,0 -280.57,-23.64 -410.45,32.19 -66.15,28.43 -191.97,208.12 -265.59,152.91z"/>
  <path class="fil3 str0" d="M6188.44 4093.31c-44.13,44.14 -214.85,52.85 -296.37,51.91 -226.52,-2.63 -350.69,-205.01 -509.06,-205.01 274.35,-87.12 208.88,-202 509.06,-205.63 150.69,-1.82 305.16,-17.82 344.66,149.48 13.82,58.56 47.99,72.88 153.26,92.15 -112.99,27.24 -154.33,69.87 -201.55,117.1z"/>
  <path class="fil4 str0" d="M6341.35 5863.88c117.04,0 230.17,-107.79 502.52,-107.66 29.97,0.01 117.18,34.79 117.18,91.57 0,-72.01 18.48,-95.59 131.63,-100.27 134.01,-5.55 410.57,132.46 415.64,132.46 0,20.95 57.86,16.09 -80.48,16.09 -379.74,0 -1133.06,-32.19 -1086.49,-32.19z"/>
  <path class="fil5 str0" d="M6341.35 5863.88c77.01,249.54 908.93,389.48 1174.26,32.57l-1174.26 -32.57z"/>
  <path class="fil1 str0" d="M7440.59 4781.13c4.68,13.24 128.37,339.9 -72.7,398.86 -96.2,28.21 -47.97,-47.4 -170.52,29.07 -133.3,83.17 -359.98,52.78 -445.15,9.32 -16.85,-8.6 -64.56,-33.11 -80.29,-33.11 -284.17,0 -161.9,-345.78 -106.2,-424.7"/>
  <path class="fil2 str0" d="M7211.89 5094.96c-22.63,-31.4 -41.27,-54.45 -83.5,-54.45 -82.55,0 -44.16,89.37 -14.52,101.64 35.34,14.64 57.08,-2.75 79.86,32.67 29.49,45.84 34.14,-5.36 74.59,-3.14 -2.3,-29.67 -39.44,-53.15 -56.43,-76.73z"/>
  <path class="fil2 str0" d="M6728.36 5109.87c22.63,-31.4 41.27,-54.45 83.5,-54.45 82.55,0 44.16,89.37 14.52,101.64 -35.34,14.64 -57.08,-2.75 -79.86,32.67 -29.49,45.84 -34.14,-5.36 -74.59,-3.14 2.3,-29.67 39.44,-53.15 56.43,-76.73z"/>
  <path class="fil6 str0" d="M5476.21 2526.2c0,-6.41 2024.61,144.93 2453.98,43.56 338.64,-79.95 629.62,74.69 842.19,333.97 185.21,225.9 150.82,921.5 484.79,830.72 4.87,0 212.19,58.04 212.19,69.55 0,412.18 -554.64,2051.42 -736.01,1262.97 -75.65,353.53 -226.89,762.61 -253.58,927.15 -9.4,57.94 -60.71,512.52 -60.71,615.66 0,28.57 197.86,37.03 295.24,-3.31 581.42,-116.3 457.64,-1249.28 682.47,-1698.91 40.27,-80.53 167.95,-521.25 174.25,-609.86 93.38,-1313.74 457.54,-3198.48 -1279.26,-3978.45 -869.61,-390.53 -1918.85,-350.23 -2786.5,-29.24 -811.05,300.05 -1459.97,2115.3 -1248.77,2947.68 60.73,239.36 182.54,989.44 261.37,1147.13 0.39,0.77 551.78,2184.37 551.78,2279.73 110.15,0 479.06,-36.33 479.06,-37.77 0,-161.28 -456.55,-2021.35 -560.36,-1554.78 -29.33,131.83 -141.76,200.46 -214.36,-126.24 -27.2,-122.41 -81.23,-355.88 -168.36,-541.71 -2.49,-5.31 -77.03,-189.27 -85.57,-225.44 -26.04,-110.33 -5.02,-618.83 133.54,-557.82 106.69,46.98 310.13,452.54 347.07,626.07 0,-20.27 10.89,-534.82 10.89,-609.86 0,-367.55 96.38,-988.06 464.66,-1110.83z"/>
  <ellipse class="fil2 str0" cx="7951.68" cy="3899.99" rx="163.64" ry="205.32"/>
  <ellipse class="fil2 str0" cx="5940.87" cy="3940.14" rx="163.64" ry="205.32"/>
  <path class="fil2 str0" d="M7399.11 3399.64c114.81,-114.82 80.96,-41.36 193.97,-88.17l35.27 0c0,-48.06 215.84,-158.7 317.41,-158.7 190.06,0 327.59,1.2 357.7,1.2 0,64.4 203.13,95.23 203.13,199.68 35.3,0 6.97,111.55 91.62,116.53 -76.34,-4.49 -218.33,-262.7 -391.41,-273.81 -176.77,-11.34 -344.38,-0.84 -442.17,36.38 -168.02,63.95 -215.34,175.73 -365.53,166.9z"/>
  <path class="fil1 str0" d="M5881.7 33152.13c-52.35,335.67 108.66,439.1 72.73,742.29 -51.33,433.09 -250.63,924.03 -363.14,963.88 -259.76,92.01 -36.3,580.54 -123.42,660.69"/>
  <path class="fil1 str0" d="M3957.72 33355.42c-8.26,123.93 -29.55,266.85 0,392.06 69.95,296.32 112.63,541.9 112.63,874.29 0,303.88 -61.81,603.83 -61.81,984.34"/>
 </g>
</svg>
